<?xml version="1.0" encoding="UTF-8"?>
<svg id="BORGIR" xmlns="http://www.w3.org/2000/svg" viewBox="0 0 150.97 134.44">
  <defs>
    <style>
      .cls-1 {
        fill: #da2727;
      }

      .cls-1, .cls-2, .cls-3, .cls-4, .cls-5, .cls-6, .cls-7, .cls-8, .cls-9, .cls-10 {
        stroke-width: 0px;
      }

      .cls-2 {
        fill: #b27833;
      }

      .cls-3 {
        fill: #60bd3b;
      }

      .cls-4 {
        fill: #1a1411;
      }

      .cls-5 {
        fill: #5a281a;
      }

      .cls-6 {
        fill: #f3e04b;
      }

      .cls-7 {
        fill: #b77a35;
      }

      .cls-8 {
        fill: #918e23;
      }

      .cls-9 {
        fill: #120d08;
      }

      .cls-10 {
        fill: #544a34;
      }
    </style>
  </defs>
  <path class="cls-9" d="m17.15,70.16c-4.12-3.36-4.98-5.83-2.79-10.22,1.6-3.21,3.83-6.11,5.94-9.39-1.3-.65-2.73-1.33-4.13-2.06-10.14-5.25-12.84-15.65-5.75-24.57,3.08-3.87,7.27-7.14,11.53-9.74,10.65-6.49,22.48-10.05,34.72-12.16,15.16-2.62,30.35-2.99,45.43.52,11.11,2.59,21.27,7.27,29.88,14.91,1.89,1.68,3.75,3.46,5.31,5.44,7.11,9.02,6.38,19.35-1.8,27.42-.76.75-1.56,1.45-2.84,2.63,1.4.68,2.43,1.15,3.43,1.67,5.18,2.66,6.72,6.73,4.64,12.22q-1.8,4.74-1.2,10.08c1.62.39,3.37.75,5.08,1.23,2.63.74,5.45,1.39,6.1,4.65.71,3.58.18,6.99-2.74,9.45-1.92,1.62-4.19,2.84-6.33,4.2-1.49.95-3.03,1.82-4.56,2.73,4.14,5.7,4.22,8.89-.65,13.94-6.64,6.87-14.86,11.38-23.78,14.83-21.62,8.37-43.69,7.44-65.99,3.82-7.59-1.23-14.84-3.34-21.66-6.88-1.93-1-3.89-1.99-5.66-3.23-6.66-4.69-7.77-9.44-3.95-16.77-2.88-1.08-5.91-1.87-8.56-3.32-2.14-1.17-4.27-2.85-5.61-4.84-2.18-3.24-1.33-5.9,1.93-8.16,2.06-1.42,4.06-3.33,6.36-3.89,2.83-.7,3.49-2.51,4.17-4.69.66.33,1.33.66,1.99.99,1.47.29,2.99.96,4.42.8,20.79-2.31,41.31-.39,61.68,3.87,9.07,1.9,12.77.34,18.42-8.25-4.96,2.54-8.14.83-10.54-3.06-1.45-2.36-3.29-2.48-5.51-.97-1.94,1.33-3.91,2.67-6.02,3.7-3.44,1.67-6.06,1.43-8.21-1.62-2.84-4.03-5.99-4.05-9.86-2.19-.98.47-2.02.8-3.06,1.14-6.48,2.11-8.17,1.42-11.24-4.58-.32-.62-.71-1.2-1.06-1.79-4,1.12-7.81,2.18-11.61,3.25-4.28.32-8.57.63-12.85.95,0,0-.19.15-.19.15-.95-.74-1.91-1.48-2.86-2.22Zm60.58-12.8c13.74.12,26.39-1.05,38.86-3.59,4.73-.96,9.52-2.56,13.75-4.85,6.72-3.64,8.81-11.51,5.41-18.39-1.1-2.23-2.7-4.31-4.42-6.13-6.38-6.75-14.3-11.1-23.02-14.01-18.97-6.32-38.21-6.03-57.5-1.87-11.07,2.39-21.6,6.24-30.95,12.87-3.18,2.26-5.68,5.03-7.21,8.66-1.55,3.69-1.09,7.15,1.22,10.29,2.42,3.29,5.56,5.67,9.57,6.82,3.48,1,6.98,1.97,10.39,3.17,14.54,5.08,29.48,7.58,43.91,7.03ZM12.89,84.53c-2.43,1.95-4.96,3.92-7.43,5.98-2.55,2.13-2.52,4.91.23,6.7,1.65,1.07,3.54,1.89,5.43,2.45,8.85,2.61,17.68,5.36,26.64,7.54,14.23,3.46,28.6,6.33,42.82,9.81,6.55,1.6,12.44.78,18.36-2.19,9.56-4.8,19.31-9.25,28.86-14.09,5.33-2.7,10.49-5.76,15.59-8.88,4.82-2.95,4.6-7.36-.33-9.87-1.43-.73-2.92-1.33-4.33-1.97-3.06,2.67-5.66,5.55-8.81,7.59-9.65,6.25-20.53,9.13-31.85,9.61-7.74.33-15.59-.18-23.29-1.15-8.1-1.01-16.09-2.92-22.14-9.23-.68-.71-1.88-1.25-2.87-1.3-8.32-.46-16.64-.85-24.96-1.12-3.9-.13-7.8.07-11.92.12Zm121,16.43c-2.03,1.11-3.74,2.13-5.53,3-10.58,5.21-21.16,10.43-31.79,15.54-4.21,2.03-8.7,2.44-13.3,1.54-7.83-1.53-15.72-2.82-23.48-4.65-12.53-2.97-24.98-6.28-37.45-9.49-1.91-.49-3.85-1.62-5.33.72-1.49,2.35-1.91,4.89.03,7.06,1.66,1.86,3.53,3.89,5.74,4.84,5.47,2.36,11.04,4.8,16.83,6.04,18.06,3.88,36.35,4.71,54.69,2.24,9.2-1.24,18.2-3.44,26.67-7.37,5.3-2.46,10.35-5.35,13.91-10.2,2.82-3.85,2.69-4.95-.98-9.28Zm-86.56-34.51c3.01,6.38,3.35,6.55,9.45,4.5,1.2-.4,2.38-.87,3.58-1.28,4.32-1.48,8.21-1.33,11.09,2.86,1.66,2.41,3.8,2.48,6.17,1.1,1.25-.73,2.51-1.45,3.76-2.19,5.43-3.23,6.43-3.1,10.71,1.35,2.94,3.07,3.17,3.11,6.93,1.14.8-.42,1.61-.85,2.33-1.39,3.86-2.87,7.78-3.83,11.79-.29,2.07-1.29,3.9-2.45,5.74-3.59,3.32-2.07,6.62-2.41,10.29-.6,3.8,1.87,5.6,1.27,7.33-1.69,1.84-3.14,1.38-5.82-1.59-8.13-3.07-2.38-6.21-4.29-10.31-1.79-1.65,1-3.74,1.35-5.67,1.8-20.09,4.67-40.4,6.76-60.94,4.08-4.61-.6-7.63.71-10.67,4.14Zm10.8,19.59c-.09.63-.18,1.27-.27,1.9,3.25.96,6.45,2.18,9.76,2.81,4.44.85,8.96,1.37,13.46,1.8,13.7,1.29,27.2.14,40.28-4.23,3.56-1.19,7.02-3.05,10.08-5.23,3.24-2.3,5.78-5.43,5.26-10.01-4.61.41-4.66.52-9.5-1.73-2.05-.95-3.85-.87-5.69.13-1.59.87-3.1,1.87-4.61,2.87-2.32,1.54-4.6,2.05-6.98.07-2.02-1.69-3.59-1.28-4.68,1.16-.51,1.15-1.13,2.27-1.82,3.34-7.45,11.49-12.3,12.98-24.04,10.23-.18-.04-.35-.1-.53-.13-6.91-1-13.82-1.99-20.74-2.99ZM22.86,51.46c-1.7,2.84-3.7,5.62-5.11,8.67-2.01,4.32-.81,6.4,3.79,7.4.88.19,1.8.34,2.69.28,8.01-.51,15.44-2.87,22.39-6.59-7.76-3.19-15.25-6.27-23.76-9.76Z"/>
  <path class="cls-9" d="m15.66,80.98c-.66-.33-1.33-.66-1.99-.99,1.11-2.2,2.05-4.52,3.4-6.56.83-1.26,1.16-2.15.08-3.28.96.74,1.91,1.48,2.87,2.22-1.45,2.87-2.91,5.74-4.36,8.61Z"/>
  <path class="cls-7" d="m77.73,57.36c-14.42.54-29.36-1.95-43.91-7.03-3.42-1.19-6.91-2.16-10.39-3.17-4-1.15-7.15-3.53-9.57-6.82-2.31-3.14-2.76-6.6-1.22-10.29,1.53-3.64,4.02-6.41,7.21-8.66,9.35-6.63,19.87-10.48,30.95-12.87,19.3-4.16,38.54-4.46,57.5,1.87,8.72,2.91,16.64,7.26,23.02,14.01,1.72,1.82,3.32,3.9,4.42,6.13,3.4,6.89,1.3,14.76-5.41,18.39-4.23,2.29-9.02,3.89-13.75,4.85-12.47,2.54-25.12,3.72-38.86,3.59Z"/>
  <path class="cls-5" d="m12.89,84.53c4.12-.05,8.02-.25,11.92-.12,8.32.27,16.64.66,24.96,1.12.99.05,2.19.59,2.87,1.3,6.04,6.32,14.04,8.22,22.14,9.23,7.7.96,15.55,1.48,23.29,1.15,11.32-.49,22.21-3.36,31.85-9.61,3.15-2.04,5.75-4.92,8.81-7.59,1.41.63,2.9,1.24,4.33,1.97,4.93,2.51,5.15,6.92.33,9.87-5.1,3.12-10.26,6.18-15.59,8.88-9.55,4.84-19.29,9.28-28.86,14.09-5.92,2.97-11.81,3.8-18.36,2.19-14.22-3.48-28.59-6.34-42.82-9.81-8.96-2.18-17.79-4.94-26.64-7.54-1.89-.56-3.78-1.38-5.43-2.45-2.75-1.78-2.78-4.56-.23-6.7,2.46-2.06,5-4.03,7.43-5.98Zm108.63,11.79c-4.98.37-23.83,7.42-26.42,10.21,5.44-1.73,10.82-3.63,16.12-5.72,3.48-1.37,6.85-3.01,10.27-4.53.38-.26.76-.52,1.15-.78-.37.27-.74.55-1.11.82Zm-43.7,9.14c-20.52-5.55-41.31-10.34-62.47-13.48,20.59,5.4,41.21,10.64,62.47,13.48Z"/>
  <path class="cls-2" d="m133.89,100.96c3.68,4.32,3.81,5.43.98,9.28-3.55,4.84-8.61,7.73-13.91,10.2-8.47,3.93-17.48,6.13-26.67,7.37-18.34,2.48-36.63,1.64-54.69-2.24-5.78-1.24-11.36-3.68-16.83-6.04-2.21-.95-4.07-2.98-5.74-4.84-1.95-2.18-1.53-4.71-.03-7.06,1.48-2.34,3.42-1.21,5.33-.72,12.47,3.21,24.92,6.52,37.45,9.49,7.76,1.84,15.65,3.12,23.48,4.65,4.6.9,9.09.48,13.3-1.54,10.63-5.11,21.2-10.34,31.79-15.54,1.78-.88,3.5-1.9,5.53-3Z"/>
  <path class="cls-3" d="m47.33,66.45c3.04-3.43,6.07-4.74,10.67-4.14,20.53,2.68,40.85.59,60.94-4.08,1.93-.45,4.03-.8,5.67-1.8,4.1-2.5,7.23-.59,10.31,1.79,2.97,2.3,3.42,4.98,1.59,8.13-1.73,2.96-3.53,3.56-7.33,1.69-3.67-1.81-6.97-1.46-10.29.6-1.84,1.14-3.67,2.3-5.74,3.59-4.01-3.54-7.93-2.58-11.79.29-.72.54-1.53.97-2.33,1.39-3.76,1.97-3.99,1.93-6.93-1.14-4.27-4.45-5.28-4.58-10.71-1.35-1.25.74-2.51,1.46-3.76,2.19-2.37,1.39-4.5,1.32-6.17-1.1-2.88-4.19-6.77-4.33-11.09-2.86-1.2.41-2.38.88-3.58,1.28-6.1,2.05-6.44,1.89-9.45-4.5Z"/>
  <path class="cls-6" d="m15.66,80.98c1.45-2.87,2.91-5.74,4.36-8.61,0,0,.19-.15.19-.15,4.28-.32,8.57-.63,12.85-.95,3.81-1.06,7.61-2.13,11.61-3.25.35.59.74,1.17,1.06,1.79,3.07,5.99,4.76,6.69,11.24,4.58,1.03-.34,2.08-.67,3.06-1.14,3.88-1.86,7.03-1.84,9.86,2.19,2.15,3.05,4.77,3.29,8.21,1.62,2.11-1.02,4.07-2.37,6.02-3.7,2.22-1.51,4.05-1.39,5.51.97,2.4,3.89,5.58,5.61,10.54,3.06-5.65,8.6-9.35,10.15-18.42,8.25-20.37-4.26-40.89-6.18-61.68-3.87-1.42.16-2.94-.51-4.42-.8Z"/>
  <path class="cls-1" d="m58.13,86.04c6.91,1,13.82,1.99,20.74,2.99.18.03.35.08.53.13,11.74,2.75,16.6,1.26,24.04-10.23.69-1.06,1.3-2.18,1.82-3.34,1.09-2.44,2.65-2.84,4.68-1.16,2.38,1.98,4.65,1.47,6.98-.07,1.51-1,3.03-2.01,4.61-2.87,1.83-1,3.64-1.09,5.69-.13,4.83,2.25,4.88,2.14,9.5,1.73.51,4.58-2.02,7.71-5.26,10.01-3.06,2.17-6.52,4.04-10.08,5.23-13.08,4.37-26.58,5.52-40.28,4.23-4.51-.42-9.02-.95-13.46-1.8-3.31-.63-6.51-1.85-9.76-2.81.09-.63.18-1.27.27-1.9Z"/>
  <path class="cls-8" d="m22.86,51.46c8.5,3.5,16,6.58,23.76,9.76-6.95,3.71-14.38,6.08-22.39,6.59-.89.06-1.81-.09-2.69-.28-4.61-1.01-5.81-3.08-3.79-7.4,1.42-3.05,3.41-5.82,5.11-8.67Z"/>
  <path class="cls-10" d="m33.06,71.28c-4.29.32-8.57.63-12.85.95,4.29-.32,8.57-.63,12.85-.95Z"/>
  <path class="cls-4" d="m77.82,105.46c-21.26-2.83-41.88-8.08-62.47-13.48,21.15,3.13,41.95,7.93,62.47,13.48Z"/>
  <path class="cls-4" d="m121.49,96.28c-3.42,1.52-6.79,3.16-10.27,4.53-5.31,2.09-10.68,4-16.12,5.72,2.59-2.79,21.44-9.84,26.42-10.21,0,0-.03-.04-.03-.04Z"/>
  <path class="cls-4" d="m121.52,96.32c.37-.27.74-.55,1.11-.82-.38.26-.76.52-1.15.78,0,0,.03.04.03.04Z"/>
</svg>