<?xml version="1.0" encoding="UTF-8"?>
<svg id="FRIES" xmlns="http://www.w3.org/2000/svg" viewBox="0 0 111.82 147.24">
  <defs>
    <style>
      .cls-1 {
        fill: #efc979;
      }

      .cls-1, .cls-2, .cls-3, .cls-4, .cls-5, .cls-6, .cls-7 {
        stroke-width: 0px;
      }

      .cls-2 {
        fill: #f9f0da;
      }

      .cls-3 {
        fill: #a3c0ce;
      }

      .cls-4 {
        fill: #cf1d34;
      }

      .cls-5 {
        fill: #fff;
      }

      .cls-6 {
        fill: #050404;
      }

      .cls-7 {
        fill: #544a34;
      }
    </style>
  </defs>
  <path class="cls-6" d="m84.32,13.38c.26,2.74.51,5.49.77,8.23-.07.9-.15,1.81-.22,2.71-.02,2.5-.03,5-.05,7.5-1.94,2.26-1.03,4.82-.75,7.3-.38,8.35-.75,16.69-1.16,25.74,1.4-.86,1.99-1.22,2.58-1.58.81-.2,1.62-.4,2.43-.6,2.68-1.55,5.36-3.1,8.04-4.64.95-.22,1.9-.44,2.85-.66,1.91-1.24,3.83-2.48,5.74-3.72.68-.33,1.35-.67,2.03-1,1.08-.76,2.17-1.52,3.25-2.28.61.02,1.21.03,1.82.05.81,12.64-2.25,24.85-4.09,37.19-2.38,15.96-4.91,31.9-7.48,47.83-.6,3.71-1.59,7.36-2.56,11.78-2.42-1.2-4.44-1.91-6.14-3.09-18.88-13.08-50.65-13.23-71.48,1.02-.52-1.32-1.17-2.53-1.47-3.82-4.44-19.06-8.84-38.13-13.22-57.21-1.22-5.3-2.84-10.57-3.38-15.95-.79-7.92-2.84-15.84-.55-23.94.57-2.01-.77-4.54-1.14-6.85-.51-3.23.39-5.16,2.85-6.36,2.83-1.38,4.8-.93,7.53,1.74,1.07,3.07,1.14,6.59,3.92,8.91,1.92,6.79,3.72,13.62,5.82,20.36,1.47,4.75,2.66,5.32,8.19,5.2-2.96-17.96-5.91-35.94-8.85-53.79-4.83-.5-6.29,1.9-6.89,5.29-.36-.03-.73-.03-1.09,0-.73-3.67.5-6.38,3.94-8,3.55-1.66,6.08-.68,7.09,3.07.65,2.43.78,4.99,1.21,7.48.24,1.37.61,2.72.92,4.07.04.77.08,1.53.12,2.3,1.71,11,3.34,22,5.17,32.98.49,2.93,1.58,5.75,2.39,8.62.78.18,1.56.36,2.34.53,3.09.66,6.14,1.84,9.34.92.31-1.92.56-3.51.81-5.1.12-.79.24-1.58.35-2.37.47-5.56.84-11.12,1.44-16.66.6-5.56,1.65-11.07,2.12-16.63.43-5.09-.15-5.45-6.47-5.72-1.18,6.08-2.37,12.27-3.57,18.45-.59-.01-1.18-.03-1.77-.04.88-5.81,1.64-11.64,2.67-17.42.75-4.24.9-4.21,5.63-4.54.79.31,1.59.62,2.38.92.68.15,1.37.29,2.05.44,2.12,2.51,2.37,5.4,1.97,8.55-.69,5.48-1.18,10.98-1.75,16.47l-.92,2.91c-.44,1.31-1.15,2.6-1.27,3.94-.5,5.72-.83,11.46-1.22,17.19,1.8,1.55,3.6,1.56,5.4-.02l.04-.05c.75-.02,1.49-.04,2.24-.06,1.77.24,2.15-.78,2.1-2.26-.09-3.07-.13-6.14-.21-9.21-.26-10.48-.51-20.95-.8-31.43-.07-2.62-.15-5.17,3.03-6.15.44.01.89.03,1.33.04.96-.05,1.92-.09,2.89-.14.51.03,1.01.05,1.52.08,2.84.19,4.17,1.92,4.41,4.55.39,4.3.65,8.61.96,12.92.24,1.88.48,3.75.72,5.63v23.78c3.58-1.17,7.06-2.3,11.14-3.63,0-6.38-.14-12.33.03-18.27.28-9.56.88-19.12,1.1-28.69.11-4.61-.63-5.05-5.38-4.87-.34-.65-.68-1.3-1.02-1.95,2.81-2.04,5.22-1.09,7.48.99.23.33.47.66.7.99ZM7.39,58.1c2.27,4.21,6.59,4.62,10.96,6.49-3.13-9.59-5.99-18.35-8.86-27.11-.23-.69-.54-1.35-.84-2-.81-1.74-2.1-2.35-3.99-1.78-1.74.53-2.23,1.76-1.97,3.36.29,1.79.72,3.55,1.13,5.32,1.21,5.28,2.44,10.56,3.65,15.83-.78-1.5-1.51-3.02-2.36-4.48-.91-1.58-.41-3.97-3.28-5.16.35,3.14.46,5.83,1,8.43.53,2.57,1.62,2.74,4.55,1.11Zm.12,15.44c4.79,21.85,9.58,43.69,14.34,65.35,25.69-13,50.34-12.26,74.35,3.24.16-.28.44-.55.48-.85,1.75-13.83,3.41-27.67,5.22-41.5,1.58-12.03,3.32-24.04,4.99-36.05,1.88-2.48,2.12-5.27,1.65-8.4-4.21,2.42-8.2,4.9-12.35,7.07-12.3,6.42-25.11,11.34-39,13.01-16.71,2.02-31.98-2.55-46.58-10.17-1.68-.87-3.35-1.75-5.97-3.12,1.12,4.46,2,7.94,2.87,11.41ZM57.9,25.59v45.63c3.63-.71,6.91-1.35,10.08-1.97-.25-7.79-.42-15.01-.73-22.22-.26-6.14-.57-12.28-1.05-18.41-.28-3.53-1-4.01-4.46-3.77-1.06.07-2.11.39-3.84.73Z"/>
  <path class="cls-1" d="m45.38,20.71c-4.73.33-4.88.3-5.63,4.54-1.03,5.78-1.79,11.61-2.67,17.42-.55,2.58-1.11,5.16-1.66,7.74-.87-3.44-.76-6.79-.89-10.14-.17-4.32-.52-8.63-.8-12.94.69-7.82-.93-15.75.73-23.56h7.01c.3,2.48.44,4.62.83,6.71.53,2.76,1.26,5.49,1.9,8.23.39.67.79,1.34,1.18,2.01Z"/>
  <path class="cls-6" d="m106.58,52.66c-.68.33-1.35.67-2.03,1-.16-.93-.33-1.86-.49-2.78l-.77-2.68c-.39-1.73-.86-3.44-1.16-5.19-1.81-10.47-3.57-20.95-5.37-31.42-.28-1.61-.65-3.35-2.8-3.36-2.32-.02-3.08,1.59-3.2,3.56-.26,4.14-.42,8.28-.63,12.41-.35.01-.7.03-1.04.07-.35-.09-.7-.19-1.04-.31.35-.66.7-1.33,1.05-1.99-.1-3.98-.34-7.96-.27-11.93.06-3.27,1.28-4.31,4.62-4.82,2.72-.42,4.79.47,5.49,3.15.96,3.66,1.44,7.45,2.39,11.11.52,2,1.26,4.09,2.45,5.75,5.43,7.56,8.87,15.67,7.87,25.21-.61-.02-1.21-.03-1.82-.05-.02-7.36-2.43-13.96-6.28-20.13.29,4.58-.44,9.15,1.16,13.62,1,2.79,1.27,5.85,1.87,8.78Z"/>
  <path class="cls-6" d="m64.18,21.94c-.51-.03-1.01-.05-1.52-.08-.27-1.89-.54-3.77-.82-5.66-.23.02-.46.04-.7.06-.46,1.91-.92,3.82-1.37,5.73-.44-.01-.89-.03-1.33-.04.74-5.67,1.48-11.35,2.21-16.91-5.26-1.72-5.52-1.62-6.99,2.4-.43,1.19-.8,2.4-1.19,3.6-.3-.93-.59-1.87-.89-2.8.13-.71.18-1.45.41-2.12,1.86-5.5,6.46-6.56,10.76-2.48.33.32.54.76.86,1.22.59-.36,1.06-.59,1.48-.91,3.92-2.93,5.56-2.5,6.8,2.09.61,2.24.75,4.6,1.11,6.91-.41,1.21-.82,2.42-1.23,3.62-1.43-3.55-.83-7.79-3.78-11.55-3.7,5.51-4.24,11.09-3.8,16.91Z"/>
  <path class="cls-6" d="m44.2,18.7c-.64-2.74-1.37-5.47-1.9-8.23-.4-2.09-.54-4.23-.83-6.71h-7.01c-1.66,7.81-.04,15.74-.73,23.56-.34.01-.67.05-1.01.1-.15-1.39-.57-2.55-2.31-1.94-1.86.66-3.66,1.46-5.49,2.19-.04-.77-.08-1.53-.13-2.3,2.43-1.15,4.85-2.3,7.37-3.49,0-5.41-.04-10.81.01-16.21.04-4.12,1.03-5.11,5.02-5.41,4.83-.35,7.19.97,7.39,4.93.22,4.48-.23,8.99-.39,13.49Z"/>
  <path class="cls-6" d="m71.77,16.57c.41-1.21.82-2.42,1.23-3.62.62-.02,1.33.14,1.83-.11.54-.28.89-.94,1.32-1.44.34.65.68,1.3,1.02,1.95-.71,2.98-1.49,5.95-2.13,8.94-1.62,7.57-3.18,15.16-4.77,22.74l-.72-5.63c2.27-7.46,4-14.98,2.22-22.83Z"/>
  <path class="cls-6" d="m11.62,18.75c.36-.02.73-.02,1.09,0,.58,7.64,1.16,15.29,1.74,22.93-2.78-2.32-2.85-5.83-3.92-8.91,2.51-.18,1.9-1.92,1.78-3.48-.26-3.51-.46-7.03-.68-10.55Z"/>
  <path class="cls-6" d="m51.58,8.24c.3.93.59,1.87.89,2.8-.88,3.68-1.77,7.35-2.65,11.03-.68-.15-1.37-.29-2.05-.44.69-2.46,1.38-4.93,2.08-7.39.57-2,1.15-4,1.73-6Z"/>
  <path class="cls-6" d="m89.09,21.96c-.35.66-.7,1.33-1.05,1.99-1.06.12-2.11.24-3.17.37.07-.9.15-1.81.22-2.71,1.33.12,2.67.24,4,.35Z"/>
  <path class="cls-7" d="m84.32,13.38c-.23-.33-.47-.66-.7-.99.23.33.47.66.7.99Z"/>
  <path class="cls-4" d="m106.89,63.74c-1.67,12.02-3.41,24.02-4.99,36.05-1.81,13.82-3.47,27.67-5.22,41.5-.04.3-.31.57-.48.85-24.02-15.5-48.66-16.23-74.35-3.24-4.75-21.66-9.54-43.51-14.33-65.35,3.11,1.43,6.11,3.14,9.33,4.22,13.37,4.48,27.17,6.17,41.2,4.98,18.1-1.53,34.3-8.21,48.84-19.01Z"/>
  <path class="cls-5" d="m106.89,63.74c-14.54,10.8-30.74,17.48-48.84,19.01-14.03,1.19-27.83-.51-41.2-4.98-3.22-1.08-6.23-2.79-9.33-4.22-.88-3.47-1.75-6.95-2.87-11.41,2.61,1.37,4.29,2.24,5.97,3.12,14.6,7.62,29.87,12.19,46.58,10.17,13.89-1.68,26.7-6.6,39-13.01,4.15-2.17,8.14-4.64,12.35-7.07.47,3.13.23,5.92-1.65,8.4Z"/>
  <path class="cls-1" d="m70.27,45.03c1.59-7.58,3.15-15.17,4.77-22.74.64-3,1.42-5.96,2.13-8.94,4.75-.18,5.48.26,5.38,4.87-.22,9.57-.83,19.12-1.1,28.69-.17,5.94-.03,11.9-.03,18.27-4.08,1.33-7.56,2.47-11.14,3.63v-23.78Z"/>
  <path class="cls-1" d="m14.44,41.7c-.58-7.64-1.16-15.29-1.74-22.93.6-3.39,2.06-5.79,6.89-5.29,2.94,17.85,5.89,35.83,8.85,53.79-5.53.13-6.72-.45-8.19-5.2-2.09-6.74-3.89-13.57-5.82-20.36Z"/>
  <path class="cls-1" d="m57.9,25.59c1.73-.34,2.78-.66,3.84-.73,3.46-.24,4.18.24,4.46,3.77.48,6.13.79,12.27,1.05,18.41.3,7.21.48,14.42.73,22.22-3.17.62-6.45,1.26-10.08,1.97V25.59Z"/>
  <path class="cls-1" d="m44.97,65.65c-.25,1.59-.51,3.18-.81,5.1-3.2.92-6.25-.26-9.34-.92,1.34-9.04,2.69-18.08,4.03-27.11,1.19-6.18,2.39-12.36,3.57-18.45,6.32.27,6.9.63,6.47,5.72-.47,5.56-1.51,11.08-2.12,16.63-.6,5.54-.97,11.11-1.44,16.66-.12.79-.24,1.58-.35,2.37Z"/>
  <path class="cls-1" d="m49.81,22.08c.88-3.68,1.77-7.35,2.65-11.03.4-1.2.76-2.41,1.2-3.6,1.48-4.03,1.74-4.12,6.99-2.4-.73,5.56-1.47,11.24-2.21,16.91-3.18.98-3.11,3.53-3.03,6.15.29,10.48.54,20.95.8,31.43.08,3.07.12,6.14.21,9.21.04,1.48-.33,2.5-2.1,2.26-1.12-4.71-2.24-9.43-3.36-14.14l.05.1c-.32-3.3-.65-6.59-.97-9.89.57-5.49,1.06-10.99,1.75-16.47.4-3.15.14-6.03-1.97-8.55Z"/>
  <path class="cls-1" d="m90.12,24.2c.2-4.14.37-8.28.63-12.41.12-1.97.88-3.58,3.2-3.56,2.15.02,2.53,1.75,2.8,3.36,1.81,10.47,3.57,20.95,5.37,31.42.3,1.74.77,3.46,1.16,5.19.26.89.51,1.79.77,2.68.16.93.33,1.86.49,2.78-1.91,1.24-3.83,2.48-5.74,3.72-.34-1.51-.82-2.99-.99-4.52-.73-6.58-1.25-13.18-2.08-19.74-.37-2.92-1.43-5.66-5.12-5.89-.17-1.01-.33-2.02-.5-3.03Z"/>
  <path class="cls-1" d="m24.92,27.68c1.83-.74,3.64-1.54,5.49-2.19,1.74-.62,2.16.55,2.31,1.94.51,9.21.87,18.43,1.59,27.63.39,4.93.14,9.66-1.83,14.23-.81-2.87-1.9-5.7-2.39-8.62-1.83-10.97-3.46-21.98-5.17-32.98Z"/>
  <path class="cls-1" d="m95.96,58.04c-2.68,1.55-5.36,3.1-8.04,4.64-.45-1.27-1.3-2.53-1.3-3.8.02-7.59.13-15.19.41-22.77.15-4.09,1.54-6.3,3.4-5.86,2.93.7,2.83,3.45,3.1,5.7.88,7.35,1.62,14.73,2.42,22.09Z"/>
  <path class="cls-1" d="m7.48,58.21c-1.22-5.28-2.45-10.56-3.66-15.84-.4-1.77-.83-3.53-1.13-5.32-.26-1.6.23-2.83,1.97-3.36,1.89-.57,3.18.03,3.99,1.78.31.66.62,1.32.84,2,2.87,8.76,5.73,17.52,8.86,27.11-4.37-1.86-8.69-2.27-10.96-6.49l.08.12Z"/>
  <path class="cls-6" d="m95.96,58.04c-.8-7.36-1.54-14.74-2.42-22.09-.27-2.24-.17-5-3.1-5.7-1.86-.45-3.25,1.76-3.4,5.86-.28,7.59-.4,15.18-.41,22.77,0,1.26.85,2.53,1.3,3.8-.81.2-1.62.4-2.43.6-.47-8.05-.95-16.11-1.42-24.16-.28-2.49-1.19-5.04.75-7.3,1.41-1.45,2.83-2.9,4.24-4.35.52-.08,1.04-.16,1.56-.25,3.69.23,4.75,2.98,5.12,5.89.83,6.56,1.35,13.16,2.08,19.74.17,1.52.65,3.01.99,4.52-.95.22-1.9.44-2.85.67Z"/>
  <path class="cls-1" d="m71.77,16.57c1.79,7.86.05,15.37-2.22,22.83-.31-4.31-.57-8.62-.96-12.92-.24-2.63-1.57-4.37-4.41-4.55-.44-5.82.1-11.41,3.8-16.91,2.95,3.76,2.35,8,3.78,11.55Z"/>
  <path class="cls-6" d="m32.47,69.29c1.97-4.57,2.22-9.3,1.83-14.23-.72-9.19-1.08-18.42-1.59-27.63.33-.06.67-.09,1.01-.1.27,4.31.63,8.62.8,12.94.13,3.35.03,6.7.89,10.14.55-2.58,1.11-5.16,1.66-7.74.59.01,1.18.03,1.77.04-1.34,9.04-2.69,18.08-4.03,27.11-.78-.18-1.56-.36-2.34-.53Z"/>
  <path class="cls-2" d="m106.58,52.66c-.6-2.94-.87-5.99-1.87-8.78-1.59-4.47-.87-9.04-1.16-13.62,3.85,6.17,6.26,12.77,6.28,20.13-1.08.76-2.17,1.52-3.25,2.28Z"/>
  <path class="cls-1" d="m46.64,71.13c.39-5.73.71-11.47,1.22-17.19.12-1.34.83-2.63,1.27-3.94.63,2.32,1.26,4.65,1.89,6.98,0,0-.05-.1-.05-.1.37,4.73.75,9.47,1.12,14.2,0,0-.04.05-.04.05-1.8,0-3.6.01-5.4.02Z"/>
  <path class="cls-3" d="m84.07,39.13c.47,8.05.95,16.11,1.42,24.16-.59.36-1.18.72-2.58,1.58.41-9.05.78-17.39,1.16-25.74Z"/>
  <path class="cls-3" d="m7.39,58.1c-2.93,1.63-4.02,1.46-4.55-1.11-.54-2.6-.65-5.29-1-8.43,2.86,1.19,2.37,3.59,3.28,5.16.84,1.46,1.57,2.98,2.36,4.48,0,0-.08-.11-.08-.11Z"/>
  <path class="cls-6" d="m52.08,71.07c-.37-4.73-.75-9.47-1.12-14.2,1.12,4.71,2.24,9.43,3.36,14.14-.75.02-1.49.04-2.24.06Z"/>
  <path class="cls-3" d="m89.06,27.47c-1.41,1.45-2.83,2.9-4.24,4.35.02-2.5.03-5,.05-7.5,1.06-.12,2.11-.24,3.17-.37.34.12.69.23,1.04.31,0,1.07-.01,2.14-.02,3.21Z"/>
  <path class="cls-6" d="m51.01,56.97c-.63-2.33-1.26-4.65-1.89-6.98.3-.97.61-1.94.92-2.91.32,3.3.65,6.59.97,9.89Z"/>
  <path class="cls-3" d="m59.78,22c.46-1.91.92-3.82,1.37-5.73.23-.02.46-.04.7-.06.27,1.89.54,3.77.82,5.66-.96.05-1.92.09-2.89.14Z"/>
  <path class="cls-6" d="m46.64,71.13c1.8,0,3.6-.01,5.4-.02-1.79,1.58-3.59,1.56-5.4.02Z"/>
  <path class="cls-7" d="m44.97,65.65c.12-.79.24-1.58.35-2.37-.12.79-.24,1.58-.35,2.37Z"/>
  <path class="cls-6" d="m89.06,27.47c0-1.07.01-2.14.02-3.21.35-.03.69-.05,1.04-.07.17,1.01.33,2.02.5,3.03-.52.08-1.04.16-1.56.25Z"/>
  <path class="cls-7" d="m104.06,50.88c-.26-.89-.51-1.79-.77-2.68.26.89.51,1.79.77,2.68Z"/>
</svg>