<?xml version="1.0" encoding="UTF-8"?>
<svg id="FROSTY" xmlns="http://www.w3.org/2000/svg" viewBox="0 0 85.58 152.35">
  <defs>
    <style>
      .cls-1 {
        fill: #f9f0da;
      }

      .cls-1, .cls-2, .cls-3, .cls-4, .cls-5, .cls-6, .cls-7 {
        stroke-width: 0px;
      }

      .cls-2 {
        fill: #ce1d33;
      }

      .cls-3 {
        fill: #b27833;
      }

      .cls-4 {
        fill: #1a1411;
      }

      .cls-5 {
        fill: #050404;
      }

      .cls-6 {
        fill: #302a29;
      }

      .cls-7 {
        fill: #544a34;
      }
    </style>
  </defs>
  <path class="cls-5" d="m82.26,117.66c-.25,3.3-.49,6.61-.74,9.91-1.88,2.83-.95,5.8-.62,8.81.18,1.66-.27,3.4-.44,5.1-10.27,7.31-22.04,9.86-34.32,10.69-12.45.84-24.18-1.19-34.96-9.75-1.16-9.91-2.59-20.68-3.64-31.5-1.52-15.7-2.78-31.42-4.13-47.14-.08-.89.08-1.79.13-2.69.58,0,1.16-.01,1.74-.02.04.56.07,1.11.11,1.67.3,1.26.59,2.53.89,3.79v.04c.04.23.09.46.16.68.15.89.3,1.78.44,2.68.09.66.17,1.33.26,1.99.37,1.59.88,3.16,1.1,4.76,2.66,19.58,5.37,39.16,7.81,58.77.52,4.16,2.17,6.39,6.22,7.7,11.7,3.79,23.64,3.79,35.57,2.29,5.48-.69,10.76-2.98,16.1-4.64,2.59-.81,3.43-2.69,3.47-5.42.16-11.06.46-22.13.86-33.18.34-9.43.73-18.86,1.37-28.27.37-5.41,1.3-10.79,1.98-16.18.09-1.04.18-2.07.28-3.11.25-2.2.51-4.4.76-6.59.69,0,1.39-.02,2.08-.03.3,4.62.83,9.24.83,13.86,0,4.82-.5,9.65-.79,14.47-1.72,2.79-1.44,5.68-.41,8.6-.22,3.67-.45,7.34-.67,11.01-1.7,2.43-1.38,4.96-.38,7.53-.23,2.94-.47,5.88-.7,8.82-1.51,1.69-1.48,3.48-.37,5.36Z"/>
  <path class="cls-5" d="m5.29,61.08c-.58,0-1.16.01-1.74.02-.06-.73-.13-1.46-.19-2.19,0-.74-.01-1.49-.02-2.23-.17-.21-.24-.45-.23-.72,0,0-.18-.39-.18-.39h-.43c-.72-.35-1.45-.71-2.5-1.23,1.23-.87,2.02-1.43,2.77-1.96-2.69-7.31-2.04-9.3,4.44-13.58,1.04-.69,2.21-1.2,3.31-1.79.81.41,1.61.81,2.42,1.22-1.09,1.2-2.13,2.45-3.26,3.6-4.51,4.62-4.62,5.39-1.2,11.55,4.3.29,8.81.82,13.31.85,18.01.15,35.9-.86,53.27-6.25,1.06-.34,2.13-.68,3.19-1.01.2-.27.47-.36.79-.28.57.57,1.13,1.14,1.7,1.7-5.65,4.07-11.89,6.87-18.7,8.18-6.37,1.23-12.79,2.47-19.25,2.96-11.34.86-22.74,1.62-33.91-1.67-1.1-.32-2.3-.31-3.6-.47v3.68Z"/>
  <path class="cls-5" d="m80.74,48.4c-.57-.57-1.13-1.14-1.7-1.7,3.26-4.38,3.55-8.34.11-10.27-4.17-2.34-8.61-4.43-13.59-4.65-.25-.4-.49-.81-.74-1.21.53-.73,1.06-1.46,1.58-2.2,3.02-4.3,2.51-7.69-2.11-10.26-2.46-1.37-5.42-1.81-8.13-2.75-3.19-1.11-6.34-2.32-9.5-3.49.46-.36.93-.71,1.39-1.07,2.66.45,5.34.86,7.99,1.35,2.31.43,4.7.67,6.87,1.48,7.56,2.81,9.75,7.76,6.89,15.86,2.08.45,4.13.84,6.15,1.33,7.2,1.78,9.73,5.84,8.44,13.13-.23,1.29.23,2.71.38,4.06-.69,0-1.38.02-2.08.03-.64.12-1.29.24-1.93.36Z"/>
  <path class="cls-5" d="m18.33,18.71c2.84-1.52,5.69-3.03,8.53-4.55,1.58-.85,3.3-1.53,4.67-2.64,3.92-3.18,3.8-5.82-.18-8.98-.7-.56-1.39-1.12-2.14-1.73,5.67-1.92,10.55-.39,14.33,4.41-.35.46-.69.91-1.04,1.37-1.39-.87-2.77-1.75-4.71-2.97.34,7.81-3.33,11.71-9.41,13.84-3.06,1.07-6.1,2.22-9.15,3.33-.71-.4-1.42-.81-2.13-1.21,0,0,0,0,0,0,.41-.29.81-.58,1.22-.87Z"/>
  <path class="cls-5" d="m17.1,19.57c.71.4,1.42.81,2.13,1.21-1.21,1.07-2.56,2.01-3.61,3.22-3.76,4.32-2.99,9.27,1.8,12.26,1.08.67,2.12,1.41,3.92,2.62-3.51-.28-5.95-.47-8.39-.66-.81-.41-1.61-.81-2.42-1.22.11-1.12.43-2.27.3-3.36-.68-5.96.98-10.82,6.28-14.08Z"/>
  <path class="cls-5" d="m80.47,141.48c.17-1.7.62-3.44.44-5.1-.33-3-1.26-5.98.62-8.81.42,3.63,1.03,7.25,1.15,10.89.03.98-1.43,2.01-2.21,3.02Z"/>
  <path class="cls-5" d="m42.5,6.59c.35-.46.69-.91,1.04-1.37,1.5,1.86,3,3.72,4.49,5.58-.46.36-.93.71-1.39,1.07-1.38-1.76-2.76-3.52-4.15-5.28Z"/>
  <path class="cls-5" d="m84.39,84.95c-1.03-2.92-1.31-5.81.41-8.6-.14,2.87-.27,5.74-.41,8.6Z"/>
  <path class="cls-5" d="m83.33,103.49c-1-2.57-1.31-5.1.38-7.53-.13,2.51-.26,5.02-.38,7.53Z"/>
  <path class="cls-5" d="m82.26,117.66c-1.11-1.87-1.14-3.67.37-5.36-.12,1.79-.25,3.57-.37,5.36Z"/>
  <path class="cls-7" d="m3.34,56.67c0,.74.01,1.49.02,2.23,0-.75-.01-1.49-.02-2.23Z"/>
  <polygon class="cls-7" points="2.5 55.57 2.93 55.57 3.11 55.96 2.68 55.96 2.5 55.57"/>
  <path class="cls-7" d="m18.33,18.71c-.41.29-.81.58-1.22.87.41-.29.81-.58,1.22-.87Z"/>
  <path class="cls-2" d="m80.74,48.4c.64-.12,1.29-.24,1.93-.36-.25,2.2-.51,4.4-.76,6.59-.09,1.03-.18,2.07-.28,3.11-.68,5.39-1.6,10.77-1.98,16.18-.65,9.41-1.04,18.84-1.37,28.27-.4,11.06-.7,22.12-.86,33.18-.04,2.73-.88,4.62-3.47,5.42-5.34,1.66-10.63,3.94-16.1,4.64-11.92,1.51-23.86,1.5-35.57-2.29-4.05-1.31-5.7-3.54-6.22-7.7-2.44-19.61-5.16-39.18-7.81-58.77-.22-1.61-.73-3.18-1.1-4.76-.09-.66-.17-1.33-.26-1.99-.15-.89-.3-1.78-.44-2.67,0,0,.16-.37.16-.37l-.32-.32s-.01-.04-.01-.04c-.3-1.26-.59-2.53-.89-3.79-.04-.56-.07-1.11-.11-1.67,0-1.08,0-2.16,0-3.68,1.3.16,2.5.15,3.6.47,11.17,3.29,22.57,2.53,33.91,1.67,6.46-.49,12.88-1.73,19.25-2.96,6.81-1.31,13.05-4.11,18.7-8.18Z"/>
  <path class="cls-4" d="m5.4,62.75c.3,1.26.59,2.53.89,3.79-.3-1.26-.59-2.53-.89-3.79Z"/>
  <path class="cls-6" d="m81.63,57.74c.09-1.04.18-2.07.28-3.11-.09,1.04-.18,2.07-.28,3.11Z"/>
  <path class="cls-4" d="m6.89,69.94c.09.66.17,1.33.26,1.99-.09-.66-.17-1.33-.26-1.99Z"/>
  <path class="cls-4" d="m6.29,66.58l.32.32s-.16.37-.16.37c-.07-.23-.12-.45-.16-.69Z"/>
  <path class="cls-1" d="m42.5,6.59c1.38,1.76,2.76,3.52,4.15,5.28,3.17,1.17,6.32,2.37,9.5,3.49,2.71.95,5.67,1.38,8.13,2.75,4.62,2.58,5.14,5.97,2.11,10.26-.52.74-1.05,1.47-1.57,2.2-4.65,2.08-9.3,4.15-13.96,6.23,5.37-.39,10.62-1.05,14.69-5.02,4.98.21,9.42,2.3,13.59,4.65,3.44,1.93,3.15,5.89-.11,10.27-.33-.08-.59,0-.79.28-1.06.34-2.13.68-3.19,1.01-17.37,5.39-35.26,6.4-53.27,6.25-4.51-.04-9.02-.56-13.31-.85-3.41-6.15-3.31-6.93,1.2-11.55,1.13-1.16,2.18-2.4,3.26-3.6,2.44.19,4.88.38,8.4.66-1.81-1.21-2.84-1.95-3.92-2.62-4.78-2.99-5.56-7.94-1.8-12.26,1.05-1.21,2.4-2.15,3.61-3.22,3.05-1.11,6.08-2.26,9.14-3.33,6.08-2.13,9.75-6.02,9.41-13.84,1.94,1.22,3.32,2.1,4.71,2.97Z"/>
  <path class="cls-6" d="m75.06,47.99c1.06-.34,2.13-.68,3.19-1.01-1.06.34-2.13.68-3.19,1.01Z"/>
  <path class="cls-3" d="m65.55,31.78c-4.08,3.97-9.33,4.63-14.69,5.02,4.65-2.08,9.31-4.16,13.96-6.23.24.41.49.81.74,1.21Z"/>
</svg>