<svg width="1085" height="165" viewBox="0 0 1085 165" fill="none" xmlns="http://www.w3.org/2000/svg">
<path d="M58.61 64.6601C43.27 66.1401 27.25 67.9601 14.75 77.8501C9.02002 82.3801 4.83002 88.4801 2.72002 95.4801C0.610018 102.48 0.460015 110.28 1.42002 117.62C3.11002 130.61 8.32002 143.8 18.19 152.75C29.92 163.38 46.12 164.68 61.25 164.63C77.8 164.58 94.4 162.05 110.21 157.13C112.15 156.53 114.08 155.88 116 155.21C117.27 154.76 118.12 153.5 117.75 152.13C117.41 150.9 115.95 149.93 114.67 150.38C99.96 155.55 84.56 158.63 68.99 159.41C61.3 159.8 53.51 159.73 45.85 158.89C38.87 158.12 31.9 156.34 25.96 152.47C15.73 145.8 9.83002 134.09 7.29002 122.44C4.52002 109.75 4.99002 94.8102 14.42 84.8902C24.31 74.4902 39.13 71.6901 52.8 70.2301C54.74 70.0201 56.68 69.8301 58.62 69.6501C59.96 69.5201 61.12 68.5901 61.12 67.1501C61.12 65.9001 59.97 64.5201 58.62 64.6501L58.61 64.6601Z" fill="#231F20"/>
<path d="M123.97 74.9599C134.58 87.7399 147.28 98.7299 161.43 107.44C164.18 109.13 166.69 104.81 163.95 103.12C150.15 94.6299 137.85 83.8999 127.5 71.4299C126.64 70.3899 124.86 70.5399 123.96 71.4299C122.93 72.4599 123.1 73.9199 123.96 74.9699L123.97 74.9599Z" fill="#231F20"/>
<path d="M177.33 66.18C166.67 79.36 161.1 96.35 161.89 113.29C162.11 118.08 162.84 122.85 164.06 127.49C164.88 130.6 169.7 129.28 168.88 126.16C164.93 111.14 166.74 94.74 173.72 80.87C175.71 76.92 178.08 73.15 180.87 69.71C181.72 68.66 181.9 67.2 180.87 66.17C179.99 65.29 178.19 65.11 177.33 66.17V66.18Z" fill="#231F20"/>
<path d="M197.24 82.1702C197.01 90.7002 199.94 99.1101 205.15 105.83C210.36 112.55 219.51 120.13 228.1 115.85C236.99 111.42 236.99 99.8301 236.2 91.3601C235.77 86.6901 234.81 81.7701 232.04 77.8601C229.62 74.4501 225.95 71.6301 221.73 70.9901C217.16 70.3001 212.84 72.0501 210.4 76.0501C208.18 79.6901 208.16 84.3402 211.06 87.6002C213.21 90.0102 216.73 86.4602 214.6 84.0602C213.94 83.3202 213.73 82.4802 213.77 81.4402C213.81 80.4602 214.17 79.4502 214.8 78.4502C216.07 76.4102 218.34 75.4301 220.93 75.9001C228.18 77.2101 230.66 85.2202 231.22 91.5702C231.78 97.9202 232.62 107.53 226.05 111.28C222.88 113.09 219.5 111.57 216.7 109.78C213.9 107.99 211.45 105.71 209.36 103.14C204.59 97.2802 202.04 89.7002 202.24 82.1702C202.33 78.9502 197.33 78.9502 197.24 82.1702Z" fill="#231F20"/>
<path d="M252.35 68.0301C254.53 78.2101 257.04 88.9201 264.2 96.8601C270.08 103.37 280.25 107.07 288.8 104.19C293.07 102.75 296.72 99.6801 298.56 95.5201C300.49 91.1601 300.58 86.2301 299.27 81.6701C296.35 71.5001 287.35 65.4801 277.64 62.6101C274.87 61.7901 272.04 61.2001 269.19 60.7501C266 60.2401 262.69 59.6701 259.45 59.9101C256.21 60.1501 253.03 61.1701 250.68 63.5301C248.33 65.8901 247.43 68.7201 247.9 71.8801C248.1 73.2201 249.79 73.9501 250.98 73.6301C252.41 73.2401 252.93 71.9001 252.73 70.5501C252.5 68.9901 253.7 67.3801 254.86 66.4901C256.66 65.1001 259.04 64.8301 261.25 64.8601C265.89 64.9301 270.69 65.8901 275.16 67.1001C282.97 69.2201 291.03 73.4701 293.97 81.5101C295.25 84.9901 295.64 88.8001 294.47 92.3601C293.44 95.4901 290.93 98.0701 287.93 99.2101C281.41 101.7 273.35 99.0601 268.52 94.1401C261.4 86.9001 259.23 76.2701 257.18 66.6901C256.51 63.5501 251.69 64.8801 252.36 68.0201L252.35 68.0301Z" fill="#231F20"/>
<path d="M307.42 58.32C313.99 76.91 319.58 95.85 324.15 115.03C324.9 118.16 329.72 116.83 328.97 113.7C324.4 94.52 318.82 75.58 312.24 56.99C311.79 55.72 310.53 54.87 309.16 55.24C307.93 55.58 306.96 57.04 307.41 58.32H307.42Z" fill="#231F20"/>
<path d="M318.72 65.1702C317.2 62.4302 319.05 59.0602 321.31 57.3402C324.47 54.9302 328.72 54.0502 332.49 53.1002C339.41 51.3602 348.79 50.2502 353.74 56.7702C358.98 63.6802 352.12 71.8702 347.75 77.1102C346.33 78.8202 344.91 80.5502 343.66 82.3902C342.41 84.2302 341.05 86.3702 341.01 88.6602C340.97 90.9502 342.37 92.7702 344.28 93.8802C346.19 94.9902 348.48 95.9102 350.56 96.8902C360.48 101.57 370.4 106.25 380.33 110.93C381.55 111.51 383.03 111.27 383.75 110.03C384.39 108.94 384.08 107.19 382.85 106.61C373.45 102.18 364.05 97.7502 354.65 93.3102C352.3 92.2002 349.94 91.1402 347.61 89.9902C347.16 89.7702 346.17 89.4202 346.01 88.8702C345.81 88.1802 346.62 87.0902 346.94 86.5502C349.24 82.6302 352.5 79.3902 355.23 75.7802C357.96 72.1702 360.16 67.8802 360.52 63.2402C360.85 58.9902 359.13 54.8102 356.03 51.9102C348.94 45.2802 338.92 46.2502 330.24 48.5102C325.53 49.7402 320.39 51.0802 316.83 54.6302C313.27 58.1802 312 63.3702 314.4 67.6902C315.96 70.5002 320.28 67.9902 318.72 65.1702Z" fill="#231F20"/>
<path d="M440.7 52.3102C433.52 50.4002 426.23 48.9902 418.86 48.0302C412.31 47.1802 405.53 46.4202 398.92 46.7502C393.77 47.0102 387.98 48.1402 384.27 52.0402C379.99 56.5502 380.13 62.9402 382.99 68.1602C386.04 73.7402 391.37 77.7602 396.74 80.9302C402.3 84.2202 408.39 86.5702 414.69 87.9802C419.51 89.0602 424.43 89.9002 429.05 91.7102C433.1 93.3002 436.61 95.9202 437.58 100.22C439.02 106.66 433.65 112.99 429.06 116.76C424.47 120.53 417.74 123.36 411.54 121.55C408.44 120.65 407.12 125.47 410.21 126.37C416.33 128.15 422.77 126.61 428.16 123.44C433.55 120.27 438.27 115.63 440.86 110.05C443.45 104.47 443.5 98.0502 439.55 93.0402C436.54 89.2302 431.85 87.2002 427.32 85.8302C422.28 84.3102 417.04 83.6102 412 82.1302C405.83 80.3302 400.01 77.4502 394.81 73.6702C390.71 70.7002 385.89 66.0302 385.86 60.5602C385.84 55.4602 390.49 53.0902 394.87 52.2102C397.57 51.6702 400.34 51.6302 403.09 51.7202C407.25 51.8602 411.4 52.1602 415.54 52.6102C423.59 53.4902 431.56 55.0302 439.39 57.1102C442.5 57.9402 443.83 53.1202 440.72 52.2902L440.7 52.3102Z" fill="#231F20"/>
<path d="M524.45 53.0004C529.99 59.6804 535.53 66.3604 541.07 73.0404C543.76 76.2804 546.42 79.5404 549.13 82.7504C551.44 85.4904 554.03 88.0604 557.43 89.3704C564.53 92.1004 570.97 86.9204 574.93 81.5004C577.08 78.5604 578.77 75.2604 580.32 71.9704C582.03 68.3504 583.51 64.6204 584.73 60.8104C587.42 52.4004 588.81 43.5604 588.91 34.7304C588.95 31.5104 583.95 31.5104 583.91 34.7304C583.75 49.1404 579.89 63.5104 572.59 75.9604C570.13 80.1504 565.53 86.3904 559.85 84.9104C557.01 84.1704 554.9 81.8104 553.06 79.6704C550.46 76.6504 547.96 73.5304 545.41 70.4604C539.61 63.4604 533.8 56.4704 528 49.4704C527.14 48.4304 525.36 48.5804 524.46 49.4704C523.43 50.5004 523.6 51.9604 524.46 53.0104L524.45 53.0004Z" fill="#231F20"/>
<path d="M622.19 86.2904C614.06 73.8104 603.62 57.4804 611.76 42.4804C614.65 37.1604 619.73 32.5604 625.99 32.4604C629.21 32.4104 632.81 33.5704 634.73 36.3204C636.65 39.0704 636.27 42.8204 634.97 45.8704C633.25 49.8804 630.08 52.8504 626.86 55.6704C623.32 58.7604 619.76 61.7604 617.07 65.6604C616.5 66.4804 616.65 68.0404 617.46 68.6904C625.88 75.4304 636.1 79.4104 646.88 80.0204C650.09 80.2004 650.08 75.2004 646.88 75.0204C637.53 74.4904 628.32 71.0204 620.99 65.1504L621.38 68.1804C626.41 60.8804 635.2 57.0304 639.1 48.7904C640.94 44.9104 641.88 40.3104 640.25 36.1804C638.58 31.9504 634.82 29.0504 630.45 27.9704C622.45 26.0004 614.68 30.0004 609.85 36.2804C604.73 42.9404 603.03 51.2304 604.26 59.4504C605.88 70.2704 612.02 79.8204 617.87 88.8104C619.62 91.5004 623.95 88.9904 622.19 86.2904Z" fill="#231F20"/>
<path d="M739.13 81.86C734.74 61.58 736.21 40.03 743.46 20.58C743.98 19.19 744.67 17.43 746.41 17.73C748.4 18.07 750.11 19.8 751.4 21.22C754.53 24.66 757.42 28.34 760.1 32.14C765.57 39.92 770.22 48.33 773.78 57.15C777.81 67.12 780.62 77.63 781.95 88.31C782.12 89.65 782.98 90.81 784.45 90.81C785.67 90.81 787.12 89.66 786.95 88.31C784.38 67.62 776.88 47.64 765.01 30.48C762.04 26.19 758.82 22.06 755.35 18.16C752.26 14.68 746.84 10.61 742.19 13.86C739.93 15.44 739.05 18.05 738.17 20.54C737.23 23.18 736.4 25.86 735.66 28.56C734.17 34.04 733.13 39.63 732.46 45.27C730.95 57.91 731.61 70.76 734.3 83.2C734.98 86.34 739.8 85.01 739.12 81.87L739.13 81.86Z" fill="#231F20"/>
<path d="M740.97 60.04C750.66 58.46 760.36 56.88 770.05 55.3C771.38 55.08 772.13 53.43 771.8 52.22C771.41 50.8 770.06 50.26 768.72 50.47C759.03 52.05 749.33 53.63 739.64 55.21C738.31 55.43 737.56 57.08 737.89 58.29C738.28 59.71 739.63 60.25 740.97 60.04Z" fill="#231F20"/>
<path d="M805.3 80.3001C803.89 73.0501 802.97 65.7201 802.57 58.3501C802.38 54.8001 802.3 51.2401 802.34 47.6801C802.36 45.9001 802.41 44.1201 802.49 42.3401C802.55 40.9401 802.41 39.1901 803.01 37.8701C804.03 35.6501 807.61 36.0101 809.48 36.5301C812.21 37.2801 814.6 38.9901 816.69 40.8501C821.53 45.1501 825.77 50.3201 829.54 55.5701C833.85 61.5701 837.56 67.9801 840.63 74.6901C841.54 76.6701 844.72 76.0701 845.2 74.0901C848.56 60.2201 849.65 45.8401 848.32 31.6201C848.19 30.2801 847.26 29.1201 845.82 29.1201C844.56 29.1201 843.19 30.2701 843.32 31.6201C844.6 45.4001 843.64 59.3001 840.38 72.7601L844.95 72.1601C841.93 65.5801 838.31 59.2901 834.11 53.4001C829.96 47.5801 825.33 41.7401 819.92 37.0401C815.15 32.8901 807.42 28.7001 801.25 32.6501C797.82 34.8401 797.65 38.6601 797.49 42.3401C797.31 46.3801 797.28 50.4301 797.4 54.4701C797.67 63.5901 798.72 72.6801 800.47 81.6301C800.73 82.9601 802.31 83.7101 803.55 83.3801C804.94 83.0001 805.56 81.6301 805.3 80.3001Z" fill="#231F20"/>
<path d="M855.33 20.8C866.25 33.12 876.71 45.86 886.64 59C887.45 60.08 888.8 60.64 890.06 59.9C891.12 59.28 891.78 57.56 890.96 56.48C880.78 43 870.08 29.91 858.87 17.27C856.73 14.86 853.21 18.4 855.33 20.81V20.8Z" fill="#231F20"/>
<path d="M883.83 15.7801C873.42 25.1501 865.42 37.0101 860.43 50.0901C859.01 53.8101 857.87 57.6201 856.99 61.5001C856.28 64.6301 861.1 65.9701 861.81 62.8301C865.63 46.0801 874.6 30.8201 887.36 19.3201C889.76 17.1601 886.21 13.6401 883.82 15.7801H883.83Z" fill="#231F20"/>
<path d="M906.41 13.2202C905.99 32.5902 908.43 52.0202 913.62 70.6902C914.48 73.7902 919.31 72.4702 918.44 69.3602C913.36 51.0902 911 32.1802 911.41 13.2202C911.48 10.0002 906.48 10.0002 906.41 13.2202Z" fill="#231F20"/>
<path d="M936.88 23.9502C937.83 34.0802 939.97 44.0502 943.39 53.6402C943.84 54.9102 945.09 55.7602 946.47 55.3902C947.7 55.0502 948.67 53.5902 948.22 52.3102C944.96 43.1602 942.79 33.6302 941.89 23.9502C941.76 22.6102 940.83 21.4502 939.39 21.4502C938.14 21.4502 936.76 22.6002 936.89 23.9502H936.88Z" fill="#231F20"/>
<path d="M941.78 24.5602C947 13.7002 958.03 5.99017 970.11 5.18017C971.46 5.09017 972.61 4.10017 972.61 2.68017C972.61 1.40017 971.46 0.0901692 970.11 0.180169C956.35 1.09017 943.46 9.55018 937.46 22.0302C936.88 23.2502 937.13 24.7302 938.36 25.4502C939.45 26.0902 941.19 25.7802 941.78 24.5502V24.5602Z" fill="#231F20"/>
<path d="M940.99 38.7003C948.97 38.9203 956.99 37.8503 964.63 35.5503C967.7 34.6203 966.39 29.8003 963.3 30.7303C956.05 32.9203 948.56 33.9103 940.99 33.7003C937.77 33.6103 937.77 38.6103 940.99 38.7003Z" fill="#231F20"/>
<path d="M943.2 60.6203C956.09 64.9003 970.31 64.8803 983.18 60.5403C986.21 59.5203 984.91 54.6903 981.85 55.7203C969.75 59.8003 956.64 59.8303 944.53 55.8003C941.47 54.7803 940.16 59.6103 943.2 60.6203Z" fill="#231F20"/>
<path d="M983.11 12.9803C995.61 16.2103 1008.66 16.6303 1021.35 14.3203C1022.68 14.0803 1023.43 12.4603 1023.1 11.2403C1022.72 9.8403 1021.36 9.2503 1020.02 9.4903C1008.23 11.6403 996.03 11.1503 984.43 8.15029C981.31 7.34029 979.98 12.1703 983.1 12.9703L983.11 12.9803Z" fill="#231F20"/>
<path d="M998.05 16.29C997.62 36.87 1000.39 57.54 1006.27 77.27C1007.5 81.41 1009.08 88.24 1014.68 88C1017.89 87.86 1017.9 82.86 1014.68 83C1014.21 83.02 1014.09 82.97 1013.72 82.57C1013.24 82.06 1012.91 81.39 1012.63 80.75C1011.76 78.72 1011.24 76.46 1010.63 74.34C1009.31 69.77 1008.16 65.15 1007.18 60.5C1005.23 51.25 1003.96 41.88 1003.38 32.45C1003.05 27.07 1002.95 21.68 1003.06 16.29C1003.13 13.07 998.13 13.07 998.06 16.29H998.05Z" fill="#231F20"/>
<path d="M1040.29 9.69025C1045.14 18.5102 1049.99 27.3302 1054.84 36.1602C1056.39 38.9802 1060.71 36.4603 1059.16 33.6403C1054.31 24.8203 1049.46 16.0002 1044.61 7.17024C1043.06 4.35024 1038.74 6.87025 1040.29 9.69025Z" fill="#231F20"/>
<path d="M1080.31 3.98013C1072.97 13.2001 1065.39 22.2801 1058.3 31.6901C1056.72 33.7901 1055.35 35.9901 1054.4 38.4501C1053.45 40.9101 1053.1 43.6501 1053.05 46.3101C1052.94 52.0201 1053.64 57.8201 1054.39 63.4701C1055.26 69.9901 1056.5 76.4501 1058.12 82.8301C1058.91 85.9501 1063.73 84.6301 1062.94 81.5001C1060.23 70.8201 1058.46 59.8201 1058.08 48.8001C1057.99 46.3301 1058.03 43.8401 1058.68 41.4401C1059.3 39.1701 1060.51 37.1601 1061.87 35.2601C1064.96 30.9201 1068.48 26.8501 1071.79 22.6801L1083.85 7.53014C1084.69 6.47014 1084.88 5.03014 1083.85 3.99014C1082.98 3.12014 1081.16 2.93014 1080.31 3.99014V3.98013Z" fill="#231F20"/>
</svg>
