<svg width="887" height="725" viewBox="0 0 887 725" fill="none" xmlns="http://www.w3.org/2000/svg">
<path d="M768.93 594.62C759.32 590.56 751.23 587.89 743.88 583.88C730.74 576.72 729.23 560.47 742.59 554.62C758.11 547.82 771.95 537.57 788.68 533.26C801.47 529.96 812.77 531.51 821.93 541.08C825.15 544.44 826.8 543.43 829.56 541.3C837.99 534.79 847.25 529.57 857.22 525.83C862.46 523.87 868.71 522.14 872.86 527.73C876.63 532.82 873.56 537.78 870.56 542.26C866.7 548.05 862.71 553.76 858.14 560.41C866.23 561.02 873.45 561.55 880.67 562.11C887.79 562.67 888.14 566.15 884.37 571.01C882.44 573.5 880.17 575.78 877.85 577.93C872.51 582.88 864.72 585.24 868.77 596.31C871.53 603.86 858.57 612.39 844.71 613.86C836.31 614.75 827.87 615.36 819.45 616.1C808.25 617.08 799.14 622 792 630.5C776.64 648.78 758.7 664.03 738.23 676.5C734.11 679.01 730.57 682.77 727.44 686.52C705.13 713.24 676.83 725.66 641.56 724.79C590.7 723.52 540.27 719.67 490.82 707.07C482.92 705.06 474.9 703.01 468.08 698.79C455.22 690.84 440.87 689.6 426.5 687.81C411.87 685.99 399.71 680.68 395.63 664.92C395.09 662.82 394.97 661.02 392.2 660.39C377.63 657.05 367.76 646.69 357.28 637.24C353.86 634.16 350.39 631.15 346.89 628.16C333.77 616.94 319.19 613.58 302.46 619.28C290.8 623.25 278.9 626.57 267.03 629.9C262.2 631.26 257.2 631.05 252.25 629.86C239.75 626.85 236.28 619.57 241.69 608.02C243.85 603.4 247.83 599.48 247.79 593.35C233.76 593.42 219.94 593.56 206.32 590.71C202.68 589.95 198.69 589.23 197.47 585.8C196.03 581.71 200.5 579.94 203.05 577.97C207.78 574.33 212.96 571.28 218.56 567.58C213.59 565.53 208.73 563.68 204.02 561.52C199.88 559.62 195.62 557.74 191.92 555.15C186.51 551.36 182.08 546.22 184.19 539.19C186.41 531.77 193.01 529.72 200.19 529.39C226.47 528.15 250.81 534.34 272.76 548.69C277.68 551.91 280.15 551.91 284.87 547.71C299.63 534.54 317.19 529.28 337.07 533.42C339.48 533.92 342.6 534.07 344.05 535.62C355.21 547.58 370.37 543.95 384.02 546.24C388.87 547.06 393.74 548.15 398.39 549.73C416.27 555.8 420.62 569.93 409.15 584.86C403.94 591.65 397.09 596.52 387.12 598.58C398.81 610.5 411.43 617.79 425.1 623.52C426.29 624.02 427.77 623.82 429.12 623.94C428.75 610.36 443.21 620.09 447.99 612C452.45 604.45 460.2 598.52 465.74 591.16C471.32 583.76 473.84 574.98 477.93 566.92C480.19 562.46 475.67 561.58 473.58 559.87C456.06 545.56 435.07 538.96 413.19 535.99C371.73 530.36 330.03 526.45 288.56 520.9C244.07 514.94 199.57 508.45 156.85 494.04C92.58 472.36 56.39 425.04 36.81 363.2C35.06 357.68 33.37 354.07 27.46 352.29C18.15 349.49 10.69 343.31 3.08002 337.55C0.570019 335.65 -1.20998 333.43 1.05002 330.49C3.69002 327.06 6.16002 329.8 8.30002 331.36C15.65 336.71 22.72 342.52 32.48 345.47C29.66 294.57 46.66 255 95.22 231.43C90.9 231.43 86.55 231.68 82.25 231.35C78.6 231.07 73.62 232.32 72.6 227.07C71.66 222.23 76.61 221.97 79.48 220.53C107.24 206.57 135.08 192.78 162.84 178.84C164.99 177.76 170.1 178.6 165.17 172.82C161.16 168.12 168.63 167.22 171.73 166.63C191.52 162.82 211.31 158.78 231.28 156.07C264.38 151.58 297.64 147.94 331.13 149.53C368.42 151.3 405.51 154.8 440 170.59C460.29 179.88 478.19 192.29 488.74 212.7C490.21 215.54 492.58 216.75 494.9 218.21C586.11 275.78 641.54 357.7 664.17 461.84C673.88 506.53 680.32 551.62 679.3 597.49C679.27 598.9 678.93 600.38 679.26 601.7C680.62 606.99 711.67 623.64 716.94 621.55C734.62 614.53 751.33 605.68 768.94 594.59L768.93 594.62ZM673.06 581.74C672.25 570.53 671.62 559.65 670.67 548.79C665.4 488.67 654.13 429.93 627.66 375.01C597.56 312.58 552.65 262.89 493.81 225.58C490.94 223.76 488.41 220.02 483.6 223.25C477.18 227.54 470.26 225.99 463.22 223.69C448.18 218.78 442.14 222.3 437.81 237.81C435.74 245.23 434.45 252.92 431.82 260.13C427.71 271.39 421.43 273.23 411.51 266.74C402.65 260.95 393.78 255.15 385.14 249.03C378.36 244.22 373.43 244.65 368.28 251.77C359.62 263.73 350.07 275.07 340.99 286.74C336.73 292.21 333.53 292.42 330.27 285.71C326.6 278.14 321.76 271.09 318.45 263.38C314.55 254.28 310.24 251.48 300.39 256.85C282.4 266.65 263.68 275.15 245.15 283.95C242.92 285.01 240.67 288 237.5 285.66C234.31 283.31 235.38 280.21 235.71 277.03C236.44 270.05 235.98 262.86 237.47 256.07C239.66 246.11 234.28 247.62 228.48 249.41C211.63 254.63 194.81 259.93 178.03 265.35C164.16 269.83 159.75 266.03 162.24 251.43C162.59 249.39 163.1 247.34 163.82 245.39C166.26 238.78 164.04 235.51 156.91 235.11C137.01 234 116.98 230.1 98.07 240.78C91.05 244.74 83.21 247.21 76.78 252.4C49.58 274.37 39.39 303.05 40.51 337.15C40.85 347.57 45.12 348.98 53.25 347.66C67.17 345.39 79.32 338.87 91.34 331.97C93.99 330.45 97.52 326.08 100.34 330.53C102.86 334.51 98.47 336.57 95.44 338.36C81.71 346.46 67.65 353.86 51.37 355.41C45.59 355.96 42.59 356.8 45.06 364C64.97 422.09 99.38 466.78 160.35 487C196.49 498.98 234.05 504.56 271.5 510.81C281.91 512.55 283.16 509.95 283.51 501.08C284.26 482.09 284.68 482.46 265.87 480.79C252.93 479.65 240.75 476.03 232.42 464.94C230.87 462.87 229.47 460.35 231.89 458.43C233.98 456.77 236.52 457.25 238.12 459.93C240.38 463.73 243.97 466.04 247.86 467.85C271.08 478.62 292.42 474.1 312.54 459.93C315.02 458.18 316.78 454.33 320.47 455.82C325 457.64 322.68 461.99 322.56 465.06C322 478.73 321.86 492.52 319.78 505.99C318.37 515.1 321.22 517.72 329.68 518.55C355.77 521.1 381.87 523.78 407.87 527.16C432.7 530.39 456.49 537 476.89 552.36C483.13 557.06 492.78 562.93 492.03 568.87C490.8 578.66 497.53 579.09 501.87 582.6C507.08 586.82 512.83 590.37 518.19 594.41C546.2 615.48 577.16 627.96 612.95 626.12C623.88 625.56 634.9 623.99 645.01 620.08C654.33 616.47 668.83 617.09 666.59 600.52C677.83 597.09 670.54 587.73 673.06 581.76V581.74ZM633.15 717.72C673.61 719.45 687.98 714.56 714.58 690.17C721.39 683.93 719.23 681.86 712.64 678.76C708.87 676.99 705.11 675 702.21 671.66C693.78 661.93 694.04 651.44 698.48 640.22C700.08 636.18 704.98 631.58 701.9 627.87C695.56 620.24 685.91 616.49 677.15 612.14C672.3 609.73 669.95 616.48 665.94 618.34C661.53 620.38 657.42 622.99 652.71 624.6C607.83 639.89 565.91 633.47 526.69 607.78C513.76 599.31 501.08 590.45 488.42 581.58C484.13 578.58 481.75 578.4 479.01 583.77C471.26 598.94 460.69 612.07 446.78 622.25C441.8 625.89 438.36 630.1 435.99 635.94C431.35 647.41 423.42 656.19 410.79 659.55C401.16 662.11 403.17 666.29 408.25 671.97C415.42 679.99 425.39 679.14 434.54 681.14C442.7 682.93 451.9 681.01 459.02 685.93C469.34 693.06 480.65 697.49 492.6 700.62C536.97 712.26 582.24 717.01 633.18 717.73L633.15 717.72ZM209.87 583.2C224.09 585.99 236.52 587.06 248.91 585.6C256.64 584.69 257.18 588.39 256.63 594.14C256.06 600.01 252.3 604.42 249.86 609.43C245.26 618.85 247.13 621.82 257.82 622.36C268.8 622.92 278.91 619.43 288.71 615.49C313.9 605.38 336.57 606.34 357.08 626.45C364.79 634.01 372.53 641.88 381.93 647.81C398.68 658.38 416.25 655.55 426.61 640.43C430.16 635.26 430.68 632.63 423.48 630.01C406.98 623.98 392.75 614.04 380.04 602.03C377.81 599.92 374.13 597.96 375.14 594.53C376.18 591.03 380.07 593.19 382.65 592.76C393.94 590.85 402.67 585.39 407.07 574.74C409.25 569.46 410.31 562.9 404.1 559.64C390.64 552.56 376.08 549.95 360.84 552.19C359.13 552.44 357.15 552.7 357.06 555.04C356.96 557.67 358.72 558.59 361.04 559.03C363.13 559.42 365.15 560.27 367.25 560.48C373.78 561.14 379.28 563.41 380.16 570.55C381.12 578.41 375.87 583.14 369.44 585.8C357.64 590.67 345.15 590.62 332.85 588.03C321.73 585.69 313.55 576.61 315.19 568.7C317.53 557.42 326.76 556.95 335.93 556.85C336.64 556.85 337.35 556.85 338.06 556.79C342.11 556.47 347.05 557.92 348.17 551.8C349.31 545.6 344.52 543.98 340.3 542.39C323.56 536.06 299.91 541.48 287.74 555.91C281.7 563.07 278.3 561.98 271.57 557.21C251.38 542.9 228.42 536.48 203.58 537.43C199.72 537.58 193.86 535.94 192.37 541.02C190.78 546.45 196.02 548.67 200.06 550.87C213.58 558.25 228.01 562.51 243.47 563.26C247.23 563.44 252.51 562.41 252.07 568.15C251.69 573.09 246.64 571.54 243.37 571.54C231.39 571.54 220.53 574.44 209.85 583.23L209.87 583.2ZM769.15 552.45C774.41 552.45 777.52 552.62 780.61 552.42C788.07 551.94 794.33 553.06 794.95 562.22C795.54 571.01 790.39 577.39 781.8 578.34C775.27 579.06 769.27 577.33 763.36 574.47C757.89 571.83 755.9 569.2 761.14 564.48C763.39 562.45 766.81 560.05 762.74 557.03C758.7 554.03 746.43 558.96 743.21 564.52C738.83 572.08 743.83 575.67 749.71 578.24C757.77 581.77 766.11 584.7 774.28 587.99C777.09 589.12 781.16 589.38 781.44 593.17C781.71 596.86 777.84 597.95 775.27 599.66C757.27 611.62 738.26 621.69 718.03 629.49C708.49 633.17 702.3 643.72 702.82 654.64C703.16 661.73 713.52 673.48 720.73 675.94C723.8 676.99 725.31 675.41 727.41 674.35C748.55 663.68 766.96 649.46 782.01 631.39C793.5 617.6 806.97 609.5 825.59 608.82C836.57 608.42 848.31 609.18 858.15 601.45C863.54 597.21 865.23 594.8 858.03 591.17C852.18 588.22 852.99 585.22 858.58 582.47C864.99 579.32 871.78 576.48 876.26 568.42C868.61 568.04 862.33 567.79 856.06 567.4C852.74 567.19 848.48 569.41 846.35 565.78C844.01 561.81 848.49 559.66 850.35 556.92C855.74 549 862.56 541.98 866.78 531.67C854.73 533.68 845.92 539.39 837.51 545.48C829.17 551.53 822.96 559.74 813.52 544.95C807 534.73 783.07 539.31 769.15 552.46V552.45ZM291.01 496.46C290.43 516.1 290.44 515.91 305.84 516.79C310.67 517.07 312.88 516.07 313.12 510.88C313.7 498.33 314.78 485.8 315.58 473.25C315.72 471.02 316.34 467.12 312.6 468.49C305.74 470.99 298.73 473.9 292.96 478.19C289.41 480.83 291.47 486.77 291.04 491.23C290.87 492.96 291.01 494.72 291.01 496.47V496.46ZM346.59 582.22C354.44 582.09 362.28 581.62 368.91 576.91C372.55 574.32 374.78 570.69 368.69 568.45C355.32 563.53 341.38 563.34 327.54 565.64C321.97 566.56 321.09 570.69 325.19 574.87C331.03 580.85 338.55 582.34 346.59 582.22ZM776.51 570.89C782.76 570.61 787.35 569.29 787.51 563.47C787.61 560.01 784.44 558.87 781.35 559.73C776.9 560.96 770.3 560.06 770.12 566.82C770 571.06 774.68 570.47 776.51 570.89Z" fill="#151212"/>
<path d="M294.7 78.54C281.94 71.69 281.26 67.78 290.51 56.4C293.66 52.53 298.24 49.92 291.86 44.07C288.22 40.73 289.35 33.99 295.92 32.87C300.23 32.13 302.79 29.66 305.78 27.48C353.17 -7.15001 422.45 -8.35001 469.42 24.73C484.07 35.05 485.74 42.15 476.59 56.72C475.15 59.01 475.23 59.5301 477.48 61.3101C484.47 66.8601 483.67 73.92 482.58 82.23C481.48 90.6 480.94 99.63 481.76 108C483.03 120.9 481.23 126.97 469.24 132.04C458.11 136.75 446.38 139.98 434.38 140.59C393.54 142.68 352.67 145.14 311.8 140.91C300.8 139.77 287.61 137.32 286.11 126.07C284.16 111.42 282.56 95.1899 292.42 81.4399C293.03 80.59 293.7 79.79 294.68 78.53L294.7 78.54ZM421.05 88.2C409.42 91.25 397.69 92.1 385.75 90.1C383.35 89.7 380.17 89.78 379.68 92.84C379.15 96.14 382.21 96.6 384.66 96.63C401.85 96.81 418.9 95.1 435.88 92.61C448.3 91.96 460.55 90.4 471.29 83.59C475.62 80.85 478.56 76.42 476.72 71.1899C474.72 65.49 469.47 62.1901 463.77 61.7901C458.94 61.4501 454.64 63.57 453.9 69.99C453.25 75.55 449.89 80.19 443.33 79.64C435.36 78.98 427.87 78.43 424.05 87.51C423.82 88.06 422.08 87.9799 421.04 88.1899L421.05 88.2ZM298.92 43.01C312.82 42.36 321.02 49.61 330.1 54.62C336.76 58.3 343.59 61.17 350.9 61.9C387.36 65.51 423.56 62.01 459.63 56.91C466.75 55.9 474.45 53.34 475.7 45.32C476.86 37.9 470.55 33.49 464.76 29.83C424.19 4.23997 381.49 0.310049 336.87 18.04C323.5 23.35 311.07 30.29 298.91 43.01H298.92ZM413.71 113.99C413.72 113.75 413.73 113.51 413.74 113.27C423.33 113.27 432.94 113.56 442.52 113.2C453.61 112.78 464 110.38 472.75 102.65C476.34 99.48 477.55 95.77 475.75 92.5C473.36 88.15 470.43 92.89 467.79 93.65C465.8 94.22 464.1 95.9601 462.12 96.3001C436.32 100.66 410.38 103.4 384.15 102.87C379.09 102.77 374.04 101.23 373.09 96.39C371.01 85.84 363.43 86.1 355.56 85.96C341.85 85.72 328.03 90.12 314.68 81.46C308.33 77.35 295.42 85.32 293.81 92.9C291.85 102.12 299.21 104.64 305.83 107.21C308.1 108.09 310.57 108.83 312.98 108.96C346.55 110.7 380.14 112.33 413.71 113.99ZM475.23 110.65C462.04 120.13 447.51 120.07 432.93 119.98C412.33 119.84 391.7 120.57 371.15 119.57C348.21 118.45 325.14 118.41 302.43 114.01C298.91 113.33 294.56 107.87 291.59 114.33C289.13 119.69 290.76 124.93 295.4 128.49C300.86 132.69 307.51 133.91 314.33 134.53C353.36 138.06 392.39 135.71 431.38 134.06C443.72 133.54 456.04 130.86 467.31 125.25C472.35 122.74 477.75 120.06 475.23 110.67V110.65ZM397.11 85.41C403.82 86.1 410.06 84.5 416.37 83.63C422.35 82.8 423.56 79.02 423.09 73.77C422.59 68.18 418.64 69.4 415.25 69.57C411.72 69.74 408.2 70.26 404.67 70.4C374.64 71.58 344.25 74.65 317.5 56.28C308.42 50.05 302.15 54.96 296.56 61.27C292.08 66.32 291.69 70.84 300.49 71.22C317.37 71.95 332.69 84.67 350.68 77.6C352.34 76.95 354.76 78.42 356.85 78.59C370.57 79.7 383.25 86.7201 397.11 85.4201V85.41ZM430.02 67.64C433.36 72.73 437.48 74.1 442.35 73.64C445.48 73.34 447.54 72.43 446.8 68.32C446.07 64.24 443.66 65.4801 441.38 65.8001C437.88 66.2901 434.39 66.92 430.01 67.64H430.02Z" fill="#1D1D1D"/>
<path d="M544.56 60.33C558.09 61.93 569.63 63.37 581.19 64.59C584.02 64.89 586.13 65.71 586.04 68.73C585.95 71.59 584.07 73.2801 581.12 72.9301C568.87 71.4601 556.63 69.95 544.41 68.24C541.56 67.84 538.44 65.77 538.81 63.05C539.42 58.56 543.59 60.3199 544.56 60.3199V60.33Z" fill="#222323"/>
<path d="M570.59 12.61C569.34 13.45 567.58 14.6 565.86 15.81C557.24 21.89 548.61 27.94 540.05 34.1C537.3 36.08 534.45 37.9399 532.08 34.2099C530.02 30.9699 532.89 29.28 535.25 27.61C544.13 21.29 552.99 14.95 561.8 8.53001C565.92 5.53001 568.16 7.56997 570.59 12.62V12.61Z" fill="#1D1D1D"/>
<path d="M556.54 106.92C565.59 111.44 574.08 115.6 582.46 119.95C584.17 120.84 584.45 122.66 583.57 124.52C582.63 126.49 580.81 126.86 579.12 126.37C569.91 123.72 561.32 119.86 554.14 113.34C552.5 111.85 552.62 110.14 553.67 108.69C554.36 107.73 555.84 107.33 556.54 106.93V106.92Z" fill="#202020"/>
<path d="M200.67 90.86C195.73 89.94 195.56 86.6099 197.31 84.4499C201.78 78.9099 207.58 74.65 214.63 72.86C217.68 72.08 221.67 75.32 219.6 77.27C213.87 82.67 206.78 86.64 200.67 90.87V90.86Z" fill="#1D1D1D"/>
<path d="M224.48 20.96C224.74 25.49 221.21 25.5 218.78 24.5601C213.21 22.41 207.88 19.61 202.62 16.79C199.19 14.95 200.21 11.83 202.16 9.90002C204.5 7.59002 224.15 17.55 224.48 20.96Z" fill="#222323"/>
<path d="M214.87 56C212.2 55.89 209.7 55.09 209.62 52.23C209.5 47.97 213.05 47.77 216.2 47.51C219.16 47.27 222.42 47.6399 222.08 51.3199C221.73 55.1199 217.6 54.9 214.87 56Z" fill="#222323"/>
<path d="M673.06 581.75C670.54 587.72 677.83 597.08 666.59 600.51C668.83 617.08 654.34 616.46 645.01 620.07C634.89 623.99 623.88 625.55 612.95 626.11C577.16 627.95 546.2 615.47 518.19 594.4C512.82 590.36 507.07 586.81 501.87 582.59C497.53 579.07 490.8 578.64 492.03 568.86C492.78 562.92 483.13 557.05 476.89 552.35C456.49 536.99 432.7 530.37 407.87 527.15C381.87 523.77 355.78 521.09 329.68 518.54C321.22 517.71 318.38 515.1 319.78 505.98C321.86 492.51 322 478.72 322.56 465.05C322.69 461.98 325.01 457.63 320.47 455.81C316.78 454.33 315.02 458.17 312.54 459.92C292.43 474.08 271.08 478.61 247.86 467.84C243.97 466.03 240.38 463.72 238.12 459.92C236.52 457.24 233.98 456.76 231.89 458.42C229.46 460.34 230.87 462.87 232.42 464.93C240.74 476.02 252.93 479.64 265.87 480.78C284.67 482.44 284.26 482.08 283.51 501.07C283.16 509.94 281.91 512.54 271.5 510.8C234.05 504.55 196.49 498.97 160.35 486.99C99.3801 466.78 64.97 422.08 45.06 363.99C42.59 356.79 45.59 355.95 51.37 355.4C67.65 353.85 81.71 346.46 95.44 338.35C98.47 336.56 102.86 334.49 100.34 330.52C97.52 326.08 93.99 330.45 91.34 331.96C79.32 338.86 67.17 345.38 53.25 347.65C45.12 348.97 40.85 347.56 40.51 337.14C39.38 303.04 49.58 274.36 76.78 252.39C83.21 247.2 91.04 244.73 98.07 240.77C116.98 230.1 137.01 233.99 156.91 235.1C164.03 235.5 166.26 238.77 163.82 245.38C163.1 247.32 162.59 249.37 162.24 251.42C159.75 266.02 164.16 269.82 178.03 265.34C194.81 259.92 211.64 254.62 228.48 249.4C234.28 247.61 239.65 246.09 237.47 256.06C235.98 262.85 236.44 270.04 235.71 277.02C235.38 280.2 234.3 283.29 237.5 285.65C240.67 287.99 242.91 285 245.15 283.94C263.68 275.14 282.4 266.64 300.39 256.84C310.25 251.47 314.55 254.27 318.45 263.37C321.76 271.08 326.59 278.13 330.27 285.7C333.52 292.41 336.73 292.19 340.99 286.73C350.07 275.06 359.62 263.73 368.28 251.76C373.43 244.65 378.36 244.21 385.14 249.02C393.77 255.14 402.64 260.94 411.51 266.73C421.43 273.21 427.71 271.38 431.82 260.12C434.45 252.91 435.74 245.22 437.81 237.8C442.14 222.29 448.18 218.77 463.22 223.68C470.27 225.98 477.19 227.53 483.6 223.24C488.42 220.02 490.94 223.75 493.81 225.57C552.66 262.89 597.57 312.58 627.66 375C654.14 429.91 665.41 488.66 670.67 548.78C671.62 559.64 672.26 570.52 673.06 581.73V581.75ZM399.35 386.01C423.43 385.48 442.78 376.34 459.55 361.19C461.99 358.99 464.58 356.62 461.07 353.4C457.63 350.26 456.37 354.57 454.18 355.68C453.57 355.99 453.12 356.6 452.58 357.06C418.56 385.44 385.35 385.06 352.12 355.84C349.9 353.89 347.86 351.61 345.03 354.46C342.51 357 345 358.97 346.47 360.78C360.31 377.8 378.67 385.38 399.36 386.02L399.35 386.01ZM184.04 407.41C181.77 401.1 177.41 396.42 171.39 393.12C168.75 391.67 165.47 391.07 163.57 392.97C160.75 395.81 163.37 398.55 165.43 400.95C168.85 404.95 172.59 408.62 177.36 410.96C180.77 412.64 183.5 412.1 184.05 407.4L184.04 407.41ZM154.1 411.3C154.37 406.91 144.55 398.16 139.18 398.03C135.54 397.95 132.74 399.18 132.71 403.25C132.61 415.77 145.46 408.74 150.28 414.36C151.88 416.22 153.64 413.45 154.1 411.3Z" fill="#DCB38C"/>
<path d="M633.15 717.72C582.21 716.99 536.94 712.24 492.57 700.61C480.63 697.48 469.32 693.05 458.99 685.92C451.87 681 442.66 682.92 434.51 681.13C425.37 679.12 415.39 679.97 408.22 671.96C403.14 666.28 401.13 662.1 410.76 659.54C423.39 656.18 431.31 647.41 435.96 635.93C438.32 630.09 441.77 625.89 446.75 622.24C460.66 612.06 471.23 598.94 478.98 583.76C481.72 578.4 484.11 578.57 488.39 581.57C501.05 590.44 513.73 599.3 526.66 607.77C565.88 633.45 607.8 639.88 652.68 624.59C657.39 622.99 661.5 620.37 665.91 618.33C669.93 616.47 672.27 609.72 677.12 612.13C685.88 616.48 695.53 620.23 701.87 627.86C704.95 631.57 700.05 636.17 698.45 640.21C694.01 651.43 693.75 661.93 702.18 671.65C705.08 675 708.84 676.98 712.61 678.75C719.2 681.85 721.36 683.92 714.55 690.16C687.95 714.54 673.59 719.44 633.12 717.71L633.15 717.72Z" fill="#E5264F"/>
<path d="M209.87 583.2C220.55 574.41 231.4 571.51 243.39 571.51C246.67 571.51 251.71 573.06 252.09 568.12C252.53 562.39 247.25 563.41 243.49 563.23C228.03 562.49 213.6 558.23 200.08 550.84C196.04 548.63 190.8 546.42 192.39 540.99C193.88 535.91 199.74 537.55 203.6 537.4C228.44 536.45 251.4 542.87 271.59 557.18C278.32 561.95 281.73 563.04 287.76 555.88C299.93 541.45 323.59 536.03 340.32 542.36C344.54 543.96 349.32 545.57 348.19 551.77C347.07 557.89 342.12 556.44 338.08 556.76C337.37 556.82 336.66 556.81 335.95 556.82C326.78 556.93 317.55 557.39 315.21 568.67C313.57 576.57 321.75 585.66 332.87 588C345.17 590.58 357.66 590.64 369.46 585.77C375.88 583.12 381.14 578.38 380.18 570.52C379.3 563.38 373.8 561.11 367.27 560.45C365.17 560.24 363.15 559.39 361.06 559C358.74 558.56 356.98 557.64 357.08 555.01C357.17 552.67 359.15 552.41 360.86 552.16C376.1 549.93 390.66 552.54 404.12 559.61C410.33 562.87 409.27 569.43 407.09 574.71C402.69 585.36 393.96 590.82 382.67 592.73C380.09 593.17 376.19 591 375.16 594.5C374.15 597.93 377.82 599.89 380.06 602C392.77 614.01 407 623.95 423.5 629.98C430.69 632.61 430.17 635.23 426.63 640.4C416.26 655.52 398.69 658.35 381.95 647.78C372.56 641.85 364.82 633.99 357.1 626.42C336.59 606.31 313.92 605.35 288.73 615.46C278.92 619.39 268.82 622.89 257.84 622.33C247.15 621.79 245.27 618.82 249.88 609.4C252.33 604.4 256.08 599.99 256.65 594.11C257.21 588.36 256.67 584.65 248.93 585.57C236.53 587.04 224.1 585.97 209.89 583.17L209.87 583.2Z" fill="#D5B08D"/>
<path d="M769.15 552.45C783.06 539.31 806.99 534.72 813.52 544.94C822.96 559.73 829.17 551.52 837.51 545.47C845.92 539.37 854.72 533.67 866.78 531.66C862.56 541.97 855.73 549 850.35 556.91C848.49 559.64 844.01 561.79 846.35 565.77C848.49 569.4 852.74 567.17 856.06 567.39C862.33 567.79 868.61 568.04 876.26 568.41C871.78 576.47 865 579.31 858.58 582.46C852.99 585.21 852.18 588.21 858.03 591.16C865.22 594.79 863.54 597.21 858.15 601.44C848.3 609.17 836.57 608.41 825.59 608.81C806.97 609.49 793.5 617.59 782.01 631.38C766.96 649.45 748.55 663.67 727.41 674.34C725.31 675.4 723.8 676.98 720.73 675.93C713.52 673.47 703.16 661.72 702.82 654.63C702.3 643.71 708.49 633.16 718.03 629.48C738.26 621.68 757.27 611.61 775.27 599.65C777.84 597.95 781.71 596.86 781.44 593.16C781.16 589.38 777.09 589.12 774.28 587.98C766.11 584.68 757.77 581.76 749.71 578.23C743.84 575.66 738.83 572.07 743.21 564.51C746.43 558.95 758.69 554.02 762.74 557.02C766.81 560.04 763.4 562.44 761.14 564.47C755.9 569.19 757.89 571.82 763.36 574.46C769.27 577.32 775.27 579.05 781.8 578.33C790.39 577.38 795.54 571 794.95 562.21C794.33 553.05 788.07 551.93 780.61 552.41C777.52 552.61 774.41 552.44 769.15 552.44V552.45Z" fill="#D5B08D"/>
<path d="M291.01 496.46C291.01 494.71 290.87 492.95 291.04 491.22C291.47 486.76 289.41 480.82 292.96 478.18C298.73 473.89 305.75 470.98 312.6 468.48C316.34 467.12 315.73 471.01 315.58 473.24C314.78 485.78 313.7 498.32 313.12 510.87C312.88 516.05 310.67 517.05 305.84 516.78C290.44 515.9 290.43 516.09 291.01 496.45V496.46Z" fill="#CADFE6"/>
<path d="M346.59 582.22C338.55 582.34 331.04 580.85 325.19 574.87C321.1 570.68 321.97 566.56 327.54 565.64C341.38 563.35 355.32 563.53 368.69 568.45C374.78 570.69 372.55 574.32 368.91 576.91C362.27 581.62 354.44 582.1 346.59 582.22Z" fill="#F0EFED"/>
<path d="M776.51 570.89C774.68 570.47 770 571.06 770.12 566.82C770.31 560.06 776.9 560.96 781.35 559.73C784.44 558.88 787.6 560.01 787.51 563.47C787.35 569.29 782.76 570.6 776.51 570.89Z" fill="#CADFE6"/>
<path d="M298.92 43.01C311.08 30.29 323.52 23.35 336.88 18.04C381.5 0.310017 424.19 4.22993 464.77 29.8299C470.56 33.4799 476.87 37.8999 475.71 45.3199C474.46 53.3399 466.76 55.9 459.64 56.91C423.57 62.01 387.37 65.51 350.91 61.9C343.6 61.18 336.77 58.3 330.11 54.62C321.03 49.61 312.83 42.35 298.93 43.01H298.92Z" fill="#D4A663"/>
<path d="M413.71 113.98C380.13 112.32 346.55 110.7 312.98 108.95C310.57 108.82 308.1 108.08 305.83 107.2C299.2 104.63 291.84 102.1 293.81 92.8901C295.42 85.3101 308.34 77.34 314.68 81.45C328.04 90.1 341.85 85.71 355.56 85.95C363.43 86.09 371.01 85.83 373.09 96.38C374.04 101.22 379.09 102.76 384.15 102.86C410.38 103.39 436.32 100.65 462.12 96.2901C464.1 95.9501 465.81 94.2101 467.79 93.6401C470.44 92.8901 473.36 88.15 475.75 92.49C477.55 95.76 476.34 99.4701 472.75 102.64C464 110.37 453.61 112.78 442.52 113.19C432.94 113.55 423.33 113.26 413.74 113.26C413.73 113.5 413.72 113.74 413.71 113.98Z" fill="#653E3E"/>
<path d="M475.23 110.64C477.76 120.03 472.36 122.71 467.31 125.22C456.04 130.83 443.73 133.51 431.38 134.03C392.39 135.68 353.36 138.03 314.33 134.5C307.5 133.88 300.86 132.66 295.4 128.46C290.76 124.89 289.13 119.65 291.59 114.3C294.56 107.84 298.91 113.3 302.43 113.98C325.13 118.38 348.21 118.42 371.15 119.54C391.7 120.55 412.33 119.81 432.93 119.95C447.51 120.05 462.04 120.1 475.23 110.62V110.64Z" fill="#D4A663"/>
<path d="M397.11 85.4C383.25 86.7 370.57 79.6799 356.85 78.5699C354.76 78.3999 352.34 76.9299 350.68 77.5799C332.69 84.6499 317.38 71.9299 300.49 71.1999C291.68 70.8199 292.08 66.3 296.56 61.25C302.15 54.94 308.42 50.03 317.5 56.26C344.25 74.63 374.64 71.55 404.67 70.38C408.2 70.24 411.72 69.72 415.25 69.55C418.65 69.39 422.6 68.16 423.09 73.75C423.56 79 422.34 82.79 416.37 83.61C410.06 84.48 403.82 86.08 397.11 85.39V85.4Z" fill="#70AF50"/>
<path d="M421.05 88.1999C422.09 87.9899 423.83 88.06 424.06 87.52C427.87 78.44 435.36 78.98 443.34 79.65C449.9 80.2 453.26 75.56 453.91 70C454.66 63.58 458.95 61.47 463.78 61.8C469.49 62.2 474.73 65.4999 476.73 71.1999C478.56 76.4299 475.63 80.8599 471.3 83.5999C460.56 90.3999 448.31 91.97 435.89 92.62C431.26 90.1 423.74 97.1099 421.05 88.2099V88.1999Z" fill="#C32F54"/>
<path d="M421.05 88.2C423.74 97.1 431.26 90.1 435.89 92.61C418.91 95.1 401.86 96.81 384.67 96.63C382.21 96.6 379.15 96.14 379.69 92.84C380.18 89.78 383.37 89.7 385.76 90.1C397.69 92.1 409.42 91.25 421.06 88.2H421.05Z" fill="#653E3E"/>
<path d="M430.02 67.62C434.4 66.9 437.88 66.2801 441.39 65.7801C443.67 65.4601 446.07 64.2201 446.81 68.3001C447.55 72.4101 445.49 73.32 442.36 73.62C437.48 74.08 433.37 72.71 430.03 67.62H430.02Z" fill="#D5B08D"/>
<path d="M399.34 386C378.65 385.37 360.29 377.79 346.45 360.76C344.98 358.96 342.5 356.98 345.01 354.44C347.84 351.59 349.88 353.87 352.1 355.82C385.33 385.04 418.54 385.42 452.56 357.04C453.1 356.59 453.55 355.97 454.16 355.66C456.34 354.56 457.61 350.24 461.05 353.38C464.56 356.59 461.97 358.97 459.53 361.17C442.76 376.31 423.41 385.46 399.33 385.99L399.34 386Z" fill="#1D1D1D"/>
<path d="M184.03 407.4C183.48 412.1 180.75 412.63 177.34 410.96C172.57 408.62 168.83 404.95 165.41 400.95C163.36 398.55 160.73 395.8 163.55 392.97C165.44 391.07 168.73 391.67 171.37 393.12C177.4 396.42 181.76 401.1 184.02 407.41L184.03 407.4Z" fill="#151212"/>
<path d="M154.09 411.29C153.63 413.43 151.87 416.21 150.27 414.34C145.45 408.72 132.6 415.76 132.7 403.23C132.73 399.16 135.53 397.93 139.17 398.01C144.53 398.13 154.36 406.89 154.09 411.28V411.29Z" fill="#1D1D1D"/>
</svg>
