<svg width="688" height="903" viewBox="0 0 688 903" fill="none" xmlns="http://www.w3.org/2000/svg">
<path d="M678.55 786.59C679.01 784.61 681.92 783.5 683.08 785.72C682.82 788.49 682.11 791.24 680.98 793.89C680.44 792.01 679.71 790.14 678.78 788.29C678.48 787.69 678.43 787.11 678.55 786.59Z" fill="black"/>
<path d="M680.98 793.89C686.26 812.28 673.59 831.83 658.25 841.65C656.22 842.95 654.12 844.15 651.99 845.24C643.95 849.41 635.27 852.27 626.55 854.63C626.16 854.74 625.77 854.84 625.37 854.94C613.65 858.08 601.75 860.64 589.89 863.13C559.23 869.56 528.31 874.58 497.23 878.47C488.2 879.61 479.16 880.65 470.11 881.6C458.03 882.87 445.94 883.98 433.84 884.95C381.28 889.17 328.54 890.76 275.82 891.1C249.69 891.27 223.55 891.13 197.42 890.85C171.72 890.56 145.99 890.09 120.39 887.77C111.35 886.95 102.32 885.89 93.34 884.51C85.54 883.33 77.7801 881.9 70.0901 880.19C69.5601 879.86 68.92 879.73 68.32 879.79C60.34 877.98 52.42 875.86 44.6 873.38C26.48 867.63 1.58002 855.79 5.93002 832.46C6.32002 830.37 7.00001 828.41 7.98001 826.62C65.32 859.57 132 868.87 197.05 872.23C232.16 874.04 267.41 874.71 302.57 874.96C339.85 875.22 376.99 873.75 413.96 868.69C450.95 863.63 487.65 856.24 524.28 849.07C560.58 841.95 596.81 834.13 632.17 823.15C646.79 818.61 664.85 814.49 675.48 802.56C677.82 799.93 679.68 796.99 680.98 793.89Z" fill="#DCDBDB"/>
<path d="M677.59 788.84C677.81 788.05 677.99 787.27 678.11 786.52L678.55 786.59C678.43 787.11 678.48 787.69 678.78 788.29C679.71 790.14 680.44 792.01 680.98 793.89C679.68 796.99 677.82 799.93 675.48 802.56C664.85 814.49 646.79 818.61 632.17 823.15C596.81 834.13 560.58 841.95 524.28 849.07C487.65 856.24 450.95 863.63 413.96 868.69C376.99 873.75 339.85 875.22 302.57 874.96C267.41 874.71 232.16 874.04 197.05 872.23C132 868.87 65.32 859.57 7.97998 826.62C8.70998 825.29 9.60002 824.04 10.65 822.9C10.9 823.84 11.15 824.79 11.39 825.73C11.89 825.05 12.4 824.37 12.93 823.69C18.76 826.97 24.71 830.03 30.78 832.87C89.01 860.12 154.53 865.87 217.95 868.13C252.75 869.37 287.65 870.25 322.48 869.95C359.26 869.64 395.7 866.78 432.02 860.98C467.33 855.35 502.49 848.44 537.53 841.34C572.3 834.3 606.94 826.29 640.67 815.18C654.81 810.53 673.04 805 677.59 788.84Z" fill="black"/>
<path d="M653.19 844.96C654.48 844.96 655.78 846.12 655.69 847.46C655.66 847.98 655.63 848.5 655.59 849.01C655.09 849.28 654.58 849.54 654.08 849.8C652.88 850.41 651.66 851 650.43 851.56C650.52 850.19 650.6 848.83 650.69 847.46C650.75 846.53 651.24 845.7 652 845.27C652.35 845.07 652.75 844.96 653.19 844.96Z" fill="black"/>
<path d="M655.59 849.01C655.46 851.07 655.33 853.13 655.19 855.18C655.04 857.54 655.13 860.13 654.21 862.35C652.49 866.49 647.4 868.1 643.43 869.19C641.1 869.83 638.71 870.24 636.3 870.46C634.22 870.65 631.95 870.77 629.96 870.03C627.87 869.25 626.4 867.74 625.68 865.63C625.11 863.95 625.29 861.97 624.33 860.44C624.32 860.42 624.31 860.41 624.31 860.39C625.95 859.97 627.6 859.53 629.24 859.08C629.71 860.25 629.89 861.49 630.13 862.76C630.35 863.96 630.52 864.97 631.78 865.37C633.26 865.83 635.02 865.58 636.53 865.44C638.41 865.25 640.28 864.87 642.1 864.37C644.7 863.66 649.3 862.68 649.87 859.51C650.2 857.64 650.16 855.63 650.29 853.73C650.33 853.01 650.38 852.28 650.43 851.56C651.66 851 652.88 850.41 654.08 849.8C654.58 849.54 655.09 849.28 655.59 849.01Z" fill="black"/>
<path d="M651.99 845.24C654.12 844.15 656.22 842.95 658.25 841.65C673.59 831.83 686.26 812.28 680.98 793.89C682.11 791.24 682.82 788.49 683.08 785.72C683.09 785.72 683.09 785.75 683.1 785.76C685.33 790.18 686.66 794.87 687.02 799.81C688.57 821.21 673.44 839.33 655.59 849.01C655.63 848.5 655.66 847.98 655.69 847.46C655.78 846.12 654.48 844.96 653.19 844.96C652.75 844.96 652.35 845.07 652 845.27V845.24H651.99Z" fill="black"/>
<path d="M628.65 857.91C628.89 858.29 629.08 858.68 629.24 859.08C627.6 859.53 625.95 859.97 624.31 860.39C623.34 858.78 624.45 857.26 625.87 856.85C626.84 856.56 627.96 856.81 628.65 857.91Z" fill="black"/>
<path d="M650.69 847.46C650.6 848.83 650.52 850.19 650.43 851.56C643.62 854.7 636.47 857.07 629.24 859.08C629.08 858.68 628.89 858.29 628.65 857.91C627.96 856.81 626.84 856.56 625.87 856.85L625.37 854.94C625.77 854.84 626.16 854.74 626.55 854.63C635.27 852.27 643.95 849.41 651.99 845.24V845.27C651.24 845.7 650.75 846.53 650.69 847.46Z" fill="black"/>
<path d="M618.82 216.23C619.55 217.48 619.01 218.79 617.97 219.61C617.07 218.21 616.17 216.82 615.25 215.44C615.3 215.41 615.35 215.37 615.4 215.33C616.48 214.5 618.2 215.18 618.82 216.23Z" fill="black"/>
<path d="M617.97 219.61C617.97 219.61 617.94 219.64 617.92 219.65C606.21 228.63 594.15 237.81 579.93 242.42C568.17 246.22 554.86 246.61 543.52 241.23C533.79 236.62 526.49 227.03 524.98 216.31C524.22 210.97 524.89 205.57 527.33 200.71C530.28 194.8 535.52 190.31 540.4 186.01C550.77 176.89 561.93 168.66 573.72 161.45C574.82 162.68 575.9 163.91 576.97 165.14C576.81 165.36 576.58 165.56 576.3 165.73C563.81 173.37 552.04 182.15 541.2 192C537.06 195.76 532.65 199.85 530.78 205.28C529.3 209.6 529.34 214.23 530.54 218.62C533.2 228.32 540.79 235.61 550.3 238.55C561.29 241.95 573.36 240.1 583.78 235.66C595.31 230.75 605.37 223.02 615.25 215.44C616.17 216.82 617.07 218.21 617.97 219.61Z" fill="black"/>
<path d="M611.91 779.65C613.8 785.05 612.34 790.81 608.87 795.2C605.48 799.48 600.6 802.45 595.74 804.79C589.63 807.73 583.23 810.15 576.92 812.64C570.16 815.32 563.36 817.87 556.5 820.27C542.87 825.04 529.03 829.19 514.96 832.41C507.83 834.04 500.64 835.43 493.4 836.53C486.6 837.56 479.56 838.77 472.67 838.67C467.11 838.59 461.48 837.18 457.66 833.12C458.69 834.13 460.65 834.37 461.71 832.79C462.1 832.21 462.5 831.62 462.9 831.04C464.64 832.26 466.77 833.03 469.01 833.39C471.86 833.85 474.82 833.7 477.68 833.46C481.01 833.19 484.34 832.79 487.65 832.34C501.16 830.53 514.53 827.65 527.68 824.06C540.94 820.43 553.99 816.05 566.85 811.2C573.28 808.77 579.67 806.23 586.02 803.59C591.05 801.5 596.12 799.41 600.56 796.21C604.05 793.7 607.38 790.07 607.72 785.68C608.1 780.66 605 776.64 601.34 773.58C596.98 769.93 591.64 767.46 586.57 764.98C580.53 762.03 574.39 759.29 568.15 756.79C561.78 754.24 555.32 751.92 548.78 749.85C545.53 748.82 542.27 747.76 538.96 746.96C536.06 746.26 532.94 745.91 530.22 747.38C527.74 748.72 525.85 750.91 524.01 752.99C522.12 755.14 520.25 757.31 518.38 759.48C516.04 762.21 513.72 764.94 511.42 767.69C509.45 767.37 507.46 767.15 505.47 767.02C507.36 764.76 509.26 762.51 511.16 760.26C515.07 755.66 518.86 750.78 523.17 746.55C525.55 744.21 528.41 742.19 531.75 741.61C535.39 740.98 539.01 741.74 542.51 742.73C556.43 746.67 570.04 751.81 583.17 757.86C589.16 760.61 595.32 763.38 600.82 767.02C605.54 770.15 609.99 774.17 611.91 779.65Z" fill="black"/>
<path d="M604.52 194.65C605.17 194.11 605.37 193.16 605.18 192.33C608.97 197.46 612.65 202.66 616.23 207.94C627.17 224.05 638.67 241.2 642.93 260.5C646.85 278.22 643.27 296.42 634.68 312.24C625.93 328.35 612.52 341.28 597.08 350.97C580.87 361.14 562.7 367.86 544.39 373.17C524 379.08 503.18 383.56 482.18 386.67C460.98 389.81 439.59 391.57 418.16 391.87C396.53 392.17 374.67 389.96 353.15 392.86C327.99 396.25 304.2 407.84 285.72 425.14C279.01 431.4 273 438.43 267.88 446.09C266.1 448.75 261.77 446.25 263.56 443.56C265.94 440.01 268.48 436.58 271.2 433.29C281.93 420.24 295.4 409.38 310.34 401.5C326.16 393.15 343.38 388.4 361.2 387.02C382.54 385.37 404.01 387.33 425.39 386.71C446.6 386.1 467.77 384.07 488.71 380.62C509.15 377.24 529.46 372.63 549.25 366.49C567.25 360.9 584.94 353.67 600.41 342.75C614.99 332.46 627.26 318.52 634.1 301.92C637.41 293.9 639.42 285.31 639.59 276.62C639.77 267.22 637.67 258.04 634.23 249.32C630.67 240.28 625.72 231.83 620.54 223.63C619.69 222.29 618.84 220.94 617.97 219.61C619.01 218.79 619.55 217.48 618.82 216.23C618.2 215.18 616.48 214.5 615.4 215.33C615.35 215.37 615.3 215.41 615.25 215.44C611.5 209.76 607.62 204.16 603.63 198.65C603.09 197.9 602.54 197.15 601.98 196.4C602.87 195.9 603.72 195.32 604.52 194.65Z" fill="black"/>
<path d="M605.18 192.33C604.78 191.79 604.38 191.25 603.97 190.71C604.16 190.81 604.34 190.95 604.52 191.11C604.85 191.42 605.08 191.85 605.18 192.33Z" fill="black"/>
<path d="M600.95 191.15C600.95 191.15 600.9 191.19 600.85 191.23C600.88 191.2 600.92 191.17 600.95 191.15Z" fill="black"/>
<path d="M600.84 191.24C600.84 191.24 600.77 191.29 600.73 191.32C600.75 191.3 600.78 191.28 600.8 191.26C600.81 191.25 600.83 191.25 600.84 191.24Z" fill="black"/>
<path d="M600.31 191.6C600.48 191.49 600.64 191.37 600.8 191.26C600.78 191.28 600.75 191.3 600.73 191.32C600.77 191.29 600.81 191.26 600.84 191.24C600.84 191.23 600.85 191.23 600.85 191.23C600.9 191.19 600.93 191.17 600.95 191.15C600.95 191.15 600.97 191.12 600.98 191.11C601.87 190.37 602.99 190.17 603.96 190.71C604.37 191.25 604.77 191.79 605.17 192.33C605.36 193.16 605.16 194.11 604.51 194.65C603.71 195.32 602.86 195.9 601.97 196.4C600.99 195.04 599.99 193.69 598.98 192.35C599.05 192.32 599.12 192.29 599.19 192.25C599.57 192.05 599.95 191.84 600.3 191.6H600.31Z" fill="black"/>
<path d="M594.12 193.65C594.34 193.63 594.56 193.6 594.77 193.58C594.77 193.58 594.763 193.583 594.75 193.59C594.75 193.59 594.79 193.59 594.81 193.58C594.84 193.58 594.87 193.58 594.89 193.57H594.92L594.94 193.56C595.75 193.43 596.57 193.25 597.36 193C597.73 192.88 598.11 192.74 598.47 192.61C598.47 192.61 598.477 192.61 598.49 192.61H598.51L598.57 192.58C598.57 192.58 598.62 192.56 598.63 192.56C598.63 192.56 598.63 192.557 598.63 192.55C598.75 192.49 598.87 192.43 598.99 192.36C600 193.7 601 195.05 601.98 196.41C601 196.97 599.95 197.43 598.84 197.79C597.01 198.37 595.07 198.64 593.15 198.72C594.34 198.56 595.3 197.42 595.3 196.23C595.3 194.83 594.16 193.79 592.8 193.73C593.24 193.72 593.68 193.69 594.12 193.66V193.65Z" fill="black"/>
<path d="M598.63 192.54C598.63 192.54 598.65 192.54 598.63 192.55V192.54Z" fill="black"/>
<path d="M598.63 192.54C598.63 192.54 598.62 192.55 598.61 192.55C598.61 192.55 598.61 192.54 598.63 192.54Z" fill="black"/>
<path d="M598.63 192.55C598.63 192.55 598.6 192.55 598.57 192.57C598.58 192.56 598.6 192.55 598.61 192.55H598.63Z" fill="black"/>
<path d="M598.57 192.57L598.51 192.6H598.49C598.49 192.6 598.55 192.58 598.57 192.57Z" fill="black"/>
<path d="M594.94 193.56C594.94 193.56 594.93 193.57 594.92 193.57L594.94 193.56Z" fill="black"/>
<path d="M594.92 193.56C594.92 193.56 594.9 193.57 594.89 193.57C594.9 193.56 594.91 193.56 594.92 193.56Z" fill="black"/>
<path d="M594.81 193.58C594.81 193.58 594.87 193.57 594.89 193.57C594.87 193.58 594.84 193.58 594.81 193.58Z" fill="black"/>
<path d="M594.81 193.58C594.81 193.58 594.77 193.59 594.75 193.59C594.75 193.59 594.757 193.587 594.77 193.58H594.81Z" fill="black"/>
<path d="M592.72 198.72C592.6 198.71 592.49 198.7 592.37 198.69C591.19 198.51 590.35 197.4 590.3 196.22C590.24 194.84 591.5 193.76 592.8 193.72C594.16 193.78 595.3 194.82 595.3 196.22C595.3 197.41 594.34 198.55 593.15 198.71C593.03 198.71 592.92 198.72 592.8 198.72H592.72Z" fill="black"/>
<path d="M592.37 198.69C592.49 198.7 592.6 198.71 592.72 198.72C592.6 198.72 592.48 198.71 592.37 198.69Z" fill="black"/>
<path d="M591.94 175.21C591.51 174.67 591.07 174.13 590.64 173.6C591.38 173.94 591.8 174.54 591.94 175.21Z" fill="black"/>
<path d="M588.35 178.18H588.41C588.26 178.17 588.11 178.17 587.95 178.18C587.95 178.18 587.943 178.177 587.93 178.17C586.81 176.79 585.68 175.41 584.54 174.04C586.3 173.19 588.25 172.89 590.25 173.46C590.39 173.5 590.52 173.55 590.64 173.6C591.07 174.13 591.51 174.67 591.94 175.21C592.31 176.85 591.03 178.89 588.92 178.28C588.81 178.25 588.4 178.2 588.35 178.18Z" fill="black"/>
<path d="M598.99 192.35C595.4 187.56 591.72 182.84 587.95 178.19C588.11 178.18 588.26 178.18 588.41 178.19H588.35C588.35 178.19 588.81 178.26 588.92 178.29C591.03 178.9 592.31 176.86 591.94 175.22C596.06 180.3 600.07 185.47 603.97 190.72C603 190.18 601.88 190.38 600.99 191.12L600.96 191.15C600.96 191.15 600.89 191.21 600.86 191.24C600.86 191.24 600.85 191.24 600.85 191.25C600.84 191.26 600.82 191.26 600.81 191.27C600.65 191.38 600.49 191.5 600.32 191.61C599.97 191.85 599.59 192.06 599.21 192.26C599.14 192.3 599.07 192.33 599 192.36L598.99 192.35Z" fill="black"/>
<path d="M597.36 193C596.57 193.25 595.75 193.43 594.94 193.56H594.92C594.92 193.56 594.9 193.56 594.89 193.57C594.87 193.57 594.84 193.57 594.81 193.58H594.77C594.56 193.6 594.34 193.63 594.12 193.65C593.68 193.68 593.24 193.71 592.8 193.72C591.38 193.66 590.22 193.46 588.71 192.99C587.42 192.58 586.43 192.11 585.23 191.3C584.32 190.69 583.28 189.65 582.7 188.7C582.29 188.03 582.16 187.78 581.96 187.1C581.94 187 581.86 186.5 581.84 186.5C581.83 186.32 581.82 186.14 581.82 185.96C581.83 185.75 581.84 185.55 581.86 185.35C581.86 185.35 581.98 184.78 582 184.7C582.07 184.39 582.17 184.08 582.27 183.78C582.3 183.68 582.34 183.58 582.38 183.48C582.38 183.48 582.38 183.48 582.39 183.45C582.4 183.44 582.4 183.43 582.4 183.42C582.41 183.4 582.42 183.37 582.43 183.35C582.43 183.34 582.44 183.34 582.44 183.33C582.45 183.31 582.47 183.28 582.48 183.25C582.76 182.64 583.09 182.06 583.46 181.51C583.88 180.89 583.84 180.93 584.39 180.35C585.27 179.4 585.66 179.06 586.81 178.5C586.81 178.5 586.82 178.5 586.83 178.49H586.84C586.93 178.47 587.32 178.31 587.39 178.29C587.48 178.26 587.85 178.22 587.95 178.19C591.72 182.84 595.4 187.56 598.99 192.35C598.87 192.42 598.75 192.48 598.63 192.54C598.62 192.54 598.62 192.55 598.61 192.55C598.6 192.55 598.58 192.55 598.57 192.57C598.55 192.58 598.52 192.59 598.49 192.6C598.49 192.6 598.483 192.6 598.47 192.6C598.11 192.73 597.73 192.87 597.36 192.99V193Z" fill="black"/>
<path d="M587.93 178.17C587.93 178.17 587.94 178.17 587.95 178.18C587.95 178.18 587.95 178.17 587.94 178.18H587.93V178.17Z" fill="black"/>
<path d="M587.93 178.17H587.94C587.88 178.17 587.81 178.18 587.75 178.18C587.84 178.18 587.9 178.17 587.93 178.17Z" fill="black"/>
<path d="M581.84 186.5C581.84 186.5 581.94 187 581.96 187.1C582.16 187.78 582.29 188.03 582.7 188.7C583.28 189.65 584.32 190.69 585.23 191.3C586.43 192.11 587.42 192.58 588.71 192.99C590.22 193.46 591.38 193.66 592.8 193.72C591.5 193.76 590.24 194.84 590.3 196.22C590.35 197.4 591.19 198.51 592.37 198.69C589.11 198.49 585.83 197.6 583.05 195.85C580.42 194.18 578.37 191.83 577.3 188.89C576.37 186.36 576.92 183.58 577.96 181.17C579.19 178.34 581.6 175.44 584.54 174.04C585.68 175.41 586.81 176.79 587.93 178.17C587.9 178.17 587.84 178.18 587.75 178.18C587.81 178.18 587.88 178.17 587.94 178.18H587.95C587.85 178.22 587.48 178.26 587.39 178.29C587.32 178.31 586.93 178.47 586.84 178.49C586.84 178.49 586.843 178.487 586.85 178.48L586.83 178.49H586.81C585.66 179.06 585.27 179.4 584.39 180.35C583.84 180.93 583.88 180.89 583.46 181.51C583.09 182.06 582.76 182.64 582.48 183.25C582.47 183.28 582.45 183.31 582.44 183.33C582.44 183.34 582.43 183.34 582.43 183.35C582.42 183.38 582.41 183.4 582.4 183.42C582.4 183.44 582.39 183.45 582.39 183.45C582.38 183.47 582.38 183.48 582.38 183.48C582.34 183.58 582.3 183.68 582.27 183.78C582.17 184.08 582.07 184.39 582 184.7C581.98 184.78 581.87 185.35 581.86 185.35C581.84 185.55 581.83 185.75 581.82 185.96C581.82 186.14 581.83 186.32 581.84 186.5Z" fill="black"/>
<path d="M586.83 178.49L586.81 178.5H586.82C586.82 178.5 586.82 178.49 586.83 178.49Z" fill="black"/>
<path d="M582.43 183.35C582.43 183.35 582.41 183.4 582.4 183.42C582.41 183.4 582.42 183.38 582.43 183.35Z" fill="black"/>
<path d="M582.4 183.42C582.4 183.42 582.4 183.44 582.39 183.45C582.39 183.45 582.4 183.44 582.4 183.42Z" fill="black"/>
<path d="M582.39 183.45L582.38 183.48C582.38 183.48 582.38 183.48 582.39 183.45Z" fill="black"/>
<path d="M578.83 159.68C582.85 164.24 586.79 168.89 590.64 173.6C590.52 173.55 590.39 173.5 590.25 173.46C588.25 172.89 586.3 173.19 584.54 174.04C582.06 171.04 579.53 168.07 576.97 165.14C578.52 163.22 576.25 159.89 573.78 161.41C573.76 161.42 573.74 161.43 573.72 161.45C571.39 158.82 569.02 156.21 566.62 153.64C568.04 152.74 569.4 151.76 570.67 150.66C573.43 153.63 576.15 156.64 578.83 159.68Z" fill="black"/>
<path d="M578.27 113.08C580.65 124.98 581.81 138.88 572.92 148.51C572.21 149.28 571.46 150 570.67 150.66L568.66 148.5C567.88 147.67 566.94 147.57 566.14 147.91C567.07 147.21 567.94 146.45 568.76 145.63C572.91 141.47 574.69 135.81 574.97 130.04C575.26 124.01 574.23 118 572.97 112.12C572.35 109.27 571.88 106.17 570.45 103.6C568.92 100.86 566.3 99.8901 563.33 99.4301C556.71 98.4001 549.87 98.09 543.17 97.64C542.74 96.87 541.88 96.4101 540.96 96.3101C538.59 96.0501 537.12 94.3499 536.15 92.1899C540.79 92.4699 545.42 92.79 550.05 93.17C553.83 93.48 557.62 93.81 561.4 94.2C564.49 94.51 567.68 94.92 570.4 96.53C576.08 99.88 577.08 107.18 578.27 113.08Z" fill="black"/>
<path d="M573.78 161.41C576.25 159.89 578.52 163.22 576.97 165.14C575.9 163.91 574.82 162.68 573.72 161.45C573.74 161.43 573.76 161.42 573.78 161.41Z" fill="black"/>
<path d="M568.66 148.5L570.67 150.66C569.4 151.76 568.04 152.74 566.62 153.64C566.13 153.1 565.63 152.57 565.13 152.04C564.1 150.94 564.33 149.57 565.1 148.67C565.46 148.43 565.8 148.17 566.14 147.91C566.94 147.57 567.88 147.67 568.66 148.5Z" fill="black"/>
<path d="M566.14 147.91C565.8 148.17 565.46 148.43 565.1 148.67C565.38 148.34 565.74 148.07 566.14 147.91Z" fill="black"/>
<path d="M543.17 97.6401C549.87 98.0901 556.71 98.4002 563.33 99.4302C566.3 99.8902 568.92 100.86 570.45 103.6C571.88 106.17 572.35 109.27 572.97 112.12C574.23 118 575.26 124.01 574.97 130.04C574.69 135.81 572.91 141.47 568.76 145.63C567.94 146.45 567.07 147.21 566.14 147.91C565.74 148.07 565.38 148.34 565.1 148.67C561.06 151.5 556.3 153.46 551.83 155.3C539.06 160.54 525.64 164.01 512.07 166.45C484.65 171.38 456.71 172.18 429.09 175.52C400.12 179.03 371.67 185.6 343.41 192.7C315.18 199.78 287.05 207.37 258.45 212.79C256.33 213.19 254.2 213.59 252.07 213.96C251.09 213.46 249.79 213.49 248.92 214.51C244.98 215.19 241.03 215.81 237.07 216.39C230.03 217.41 222.84 218.56 215.72 218.83C212.97 218.93 209.94 218.71 208.23 216.26C206.45 213.73 206.05 210.05 205.45 207.1C203.94 199.73 203.02 192.25 202.7 184.74C202.55 181.4 202.47 177.9 203.67 174.72C204.73 171.9 206.93 169.71 209.27 167.9C214.74 163.69 220.91 160.2 226.79 156.6C238.48 149.46 250.45 142.77 262.66 136.55C262.72 138.03 263.9 139.41 265.67 138.74C292.71 128.43 320.43 119.93 348.61 113.31C376.67 106.71 405.18 101.98 433.87 99.1601C462.67 96.3401 491.66 95.4301 520.58 96.4501C524.81 96.6001 529.04 96.8001 533.27 97.0301C533.47 97.2901 533.67 97.5502 533.88 97.8002C535.72 99.9702 538.18 101.01 540.96 101.31C542.31 101.46 543.45 100.06 543.46 98.8102C543.46 98.3602 543.36 97.9701 543.17 97.6401Z" fill="#DC1E3B"/>
<path d="M543.17 97.6401C542.81 97.6201 542.44 97.6001 542.08 97.5701C539.15 97.3701 536.21 97.1902 533.27 97.0302C532.14 95.4802 531.35 93.7301 530.75 91.8901C532.55 91.9801 534.35 92.0801 536.15 92.1901C537.12 94.3501 538.59 96.0502 540.96 96.3102C541.88 96.4102 542.74 96.8701 543.17 97.6401Z" fill="black"/>
<path d="M543.17 97.64C543.36 97.97 543.46 98.3601 543.46 98.8101C543.46 100.06 542.31 101.46 540.96 101.31C538.18 101.01 535.72 99.97 533.88 97.8C533.67 97.55 533.47 97.29 533.27 97.03C536.21 97.19 539.15 97.3699 542.08 97.5699C542.44 97.5999 542.81 97.62 543.17 97.64Z" fill="black"/>
<path d="M530.75 91.8901C531.35 93.7301 532.14 95.4801 533.27 97.0301C529.04 96.8001 524.81 96.6 520.58 96.45C491.66 95.43 462.67 96.3401 433.87 99.1601C405.18 101.98 376.67 106.71 348.61 113.31C320.43 119.93 292.71 128.43 265.67 138.74C263.9 139.41 262.72 138.03 262.66 136.55C263.5 136.11 264.34 135.68 265.18 135.26C269.81 132.92 274.48 130.66 279.19 128.46C281.09 127.79 283 127.12 284.91 126.47C313.26 116.73 342.29 108.97 371.72 103.24C401.02 97.5301 430.73 93.8001 460.53 92.1001C483.91 90.7701 507.36 90.6901 530.75 91.8901Z" fill="black"/>
<path d="M528.37 81.7801C529.15 85.0201 529.65 88.6 530.75 91.89C507.36 90.69 483.91 90.77 460.53 92.1C430.73 93.8 401.02 97.53 371.72 103.24C342.29 108.97 313.26 116.73 284.91 126.47C283 127.12 281.09 127.79 279.19 128.46C280.96 127.63 282.74 126.81 284.52 126C287.44 124.67 284.9 120.36 281.99 121.68C268.13 127.99 254.53 134.88 241.25 142.34C234.71 146.01 228.25 149.82 221.87 153.76C215.93 157.44 209.44 160.95 204.21 165.64C198.74 170.53 197.41 177 197.67 184.09C197.94 191.66 198.85 199.23 200.28 206.67C201.46 212.86 202.49 220.53 209.24 223.02C212.22 224.12 215.53 223.91 218.63 223.61C222.35 223.26 226.06 222.84 229.76 222.38C234.9 221.73 240.03 220.99 245.14 220.16C232.04 239.81 218.34 259.13 203.27 277.31C187.12 296.8 168.84 314.56 146.58 326.96C141.55 329.76 136.37 332.25 131.04 334.38C130.37 334.31 129.69 334.52 129.18 335.11C122.91 337.52 116.46 339.43 109.86 340.77C111.03 333.49 112.2 326.21 113.37 318.92C114.06 314.65 114.75 310.39 115.43 306.12C116.08 302.08 117.09 297.88 116.87 293.77C116.68 290.3 115.49 287.21 113.32 284.51C111.57 282.35 109.27 280.67 106.96 279.16C102.51 276.25 97.07 273.85 94.26 269.09C91.17 263.85 91.8 257.03 94.19 251.65C97.07 245.15 102.5 240.17 107.88 235.73C113.83 230.82 119.93 226.1 125.81 221.1C131.84 215.97 137.73 210.69 143.5 205.27C155.02 194.42 166.01 183 176.4 171.06C177.7 169.57 178.98 168.07 180.26 166.56C180.31 166.5 180.37 166.43 180.41 166.37L180.44 166.34C180.52 166.25 180.59 166.15 180.65 166.05C200.03 135.55 213.58 101.31 220.17 65.7701C221.66 57.7401 222.15 48.43 228.27 42.34C233.23 37.4 240.49 35.34 247.28 34.68C255.98 33.84 264.68 35.23 273.38 35.39C282.03 35.55 290.3 34.16 298.04 30.18C310.79 23.62 320.73 11.75 334.6 7.31003C349.99 2.39003 364.47 10.52 376.81 19.08C383.52 23.73 389.96 28.77 396.86 33.16C403.99 37.69 411.56 41.4501 419.37 44.6601C435.31 51.2001 452.15 55.17 469.03 58.39C477.56 60.02 486.13 61.4601 494.69 62.9201C502.25 64.2201 510.42 64.96 517.53 67.99C520.52 69.26 523.45 71.11 525.31 73.83C526.92 76.21 527.7 79.0201 528.37 81.7801Z" fill="#65240E"/>
<path d="M526.87 331.25C530.1 331.25 530.09 336.25 526.87 336.25H497.77C494.54 336.25 494.55 331.25 497.77 331.25H526.87Z" fill="black"/>
<path d="M525.05 778.07C525.38 778.99 524.97 779.92 524.14 780.77C523.12 781.82 521.77 782.59 520.42 783.16C518.97 783.76 517.4 784.13 515.85 784.47C515.47 784.55 515.09 784.63 514.72 784.71C512.43 785.2 510.13 785.62 507.81 785.93C503.84 786.47 499.84 786.71 495.84 786.72C499.39 782.26 503 777.84 506.63 773.44C506.97 773.03 507.3 772.62 507.65 772.22C510.55 772.53 513.44 773.04 516.29 773.77C518.23 774.26 520.26 774.76 522.1 775.57C523.27 776.1 524.6 776.81 525.05 778.07Z" fill="#DC1E3B"/>
<path d="M519.23 787.78C519.25 788.12 519.28 788.46 519.29 788.8C517.69 789.28 516.03 789.65 514.37 789.96C514.33 789.23 514.28 788.51 514.23 787.78C514.16 786.67 515.02 785.7 516.04 785.39C516.26 785.32 516.5 785.28 516.73 785.28C518.15 785.28 519.14 786.44 519.23 787.78Z" fill="black"/>
<path d="M517.85 820.06C516.3 820.48 514.74 820.9 513.19 821.32C513.5 818.96 513.76 816.59 513.97 814.22C515.16 816.23 516.46 818.17 517.85 820.06Z" fill="black"/>
<path d="M516.04 785.39L515.85 784.47C517.4 784.13 518.97 783.76 520.42 783.16C521.77 782.59 523.12 781.82 524.14 780.77C524.97 779.92 525.38 778.99 525.05 778.07C524.6 776.81 523.27 776.1 522.1 775.57C520.26 774.76 518.23 774.26 516.29 773.77C513.44 773.04 510.55 772.53 507.65 772.22C508.89 770.7 510.15 769.19 511.42 767.69C514.67 768.19 517.88 768.92 521.01 769.9C525.15 771.19 529.79 773.39 530.14 778.32C530.44 782.53 526.78 785.7 523.3 787.31C522.01 787.91 520.67 788.39 519.29 788.8C519.29 788.46 519.25 788.12 519.23 787.78C519.14 786.44 518.15 785.28 516.73 785.28C516.5 785.28 516.26 785.32 516.04 785.39Z" fill="black"/>
<path d="M514.37 789.96C514.83 798.05 514.69 806.16 513.97 814.22C509.74 807.14 506.76 799.38 505.17 791.23C506.27 791.12 507.38 790.99 508.48 790.84C510.41 790.58 512.4 790.31 514.37 789.96Z" fill="#DC1E3B"/>
<path d="M513.97 814.22C513.76 816.59 513.5 818.96 513.19 821.32L512.81 821.59C506.47 812.68 502.12 802.38 500.16 791.62V791.6C501.83 791.52 503.5 791.4 505.17 791.23C506.76 799.38 509.74 807.14 513.97 814.22Z" fill="black"/>
<path d="M518.19 821.32C517.86 823.82 515.07 824.68 513.53 822.59C513.29 822.26 513.05 821.93 512.81 821.59L513.19 821.32C514.74 820.9 516.3 820.48 517.85 820.06C516.46 818.17 515.16 816.23 513.97 814.22C514.69 806.16 514.83 798.05 514.37 789.96C516.03 789.65 517.69 789.28 519.29 788.8C519.99 799.65 519.62 810.55 518.19 821.32Z" fill="black"/>
<path d="M502.77 766.88C503.67 766.91 504.57 766.95 505.47 767.02C504.2 768.55 502.93 770.07 501.67 771.6C499.61 770.56 499.97 766.79 502.77 766.88Z" fill="black"/>
<path d="M502.77 771.88C502.35 771.87 501.98 771.77 501.67 771.6C502.93 770.07 504.2 768.55 505.47 767.02C507.46 767.15 509.45 767.37 511.42 767.69C510.15 769.19 508.89 770.7 507.65 772.22C506.03 772.04 504.4 771.93 502.77 771.88Z" fill="black"/>
<path d="M501.9 788.54C503.12 788.21 504.74 788.96 504.98 790.29C505.04 790.6 505.1 790.92 505.17 791.23C503.5 791.4 501.83 791.52 500.16 791.6C499.92 790.27 500.52 788.93 501.9 788.54Z" fill="black"/>
<path d="M516.04 785.39C515.02 785.7 514.16 786.67 514.23 787.78C514.28 788.51 514.33 789.23 514.37 789.96C512.4 790.31 510.41 790.58 508.48 790.84C507.38 790.99 506.27 791.12 505.17 791.23C505.1 790.92 505.04 790.6 504.98 790.29C504.74 788.96 503.12 788.21 501.9 788.54C500.52 788.93 499.92 790.27 500.16 791.6C497.46 791.73 494.76 791.75 492.05 791.65C492 791.65 491.96 791.65 491.92 791.64C493.22 790 494.52 788.35 495.84 786.72C499.84 786.71 503.84 786.47 507.81 785.93C510.13 785.62 512.43 785.2 514.72 784.71C515.09 784.63 515.47 784.55 515.85 784.47L516.04 785.39Z" fill="black"/>
<path d="M500.23 883.21C500.63 886.92 500 890.7 498.41 894.08C497.04 896.99 494.67 899.59 491.74 900.97C488.15 902.65 484.22 902.8 480.32 902.61C478.48 902.53 476.51 902.51 474.85 901.6C473 900.59 472.26 898.74 471.58 896.86C470.38 893.55 469.35 890.18 468.48 886.77C470.16 886.6 471.84 886.43 473.51 886.25C473.88 887.65 474.27 889.03 474.69 890.41C475.31 892.44 475.88 894.64 476.79 896.57C477.38 897.82 479.14 897.56 480.32 897.61C482.21 897.7 484.14 897.78 486.02 897.51C489.32 897.05 491.99 895.39 493.62 892.47C495.1 889.81 495.53 886.73 495.27 883.73C496.92 883.54 498.56 883.33 500.21 883.12C500.22 883.15 500.23 883.18 500.23 883.21Z" fill="black"/>
<path d="M497.23 878.47C528.31 874.58 559.23 869.56 589.89 863.13C601.75 860.64 613.65 858.08 625.37 854.94L625.87 856.85C624.45 857.26 623.34 858.78 624.31 860.39C623.15 860.69 621.98 860.98 620.82 861.27C607.65 864.51 594.38 867.37 581.09 870.02C554.3 875.37 527.31 879.67 500.21 883.12C500.04 881.82 499.15 880.71 497.73 880.71C497.66 880.71 497.58 880.71 497.51 880.72L497.23 878.47Z" fill="black"/>
<path d="M492.05 786.65C493.31 786.7 494.58 786.72 495.84 786.72C494.52 788.35 493.22 790 491.92 791.64C489.73 791.46 489.12 788.96 490.08 787.57C490.47 787 491.13 786.62 492.05 786.65Z" fill="black"/>
<path d="M500.21 883.12C498.56 883.33 496.92 883.54 495.27 883.73C495.26 883.56 495.25 883.38 495.23 883.21C495.09 881.94 496.33 880.85 497.51 880.72C497.58 880.71 497.66 880.71 497.73 880.71C499.15 880.71 500.04 881.82 500.21 883.12Z" fill="black"/>
<path d="M492.05 786.65C491.13 786.62 490.47 787 490.08 787.57L489.28 786.93C493.36 781.78 497.49 776.67 501.67 771.6C501.98 771.77 502.35 771.87 502.77 771.88C504.4 771.93 506.03 772.04 507.65 772.22C507.3 772.62 506.97 773.03 506.63 773.44C503 777.84 499.39 782.26 495.84 786.72C494.58 786.72 493.31 786.7 492.05 786.65Z" fill="black"/>
<path d="M462.48 822.85C471.04 810.62 480.01 798.66 489.28 786.93L490.08 787.57C489.12 788.96 489.73 791.46 491.92 791.64C481.81 804.45 472.05 817.55 462.9 831.04C461.47 830.04 460.31 828.73 459.57 827.07C460.53 825.66 461.5 824.25 462.48 822.85Z" fill="black"/>
<path d="M481.63 493.93C483.36 498.62 482.14 503.72 479.45 507.78C479.18 507.27 478.88 506.76 478.57 506.27C477.64 504.78 475.92 504.86 474.84 505.68C477.1 502.68 478.14 498.86 476.81 495.26C476.77 495.15 476.74 495.04 476.72 494.93C477.91 494.18 478.95 493.26 479.81 492.18C480.65 492.39 481.31 493.07 481.63 493.93Z" fill="black"/>
<path d="M479.45 507.78C481.27 511.22 482.17 515.16 481.05 518.99C479.94 522.77 477.22 525.7 474.12 527.99C467.73 532.7 459.34 534.43 451.73 535.97C441.14 538.13 430.31 539.11 419.51 539.27C397.91 539.59 376.42 536.72 355.06 533.82C354.36 532.65 353.66 531.48 352.95 530.31C353.46 529.16 354.68 528.76 355.9 528.93C367.33 530.48 378.77 532 390.25 533.03C410.48 534.83 431.11 535.19 451.08 531.01C455.52 530.09 460.02 529.04 464.3 527.52C465.72 527.02 466.45 526.71 467.89 525.96C469.18 525.29 470.43 524.54 471.6 523.67C473.59 522.2 475.55 519.98 476.22 517.67C476.59 516.42 476.68 515.11 476.43 513.86C476.28 513.16 476.08 512.5 475.84 511.85C476.42 511.36 476.97 510.83 477.49 510.27C478.2 509.5 478.86 508.66 479.45 507.78Z" fill="black"/>
<path d="M478.55 492.18C478.99 492.06 479.42 492.06 479.81 492.18C478.95 493.26 477.91 494.18 476.72 494.93C476.51 493.74 477.44 492.49 478.55 492.18Z" fill="black"/>
<path d="M478.57 506.27C478.88 506.76 479.18 507.27 479.45 507.78C478.86 508.66 478.2 509.5 477.49 510.27C476.97 510.83 476.42 511.36 475.84 511.85C475.42 510.79 474.88 509.79 474.26 508.79C473.76 508.01 473.77 507.25 474.06 506.62C474.27 506.39 474.48 506.15 474.67 505.9C474.73 505.83 474.78 505.75 474.84 505.68C475.92 504.86 477.64 504.78 478.57 506.27Z" fill="black"/>
<path d="M475.26 495.72C475.77 495.49 476.26 495.22 476.72 494.93C476.74 495.04 476.77 495.15 476.81 495.26C478.14 498.86 477.1 502.68 474.84 505.68C474.5 505.93 474.23 506.25 474.06 506.62C471.23 509.76 467.16 511.44 463.11 512.43C458.45 513.57 453.49 514.17 448.7 514.12C444.49 514.07 439.86 513.25 436.83 510.07C434.17 507.26 432.94 503.04 435.15 499.81C435.91 498.7 435.36 497.04 434.25 496.39C433.02 495.67 431.6 496.17 430.83 497.29C428.01 501.42 428.7 506.91 431.27 510.99C434.3 515.81 439.44 518.16 444.94 518.86C450.67 519.59 456.74 518.82 462.37 517.71C467.15 516.77 472.07 515.04 475.84 511.85C476.08 512.5 476.28 513.16 476.43 513.86C476.68 515.11 476.59 516.42 476.22 517.67C475.55 519.98 473.59 522.2 471.6 523.67C470.43 524.54 469.18 525.29 467.89 525.96C466.45 526.71 465.72 527.02 464.3 527.52C460.02 529.04 455.52 530.09 451.08 531.01C431.11 535.19 410.48 534.83 390.25 533.03C378.77 532 367.33 530.48 355.9 528.93C354.68 528.76 353.46 529.16 352.95 530.31C345.35 517.69 337.7 505.09 330.1 492.46C326.15 485.91 322.21 479.35 318.26 472.79C330.97 476.06 343.86 478.67 356.85 480.59C364.19 481.67 371.57 482.59 378.96 483.21C385.85 483.78 393.08 483.89 399.63 481.38C410.34 477.29 417.63 467.74 421.31 457.16C422.23 454.53 422.91 451.82 423.36 449.07C423.78 446.49 423.97 443.89 424.41 441.31C425.11 437.18 426.4 431.64 431.19 430.92C436.5 430.12 440.61 436.65 441.54 441.2C442.32 444.95 441.81 449 441.54 452.78C441.31 455.94 441.17 459.07 441.46 462.2C441.55 463.15 441.67 464.11 441.85 465.06C442.09 466.35 443.72 467.19 444.92 466.81C451.35 464.76 458.51 465.17 464.65 468C470.58 470.73 476.01 475.55 477.34 482.2C477.9 485 477.33 487.99 475.12 489.94C472.74 492.03 469.24 492.57 466.21 492.92C459.18 493.75 450.24 495.02 444.12 490.52C441.85 488.85 440.3 485.96 439.9 483.08C439.57 480.67 440.19 477.99 442.29 476.58C444.95 474.8 442.45 470.47 439.77 472.27C433.31 476.6 433.78 485.68 438.09 491.41C443.69 498.84 453.94 499.09 462.4 498.32C466.75 497.92 471.25 497.58 475.27 495.72H475.26Z" fill="#EFCAAB"/>
<path d="M474.84 505.68C474.78 505.75 474.73 505.83 474.67 505.9C474.48 506.15 474.27 506.39 474.06 506.62C474.23 506.25 474.5 505.93 474.84 505.68Z" fill="black"/>
<path d="M474.26 508.79C474.88 509.79 475.42 510.79 475.84 511.85C472.07 515.04 467.15 516.77 462.37 517.71C456.74 518.82 450.67 519.59 444.94 518.86C439.44 518.16 434.3 515.81 431.27 510.99C428.7 506.91 428.01 501.42 430.83 497.29C431.6 496.17 433.02 495.67 434.25 496.39C435.36 497.04 435.91 498.7 435.15 499.81C432.94 503.04 434.17 507.26 436.83 510.07C439.86 513.25 444.49 514.07 448.7 514.12C453.49 514.17 458.45 513.57 463.11 512.43C467.16 511.44 471.23 509.76 474.06 506.62C473.77 507.25 473.76 508.01 474.26 508.79Z" fill="black"/>
<path d="M473.51 886.25C471.84 886.43 470.16 886.6 468.48 886.77C468.32 886.16 468.17 885.56 468.03 884.95C467.63 883.27 468.82 882.12 470.14 881.88C471.27 881.68 472.5 882.17 472.85 883.62C473.06 884.5 473.28 885.38 473.51 886.25Z" fill="black"/>
<path d="M472.85 883.62C472.5 882.17 471.27 881.68 470.14 881.88L470.11 881.6C479.16 880.65 488.2 879.61 497.23 878.47L497.51 880.72C496.33 880.85 495.09 881.94 495.23 883.21C495.25 883.38 495.26 883.56 495.27 883.73C488.02 884.63 480.77 885.47 473.51 886.25C473.28 885.38 473.06 884.5 472.85 883.62Z" fill="black"/>
<path d="M459.57 827.07C460.31 828.73 461.47 830.04 462.9 831.04C462.5 831.62 462.1 832.21 461.71 832.79C460.65 834.37 458.69 834.13 457.66 833.12C457.64 833.12 457.63 833.09 457.62 833.08C457.58 833.04 457.54 832.99 457.5 832.95C457.49 832.93 457.47 832.92 457.46 832.9C456.9 832.21 456.74 831.25 457.4 830.27C458.12 829.2 458.84 828.13 459.57 827.07Z" fill="black"/>
<path d="M456.38 831.56C453.17 827.05 452.68 820.72 456.49 816.44C458.64 814.03 462.16 817.58 460.03 819.97C458.81 821.34 458.53 823.22 458.88 824.96C459.03 825.72 459.26 826.42 459.57 827.07C458.84 828.13 458.12 829.2 457.4 830.27C456.74 831.25 456.9 832.21 457.46 832.9C457.08 832.48 456.72 832.03 456.38 831.56Z" fill="black"/>
<path d="M464.64 468C458.5 465.17 451.34 464.76 444.91 466.81C443.71 467.19 442.08 466.35 441.84 465.06C441.66 464.11 441.54 463.15 441.45 462.2L443.59 461.99C444.61 462.57 445.64 463.15 446.66 463.73C446.51 462.91 446.4 462.09 446.34 461.26C454.6 459.45 463.6 461.07 470.73 465.63C477.62 470.03 483.61 477.83 482.34 486.45C482.02 488.59 481.13 490.55 479.81 492.18C479.42 492.06 478.99 492.06 478.55 492.18C477.44 492.49 476.51 493.74 476.72 494.93C476.26 495.22 475.77 495.49 475.26 495.72C471.24 497.58 466.74 497.92 462.39 498.32C453.93 499.09 443.68 498.84 438.08 491.41C433.77 485.68 433.3 476.6 439.76 472.27C442.44 470.47 444.94 474.8 442.28 476.58C440.18 477.99 439.56 480.67 439.89 483.08C440.29 485.96 441.84 488.85 444.11 490.52C450.23 495.02 459.17 493.75 466.2 492.92C469.23 492.57 472.73 492.03 475.11 489.94C477.32 487.99 477.89 485 477.33 482.2C476 475.55 470.57 470.73 464.64 468Z" fill="black"/>
<path d="M446.69 442.05C447.41 448.43 445.79 454.89 446.34 461.26C445.41 461.46 444.49 461.7 443.59 461.99L441.45 462.2C441.16 459.07 441.3 455.94 441.53 452.78C441.81 449 442.32 444.95 441.53 441.2C440.6 436.65 436.49 430.12 431.18 430.92C426.39 431.64 425.1 437.18 424.4 441.31C423.96 443.89 423.77 446.49 423.35 449.07C422.9 451.82 422.22 454.53 421.3 457.16C417.62 467.74 410.33 477.29 399.62 481.38C393.07 483.89 385.84 483.78 378.95 483.21C371.56 482.59 364.18 481.67 356.84 480.59C343.85 478.67 330.96 476.06 318.25 472.79C317.02 470.75 315.79 468.71 314.56 466.66C314.63 466.66 314.69 466.68 314.76 466.7C330.99 471.1 347.51 474.45 364.19 476.6C371.35 477.53 378.64 478.53 385.87 478.55C392.21 478.57 398.31 477.33 403.6 473.71C412.47 467.65 417.43 456.7 418.73 446.3C419.37 441.17 419.69 435.32 422.79 430.94C426.18 426.14 432.15 424.55 437.4 427.32C442.75 430.15 446.02 436.2 446.68 442.05H446.69Z" fill="black"/>
<path d="M446.66 463.73C445.64 463.15 444.61 462.57 443.59 461.99C444.49 461.7 445.41 461.46 446.34 461.26C446.4 462.09 446.51 462.91 446.66 463.73Z" fill="black"/>
<path d="M403.21 235.22C404.14 237.15 402.59 239.76 401.43 241.26C396.67 247.38 386.45 249.01 380.41 243.94C378.53 242.37 376.69 239.87 377.06 237.27C377.37 235.16 379.17 233.48 381.31 233.73C382.22 233.83 383.05 233.21 383.49 232.41C387.91 231.22 392.64 231.41 397.12 232.38C398.99 232.79 402.26 233.23 403.21 235.22Z" fill="black"/>
<path d="M377.74 229.26C381.67 227.44 385.9 226.54 390.24 226.58C394.31 226.61 398.8 227.21 402.59 228.75C406.01 230.14 408.69 232.91 408.44 236.85C408.22 240.22 406.43 243.32 404.14 245.73C400.24 249.82 394.44 252.01 388.83 251.91C382.76 251.79 376.45 248.84 373.5 243.33C371.84 240.24 371.52 236.65 373.16 233.49C374.05 231.75 375.58 230.26 377.37 229.43C376.17 230.02 375.87 231.75 376.5 232.83C377.23 234.08 378.7 234.31 379.92 233.73C381.08 233.18 382.27 232.74 383.49 232.41C383.05 233.21 382.22 233.83 381.31 233.73C379.17 233.48 377.37 235.16 377.06 237.27C376.69 239.87 378.53 242.37 380.41 243.94C386.45 249.01 396.67 247.38 401.43 241.26C402.59 239.76 404.14 237.15 403.21 235.22C402.26 233.23 398.99 232.79 397.12 232.38C392.64 231.41 387.91 231.22 383.49 232.41C383.69 232.04 383.81 231.62 383.81 231.23C383.81 229.75 382.66 228.88 381.31 228.73C380.08 228.59 378.86 228.79 377.74 229.26Z" fill="black"/>
<path d="M383.49 232.41C382.27 232.74 381.08 233.18 379.92 233.73C378.7 234.31 377.23 234.08 376.5 232.83C375.87 231.75 376.17 230.02 377.37 229.43C377.49 229.36 377.61 229.31 377.74 229.26C378.86 228.79 380.08 228.59 381.31 228.73C382.66 228.88 383.81 229.75 383.81 231.23C383.81 231.62 383.69 232.04 383.49 232.41Z" fill="black"/>
<path d="M365.67 757.03C370.2 756.99 376.64 759.37 374.98 765.08C373.36 770.62 367.07 773.99 362.31 776.42C351.74 781.82 339.73 784.16 327.9 783.66C314.81 783.1 301.98 778.92 291.26 771.36C291.17 770.84 290.94 770.37 290.56 769.97C290.35 769.75 290.15 769.52 289.96 769.28C289.47 768.61 289.05 767.89 288.72 767.14C288.67 767.03 288.63 766.92 288.59 766.81C288.51 766.59 288.41 766.38 288.3 766.19C288.36 765.86 288.35 765.51 288.3 765.16C287.34 759.1 286.38 753.04 285.43 746.98C284.48 740.99 283.53 734.99 282.58 728.99C286 727.11 289.29 724.98 292.54 722.79C298.86 718.54 305.15 714.25 311.46 709.97C317.77 705.69 324.09 701.41 330.41 697.13C330.68 696.95 330.94 696.77 331.21 696.59C332.6 709.06 334.99 721.42 338.39 733.5C338.59 734.21 338.79 734.92 339 735.62C336.29 736.77 337.55 741.22 340.45 740.38C340.87 741.7 341.3 743.02 341.74 744.33C342.29 745.97 342.86 747.6 343.45 749.23C344.04 750.85 344.56 752.62 345.49 754.09C349.72 760.81 359.35 757.1 365.67 757.03Z" fill="#EFCAAB"/>
<path d="M369.89 738.68C366.75 739.36 365.42 734.54 368.57 733.86L368.99 733.77C369.19 733.79 369.39 733.8 369.59 733.82C370.99 733.93 372.03 734.88 372.09 736.32C372.13 737.15 371.62 738 370.89 738.47C370.56 738.54 370.22 738.61 369.89 738.68Z" fill="black"/>
<path d="M678.11 786.52C680.71 771.13 663.76 763.91 651.97 758.23C623.37 744.44 592.64 735.35 561.35 730.18C498.23 719.73 433.16 725 370.89 738.47C371.62 738 372.13 737.15 372.09 736.32C372.03 734.88 370.99 733.93 369.59 733.82C369.39 733.8 369.19 733.79 368.99 733.77C376.74 732.08 384.52 730.52 392.34 729.11C456.89 717.46 524.26 715.18 588.41 730.55C604.1 734.31 619.55 739.14 634.53 745.14C641.99 748.12 649.34 751.37 656.55 754.91C663.11 758.13 670.01 761.34 675.49 766.26C681.48 771.64 683.74 778.7 683.08 785.72C681.92 783.5 679.01 784.61 678.55 786.59L678.11 786.52Z" fill="black"/>
<path d="M368.57 733.86C365.42 734.54 366.75 739.36 369.89 738.68C370.22 738.61 370.56 738.54 370.89 738.47C370.5 738.72 370.05 738.86 369.59 738.82C366.13 738.56 362.67 738.15 359.24 737.61C359.06 737.58 358.9 737.53 358.74 737.46C360.14 737.47 361.55 737.53 362.96 737.64C364.3 737.74 365.46 736.41 365.46 735.14C365.46 734.4 365.15 733.78 364.67 733.35C364.72 733.36 364.78 733.36 364.83 733.37C366.21 733.53 367.6 733.66 368.99 733.77L368.57 733.86Z" fill="black"/>
<path d="M364.67 733.35C365.15 733.78 365.46 734.4 365.46 735.14C365.46 736.41 364.3 737.74 362.96 737.64C361.55 737.53 360.14 737.47 358.74 737.46C357.7 736.98 357.25 735.58 357.49 734.54C357.63 733.94 358.12 733.35 358.64 733.04C359.26 732.68 359.88 732.68 360.57 732.79C361.38 732.92 362.2 733.05 363.03 733.15C363.06 733.15 363.09 733.15 363.12 733.15C363.31 733.18 363.5 733.2 363.69 733.23C364.02 733.26 364.34 733.31 364.67 733.34V733.35Z" fill="black"/>
<path d="M343.8 734.21C350.05 732.67 356.54 732.13 362.96 732.64C363.61 732.69 364.22 732.94 364.67 733.35C364.34 733.32 364.02 733.27 363.69 733.24C363.5 733.21 363.31 733.19 363.12 733.16C363.09 733.16 363.06 733.16 363.03 733.16C362.2 733.06 361.38 732.93 360.57 732.8C359.88 732.69 359.26 732.69 358.64 733.05C358.12 733.36 357.63 733.95 357.49 734.55C357.25 735.59 357.7 736.99 358.74 737.47C354.19 737.45 349.68 737.97 345.26 739.03C344.76 737.43 344.27 735.83 343.8 734.22V734.21Z" fill="black"/>
<path d="M352.95 530.31C353.66 531.48 354.36 532.65 355.06 533.82C354.9 533.79 354.73 533.77 354.57 533.75C353.22 533.56 352.5 531.84 352.82 530.67C352.86 530.54 352.9 530.42 352.95 530.31Z" fill="black"/>
<path d="M348.27 266.64V266.66C348.27 266.66 348.27 266.68 348.26 266.69V266.72C348.26 266.72 348.24 266.79 348.23 266.81C348.23 266.79 348.24 266.73 348.25 266.69C348.25 266.69 348.25 266.65 348.27 266.64Z" fill="black"/>
<path d="M348.27 266.61V266.64C348.27 266.64 348.25 266.67 348.25 266.68C348.25 266.65 348.26 266.63 348.27 266.61Z" fill="black"/>
<path d="M348.23 266.81C348.23 266.81 348.25 266.77 348.26 266.72C348.24 266.9 348.23 267.07 348.23 267.24C348.21 267.6 348.23 267.95 348.25 268.3C348.28 268.75 348.42 269.39 348.63 270.1C349.56 273.3 351.67 276.3 353.96 278.81C356.3 281.38 359 283.71 362.11 285.3C362.95 285.73 363.3 285.86 364.35 286.21C365.54 286.59 366.76 286.9 367.99 287.12C370.32 287.55 372.7 287.65 375.06 287.6C379.95 287.5 384.8 286.74 389.61 285.95C399.09 284.39 408.54 282.29 417.52 278.81C421.89 277.11 426.12 275.04 430.11 272.57C433.71 270.34 437.97 267.96 438.2 263.26C438.39 259.25 437.53 255.04 436.92 251.07C436.3 247 435.53 242.94 434.47 238.95C432.55 231.69 429.63 224.4 424.4 218.86C421.66 215.95 418.37 213.66 414.7 212.07C410.25 210.15 405.41 209.19 400.68 208.3C396.52 207.52 392.02 206.62 387.81 207.54C385.7 208.01 383.8 208.91 382.22 210.4C380.49 212.01 379.12 213.95 377.73 215.86C366.16 231.68 356.29 248.73 348.28 266.62C348.28 266.59 348.28 266.55 348.3 266.51C348.55 265.18 347.93 263.81 346.55 263.43C345.6 263.16 344.41 263.56 343.82 264.39C344.66 262.49 345.53 260.6 346.42 258.72C351.04 248.97 356.22 239.48 361.93 230.33C364.82 225.68 367.85 221.13 371.02 216.66C374.01 212.44 376.98 207.45 381.49 204.7C385.76 202.09 390.99 201.9 395.82 202.49C400.89 203.1 406.02 204.08 410.92 205.48C415.81 206.88 420.41 208.97 424.42 212.11C427.7 214.69 430.44 217.93 432.65 221.47C437.16 228.69 439.5 237.13 441.02 245.44C441.82 249.81 442.42 254.23 442.93 258.65C443.23 261.22 443.41 263.83 442.76 266.37C442.13 268.89 440.57 271.03 438.61 272.68C434.77 275.93 430.23 278.49 425.71 280.67C421.09 282.89 416.26 284.71 411.35 286.2C401.35 289.22 390.84 291.17 380.45 292.25C375.15 292.8 369.7 292.83 364.51 291.47C360.47 290.4 357.02 288.34 353.85 285.66C349.17 281.69 344.06 275.62 343.34 269.15C343.5 269.32 343.69 269.48 343.92 269.61C344.98 270.23 346.79 269.96 347.34 268.71C347.64 268.04 347.93 267.36 348.25 266.69C348.24 266.73 348.23 266.79 348.23 266.81Z" fill="black"/>
<path d="M349.57 679.4C349.06 681.3 348.15 683.1 346.96 684.61C344.98 687.12 342.35 689.02 339.73 690.81C338.45 691.69 337.17 692.56 335.88 693.43C335.74 692.03 335.61 690.64 335.5 689.24C335.5 689.23 335.5 689.21 335.49 689.2C340.47 686.37 345.18 683.08 349.57 679.4Z" fill="black"/>
<path d="M348.27 266.61C348.27 266.61 348.25 266.65 348.25 266.68C347.93 267.36 347.64 268.04 347.34 268.71C346.79 269.96 344.98 270.23 343.92 269.61C343.69 269.48 343.5 269.32 343.34 269.15C343.19 267.84 343.23 266.51 343.48 265.18C343.48 265.16 343.49 265.15 343.49 265.13C343.6 264.88 343.71 264.63 343.82 264.39C344.41 263.56 345.6 263.16 346.55 263.43C347.93 263.81 348.55 265.18 348.3 266.51C348.29 266.55 348.29 266.59 348.28 266.62C348.28 266.62 348.277 266.627 348.27 266.64V266.61Z" fill="black"/>
<path d="M343.8 734.21C344.27 735.82 344.76 737.42 345.26 739.02C343.68 739.39 342.11 739.84 340.56 740.35C340.52 740.36 340.48 740.37 340.45 740.38C339.95 738.8 339.47 737.22 339 735.62C339.07 735.58 339.15 735.55 339.23 735.52C340.74 735.02 342.26 734.58 343.8 734.21Z" fill="black"/>
<path d="M343.82 264.39C343.71 264.63 343.6 264.88 343.49 265.13C343.55 264.86 343.66 264.61 343.82 264.39Z" fill="black"/>
<path d="M343.49 265.13C343.49 265.13 343.48 265.16 343.48 265.18C343.23 266.51 343.19 267.84 343.34 269.15C342.62 268.35 342.58 267.2 343.02 266.19C343.18 265.84 343.33 265.48 343.49 265.13Z" fill="black"/>
<path d="M291.26 771.36C301.98 778.92 314.81 783.1 327.9 783.66C339.73 784.16 351.74 781.82 362.31 776.42C367.07 773.99 373.36 770.62 374.98 765.08C376.64 759.37 370.2 756.99 365.67 757.03C359.35 757.1 349.72 760.81 345.49 754.09C344.56 752.62 344.04 750.85 343.45 749.23C342.86 747.6 342.29 745.97 341.74 744.33C341.3 743.02 340.87 741.7 340.45 740.38C340.48 740.37 340.52 740.36 340.56 740.35C342.11 739.84 343.68 739.39 345.26 739.02L345.53 739.86C346.66 743.38 347.75 747 349.21 750.4C349.78 751.75 350.46 752.57 351.92 752.88C353.46 753.22 355.15 753.05 356.71 752.91C360.34 752.58 364 751.76 367.67 752.11C370.89 752.41 374.01 753.41 376.53 755.49C378.91 757.47 380.36 760.54 380.24 763.65C380.11 766.98 378.47 769.92 376.36 772.41C372.27 777.26 366.11 780.38 360.36 782.82C337.15 792.67 308.88 790.14 288.28 775.36C287.65 774.91 287.21 774.27 287.09 773.57C287.52 773.99 288.21 774.24 288.8 774.24C289.39 774.24 290.14 773.97 290.56 773.51C291 773.03 291.33 772.41 291.3 771.74C291.29 771.61 291.28 771.48 291.26 771.36Z" fill="black"/>
<path d="M343.8 734.21C342.26 734.58 340.74 735.02 339.23 735.52C339.15 735.55 339.07 735.58 339 735.62C338.79 734.92 338.59 734.21 338.39 733.5C334.99 721.42 332.6 709.06 331.21 696.59C332.76 695.54 334.32 694.48 335.88 693.43C337.25 707.23 339.91 720.9 343.8 734.21Z" fill="black"/>
<path d="M340.45 740.38C337.55 741.22 336.29 736.77 339 735.62C339.47 737.22 339.95 738.8 340.45 740.38Z" fill="black"/>
<path d="M335.09 687.94C339.16 685.24 344.78 681.97 345.07 676.66C346.61 675.41 348.11 674.12 349.57 672.78C350.23 674.87 350.17 677.2 349.57 679.4C345.18 683.08 340.47 686.37 335.49 689.2C335.46 688.75 335.32 688.32 335.09 687.94Z" fill="black"/>
<path d="M335.5 689.24C335.61 690.64 335.74 692.03 335.88 693.43C334.32 694.48 332.76 695.54 331.21 696.59C330.99 694.71 330.81 692.83 330.65 690.94L332.69 689.56C333.34 689.91 334.15 689.96 334.98 689.49C335.15 689.39 335.32 689.3 335.49 689.2C335.5 689.2 335.5 689.23 335.5 689.24Z" fill="black"/>
<path d="M334.98 689.49C334.15 689.96 333.34 689.91 332.69 689.56C333.28 689.15 333.88 688.75 334.47 688.35C334.67 688.21 334.88 688.08 335.09 687.94C335.32 688.32 335.46 688.75 335.49 689.2C335.32 689.3 335.15 689.39 334.98 689.49Z" fill="black"/>
<path d="M332.46 685.17C334.21 684.19 335.94 683.15 337.63 682.06C340.2 680.39 342.69 678.58 345.07 676.66C344.78 681.97 339.16 685.24 335.09 687.94C334.66 687.23 333.93 686.74 333 686.74C332.37 686.74 331.73 687.02 331.25 687.47C331.14 686.61 331.47 685.72 332.46 685.17Z" fill="black"/>
<path d="M334.47 688.35C333.88 688.75 333.28 689.15 332.69 689.56C331.91 689.16 331.36 688.33 331.25 687.47C331.73 687.02 332.37 686.74 333 686.74C333.93 686.74 334.66 687.23 335.09 687.94C334.88 688.08 334.67 688.21 334.47 688.35Z" fill="black"/>
<path d="M332.69 689.56L330.65 690.94C330.59 690.38 330.55 689.81 330.5 689.24C330.44 688.55 330.76 687.92 331.25 687.47C331.36 688.33 331.91 689.16 332.69 689.56Z" fill="black"/>
<path d="M331.21 696.59C330.94 696.77 330.68 696.95 330.41 697.13C324.09 701.41 317.77 705.69 311.46 709.97C305.15 714.25 298.86 718.54 292.54 722.79C289.29 724.98 286 727.11 282.58 728.99C282.46 728.2 282.33 727.41 282.21 726.62C282.04 725.53 280.91 724.84 279.85 724.8C279.89 724.77 279.93 724.75 279.97 724.73C286.04 721.42 291.69 717.35 297.4 713.47C303.58 709.29 309.76 705.1 315.94 700.91C320.85 697.58 325.75 694.26 330.65 690.94C330.81 692.83 330.99 694.71 331.21 696.59Z" fill="black"/>
<path d="M314.57 466.66C315.8 468.71 317.03 470.75 318.26 472.79C316.65 472.38 315.04 471.95 313.44 471.52C312.67 471.31 312.17 470.85 311.9 470.3C311.12 468.67 312.36 466.21 314.57 466.66Z" fill="black"/>
<path d="M313.44 471.52C315.04 471.95 316.65 472.38 318.26 472.79C322.21 479.35 326.15 485.91 330.1 492.46C337.7 505.09 345.35 517.69 352.95 530.31C352.9 530.42 352.86 530.54 352.82 530.67C352.5 531.84 353.22 533.56 354.57 533.75C354.73 533.77 354.9 533.79 355.06 533.82C358.58 539.67 362.08 545.53 365.56 551.4C370.88 560.4 375.93 569.61 379.53 579.46C382.66 588.03 384.45 597.03 384.59 606.16C384.84 623.03 379.74 639.79 371.08 654.19C365.37 663.7 358.07 672.28 349.57 679.4C350.17 677.2 350.23 674.87 349.57 672.78C357.94 665.08 364.9 655.85 370.06 645.72C377.38 631.35 380.91 615.01 379.14 598.92C376.96 579.17 366.04 561.87 356.02 545.22C344.24 525.65 332.46 506.08 320.68 486.5C317.51 481.25 314.35 475.99 311.19 470.73L311.9 470.3C312.17 470.85 312.67 471.31 313.44 471.52Z" fill="black"/>
<path d="M314.57 466.66C312.36 466.21 311.12 468.67 311.9 470.3L311.19 470.73C302.61 456.49 294.04 442.25 285.47 428.01C284.82 426.93 285.08 425.89 285.75 425.18C286.78 424.09 288.78 423.82 289.79 425.49C291.26 427.94 292.74 430.4 294.22 432.86C301 444.13 307.79 455.4 314.57 466.66Z" fill="black"/>
<path d="M295.56 633.02C296.9 633.19 298.06 634.03 298.06 635.52C298.06 636.75 296.9 638.19 295.56 638.02C287.92 637.05 280.15 640.76 276.34 647.57C274.77 650.38 270.45 647.86 272.02 645.04C276.58 636.89 286.25 631.84 295.56 633.02Z" fill="black"/>
<path d="M291.3 771.74C291.33 772.41 291 773.03 290.56 773.51C290.14 773.97 289.41 774.24 288.8 774.24C288.19 774.24 287.52 773.99 287.09 773.57C286.99 773.04 287.07 772.48 287.39 771.94C288.02 770.85 289.71 770.26 290.81 771.04C290.96 771.15 291.11 771.25 291.26 771.36C291.28 771.48 291.29 771.61 291.3 771.74Z" fill="black"/>
<path d="M289.96 769.28C290.02 769.37 290.09 769.45 290.15 769.54L289.76 769.03C289.83 769.12 289.89 769.2 289.96 769.28Z" fill="black"/>
<path d="M288.72 767.14C288.75 767.24 288.78 767.33 288.82 767.42C288.74 767.22 288.66 767.03 288.57 766.83C288.61 766.93 288.66 767.04 288.72 767.14Z" fill="black"/>
<path d="M283.76 768.14C283.65 767.82 283.64 767.47 283.7 767.13C284.24 768.05 285.56 768.51 286.55 768.24C287.6 767.95 288.17 767.14 288.3 766.19C288.41 766.38 288.51 766.59 288.59 766.81C288.63 766.92 288.67 767.03 288.72 767.14C288.66 767.04 288.61 766.93 288.57 766.83C288.66 767.03 288.74 767.22 288.82 767.42C288.78 767.33 288.75 767.24 288.72 767.14C289.05 767.89 289.47 768.61 289.96 769.28C289.89 769.2 289.83 769.12 289.76 769.03L290.15 769.54C290.09 769.45 290.02 769.37 289.96 769.28C290.15 769.52 290.35 769.75 290.56 769.97C290.94 770.37 291.17 770.84 291.26 771.36C291.11 771.25 290.96 771.15 290.81 771.04C289.71 770.26 288.02 770.85 287.39 771.94C287.07 772.48 286.99 773.04 287.09 773.57L287.03 773.51C286.31 772.75 285.66 771.9 285.11 771.01C284.55 770.11 284.12 769.13 283.76 768.14Z" fill="black"/>
<path d="M285.51 765.06C286.11 764.87 286.9 765 287.44 765.32C287.81 765.54 288.09 765.84 288.3 766.19C288.17 767.14 287.6 767.95 286.55 768.24C285.56 768.51 284.24 768.05 283.7 767.13C283.75 766.81 283.87 766.49 284.02 766.21C284.32 765.64 284.91 765.26 285.51 765.06Z" fill="black"/>
<path d="M285.43 746.98C286.38 753.04 287.34 759.1 288.3 765.16C288.35 765.51 288.36 765.86 288.3 766.19C288.09 765.84 287.81 765.54 287.44 765.32C286.9 765 286.11 764.87 285.51 765.06C284.91 765.26 284.32 765.64 284.02 766.21C283.87 766.49 283.75 766.81 283.7 767.13C283.59 766.94 283.51 766.72 283.47 766.49C282.61 761.05 281.76 755.6 280.89 750.16H281.77C282.41 750.16 283.08 749.88 283.53 749.43C283.98 748.98 284.29 748.28 284.27 747.66C284.26 747.5 284.24 747.33 284.21 747.17L285.43 746.98Z" fill="black"/>
<path d="M285.75 425.18C285.08 425.89 284.82 426.93 285.47 428.01C294.04 442.25 302.61 456.49 311.19 470.73C314.35 475.99 317.51 481.25 320.68 486.5C332.46 506.08 344.24 525.65 356.02 545.22C366.04 561.87 376.96 579.17 379.14 598.92C380.91 615.01 377.38 631.35 370.06 645.72C364.9 655.85 357.94 665.08 349.57 672.78C349.02 671.05 347.98 669.48 346.34 668.26C343.81 666.38 340.54 666.09 337.5 666.3C333.91 666.54 330.32 667.02 326.74 667.37C296.44 670.29 266.01 671.7 235.57 671.6C205.14 671.5 174.71 669.89 144.44 666.77C140.67 666.38 136.91 665.97 133.15 665.54C133 665.52 132.85 665.52 132.71 665.54C132.71 665.54 132.703 665.54 132.69 665.54C131.03 665.22 129.36 664.9 127.7 664.57C127.37 664.51 127.04 664.48 126.71 664.52C123.42 642.99 123.11 620.99 125.58 599.35C128.19 576.5 134.06 553.96 142.94 532.75C144.02 530.18 145.15 527.63 146.33 525.1C146.89 523.87 146.67 522.4 145.43 521.68C144.35 521.05 142.58 521.34 142.01 522.57C132.5 543.15 125.82 564.97 122.23 587.35C118.63 609.73 117.97 632.56 120.46 655.09C121.71 666.39 123.7 677.61 126.5 688.63C126.63 689.15 126.76 689.67 126.9 690.19C126.76 690.39 126.66 690.61 126.6 690.84C126.29 691.99 126.83 693.08 127.78 693.64C128.82 697.82 129.64 702.07 129.27 706.39C128.92 710.39 127.1 714.78 123.73 717.16C120.05 719.76 115.46 719.23 111.25 718.24C110.34 718.02 109.44 717.78 108.57 717.55C103.3 716.14 98.0099 714.69 92.9499 712.64C88.2199 710.72 83.71 708.1 80.03 704.54C76.66 701.28 74.04 697.39 72 693.19C62.23 673.02 67.04 649.85 64.39 628.39C64.02 625.34 63.52 622.31 62.84 619.31C62.35 617.18 59.98 617.11 58.73 618.26C43.01 604.06 41.13 580.59 46.26 561.15C49.43 549.11 54.9 537.87 60.75 526.93C63.71 521.4 66.7 515.87 69.97 510.52C73.24 505.18 76.72 499.97 80.24 494.8C87.34 484.39 94.71 474.13 101.09 463.26C102.5 463.52 104.11 462.74 104.06 460.9C104.03 459.78 104.01 458.67 104.01 457.55C103.83 442.13 105.09 426.69 107.81 411.5C110.75 395.07 115.31 378.93 121.44 363.4C124.71 355.11 128.46 347.01 132.63 339.12C149.04 332.55 164.16 322.71 177.57 311.22C197.27 294.33 213.38 273.5 228.6 252.62C236.62 241.61 244.36 230.38 251.89 219.02C274.31 215.1 296.47 209.73 318.53 204.15C347.76 196.76 376.95 189 406.69 183.84C435.48 178.84 464.65 177.74 493.61 174.19C507.89 172.44 522.13 170.06 535.97 166.06C542.76 164.1 549.41 161.74 555.9 158.96C559.52 157.41 563.24 155.75 566.62 153.63C569.02 156.2 571.39 158.81 573.72 161.44C561.93 168.65 550.77 176.88 540.4 186C535.52 190.3 530.28 194.79 527.33 200.7C524.89 205.56 524.22 210.96 524.98 216.3C526.49 227.02 533.79 236.61 543.52 241.22C554.86 246.6 568.17 246.21 579.93 242.41C594.15 237.8 606.21 228.62 617.92 219.64C617.94 219.64 617.95 219.61 617.97 219.6C618.84 220.93 619.69 222.28 620.54 223.62C625.72 231.82 630.67 240.27 634.23 249.31C637.67 258.03 639.77 267.21 639.59 276.61C639.42 285.3 637.41 293.89 634.1 301.91C627.26 318.51 614.99 332.45 600.41 342.74C584.94 353.66 567.25 360.89 549.25 366.48C529.46 372.62 509.15 377.23 488.71 380.61C467.77 384.06 446.6 386.09 425.39 386.7C404.01 387.32 382.54 385.36 361.2 387.01C343.38 388.39 326.16 393.14 310.34 401.49C295.4 409.37 281.93 420.23 271.2 433.28C268.48 436.57 265.94 440 263.56 443.55C261.77 446.24 266.1 448.74 267.88 446.08C273 438.42 279.01 431.39 285.72 425.13L285.75 425.17V425.18ZM526.87 336.25C530.09 336.25 530.1 331.25 526.87 331.25H497.77C494.55 331.25 494.54 336.25 497.77 336.25H526.87ZM442.76 266.37C443.41 263.83 443.23 261.22 442.93 258.65C442.42 254.23 441.82 249.81 441.02 245.44C439.5 237.13 437.16 228.69 432.65 221.47C430.44 217.93 427.7 214.69 424.42 212.11C420.41 208.97 415.81 206.88 410.92 205.48C406.02 204.08 400.89 203.1 395.82 202.49C390.99 201.9 385.76 202.09 381.49 204.7C376.98 207.45 374.01 212.44 371.02 216.66C367.85 221.13 364.82 225.68 361.93 230.33C356.22 239.48 351.04 248.97 346.42 258.72C345.53 260.6 344.66 262.49 343.82 264.39C343.66 264.61 343.55 264.86 343.49 265.13C343.33 265.48 343.18 265.84 343.02 266.19C342.58 267.2 342.62 268.35 343.34 269.15C344.06 275.62 349.17 281.69 353.85 285.66C357.02 288.34 360.47 290.4 364.51 291.47C369.7 292.83 375.15 292.8 380.45 292.25C390.84 291.17 401.35 289.22 411.35 286.2C416.26 284.71 421.09 282.89 425.71 280.67C430.23 278.49 434.77 275.93 438.61 272.68C440.57 271.03 442.13 268.89 442.76 266.37ZM298.06 635.52C298.06 634.03 296.9 633.19 295.56 633.02C286.25 631.84 276.58 636.89 272.02 645.04C270.45 647.86 274.77 650.38 276.34 647.57C280.15 640.76 287.92 637.05 295.56 638.02C296.9 638.19 298.06 636.75 298.06 635.52Z" fill="#EFCAAB"/>
<path d="M282.58 728.99C283.53 734.99 284.48 740.99 285.43 746.98L284.21 747.17C284.12 746.69 283.91 746.23 283.53 745.89C283.05 745.44 282.44 745.16 281.77 745.16H280.11C279.38 740.55 278.65 735.93 277.92 731.32C279.5 730.61 281.05 729.82 282.58 728.99Z" fill="black"/>
<path d="M281.99 121.68C284.9 120.36 287.44 124.67 284.52 126C282.74 126.81 280.96 127.63 279.19 128.46C274.22 130.22 269.27 132.04 264.34 133.92C263.11 134.39 262.61 135.49 262.66 136.55C250.45 142.77 238.48 149.46 226.79 156.6C220.91 160.2 214.74 163.69 209.27 167.9C206.93 169.71 204.73 171.9 203.67 174.72C202.47 177.9 202.55 181.4 202.7 184.74C203.02 192.25 203.94 199.73 205.45 207.1C206.05 210.05 206.45 213.73 208.23 216.26C209.94 218.71 212.97 218.93 215.72 218.83C222.84 218.56 230.03 217.41 237.07 216.39C241.03 215.81 244.98 215.19 248.92 214.51C248.85 214.59 248.78 214.69 248.71 214.79C247.52 216.58 246.34 218.38 245.14 220.16C240.03 220.99 234.9 221.73 229.76 222.38C226.06 222.84 222.35 223.26 218.63 223.61C215.53 223.91 212.22 224.12 209.24 223.02C202.49 220.53 201.46 212.86 200.28 206.67C198.85 199.23 197.94 191.66 197.67 184.09C197.41 177 198.74 170.53 204.21 165.64C209.44 160.95 215.93 157.44 221.87 153.76C228.25 149.82 234.71 146.01 241.25 142.34C254.53 134.88 268.13 127.99 281.99 121.68Z" fill="black"/>
<path d="M280.89 750.16C280.63 748.49 280.37 746.83 280.11 745.16H281.77C282.44 745.16 283.05 745.44 283.53 745.89C283.91 746.23 284.12 746.69 284.21 747.17C284.24 747.33 284.26 747.5 284.27 747.66C284.29 748.28 283.97 748.99 283.53 749.43C283.09 749.87 282.41 750.16 281.77 750.16H280.89Z" fill="black"/>
<path d="M282.21 726.62C282.33 727.41 282.46 728.2 282.58 728.99C281.05 729.82 279.5 730.61 277.92 731.32C277.75 730.2 277.57 729.07 277.39 727.95C277.27 727.21 277.38 726.46 277.75 725.88C278.46 725.53 279.16 725.17 279.85 724.8C280.91 724.84 282.04 725.53 282.21 726.62Z" fill="black"/>
<path d="M277.78 750.16C280.32 749.7 280.14 745.48 277.26 745.21C277.42 745.18 277.59 745.16 277.75 745.16H280.11C280.37 746.83 280.63 748.49 280.89 750.16H277.78Z" fill="black"/>
<path d="M279.13 724.87C279.36 724.81 279.6 724.78 279.85 724.8C279.16 725.17 278.46 725.53 277.75 725.88C278.04 725.41 278.5 725.05 279.13 724.87Z" fill="black"/>
<path d="M275.98 749.43C276.47 749.87 277.07 750.16 277.75 750.16C277.57 750.2 277.37 750.21 277.15 750.2C270.71 749.86 264.27 749.57 257.82 749.36C235.47 748.61 213.11 748.68 190.77 749.55C190.71 747.88 190.66 746.22 190.62 744.55C196.81 744.31 203 744.13 209.19 744.01C231.85 743.58 254.52 743.98 277.15 745.2C277.19 745.2 277.23 745.2 277.26 745.2C276.78 745.3 276.32 745.54 275.98 745.88C275.54 746.31 275.22 747.02 275.25 747.65C275.27 748.29 275.49 748.96 275.98 749.42V749.43Z" fill="black"/>
<path d="M275.25 747.66C275.22 747.03 275.54 746.32 275.98 745.89C276.32 745.55 276.78 745.31 277.26 745.21C280.14 745.48 280.32 749.7 277.78 750.16H277.75C277.07 750.16 276.47 749.87 275.98 749.43C275.49 748.97 275.27 748.3 275.25 747.66Z" fill="black"/>
<path d="M279.19 128.46C274.48 130.66 269.81 132.92 265.18 135.26C264.34 135.68 263.5 136.11 262.66 136.55C262.61 135.49 263.11 134.39 264.34 133.92C269.27 132.04 274.22 130.22 279.19 128.46Z" fill="black"/>
<path d="M566.62 153.64C563.24 155.76 559.52 157.42 555.9 158.97C549.41 161.75 542.76 164.11 535.97 166.07C522.13 170.07 507.89 172.45 493.61 174.2C464.65 177.75 435.48 178.85 406.69 183.85C376.95 189.01 347.76 196.77 318.53 204.16C296.47 209.74 274.31 215.11 251.89 219.03C252.27 218.46 252.65 217.88 253.03 217.31C253.95 215.91 253.23 214.57 252.07 213.96C254.2 213.59 256.33 213.19 258.45 212.79C287.05 207.37 315.18 199.78 343.41 192.7C371.67 185.6 400.12 179.03 429.09 175.52C456.71 172.18 484.65 171.38 512.07 166.45C525.64 164.01 539.06 160.54 551.83 155.3C556.3 153.46 561.06 151.5 565.1 148.67C564.33 149.57 564.1 150.94 565.13 152.04C565.63 152.57 566.13 153.1 566.62 153.64Z" fill="black"/>
<path d="M252.07 213.96C253.23 214.57 253.95 215.91 253.03 217.31C252.65 217.88 252.27 218.46 251.89 219.03C249.64 219.42 247.39 219.8 245.14 220.16C246.34 218.38 247.52 216.58 248.71 214.79C248.78 214.69 248.85 214.59 248.92 214.51C249.97 214.33 251.02 214.15 252.07 213.96Z" fill="black"/>
<path d="M252.07 213.96C251.02 214.15 249.97 214.33 248.92 214.51C249.79 213.49 251.09 213.46 252.07 213.96Z" fill="black"/>
<path d="M245.14 220.16C247.39 219.8 249.64 219.42 251.89 219.03C244.36 230.39 236.62 241.62 228.6 252.63C213.38 273.51 197.27 294.34 177.57 311.23C164.16 322.72 149.04 332.56 132.63 339.13C132.8 338.8 132.97 338.47 133.15 338.14C134.14 336.28 132.63 334.55 131.04 334.38C136.37 332.25 141.55 329.76 146.58 326.96C168.84 314.56 187.12 296.8 203.27 277.31C218.34 259.13 232.04 239.81 245.14 220.16Z" fill="black"/>
<path d="M191.22 713.48C191.25 712.51 190.6 711.58 189.72 711.18L189.79 711C193.66 712.52 197.54 714.03 201.42 715.55C214.54 720.69 227.66 726.36 241.51 729.25C248.03 730.62 254.73 731.26 261.38 730.64C267.13 730.1 272.61 728.4 277.75 725.88C277.38 726.46 277.27 727.21 277.39 727.95C277.57 729.07 277.75 730.2 277.92 731.32C276.71 731.87 275.49 732.37 274.24 732.83C260.94 737.71 246.38 736.05 233.03 732.32C226.03 730.37 219.22 727.84 212.45 725.21C205.39 722.47 198.33 719.69 191.27 716.93C191.24 716.92 191.2 716.9 191.17 716.89C191.17 715.75 191.19 714.62 191.22 713.48Z" fill="black"/>
<path d="M189.72 711.18C190.6 711.58 191.25 712.51 191.22 713.48C191.19 714.62 191.17 715.75 191.17 716.89C189.51 716.24 187.85 715.59 186.19 714.94C186.19 714.45 186.21 713.97 186.22 713.48C186.26 712.08 187.34 711.04 188.72 710.98C189.07 710.96 189.41 711.04 189.72 711.18Z" fill="black"/>
<path d="M189.84 749.58L190.77 749.55C190.98 754.97 191.34 760.39 191.83 765.8C191.89 766.47 191.59 767.09 191.11 767.54C190.16 767.68 189.21 767.85 188.28 768.06C187.44 767.66 186.92 766.78 186.83 765.8C186.26 759.62 185.88 753.43 185.69 747.23L187.43 747.18C187.43 748.43 188.23 749.64 189.84 749.58Z" fill="black"/>
<path d="M190.62 744.55C190.66 746.22 190.71 747.88 190.77 749.55L189.84 749.58C188.23 749.64 187.43 748.43 187.43 747.18C187.43 745.93 188.23 744.65 189.84 744.58L190.62 744.55Z" fill="black"/>
<path d="M191.17 716.89C191.17 718.63 191.21 720.36 191.28 722.1C191.3 722.62 191.14 723.09 190.87 723.48C190.9 722.77 190.93 722.05 190.97 721.34C191.11 718.51 187.27 718.18 186.22 720.31C186.17 718.52 186.16 716.73 186.19 714.94C187.85 715.59 189.51 716.24 191.17 716.89Z" fill="black"/>
<path d="M191.11 767.54C190.63 768.01 189.96 768.3 189.33 768.3C188.94 768.3 188.59 768.21 188.28 768.06C189.21 767.85 190.16 767.68 191.11 767.54Z" fill="black"/>
<path d="M186.22 720.31C187.27 718.18 191.11 718.51 190.97 721.34C190.93 722.05 190.9 722.77 190.87 723.48C190.4 724.14 189.6 724.56 188.78 724.6C187.39 724.66 186.34 723.4 186.28 722.1C186.26 721.51 186.24 720.91 186.22 720.31Z" fill="black"/>
<path d="M185.69 747.23C185.42 738.6 185.52 729.96 185.97 721.34C185.99 720.95 186.08 720.61 186.22 720.31C186.24 720.91 186.26 721.51 186.28 722.1C186.34 723.4 187.39 724.66 188.78 724.6C189.6 724.56 190.4 724.14 190.87 723.48C190.54 730.5 190.46 737.53 190.62 744.55L189.84 744.58C188.23 744.65 187.43 745.93 187.43 747.18L185.69 747.23Z" fill="black"/>
<path d="M188.28 768.06C186.29 768.51 184.35 769.1 182.48 769.82C180.57 770.55 178.7 771.4 176.89 772.35C174.04 773.84 176.56 778.15 179.41 776.66C185.7 773.38 193.21 771.19 200.33 772.53C206.42 773.67 211.58 777.4 214.05 783.17C216.21 788.23 215.44 793.8 211.33 797.65C207.1 801.62 200.75 802.94 195.17 803.53C187.19 804.36 179.06 804.34 171.06 803.91C162.87 803.47 154.72 802.45 146.67 800.85C138.48 799.23 130.41 797.02 122.54 794.25C119.51 793.18 116.32 792.03 113.81 789.97C111.14 787.78 109.96 784.74 109.66 781.36C109.29 777.27 109.49 773.1 109.55 768.99C109.62 764.54 109.75 760.09 109.94 755.64C110.02 753.76 110.12 751.87 110.23 749.99C110.61 743.15 111.14 736.31 111.82 729.49C112.02 727.53 112.24 725.57 112.46 723.61C113.49 723.78 114.53 723.91 115.56 723.99C121.19 724.43 126.5 722.45 129.99 717.94C133.22 713.77 134.52 708.43 134.34 703.22C134.25 700.64 133.87 698.1 133.35 695.59L138.66 697.36C141.84 698.43 144.98 699.62 148.3 700.1C160.93 705.05 173.56 709.99 186.19 714.94C186.16 716.73 186.17 718.52 186.22 720.31C186.08 720.61 185.99 720.95 185.97 721.34C185.52 729.96 185.42 738.6 185.69 747.23C185.88 753.43 186.26 759.62 186.83 765.8C186.92 766.78 187.44 767.66 188.28 768.06Z" fill="#EFCAAB"/>
<path d="M180.26 163.02C181.2 163.96 181.15 165.32 180.44 166.34L180.41 166.37C178.57 168.55 174.68 166.13 176.34 163.53C176.38 163.46 176.43 163.39 176.47 163.32C176.56 163.22 176.64 163.12 176.73 163.02C177.61 161.99 179.37 162.13 180.26 163.02Z" fill="black"/>
<path d="M176.73 163.02C176.64 163.12 176.56 163.22 176.47 163.32C178.85 159.57 181.14 155.78 183.34 151.92C192.29 136.22 199.71 119.66 205.47 102.52C208.38 93.8501 210.87 85.0401 212.92 76.1301C213.96 71.62 214.88 67.0901 215.7 62.5401C216.47 58.2101 217.03 53.8 218.39 49.6C220.81 42.1 225.91 36.36 233.13 33.16C239.98 30.14 247.59 29.25 255.02 29.43C264.55 29.67 274.28 31.39 283.77 29.8C291.41 28.53 298.05 24.82 304.32 20.43C316.2 12.12 327.47 1.55003 342.74 0.790025C359.02 -0.0199749 373.24 10.28 385.78 19.35C392.49 24.21 399.2 29.04 406.48 33.04C413.94 37.14 421.78 40.4901 429.81 43.2701C446.34 49.0101 463.55 52.44 480.74 55.47C489.27 56.98 497.82 58.3701 506.35 59.9001C513.38 61.1601 520.75 62.81 526.32 67.57C531.36 71.87 532.75 78.32 534.09 84.49C534.55 86.6 535.02 89.7 536.15 92.19C534.35 92.08 532.55 91.9801 530.75 91.8901C529.65 88.6001 529.15 85.0201 528.37 81.7801C527.7 79.0201 526.92 76.21 525.31 73.83C523.45 71.11 520.52 69.26 517.53 67.99C510.42 64.96 502.25 64.2201 494.69 62.9201C486.13 61.4601 477.56 60.0201 469.03 58.3901C452.15 55.1701 435.31 51.2001 419.37 44.6601C411.56 41.4501 403.99 37.69 396.86 33.16C389.96 28.77 383.52 23.7301 376.81 19.0801C364.47 10.5201 349.99 2.39004 334.6 7.31004C320.73 11.75 310.79 23.62 298.04 30.18C290.3 34.16 282.03 35.5501 273.38 35.3901C264.68 35.2301 255.98 33.84 247.28 34.68C240.49 35.34 233.23 37.4 228.27 42.34C222.15 48.43 221.66 57.7401 220.17 65.7701C213.58 101.31 200.03 135.55 180.65 166.05C180.59 166.15 180.52 166.25 180.44 166.34C181.15 165.32 181.2 163.96 180.26 163.02C179.37 162.13 177.61 161.99 176.73 163.02Z" fill="black"/>
<path d="M143.93 197.96C155.34 186.96 166.21 175.39 176.47 163.32C176.43 163.39 176.38 163.46 176.34 163.53C174.68 166.13 178.57 168.55 180.41 166.37C180.37 166.43 180.31 166.5 180.26 166.56C178.98 168.07 177.7 169.57 176.4 171.06C166.01 183 155.02 194.42 143.5 205.27C137.73 210.69 131.84 215.97 125.81 221.1C119.93 226.1 113.83 230.82 107.88 235.73C102.5 240.17 97.0699 245.15 94.1899 251.65C91.7999 257.03 91.17 263.85 94.26 269.09C97.07 273.85 102.51 276.25 106.96 279.16C109.27 280.67 111.57 282.35 113.32 284.51C115.49 287.21 116.68 290.3 116.87 293.77C117.09 297.88 116.08 302.08 115.43 306.12C114.75 310.39 114.06 314.65 113.37 318.92C112.2 326.21 111.03 333.49 109.86 340.77C108.64 341.02 107.41 341.25 106.18 341.46C107.21 342.48 108.23 343.51 109.26 344.53L109.51 345.92C108.85 346.05 108.18 346.17 107.51 346.28C105.52 346.61 104.12 345.18 104.44 343.2C104.78 341.07 105.12 338.93 105.47 336.8C106.85 328.18 108.24 319.56 109.62 310.94C110.29 306.78 111.05 302.61 111.62 298.43C112.08 295.06 112.1 291.63 110.26 288.75C107.53 284.46 102.04 282.15 97.8299 279.33C95.3299 277.66 93 275.78 91.16 273.39C89.11 270.72 87.8899 267.53 87.4399 264.21C86.4999 257.37 88.53 250.38 92.36 244.7C96.55 238.51 102.32 233.75 108.12 229.15C120.53 219.31 132.52 208.95 143.93 197.96Z" fill="black"/>
<path d="M151.56 697.7C151.56 696.23 150.41 695.35 149.06 695.2C148.87 695.18 148.68 695.15 148.5 695.13C148.82 695.07 149.16 695.1 149.48 695.22L159.68 699.21C169.71 703.14 179.75 707.07 189.79 711L189.72 711.18C189.41 711.04 189.07 710.96 188.72 710.98C187.34 711.04 186.26 712.08 186.22 713.48C186.21 713.97 186.2 714.45 186.19 714.94C173.56 709.99 160.93 705.05 148.3 700.1C148.55 700.14 148.81 700.17 149.06 700.2C150.4 700.35 151.56 698.95 151.56 697.7Z" fill="black"/>
<path d="M146.4 696.97C146.65 696.07 147.54 695.27 148.5 695.13C148.68 695.15 148.87 695.18 149.06 695.2C150.41 695.35 151.56 696.23 151.56 697.7C151.56 698.95 150.4 700.35 149.06 700.2C148.81 700.17 148.55 700.14 148.3 700.1L148.15 700.04C146.88 699.55 146.01 698.38 146.4 696.97Z" fill="black"/>
<path d="M148.5 695.13C147.54 695.27 146.65 696.07 146.4 696.97C146.01 698.38 146.88 699.55 148.15 700.04L148.3 700.1C144.98 699.62 141.84 698.43 138.66 697.36L133.35 695.59C132.95 693.67 132.48 691.77 131.99 689.87C134.53 690.72 137.07 691.57 139.61 692.42C142.48 693.38 145.47 694.68 148.5 695.13Z" fill="black"/>
<path d="M134.34 703.22C134.52 708.43 133.22 713.77 129.99 717.94C126.5 722.45 121.19 724.43 115.56 723.99C114.53 723.91 113.49 723.78 112.46 723.61C112.48 723.36 112.51 723.1 112.54 722.85C112.66 721.75 111.73 720.77 110.71 720.46L111.25 718.25C115.46 719.24 120.05 719.77 123.73 717.17C127.1 714.79 128.92 710.4 129.27 706.4C129.64 702.08 128.82 697.83 127.78 693.65C127.96 693.77 128.15 693.85 128.35 693.92C130.01 694.48 131.68 695.04 133.35 695.59C133.87 698.1 134.25 700.64 134.34 703.22Z" fill="black"/>
<path d="M130.65 668.04C130.65 666.94 131.56 665.71 132.69 665.55C132.69 665.55 132.697 665.55 132.71 665.55C133.21 665.66 133.72 665.75 134.22 665.85C134.86 665.98 135.38 666.48 135.72 667C136.08 667.57 136.11 668.29 135.97 668.93C135.83 669.53 135.34 670.12 134.82 670.42C134.63 670.53 134.44 670.61 134.24 670.66C133.88 670.62 133.51 670.58 133.15 670.54C131.81 670.38 130.65 669.52 130.65 668.04Z" fill="black"/>
<path d="M133.35 695.59C131.68 695.04 130.01 694.48 128.35 693.92C128.15 693.85 127.96 693.77 127.78 693.65C127.5 692.5 127.2 691.35 126.9 690.2C127.47 689.31 128.63 688.76 129.68 689.1C130.45 689.36 131.22 689.62 131.99 689.87C132.48 691.77 132.95 693.67 133.35 695.59Z" fill="black"/>
<path d="M131.04 334.38C132.63 334.55 134.14 336.28 133.15 338.14C132.97 338.47 132.8 338.8 132.63 339.13C130.34 340.06 128.03 340.91 125.69 341.69C126.71 339.65 127.76 337.63 128.83 335.62C128.93 335.43 129.05 335.26 129.18 335.11C129.8 334.88 130.43 334.63 131.04 334.38Z" fill="black"/>
<path d="M349.57 672.78C348.11 674.12 346.61 675.41 345.07 676.66C345.08 676.53 345.08 676.4 345.08 676.27C345.1 674.02 344.03 672.14 341.77 671.53C339.03 670.78 335.89 671.45 333.12 671.73C325.76 672.49 318.39 673.17 311.01 673.75C281.41 676.09 251.69 676.99 222 676.46C192.68 675.93 163.38 673.99 134.24 670.66C134.44 670.61 134.63 670.53 134.82 670.42C135.34 670.12 135.83 669.53 135.97 668.93C136.11 668.29 136.08 667.57 135.72 667C135.38 666.48 134.86 665.98 134.22 665.85C133.72 665.75 133.21 665.66 132.71 665.55C132.85 665.52 133 665.52 133.15 665.55C136.91 665.98 140.67 666.39 144.44 666.78C174.71 669.9 205.14 671.51 235.57 671.61C266.01 671.71 296.44 670.3 326.74 667.38C330.32 667.03 333.91 666.55 337.5 666.31C340.54 666.1 343.81 666.39 346.34 668.27C347.98 669.49 349.02 671.06 349.57 672.79V672.78Z" fill="black"/>
<path d="M129.18 335.11C129.69 334.52 130.37 334.31 131.04 334.38C130.43 334.63 129.8 334.88 129.18 335.11Z" fill="black"/>
<path d="M128.83 335.62C127.76 337.63 126.71 339.65 125.69 341.69C120.42 343.47 115.02 344.9 109.51 345.92L109.26 344.53C109.46 343.28 109.66 342.02 109.86 340.77C116.46 339.43 122.91 337.52 129.18 335.11C129.05 335.26 128.93 335.43 128.83 335.62Z" fill="black"/>
<path d="M130.65 668.04C130.65 669.52 131.81 670.38 133.15 670.54C133.51 670.58 133.88 670.62 134.24 670.66C133.81 670.78 133.35 670.77 132.89 670.68C131.11 670.33 129.33 669.98 127.55 669.64C127.44 669.08 127.35 668.51 127.25 667.94C127.06 666.81 126.88 665.67 126.71 664.53C127.04 664.49 127.37 664.53 127.7 664.58C129.36 664.91 131.03 665.23 132.69 665.55C131.56 665.71 130.65 666.94 130.65 668.04Z" fill="black"/>
<path d="M126.9 690.2C127.2 691.35 127.5 692.5 127.78 693.65C126.83 693.09 126.29 692 126.6 690.85C126.66 690.62 126.76 690.4 126.9 690.2Z" fill="black"/>
<path d="M124.88 668.26C124.51 667.69 124.48 666.97 124.62 666.33C124.76 665.73 125.25 665.14 125.77 664.84C126.07 664.66 126.38 664.56 126.71 664.53C126.88 665.67 127.06 666.81 127.25 667.94C127.35 668.51 127.44 669.08 127.55 669.64C127.16 669.56 126.76 669.49 126.37 669.41C125.74 669.28 125.21 668.78 124.88 668.26Z" fill="black"/>
<path d="M130.79 685.17C131.17 686.74 131.58 688.3 131.99 689.87C131.22 689.62 130.45 689.36 129.68 689.1C128.63 688.76 127.47 689.31 126.9 690.2C126.76 689.68 126.63 689.16 126.5 688.64C123.7 677.62 121.71 666.4 120.46 655.1C117.97 632.57 118.63 609.74 122.23 587.36C125.82 564.98 132.5 543.16 142.01 522.58C142.58 521.35 144.35 521.06 145.43 521.69C146.67 522.41 146.89 523.88 146.33 525.11C145.15 527.64 144.02 530.19 142.94 532.76C134.06 553.97 128.19 576.51 125.58 599.36C123.11 621 123.42 643 126.71 664.53C126.38 664.56 126.07 664.66 125.77 664.84C125.25 665.14 124.76 665.73 124.62 666.33C124.48 666.97 124.51 667.69 124.88 668.26C125.21 668.78 125.74 669.28 126.37 669.41C126.76 669.49 127.16 669.56 127.55 669.64C128.45 674.86 129.54 680.03 130.79 685.17Z" fill="black"/>
<path d="M110.71 720.46C111.73 720.77 112.66 721.75 112.54 722.85C112.51 723.1 112.48 723.36 112.46 723.61C110.83 723.35 109.2 722.99 107.59 722.58C107.81 721.35 108.66 720.35 110.04 720.35C110.26 720.35 110.49 720.39 110.71 720.46Z" fill="black"/>
<path d="M108.26 751.83C109.17 751.4 109.55 750.69 109.55 749.95L110.23 749.99C110.12 751.87 110.02 753.76 109.94 755.64C109.75 760.09 109.62 764.54 109.55 768.99C109.49 773.1 109.29 777.27 109.66 781.36C109.96 784.74 111.14 787.78 113.81 789.97C116.32 792.03 119.51 793.18 122.54 794.25C130.41 797.02 138.48 799.23 146.67 800.85C154.72 802.45 162.87 803.47 171.06 803.91C179.06 804.34 187.19 804.36 195.17 803.53C200.75 802.94 207.1 801.62 211.33 797.65C215.44 793.8 216.21 788.23 214.05 783.17C211.58 777.4 206.42 773.67 200.33 772.53C193.21 771.19 185.7 773.38 179.41 776.66C176.56 778.15 174.04 773.84 176.89 772.35C178.7 771.4 180.57 770.55 182.48 769.82C184.35 769.1 186.29 768.51 188.28 768.06C188.59 768.21 188.94 768.3 189.33 768.3C189.96 768.3 190.63 768.01 191.11 767.54C196.27 766.78 201.58 767.13 206.41 769.12C212.78 771.74 217.84 777.37 219.61 784.06C221.37 790.71 219.26 797.69 213.88 802.04C208.43 806.46 201.3 807.95 194.47 808.6C176.93 810.26 158.85 808.7 141.67 804.91C133.26 803.05 124.71 800.75 116.77 797.36C113.27 795.87 110.02 793.85 107.73 790.75C105.24 787.38 104.64 783.09 104.52 779.01C104.28 770.48 104.61 761.88 105.05 753.35C106.12 752.84 107.19 752.33 108.26 751.83Z" fill="black"/>
<path d="M109.86 340.77C109.66 342.02 109.46 343.28 109.26 344.53C108.23 343.51 107.21 342.48 106.18 341.46C107.41 341.25 108.64 341.02 109.86 340.77Z" fill="black"/>
<path d="M105.36 747.69C105.48 747.63 105.61 747.57 105.73 747.51C107.72 746.58 109.55 748.32 109.55 749.95C109.55 750.69 109.17 751.4 108.26 751.83C107.19 752.33 106.12 752.84 105.05 753.35C105.08 752.63 105.12 751.91 105.16 751.19C105.22 750.02 105.29 748.86 105.36 747.69Z" fill="black"/>
<path d="M105.36 747.69C105.86 739.39 106.59 731.11 107.54 722.85C107.55 722.76 107.56 722.67 107.59 722.58C109.2 722.99 110.83 723.35 112.46 723.61C112.24 725.57 112.02 727.53 111.82 729.49C111.14 736.31 110.61 743.15 110.23 749.99L109.55 749.95C109.55 748.32 107.72 746.58 105.73 747.51C105.61 747.57 105.48 747.63 105.36 747.69Z" fill="black"/>
<path d="M105.36 747.69C105.29 748.86 105.22 750.02 105.16 751.19C105.12 751.91 105.08 752.63 105.05 753.35C70.15 770.09 36.54 792.63 12.93 823.69C12.27 823.32 11.62 822.95 10.97 822.57C11.42 822.11 11.9 821.66 12.4 821.23C13.97 819.9 13.09 817.99 11.61 817.31C36.19 786.67 70.07 764.27 105.36 747.69Z" fill="black"/>
<path d="M104.06 460.91C104.11 462.75 102.5 463.53 101.09 463.27C101.97 461.79 102.83 460.29 103.66 458.78C103.89 458.36 103.99 457.95 103.99 457.56H104.01C104.01 458.68 104.03 459.79 104.06 460.91Z" fill="black"/>
<path d="M103.99 457.56C103.99 457.95 103.89 458.36 103.66 458.78C102.83 460.29 101.97 461.79 101.09 463.27C100.04 463.08 99.0901 462.29 99.0601 460.91C99.0301 459.56 99.01 458.2 99 456.85C99.12 456.65 99.23 456.45 99.34 456.25C100.66 453.85 103.99 455.33 103.99 457.56Z" fill="black"/>
<path d="M107.81 411.51C105.09 426.7 103.83 442.14 104.01 457.56H103.99C103.99 455.33 100.66 453.85 99.34 456.25C99.23 456.45 99.12 456.65 99 456.85C98.93 448.69 99.26 440.54 100 432.42C101.52 415.58 104.69 398.88 109.51 382.66C113.7 368.57 119.13 354.85 125.69 341.69C128.03 340.91 130.34 340.06 132.63 339.13C128.46 347.02 124.71 355.12 121.44 363.41C115.31 378.94 110.75 395.08 107.81 411.51Z" fill="black"/>
<path d="M433.84 884.95C445.94 883.98 458.03 882.87 470.11 881.6L470.14 881.88C468.82 882.12 467.63 883.27 468.03 884.95C468.17 885.56 468.32 886.16 468.48 886.77C451.15 888.57 433.79 890.05 416.41 891.25C361.2 895.09 305.85 896.2 250.52 896.17C223.14 896.17 195.73 896.06 168.36 895.36C143.96 894.73 119.52 893.35 95.35 889.84C95.43 888.95 95.48 888.05 95.5 887.16C95.54 885.65 94.46 884.85 93.3 884.76L93.34 884.51C102.32 885.89 111.35 886.95 120.39 887.77C145.99 890.09 171.72 890.56 197.42 890.85C223.55 891.13 249.69 891.27 275.82 891.1C328.54 890.76 381.28 889.17 433.84 884.95Z" fill="black"/>
<path d="M93.3 884.76C94.46 884.85 95.54 885.65 95.5 887.16C95.48 888.05 95.43 888.95 95.35 889.84C93.7 889.6 92.06 889.36 90.41 889.09C90.46 888.45 90.49 887.8 90.5 887.16C90.55 885.45 91.98 884.65 93.3 884.76Z" fill="black"/>
<path d="M95.35 889.84C95.24 891.29 95.07 892.73 94.83 894.17C94.52 896.11 93.97 898.13 92.53 899.57C89.5 902.62 84 901.64 80.18 901.14C77.86 900.84 75.56 900.43 73.29 899.84C71.02 899.26 69.49 898.24 68.7 895.95C67.42 892.31 66.76 888.37 66.42 884.49C68.13 884.88 69.85 885.26 71.57 885.62C71.87 888.1 72.36 890.54 73.03 892.96C73.12 893.3 73.26 894.42 73.51 894.69C73.78 894.99 74.67 895.04 75.06 895.13C76.82 895.57 78.6 895.93 80.4 896.17C82.12 896.4 83.87 896.53 85.61 896.58C86.63 896.61 88.19 896.8 89 896.04C89.84 895.24 89.92 893.46 90.08 892.39C90.24 891.3 90.35 890.2 90.41 889.09C92.06 889.36 93.7 889.6 95.35 889.84Z" fill="black"/>
<path d="M70.09 880.19C77.78 881.9 85.54 883.33 93.34 884.51L93.3 884.76C91.98 884.65 90.55 885.45 90.5 887.16C90.49 887.8 90.46 888.45 90.41 889.09C89.57 888.96 88.72 888.83 87.88 888.69C82.42 887.8 76.98 886.78 71.57 885.62C71.42 884.48 71.32 883.33 71.25 882.18C71.2 881.24 70.73 880.58 70.09 880.19Z" fill="black"/>
<path d="M71.57 885.62C69.85 885.26 68.13 884.88 66.42 884.49C66.35 883.72 66.3 882.95 66.25 882.18C66.16 880.7 67.18 879.9 68.32 879.79C68.91 879.93 69.5 880.07 70.09 880.19C70.73 880.58 71.2 881.24 71.25 882.18C71.32 883.33 71.42 884.48 71.57 885.62Z" fill="black"/>
<path d="M70.09 880.19C69.5 880.07 68.91 879.93 68.32 879.79C68.92 879.73 69.56 879.86 70.09 880.19Z" fill="black"/>
<path d="M110.04 720.35C108.66 720.35 107.81 721.35 107.59 722.58C104.62 721.82 101.69 720.88 98.83 720C93.47 718.35 88.12 716.33 83.33 713.37C74.47 707.89 68.57 699.28 65.13 689.58C57.48 668.03 62.82 644.89 58.48 622.85C58.77 622.74 59.05 622.56 59.3 622.31C60.2 621.41 60.32 619.67 59.3 618.78L58.73 618.27C59.98 617.12 62.35 617.19 62.84 619.32C63.52 622.32 64.02 625.35 64.39 628.4C67.04 649.86 62.23 673.03 72 693.2C74.04 697.4 76.66 701.29 80.03 704.55C83.71 708.11 88.22 710.73 92.95 712.65C98.01 714.7 103.3 716.15 108.57 717.56C109.44 717.79 110.34 718.03 111.25 718.25L110.71 720.46C110.49 720.39 110.26 720.35 110.04 720.35Z" fill="black"/>
<path d="M59.3 618.78C60.32 619.67 60.2 621.41 59.3 622.31C59.05 622.56 58.77 622.74 58.48 622.85C58.34 622.12 58.19 621.38 58.02 620.65C57.79 619.64 58.13 618.81 58.73 618.27L59.3 618.78Z" fill="black"/>
<path d="M55.76 622.31C46.67 614.4 41.35 602.94 39.51 591.16C35.65 566.45 46.23 543.24 57.72 522.02C60.78 516.37 63.89 510.77 67.32 505.32C70.79 499.8 74.4601 494.41 78.1501 489.03C85.3901 478.5 92.78 468.04 99 456.85C99.01 458.2 99.0301 459.56 99.0601 460.91C99.0901 462.29 100.04 463.08 101.09 463.27C94.71 474.14 87.34 484.4 80.24 494.81C76.72 499.98 73.24 505.19 69.97 510.53C66.7 515.88 63.71 521.41 60.75 526.94C54.9 537.88 49.43 549.12 46.26 561.16C41.13 580.6 43.01 604.07 58.73 618.27C58.13 618.81 57.79 619.64 58.02 620.65C58.19 621.38 58.34 622.12 58.48 622.85C57.58 623.22 56.53 622.98 55.76 622.31Z" fill="black"/>
<path d="M10.97 822.57C11.62 822.95 12.27 823.32 12.93 823.69C12.4 824.37 11.89 825.05 11.39 825.73C11.15 824.79 10.9 823.84 10.65 822.9C10.75 822.79 10.86 822.68 10.97 822.57Z" fill="black"/>
<path d="M10.97 822.57C10.86 822.68 10.75 822.79 10.65 822.9C10.6 822.7 10.55 822.51 10.5 822.31C10.66 822.4 10.81 822.49 10.97 822.57Z" fill="black"/>
<path d="M7.08 823.2C8.55 821.2 10.06 819.24 11.61 817.31C13.09 817.99 13.97 819.9 12.4 821.23C11.9 821.66 11.42 822.11 10.97 822.57C10.81 822.49 10.66 822.4 10.5 822.31C10.55 822.51 10.6 822.7 10.65 822.9C9.60001 824.04 8.70997 825.29 7.97997 826.62H7.96996C6.89996 826.01 6.28 824.29 7.08 823.2Z" fill="black"/>
<path d="M66.25 882.18C66.3 882.95 66.35 883.72 66.42 884.49C60.46 883.12 54.55 881.58 48.69 879.85C37.81 876.65 26.56 873.03 17.23 866.38C8.95001 860.49 2.60001 852.33 0.980007 842.1C-0.419993 833.18 1.78001 823.7 8.86001 817.7C9.75001 816.95 10.77 816.93 11.61 817.31C10.06 819.24 8.55004 821.2 7.08004 823.2C6.28004 824.29 6.9 826.01 7.97 826.62H7.98001C7.00001 828.41 6.32002 830.37 5.93002 832.46C1.58002 855.79 26.48 867.63 44.6 873.38C52.42 875.86 60.34 877.98 68.32 879.79C67.18 879.9 66.16 880.7 66.25 882.18Z" fill="black"/>
</svg>
