<svg width="1176" height="149" viewBox="0 0 1176 149" fill="none" xmlns="http://www.w3.org/2000/svg">
<path d="M72.19 6.45998C51.61 2.35998 30.23 11.38 16.61 26.9C1.22001 44.45 -2.76 69.04 1.74 91.46C6.19 113.61 19.18 137.35 41.42 145.56C52.51 149.65 64.63 148.79 74.87 142.83C85.01 136.93 92.31 127.38 97.85 117.24C100.81 111.81 103.47 106.17 105.91 100.49C107.81 96.07 109.13 89.27 103.75 86.66C100.93 85.29 97.32 85.48 94.25 85.35C90.88 85.21 87.51 85.18 84.14 85.27C77.42 85.44 70.71 86.08 64.07 87.13C60.82 87.64 57.59 88.27 54.38 88.99C51.17 89.71 52.57 94.52 55.71 93.81C68.04 91.04 80.67 89.87 93.3 90.32C94.74 90.37 96.19 90.44 97.63 90.54C98.84 90.62 100.43 90.53 101.53 91.13C102.18 91.48 102.39 91.87 102.55 92.53C102.71 93.19 102.66 94.19 102.49 95.01C102 97.42 100.87 99.62 99.86 101.85C98.68 104.44 97.48 107.02 96.22 109.56C91.38 119.34 85.47 129.07 76.6 135.71C72.59 138.71 68.12 141.05 63.25 142.27C58.38 143.49 52.8 143.43 47.71 142.24C26.29 137.22 13.36 115.96 7.95 96.05C2.54 76.14 4.13 52.67 16.46 35.11C27.12 19.92 45.57 9.56998 64.34 10.48C66.53 10.59 68.7 10.86 70.85 11.29C72.17 11.55 73.55 10.91 73.93 9.53998C74.27 8.30998 73.51 6.72998 72.18 6.45998H72.19Z" fill="#231F20"/>
<path d="M130.62 56.66C127.49 66.56 126.35 77.12 127.38 87.45C127.82 91.8 128.21 96.91 130.68 100.68C133.4 104.82 138.24 106.01 142.75 104.18C147.26 102.35 150.73 98.94 154.21 95.79C157.69 92.64 161.05 89.19 163.78 85.29C169.12 77.69 171.7 67.47 167.66 58.71C163.91 50.59 153.45 45.95 145.25 50.14C142.38 51.6 144.91 55.92 147.77 54.46C152.95 51.82 159.62 54.94 162.53 59.71C166.54 66.29 164.45 74.87 160.63 81.01C158.46 84.5 155.67 87.54 152.7 90.37C149.73 93.2 146.86 96 143.53 98.15C140.96 99.81 137.31 101.31 135.09 98.32C134.15 97.06 133.71 95.45 133.37 93.95C132.92 91.97 132.63 89.94 132.42 87.91C131.35 77.83 132.38 67.66 135.43 57.99C136.4 54.91 131.58 53.6 130.61 56.66H130.62Z" fill="#231F20"/>
<path d="M194.13 62.2497C191.29 70.7297 188.65 80.1197 193.14 88.5297C195.03 92.0697 198.14 94.8797 201.99 96.0797C205.84 97.2797 210.07 96.5497 213.74 94.8397C221.27 91.3297 226.89 83.8997 230.01 76.3897C233.13 68.8797 233.38 59.5297 226.73 53.8397C220.08 48.1497 210.79 48.3797 202.69 49.0297C201.34 49.1397 200.19 50.0997 200.19 51.5297C200.19 52.7997 201.34 54.1397 202.69 54.0297C208.63 53.5497 215.54 53.0597 220.99 55.9397C223.49 57.2597 225.57 59.3597 226.51 62.0797C227.59 65.2197 227.29 68.5597 226.39 71.6997C224.51 78.2497 220.15 84.6997 214.52 88.6097C211.91 90.4197 208.9 91.8297 205.66 91.6997C202.82 91.5797 200.26 90.0397 198.57 87.7997C193.19 80.6597 196.42 71.1397 198.95 63.5797C199.98 60.5197 195.15 59.2097 194.13 62.2497Z" fill="#231F20"/>
<path d="M270.46 37.6099C269.47 51.8299 270.92 66.1899 274.67 79.9499C275.52 83.0499 280.34 81.7299 279.49 78.6199C275.84 65.2699 274.5 51.4199 275.45 37.6099C275.54 36.2599 274.23 35.1099 272.95 35.1099C271.52 35.1099 270.54 36.2599 270.45 37.6099H270.46Z" fill="#231F20"/>
<path d="M260.62 45.4798C260.64 45.0298 260.81 44.5798 261.04 44.2998C261.56 43.6498 262.11 43.3398 262.89 42.9498C264.41 42.1898 266.25 41.8298 267.96 41.5798C273.62 40.7598 279.28 40.0198 284.94 39.2398C291.72 38.2998 304.09 35.3798 307.55 43.7798C308.98 47.2598 308.05 51.3598 306.68 54.7098C305.1 58.5798 302.57 61.9398 299.8 65.0198C293.81 71.6898 286.48 77.0198 278.37 80.8198C269.36 85.0498 259.4 87.1798 249.45 87.0098C246.23 86.9498 246.23 91.9498 249.45 92.0098C269.59 92.3598 289.69 83.6298 303.2 68.6898C306.55 64.9898 309.46 61.0098 311.36 56.3698C313.1 52.1098 314.01 47.0498 312.42 42.5998C310.74 37.8798 306.65 34.6698 301.8 33.6198C296.95 32.5698 291.76 33.2798 286.79 33.9598C279.86 34.9198 272.89 35.7098 265.99 36.8398C261.27 37.6098 255.84 39.9998 255.59 45.4598C255.44 48.6798 260.44 48.6698 260.59 45.4598L260.62 45.4798Z" fill="#231F20"/>
<path d="M412.1 29.2696C417.75 49.6596 422.77 70.2296 427.13 90.9396C428.37 96.8296 429.56 102.74 430.69 108.65C430.94 109.98 432.54 110.73 433.77 110.4C435.16 110.02 435.77 108.66 435.52 107.32C431.53 86.5396 426.89 65.8796 421.6 45.3896C420.09 39.5596 418.53 33.7396 416.92 27.9396C416.06 24.8396 411.24 26.1596 412.1 29.2696Z" fill="#231F20"/>
<path d="M421.85 37.6996C427.65 28.2596 440.08 24.0196 450.48 27.6396C451.76 28.0796 453.21 27.1296 453.56 25.8896C453.94 24.5096 453.09 23.2596 451.81 22.8096C439.29 18.4496 424.44 23.9296 417.53 35.1696C415.84 37.9196 420.16 40.4296 421.85 37.6896V37.6996Z" fill="#231F20"/>
<path d="M411.11 79.4097C427.54 79.1297 443.75 74.8897 458.22 67.0997C461.05 65.5697 458.53 61.2597 455.7 62.7797C442.01 70.1497 426.65 74.1397 411.11 74.3997C407.9 74.4497 407.89 79.4497 411.11 79.3997V79.4097Z" fill="#231F20"/>
<path d="M476.64 44.7496C477.57 50.2096 476.06 55.7596 476.56 61.2396C477 66.0696 479.18 70.3996 483.15 73.2796C487.12 76.1596 492.18 76.0396 495.67 72.5796C497.5 70.7696 498.83 68.3796 500.09 66.1596C501.42 63.7996 502.57 61.3596 503.62 58.8696C505.97 53.2396 507.45 47.3596 508.23 41.3096C508.4 39.9696 506.96 38.8096 505.73 38.8096C504.24 38.8096 503.4 39.9596 503.23 41.3096C502.06 50.4096 498.77 59.3096 493.75 66.9796C492.81 68.4196 491.64 69.9996 489.85 70.3296C488.65 70.5496 487.28 70.0596 486.09 69.2496C483.04 67.1796 481.66 63.6496 481.49 60.0896C481.23 54.4896 482.42 48.9896 481.47 43.4096C481.24 42.0796 479.6 41.3296 478.39 41.6596C476.98 42.0496 476.42 43.3996 476.64 44.7396V44.7496Z" fill="#231F20"/>
<path d="M526.54 28.7898C527.36 43.4798 529.2 58.1198 532.01 72.5598C532.27 73.8898 533.86 74.6398 535.09 74.3098C536.48 73.9298 537.09 72.5598 536.84 71.2298C534.11 57.2198 532.35 43.0398 531.55 28.7898C531.37 25.5898 526.37 25.5698 526.55 28.7898H526.54Z" fill="#231F20"/>
<path d="M536.48 35.2097C534.82 30.1797 537.1 24.2197 541.7 21.3797C543.82 20.0697 546.63 19.3097 549.03 20.3097C552.26 21.6597 550.5 25.4597 549.19 27.5997C547.23 30.8197 544.85 33.7797 542.22 36.4697C540.88 37.8397 539.46 39.1097 538 40.3397C536.54 41.5697 535.29 43.0097 535.12 44.9797C534.79 48.8397 538.84 51.9097 541.39 54.2497C544.22 56.8597 547.23 59.2797 550.36 61.5097C557.38 66.5097 565.12 70.4297 573.27 73.2497C574.55 73.6897 576 72.7497 576.35 71.4997C576.73 70.1297 575.88 68.8697 574.6 68.4197C567.13 65.8397 560.05 62.1997 553.57 57.6697C550.3 55.3897 547.21 52.8597 544.31 50.1297C543.02 48.9197 541.45 47.6597 540.46 46.1797C540.11 45.6597 540.01 45.4797 540.31 44.9797C540.67 44.3597 541.62 43.7997 542.16 43.3397C545.32 40.6597 548.12 37.6197 550.62 34.3197C553.12 31.0197 555.64 27.4997 555.89 23.3697C556.14 19.2397 553.2 16.0597 549.38 15.1897C545.95 14.3997 542.31 15.1597 539.32 16.9697C532.86 20.8497 529.26 29.2597 531.66 36.5297C532.67 39.5697 537.5 38.2697 536.48 35.1997V35.2097Z" fill="#231F20"/>
<path d="M655.39 31.1398C656.09 45.4598 662.02 59.3398 671.97 69.6798C674.38 72.1898 677.39 75.4598 681.17 75.3498C684.7 75.2498 687.13 72.3598 688.49 69.3798C691.83 62.0898 693.98 54.0398 695.57 46.2098C697.42 37.1298 698.32 27.8698 698.25 18.6098C698.22 15.3898 693.22 15.3898 693.25 18.6098C693.37 33.5298 690.88 48.3798 685.87 62.4298C685.36 63.8598 684.86 65.3098 684.25 66.6998C683.74 67.8598 683.07 69.3098 681.99 70.0498C680.17 71.2898 677.63 68.2598 676.36 66.9998C671.86 62.5198 668.21 57.2598 665.5 51.5198C662.49 45.1598 660.75 38.1698 660.41 31.1398C660.25 27.9398 655.25 27.9198 655.41 31.1398H655.39Z" fill="#231F20"/>
<path d="M720.19 13.7495C718.7 31.3295 717.22 48.9195 715.73 66.4995C715.62 67.8495 716.96 68.9995 718.23 68.9995C719.68 68.9995 720.62 67.8495 720.73 66.4995C722.22 48.9195 723.7 31.3295 725.19 13.7495C725.3 12.3995 723.96 11.2495 722.69 11.2495C721.24 11.2495 720.3 12.3995 720.19 13.7495Z" fill="#231F20"/>
<path d="M718.86 22.5097C720.85 17.6697 725.17 13.9497 730.23 12.6897C734.97 11.5097 740.11 12.7397 743.17 16.7097C745.86 20.1997 746.35 24.8597 743.81 28.5397C741.27 32.2197 736.7 33.9097 732.58 34.8597C728 35.9197 719.85 35.2297 718.68 41.3297C718.45 42.5197 718.86 43.4597 719.83 44.1497C732.69 53.4097 745.55 62.6597 758.4 71.9197C759.5 72.7097 761.18 72.1097 761.82 71.0197C762.56 69.7597 762.02 68.3897 760.92 67.5997C748.06 58.3397 735.2 49.0897 722.35 39.8297L723.5 42.6497C723.5 42.6497 723.75 41.8597 723.61 42.1497C723.81 41.7497 723.57 42.0797 723.91 41.7897C724.02 41.6997 724.59 41.3697 724.88 41.2597C726.02 40.8197 727.19 40.6897 728.34 40.5697C731.07 40.2797 733.79 39.8197 736.41 38.9897C741.49 37.3897 746.7 34.3997 749.06 29.3997C751.67 23.8497 750.42 17.6697 746.58 13.0297C742.55 8.15973 736.08 6.50973 730.02 7.61973C722.65 8.95973 716.82 14.3797 714.02 21.1797C713.51 22.4297 714.58 23.9297 715.77 24.2597C717.2 24.6497 718.33 23.7697 718.85 22.5097H718.86Z" fill="#231F20"/>
<path d="M842.53 2.40979C841.2 27.2998 840.44 52.2198 840.26 77.1498C840.21 84.1898 840.2 91.2298 840.24 98.2698C840.26 101.49 845.26 101.49 845.24 98.2698C845.11 73.3398 845.54 48.4098 846.54 23.4998C846.82 16.4698 847.15 9.42979 847.53 2.40979C847.7 -0.810213 842.7 -0.800213 842.53 2.40979Z" fill="#231F20"/>
<path d="M833.81 51.7197C850.46 54.0197 867.27 55.0397 884.08 54.6197C888.84 54.4997 893.6 54.2697 898.34 53.9397C899.69 53.8397 900.84 52.8597 900.84 51.4397C900.84 50.1597 899.69 48.8397 898.34 48.9397C881.88 50.0997 865.34 49.9497 848.9 48.4597C844.3 48.0397 839.71 47.5297 835.13 46.8897C833.79 46.7097 832.45 47.2097 832.05 48.6397C831.73 49.8097 832.45 51.5297 833.8 51.7197H833.81Z" fill="#231F20"/>
<path d="M885.5 8.59989C882.18 28.4999 882.45 48.8599 886.34 68.6599C887.43 74.1799 888.8 79.6399 890.45 85.0199C891.39 88.0899 896.22 86.7799 895.27 83.6899C889.59 65.1199 887.28 45.6399 888.47 26.2599C888.8 20.7899 889.42 15.3399 890.32 9.93989C890.54 8.60989 889.97 7.24989 888.57 6.85989C887.37 6.52989 885.72 7.26989 885.49 8.60989L885.5 8.59989Z" fill="#231F20"/>
<path d="M923.81 26.0698C922.43 37.9198 923.14 49.9498 925.81 61.5798C926.53 64.7198 931.35 63.3898 930.63 60.2498C928.06 49.0398 927.48 37.4898 928.81 26.0698C928.97 24.7298 927.55 23.5698 926.31 23.5698C924.83 23.5698 923.97 24.7198 923.81 26.0698Z" fill="#231F20"/>
<path d="M925.63 23.2697C932.36 20.3097 939.64 18.5798 946.97 18.1198C948.32 18.0398 949.47 17.0297 949.47 15.6197C949.47 14.3297 948.32 13.0397 946.97 13.1197C938.7 13.6397 930.69 15.6198 923.11 18.9498C921.87 19.4898 921.59 21.2997 922.21 22.3698C922.96 23.6398 924.39 23.8097 925.63 23.2697Z" fill="#231F20"/>
<path d="M928.09 45.4097C933.23 47.4397 939 47.0697 943.98 44.7897C945.17 44.2397 945.56 42.4297 944.88 41.3697C944.09 40.1397 942.74 39.8897 941.46 40.4697C941.32 40.5397 941.17 40.5997 941.02 40.6697C941.25 40.5697 941.23 40.5797 940.95 40.6897C940.72 40.7697 940.5 40.8597 940.27 40.9297C939.74 41.1097 939.2 41.2597 938.66 41.3897C938.35 41.4597 938.04 41.5297 937.72 41.5797C937.6 41.5997 936.99 41.6797 937.44 41.6297C936.85 41.6997 936.25 41.7397 935.65 41.7497C935.09 41.7597 934.53 41.7497 933.98 41.7097C933.7 41.6897 933.42 41.6597 933.15 41.6297C933.66 41.6897 932.85 41.5797 932.75 41.5597C931.61 41.3497 930.5 41.0197 929.42 40.5997C928.2 40.1197 926.62 41.1297 926.34 42.3497C926.01 43.7897 926.78 44.9097 928.09 45.4297V45.4097Z" fill="#231F20"/>
<path d="M927.49 70.1596C936.58 71.0596 945.83 70.0996 954.56 67.4096C957.63 66.4596 956.32 61.6396 953.23 62.5896C944.88 65.1696 936.19 66.0196 927.49 65.1596C926.14 65.0296 924.99 66.3996 924.99 67.6596C924.99 69.1196 926.14 70.0296 927.49 70.1596Z" fill="#231F20"/>
<path d="M978.97 75.15C982.11 57.3 985.26 39.45 988.4 21.6C988.8 19.31 989.18 17.01 989.61 14.72C989.65 14.52 990.05 12.99 989.53 13.73C989.44 13.86 989.46 13.62 989.7 13.82C989.94 14.02 990.23 14.17 990.47 14.39C991.76 15.55 992.62 17.27 993.55 18.72C994.67 20.46 995.75 22.23 996.81 24.01C1000.9 30.91 1004.54 38.1 1007.66 45.5C1011.18 53.86 1014.02 62.49 1016.23 71.28C1017.01 74.4 1021.84 73.08 1021.05 69.95C1016.82 53.1 1010.17 36.84 1001.35 21.87C1000.26 20.02 999.14 18.19 997.98 16.38C996.82 14.57 995.81 12.75 994.39 11.24C993.06 9.82999 991.19 8.62999 989.18 8.74999C986.89 8.88999 985.35 10.73 984.88 12.86C983.84 17.57 983.19 22.4 982.35 27.15C981.51 31.9 980.68 36.65 979.84 41.4C977.94 52.21 976.03 63.02 974.13 73.82C973.9 75.15 974.49 76.51 975.88 76.9C977.09 77.23 978.72 76.49 978.96 75.15H978.97Z" fill="#231F20"/>
<path d="M980.26 47.9897H1016.37C1019.59 47.9897 1019.59 42.9897 1016.37 42.9897H980.26C977.04 42.9897 977.04 47.9897 980.26 47.9897Z" fill="#231F20"/>
<path d="M1042.83 11.0396C1039.69 16.3196 1038.64 22.3496 1037.88 28.3596C1037.03 35.0596 1036.5 41.8096 1036.12 48.5496C1035.94 51.8396 1035.79 55.1396 1035.65 58.4296C1035.53 61.4496 1035.3 64.4996 1035.35 67.5196C1035.39 69.9996 1035.72 72.6896 1037.04 74.8596C1038.54 77.3196 1041.05 78.5496 1043.88 78.6696C1047.49 78.8196 1051.29 78.1197 1054.85 77.5797C1058.41 77.0397 1062.17 76.2896 1065.78 75.3896C1068.9 74.6096 1067.58 69.7896 1064.45 70.5696C1058.63 72.0296 1052.71 73.0496 1046.73 73.5396C1044.8 73.6996 1042.45 74.0397 1041.37 72.3297C1040.43 70.8397 1040.36 68.7697 1040.36 67.0097C1040.37 61.0297 1040.78 55.0096 1041.11 49.0396C1041.44 42.9496 1041.9 36.8696 1042.6 30.8096C1043.28 24.8996 1044.07 18.7596 1047.17 13.5596C1048.82 10.7896 1044.5 8.26965 1042.85 11.0396H1042.83Z" fill="#231F20"/>
<path d="M1078.1 19.7799C1091.89 19.3599 1105.68 19.2899 1119.48 19.5699C1122.7 19.6399 1122.7 14.6399 1119.48 14.5699C1105.69 14.2899 1091.89 14.3599 1078.1 14.7799C1074.89 14.8799 1074.88 19.8799 1078.1 19.7799Z" fill="#231F20"/>
<path d="M1098.16 18.5C1096.25 37.62 1096.39 56.91 1098.59 75.99C1098.74 77.33 1099.63 78.49 1101.09 78.49C1102.32 78.49 1103.75 77.34 1103.59 75.99C1101.39 56.9 1101.24 37.62 1103.16 18.5C1103.29 17.15 1101.91 16 1100.66 16C1099.2 16 1098.3 17.15 1098.16 18.5Z" fill="#231F20"/>
<path d="M1138.92 15.4799C1138.72 32.3799 1138.52 49.2799 1138.33 66.1799C1138.27 70.9799 1138.22 75.7899 1138.16 80.5899C1138.12 83.8099 1143.12 83.8099 1143.16 80.5899C1143.36 63.6899 1143.56 46.7899 1143.75 29.8899C1143.81 25.0899 1143.86 20.2799 1143.92 15.4799C1143.96 12.2599 1138.96 12.2599 1138.92 15.4799Z" fill="#231F20"/>
<path d="M1140.12 55.1999C1150.06 54.0099 1160.04 53.2099 1170.04 52.7999C1173.25 52.6699 1173.26 47.6699 1170.04 47.7999C1160.04 48.2099 1150.06 49.0099 1140.12 50.1999C1138.78 50.3599 1137.62 51.2299 1137.62 52.6999C1137.62 53.9299 1138.77 55.3599 1140.12 55.1999Z" fill="#231F20"/>
<path d="M1165.21 23.1396C1164.86 39.5396 1165.92 55.9296 1168.34 72.1496C1169.02 76.7296 1169.82 81.2896 1170.72 85.8396C1170.98 87.1596 1172.56 87.9296 1173.8 87.5896C1175.18 87.2096 1175.81 85.8396 1175.55 84.5096C1171.54 64.3096 1169.77 43.7196 1170.21 23.1396C1170.28 19.9196 1165.28 19.9196 1165.21 23.1396Z" fill="#231F20"/>
</svg>
