<?xml version="1.0" encoding="UTF-8"?>
<svg id="Layer_1" data-name="Layer 1" xmlns="http://www.w3.org/2000/svg" viewBox="0 0 197.91 236.44">
  <defs>
    <style>
      .cls-1 {
        fill: #fff;
      }

      .cls-1, .cls-2 {
        stroke-width: 0px;
      }

      .cls-2 {
        fill: #231f20;
      }
    </style>
  </defs>
  <path class="cls-2" d="m31.84,18.78c-.4-.05-.79-.1-1.19-.14h-.01c-.26-.05-.53-.09-.8-.13.67.09,1.33.18,2,.27Z"/>
  <path class="cls-2" d="m25.23,18.41c-.39.05-.77.11-1.15.18-.28.03-.56.06-.84.09.66-.09,1.33-.18,1.99-.27Z"/>
  <path class="cls-2" d="m21.25,19.23c-.13.07-.27.14-.41.21-.25.08-.5.18-.75.28.39-.17.77-.33,1.16-.49Z"/>
  <path class="cls-2" d="m19.55,20.17c.1-.07.21-.14.32-.19-.12.09-.3.21-.54.37.04-.04.08-.08.12-.11.03-.02.07-.05.1-.07Z"/>
  <g>
    <path class="cls-2" d="m182.61,174.79c-.09.66-.18,1.33-.27,1.99.04-.28.07-.57.1-.85.06-.38.12-.76.17-1.14Z"/>
    <path class="cls-2" d="m182.56,160.71c-.05-.37-.11-.74-.17-1.11-.03-.3-.06-.59-.1-.89.09.67.18,1.33.27,2Z"/>
    <path class="cls-2" d="m179.5,187.43c-.25.59-.51,1.19-.76,1.79.07-.17.14-.35.2-.52.03-.05.05-.09.06-.14.17-.37.34-.75.5-1.13Z"/>
    <path class="cls-2" d="m178.98,146.29c-.13-.3-.26-.6-.4-.9-.11-.3-.24-.6-.36-.9.25.6.51,1.2.76,1.8Z"/>
    <path class="cls-2" d="m174.16,196.93c-.09.13-.23.3-.4.52.06-.08.12-.17.18-.25.02-.03.05-.06.07-.1.05-.06.1-.11.15-.17Z"/>
    <path class="cls-2" d="m166.99,204.21c-.23.19-.66.53-.75.58.03-.03.09-.08.19-.17.01,0,.02-.01.03-.02.01,0,.02-.02.03-.03.12-.09.25-.18.37-.27.05-.04.09-.07.13-.09Z"/>
    <path class="cls-2" d="m166.24,204.79s-.01.01-.01.01h.01Z"/>
    <path class="cls-2" d="m154.91,211.31c-.22.09-.44.19-.67.28.06-.03.12-.06.18-.08.17-.07.33-.13.49-.2Z"/>
    <path class="cls-2" d="m131.68,106.29c-.29-.12-.58-.24-.87-.35-.3-.14-.61-.28-.92-.41.6.26,1.2.51,1.79.76Z"/>
    <path class="cls-2" d="m118.25,102.3c-.15-.01-.31-.03-.46-.04-.36-.07-.72-.12-1.08-.17.52.07,1.03.14,1.54.21Z"/>
    <path class="cls-2" d="m102,87.32c-.48-.07-.96-.13-1.44-.2-.02,0-.04-.01-.06-.02.19.02.37.03.56.04.31.07.62.13.94.18Z"/>
    <path class="cls-2" d="m101.07,87.36c-.19-.08-.39-.16-.58-.24h.07c.17.09.34.17.51.24Z"/>
    <path class="cls-2" d="m101.06,87.14c-.19,0-.37-.02-.56-.04-.14-.07-.28-.15-.42-.22.32.11.65.19.98.26Z"/>
    <path class="cls-2" d="m100.56,87.12h-.07s-.03-.02-.05-.03c.02.01.04.01.06.01.02.01.04.02.06.02Z"/>
    <path class="cls-2" d="m100.5,87.1s-.04,0-.06,0c-.39-.16-.77-.33-1.16-.49.13.05.26.1.39.14.14.06.27.1.41.14.14.07.28.15.42.22Z"/>
    <path class="cls-2" d="m100.49,87.12c-.16-.03-.32-.05-.48-.07.14.02.29.03.43.04.02,0,.03.02.05.03Z"/>
    <path class="cls-2" d="m100.08,86.88c-.14-.04-.27-.08-.41-.14-.03-.05-.08-.1-.14-.16l-.03-.03c.19.11.38.22.58.33Z"/>
    <path class="cls-2" d="m197.54,160.86c-1.13-11.01-4.25-21.97-10.49-31.22-6.06-8.97-14.33-15.86-23.27-21.84-4.09-2.74-8.31-5.29-12.53-7.83-5.05-3.04-10.13-5.88-15.58-8.14-4.44-1.85-9.14-3.31-13.9-4.05-5.12-.8-10.17-.95-15.34-.73-1.79.08-3.58.21-5.37.09.31.07.62.13.94.18-.48-.07-.96-.13-1.44-.2.17.09.34.17.51.24-.19-.08-.39-.16-.58-.24-.16-.03-.32-.05-.48-.07.14.02.29.03.43.04-.39-.16-.77-.33-1.16-.49.13.05.26.1.39.14-.03-.05-.08-.1-.14-.16l-.03-.03s-.03-.02-.04-.03-.02-.01-.03-.02-.01-.02-.02-.02c-.06-.03-.12-.07-.18-.11-.54-.36-.51-.37-.3-.24-.05-.05-.08-.08-.11-.1-.55-.48-1.08-.99-1.59-1.51-.2-.21-.55-.51-.86-.83,0-.03-.07-.16-.26-.44-.18-.26-.35-.53-.51-.8-.36-.62-.65-1.27-.94-1.92-.39-.86-.77-1.72-1.14-2.59.1.25.2.51.31.76-.25-.59-.5-1.19-.75-1.79.15.34.29.69.44,1.03-6.32-15.21-10.72-31.23-18.27-45.94-3.75-7.27-8.44-14.26-14.3-20-2.98-2.91-6.32-5.86-10.06-7.74-4.39-2.2-8.9-3.33-13.74-3.95C28.57-.8,18.53.87,12.72,7.87c-6.09,7.34-7.26,17.08-6.62,26.31,1.31,18.6,5.05,37.05,10.08,54.98,2.28,8.09,4.83,16.12,7.68,24.04-2.96,2.06-5.83,4.26-8.51,6.67-2.33,2.09-4.34,4.4-6.23,6.89-1.95,2.57-3.28,5.36-4.51,8.32-2.45,5.89-3.38,12.27-3.95,18.58-.56,6.11-.87,12.33-.5,18.46.42,6.9,1.82,13.39,4.56,19.72,2.21,5.11,5.33,9.7,8.92,13.94,7.08,8.36,16.53,14.8,26.52,19.17,5.91,2.6,11.99,4.62,18.15,6.29.58.37,1.22.66,1.92.87,6.02,1.81,12.18,2.96,18.4,3.62,1.83.19,3.67.34,5.51.45h.01c13.54.82,27.3-.47,40.61-2.22,9.21-1.21,18.39-2.77,27.25-5.64,9.05-2.93,17.46-7.08,24.92-13,16.2-12.86,22.68-34.38,20.61-54.46Zm-101.37-77.38c-.17-.18-.3-.36-.37-.52.09.16.24.37.37.52ZM24.08,17.49c-.04.06-.25.31-.44.53.17-.27.34-.51.44-.53Zm52.57,202.94c.13.02.26.03.39.04.4.07.81.12,1.21.18-.53-.07-1.07-.14-1.6-.22Zm105.96-45.64c-.09.66-.18,1.33-.27,1.99.04-.28.07-.57.1-.85-.67,4.33-1.8,8.57-3.44,12.63.17-.37.34-.75.5-1.13-.25.59-.51,1.19-.76,1.79.07-.17.14-.35.2-.52-1.36,2.96-2.99,5.78-4.93,8.4.05-.06.1-.11.15-.17-.09.13-.23.3-.4.52.06-.08.12-.17.18-.25-.19.23-.37.45-.56.67-.5.6-1.02,1.19-1.55,1.76-1.09,1.18-2.25,2.3-3.46,3.37-.61.54-1.24,1.05-1.88,1.57.12-.09.25-.18.37-.27.05-.04.09-.07.13-.09-.23.19-.66.53-.75.58.03-.03.09-.08.19-.17-.14.1-.28.21-.43.31-1.35.98-2.74,1.9-4.17,2.76-2.38,1.43-4.86,2.69-7.41,3.82-9.62,3.96-19.89,6.08-30.18,7.52-14.49,1.9-29.35,3.2-43.95,1.8-10.93-2.05-21.83-4.47-32.16-8.66.28.12.56.24.84.36-.6-.25-1.2-.5-1.8-.75.32.13.64.26.96.39-3.56-1.54-7.02-3.29-10.32-5.34-1.63-1.01-3.22-2.08-4.76-3.23-.1-.07-.2-.15-.3-.22-.03-.03-.07-.05-.1-.08-.17-.14-.33-.27-.5-.41-.74-.6-1.47-1.22-2.18-1.86-1.38-1.23-2.7-2.52-3.95-3.87-.69-.74-1.36-1.5-2.01-2.28-.24-.28-.47-.57-.71-.86.17.24.28.38.33.46-.13-.16-.48-.62-.53-.7.02.02.05.05.1.11-2.01-2.73-3.74-5.67-5.14-8.76.12.31.24.62.37.93-.26-.6-.51-1.19-.76-1.79.12.29.25.58.39.86-1.26-3.19-2.12-6.48-2.63-9.87.04.36.08.72.13,1.08-.09-.66-.18-1.33-.27-1.99.04.28.08.56.13.84-.45-4.16-.47-8.35-.31-12.52.15-3.96.38-7.92.85-11.85-.04.3-.09.6-.13.9.09-.67.18-1.33.27-2-.05.37-.1.73-.14,1.1.57-3.78,1.43-7.49,2.83-11.04-.16.36-.32.72-.48,1.08.26-.59.51-1.19.76-1.79-.1.23-.19.47-.28.71.39-.85.81-1.68,1.28-2.48.28-.49.58-.96.89-1.43.17-.25.34-.49.51-.73-.02.02-.04.04-.07.07.03-.03.06-.07.09-.12.01-.02.03-.04.05-.05,0,.02-.03.04-.04.06.05-.06.09-.11.12-.14.2-.25.41-.5.62-.74.38-.44.78-.87,1.18-1.29.86-.9,1.76-1.76,2.68-2.59.88-.78,1.79-1.54,2.71-2.28.02-.02.04-.03.06-.05-.06.03-.13.08-.2.12-.07.04-.13.09-.19.14.33-.35,1.07-.83.51-.35.15-.11.29-.22.44-.32,2.01,4.89,4.15,9.73,6.41,14.5.9,1.88,1.81,3.76,2.75,5.63,1.77,3.51,7.01,4.79,10.27,2.69,3.58-2.32,4.58-6.51,2.69-10.26-2.61-5.18-5.04-10.45-7.3-15.78.12.31.25.62.38.93-.25-.6-.5-1.2-.76-1.8.12.29.25.58.38.87-1.47-3.5-2.88-7.02-4.22-10.57-6.27-16.54-11.25-33.58-14.81-50.88-1.19-5.8-2.2-11.64-3-17.51l-.03-.18c-.88-6.62-1.71-13.46-1.01-20.11-.07.35-.12.71-.17,1.07l.21-1.53c-.02.15-.03.3-.04.46.27-1.65.67-3.27,1.24-4.85-.16.32-.31.65-.45.98.26-.6.51-1.2.76-1.79-.1.26-.2.52-.3.78.25-.52.52-1.03.83-1.53.03-.06.14-.27.27-.5-.1.11-.17.17-.2.2.01-.03.14-.19.3-.37-.03.05-.06.1-.08.15.18-.19.36-.4.54-.59.24-.25.48-.48.73-.71-.1.06-.22.14-.35.22.16-.11.31-.22.47-.33.04-.04.08-.07.12-.11.32-.28.76-.49.43-.24.27-.16.55-.31.84-.45-.25.08-.5.18-.75.28.39-.17.77-.33,1.16-.49-.13.07-.27.14-.41.21,1.06-.38,2.14-.65,3.24-.85-.28.03-.56.06-.84.09.66-.09,1.33-.18,1.99-.27-.39.05-.77.11-1.15.18,2.18-.21,4.38-.17,6.56.05-.26-.05-.53-.09-.8-.13.67.09,1.33.18,2,.27-.4-.05-.79-.1-1.19-.14,2.27.37,4.48.94,6.62,1.76-.34-.16-.68-.31-1.02-.46.6.25,1.2.5,1.79.76-.26-.11-.51-.21-.77-.3.82.38,1.61.8,2.38,1.29.47.3.93.63,1.37.97-.08-.07-.15-.13-.23-.19-.07-.06-.12-.1-.13-.11.11.06.68.51.89.69-.12-.08-.24-.18-.36-.27-.06-.04-.11-.08-.17-.12.24.19.49.38.73.58,2.22,1.86,4.29,3.91,6.19,6.1.46.53.9,1.06,1.34,1.6.16.2.31.42.48.62-.01-.03-.03-.05-.05-.08-.02-.03-.04-.05-.05-.08.1.12.19.23.23.3-.02-.02-.04-.03-.05-.05.85,1.15,1.67,2.35,2.46,3.56,1.61,2.47,3.07,5.04,4.42,7.66,1.38,2.65,2.64,5.38,3.82,8.13-.08-.2-.16-.39-.24-.59.25.6.51,1.19.76,1.79-.17-.4-.34-.8-.52-1.2,3.83,9.16,6.92,18.61,10.45,27.88.88,2.33,1.79,4.64,2.75,6.93,1.12,2.68,2.13,5.68,3.71,8.14,1.73,2.68,3.92,5.1,6.42,7.09,1.94,1.53,3.61,2.58,5.93,3.48,1.68.65,3.45.86,5.24,1.04,3.05.3,6.18-.11,9.24-.16,2.68-.05,5.36.01,8.02.31-.36-.07-.72-.12-1.08-.17.52.07,1.03.14,1.54.21-.15-.01-.31-.03-.46-.04,4.46.69,8.85,2,13.02,3.68-.3-.14-.61-.28-.92-.41.6.26,1.2.51,1.79.76-.29-.12-.58-.24-.87-.35,4.04,1.8,7.89,3.99,11.68,6.27,3.78,2.26,7.56,4.54,11.27,6.93,1.82,1.18,3.62,2.38,5.38,3.63.86.61,1.7,1.22,2.54,1.85.03.02.05.04.08.05.04.03.14.11.19.15.02.02.04.03.06.04.36.3.73.6,1.1.89,3.31,2.7,6.42,5.67,9.14,8.96.18.21.35.43.53.64.08.09.13.15.17.2.02.02.03.03.03.04h.01v.03c.17.24.33.48.49.71.71.99,1.37,2.02,2,3.06,1.16,1.93,2.19,3.93,3.1,6-.11-.3-.24-.6-.36-.9.25.6.51,1.2.76,1.8-.13-.3-.26-.6-.4-.9,1.83,4.58,3.07,9.34,3.81,14.21-.03-.3-.06-.59-.1-.89.09.67.18,1.33.27,2-.05-.37-.11-.74-.17-1.11.65,5.43.7,10.91.05,16.33.06-.38.12-.76.17-1.14Z"/>
    <path class="cls-2" d="m93.83,78.7c-.25-.59-.5-1.19-.75-1.79.15.34.29.69.44,1.03.1.25.2.51.31.76Z"/>
    <path class="cls-2" d="m84.14,236.18c-1.14.2-2.31.13-3.51-.09-.67-.12-1.33-.24-2-.36,1.83.19,3.67.34,5.51.45Z"/>
    <path class="cls-2" d="m78.25,220.65c-.53-.07-1.07-.14-1.6-.22.13.02.26.03.39.04.4.07.81.12,1.21.18Z"/>
    <path class="cls-2" d="m66.55,48.75c-.17-.4-.34-.8-.52-1.2-.08-.2-.16-.39-.24-.59.25.6.51,1.19.76,1.79Z"/>
    <path class="cls-2" d="m55.38,28.25s-.04-.03-.05-.05c-.02-.02-.03-.03-.04-.05-.02-.01-.03-.03-.04-.04-.01-.03-.03-.05-.05-.08-.02-.03-.04-.05-.05-.08.1.12.19.23.23.3Z"/>
    <path class="cls-2" d="m48.97,212.53c-.6-.25-1.2-.5-1.8-.75.32.13.64.26.96.39.28.12.56.24.84.36Z"/>
    <path class="cls-2" d="m47.04,19.6c-.12-.08-.24-.18-.36-.27-.06-.04-.11-.08-.17-.12-.08-.07-.15-.13-.23-.19-.07-.06-.12-.1-.13-.11.11.06.68.51.89.69Z"/>
    <path class="cls-2" d="m44.63,125.31c-.25-.6-.5-1.2-.76-1.8.12.29.25.58.38.87.12.31.25.62.38.93Z"/>
    <path class="cls-2" d="m43.53,17.25c-.26-.11-.51-.21-.77-.3-.34-.16-.68-.31-1.02-.46.6.25,1.2.5,1.79.76Z"/>
    <path class="cls-1" d="m182.44,175.93c-.67,4.33-1.8,8.57-3.44,12.63-.01.05-.03.09-.06.14-1.36,2.96-2.99,5.78-4.93,8.4-.02.04-.05.07-.07.1-.19.23-.37.45-.56.67-.5.6-1.02,1.19-1.55,1.76-1.09,1.18-2.25,2.3-3.46,3.37-.61.54-1.24,1.05-1.88,1.57-.01.01-.02.02-.03.03-.01.01-.02.02-.03.02-.14.1-.28.21-.43.31-1.35.98-2.74,1.9-4.17,2.76-2.38,1.43-4.86,2.69-7.41,3.82-9.62,3.96-19.89,6.08-30.18,7.52-14.49,1.9-29.35,3.2-43.95,1.8-10.93-2.05-21.83-4.47-32.16-8.66-3.56-1.54-7.02-3.29-10.32-5.34-1.63-1.01-3.22-2.08-4.76-3.23-.1-.07-.2-.15-.3-.22-.03-.03-.07-.05-.1-.08-.17-.14-.33-.27-.5-.41-.74-.6-1.47-1.22-2.18-1.86-1.38-1.23-2.7-2.52-3.95-3.87-.69-.74-1.36-1.5-2.01-2.28-.24-.28-.47-.57-.71-.86t-.01-.02s-.06-.08-.09-.11c-2.01-2.73-3.74-5.67-5.14-8.76-1.26-3.19-2.12-6.48-2.63-9.87-.01-.02-.01-.05-.01-.07-.45-4.16-.47-8.35-.31-12.52.15-3.96.38-7.92.85-11.85.57-3.78,1.43-7.49,2.83-11.04.39-.85.81-1.68,1.28-2.48.28-.49.58-.96.89-1.43.17-.25.34-.49.51-.73,0-.01.02-.03.03-.04.05-.06.09-.11.12-.14.2-.25.41-.5.62-.74.38-.44.78-.87,1.18-1.29.86-.9,1.76-1.76,2.68-2.59.88-.78,1.79-1.54,2.71-2.28.02-.02.04-.03.06-.05.04-.03.07-.05.1-.07,0-.01,0-.01,0-.01h.01c.15-.12.29-.23.44-.33,2.01,4.89,4.15,9.73,6.41,14.5.9,1.88,1.81,3.76,2.75,5.63,1.77,3.51,7.01,4.79,10.27,2.69,3.58-2.32,4.58-6.51,2.69-10.26-2.61-5.18-5.04-10.45-7.3-15.78-1.47-3.5-2.88-7.02-4.22-10.57-6.27-16.54-11.25-33.58-14.81-50.88-1.19-5.8-2.2-11.64-3-17.51l-.03-.18c-.88-6.62-1.71-13.46-1.01-20.11.27-1.65.67-3.27,1.24-4.85,0-.01.01-.02.01-.03.25-.52.52-1.03.83-1.53.03-.06.14-.27.27-.5,0-.01.02-.02.02-.02.18-.19.36-.4.54-.59.24-.25.48-.48.73-.71.24-.16.42-.28.54-.37.05-.03.09-.06.13-.09.27-.16.55-.31.84-.45,1.06-.38,2.14-.65,3.24-.85,2.18-.21,4.38-.17,6.56.05h.01c2.27.37,4.48.94,6.62,1.76.82.38,1.61.8,2.38,1.29.47.3.93.63,1.37.97.24.19.49.38.73.58,2.22,1.86,4.29,3.91,6.19,6.1.46.53.9,1.06,1.34,1.6.16.2.31.42.48.62.01.01.02.03.04.04.01.02.02.03.04.05.85,1.15,1.67,2.35,2.46,3.56,1.61,2.47,3.07,5.04,4.42,7.66,1.38,2.65,2.64,5.38,3.82,8.13,3.83,9.16,6.92,18.61,10.45,27.88.88,2.33,1.79,4.64,2.75,6.93,1.12,2.68,2.13,5.68,3.71,8.14,1.73,2.68,3.92,5.1,6.42,7.09,1.94,1.53,3.61,2.58,5.93,3.48,1.68.65,3.45.86,5.24,1.04,3.05.3,6.18-.11,9.24-.16,2.68-.05,5.36.01,8.02.31,4.46.69,8.85,2,13.02,3.68,4.04,1.8,7.89,3.99,11.68,6.27,3.78,2.26,7.56,4.54,11.27,6.93,1.82,1.18,3.62,2.38,5.38,3.63.86.61,1.7,1.22,2.54,1.85.03.02.05.04.08.05.04.03.14.11.19.15.02.02.04.03.06.04.36.3.73.6,1.1.89,3.31,2.7,6.42,5.67,9.14,8.96.18.21.35.43.53.64.08.09.13.15.17.2.02.02.03.03.03.04h.01v.03c.17.24.33.48.49.71.71.99,1.37,2.02,2,3.06,1.16,1.93,2.19,3.93,3.1,6,1.83,4.58,3.07,9.34,3.81,14.21.65,5.43.7,10.91.05,16.33Z"/>
    <path class="cls-2" d="m28.99,127.92h-.01s0,.01,0,.02c-.03.02-.06.04-.1.07-.06.03-.13.08-.2.12-.07.04-.13.09-.19.14.33-.35,1.07-.83.51-.35Z"/>
    <path class="cls-2" d="m28.48,128.27s-.05.04-.07.07c.01-.02.04-.05.07-.07Z"/>
    <path class="cls-2" d="m23.67,194.53l-.02-.02.02.02Z"/>
    <path class="cls-2" d="m23.63,18.05s-.06.1-.08.15c0,0-.01.01-.02.02-.1.11-.17.17-.2.2.01-.03.14-.19.3-.37Z"/>
    <path class="cls-2" d="m23.63,194.48c-.13-.16-.48-.62-.53-.7.02.02.05.05.1.11.03.03.06.07.09.11t.01.02c.17.24.28.38.33.46Z"/>
    <path class="cls-2" d="m22.73,19.47c-.1.26-.2.52-.3.78,0,.01-.01.02-.01.03-.16.32-.31.65-.45.98.26-.6.51-1.2.76-1.79Z"/>
    <path class="cls-2" d="m21.54,135.04s-.03.04-.04.06c-.01.01-.02.03-.03.04-.02.02-.04.04-.07.07.03-.03.06-.07.09-.12.01-.02.03-.04.05-.05Z"/>
    <path class="cls-2" d="m21.22,24.67c-.02.15-.03.3-.04.46-.07.35-.12.71-.17,1.07l.21-1.53Z"/>
    <path class="cls-2" d="m21.24,135.42s-.04.05-.06.08c0-.02.03-.04.06-.08Z"/>
    <path class="cls-2" d="m19.07,139.07c-.1.23-.19.47-.28.71-.16.36-.32.72-.48,1.08.26-.59.51-1.19.76-1.79Z"/>
    <path class="cls-2" d="m18.43,186.06c-.26-.6-.51-1.19-.76-1.79.12.29.25.58.39.86.12.31.24.62.37.93Z"/>
    <path class="cls-2" d="m16.1,149.72c-.05.37-.1.73-.14,1.1-.04.3-.09.6-.13.9.09-.67.18-1.33.27-2Z"/>
    <path class="cls-2" d="m15.56,176.34c-.09-.66-.18-1.33-.27-1.99.04.28.08.56.13.84,0,.02,0,.05.01.07.04.36.08.72.13,1.08Z"/>
  </g>
</svg>