<?xml version="1.0" encoding="UTF-8"?>
<svg id="Layer_1" data-name="Layer 1" xmlns="http://www.w3.org/2000/svg" viewBox="0 0 1905 1079.89">
  <defs>
    <style>
      .cls-1 {
        fill: #37241e;
      }

      .cls-1, .cls-2, .cls-3, .cls-4, .cls-5, .cls-6, .cls-7, .cls-8, .cls-9, .cls-10, .cls-11, .cls-12, .cls-13, .cls-14, .cls-15, .cls-16, .cls-17 {
        stroke-width: 0px;
      }

      .cls-2 {
        fill: #edcfac;
      }

      .cls-3 {
        fill: #c8c8c8;
      }

      .cls-4 {
        fill: #fcfcfb;
      }

      .cls-5 {
        fill: #1f1f1e;
      }

      .cls-6 {
        fill: #0d0b0a;
      }

      .cls-7 {
        fill: #f6ec83;
      }

      .cls-8 {
        fill: #24a5dd;
      }

      .cls-9 {
        fill: #b0d69c;
      }

      .cls-10 {
        fill: #fff;
      }

      .cls-11 {
        fill: #989798;
      }

      .cls-12 {
        fill: #9fd8ec;
      }

      .cls-13 {
        fill: #f8ec4a;
      }

      .cls-14 {
        fill: #4b9f46;
      }

      .cls-15 {
        fill: #181818;
      }

      .cls-16 {
        fill: #eb234f;
      }

      .cls-17 {
        fill: #f4ea80;
      }
    </style>
  </defs>
  <path class="cls-3" d="m1146.47,1079.8h-233.1c-.16-1.5-.21-3.01-.41-4.52-1.27-9.7-5.49-18.49-7.26-28.04-4.18-22.63-10.04-44.85-15.07-67.28-2.92-13.02-5.73-26.16-13.86-37.02-.54-.72-1.39-1.74-.37-2.94.37.08.82.08,1.16.28,14.73,8.98,30.61,14.94,46.82,19.94,18.35,5.67,36.96,10.44,55.92,12.92,15.51,2.04,31.16,3.25,46.79,3.72,15.31.46,30.61,1.66,45.94,1.19,5.49-.17,11.02-.19,16.49.22,12.53.94,25,.88,37.52-.57,4.89-.57,10.58-5.24,14.82,1.78.17.28.81.33,1.23.32,3.74-.12,7.51.52,11.22-.5,5.51-1.51,6.57-3.76,3.95-9.21-1.99-4.14-4.29-8.1-6.66-12.52,11.6.3,22.68-.05,33.8.84,13.09,1.05,26.28-.66,39.41.9,2.75.33,5.78-.28,8.44-1.22,4.82-1.72,6.38-6.33,7.05-11.13.4-2.91,1.16-4.27,4.24-4.18,15.28.43,30.5-.37,45.66-2.63,10.63-1.58,21.34-2.57,32-3.86,1.84-.22,3.68-.56,5.5-.95,4.61-.98,5.49-4.5,4.87-8.7-.5-3.41.42-5.16,3.83-5.83,10.65-2.08,21.27-4.32,31.86-6.7,8.23-1.85,16.44-3.81,24.1-7.73,4.14-2.12,6.33-5.3,5.4-10.24-1.39-7.43-2.48-14.99-6.83-21.43,3.6-1.77,7.33-2.8,10.75-4.76,2.86-1.64,3.9-4.13,2.97-6.83-2.93-8.44-6.7-16.39-15.92-18.88-3.42-.92-6.83.24-10.25.49-13.73.98-27.37,2.81-40.94,4.96-17,2.7-33.85,6.5-51.03,9.87,0-2.09,0-3.77,0-5.46,0-6.65-1.24-7.83-7.5-9.39-6.1-1.52-12.28-.81-18.42-1.5-10.94-1.23-21.68,1.6-32.3,4.13-16.15,3.84-32.12,8.39-47.51,14.98-1.84.79-3.37.96-5.26-.74-2.67-2.41-6.25-3.53-9.35-5.22-4.13-2.26-9.32-2.58-14.12-3.14-12.58-1.47-24.04-6.37-35.12-12.47-9.16-5.05-17.59-11.48-26.92-16.27-3.28-1.69-6.58-2.15-10.06-1.83-4.01.37-9.55,5.21-10.33,9.23-.92,4.76,2.63,6.54,5.54,8.66,9.35,6.83,19.21,12.73,29.43,17.96,3.17,1.62,6.26,3.36,8.95,6.26-3,.5-5.98.17-8.87.56-14.55,1.94-28.92-.17-43.35-1.7-9.84-1.05-19.41-3.6-29.19-4.91-7.79-1.04-15.61-1.94-23.35-3.35-9.4-1.72-18.73-3.87-28.08-5.9-11.45-2.48-23.17-3.41-34.51-6.49-12.18-3.3-24.42-6.03-36.95-7.61-10.45-1.32-20.93-2.77-31.24-5.21-1.78-.42-3.97-.54-5.57.2-2.32,1.06-3.22-.34-4.26-1.74-.89-1.19-1.37-2.74-2.34-3.82-2.57-2.87-.48-3.52,1.63-4.01,2.91-.67,5.85-1.3,8.81-1.62,6.14-.67,12.36-.74,18.48-.73,4.23,0,8.71.93,12.87.22,18.62-3.18,37.26-6.31,56.05-7.98,15.71-1.39,31.34-3.16,46.94-5.58,15.55-2.42,30.93-5.73,46.32-9.03,13.83-2.96,27.56-6.4,41.51-8.77,12.42-2.11,24.87-3.9,37.33-5.71,13.88-2.02,27.85-3.14,41.72-5.27,9.47-1.46,18.99-2.61,28.47-3.97,9.76-1.4,19.51-2.89,29.26-4.36,9.2-1.38,18.42-2.57,27.57-4.23,11.94-2.17,23.76-5.03,35.75-7,12.39-2.03,24.67-4.77,37.02-7.06,14.19-2.63,28.39-5.18,42.6-7.63,8.32-1.44,16.83-1.94,24.98-4.06,27.59-7.17,55.63-12,83.37-18.35,6.11-1.4,13.25-.32,17.95-6.47.31-.41,1-.58,1.54-.68,4.67-.83,9.21-2.13,13.46-4.36,1.4-.73,2.36-.47,3.49.58,16.12,14.86,32.38,29.55,48.93,43.87,14.42,12.48,28.76,25.07,43.02,37.74,5.87,5.22,12.59,9.37,18.11,14.88,9.03,9.01,18.18,17.91,27.94,25.92,25.96,21.32,52.7,41.53,79.36,61.85,22.45,17.11,44.61,34.66,66.99,51.88,24.93,19.18,49.98,38.19,74.96,57.3,7.58,5.8,15.1,11.68,22.64,17.52,0,18.81-.09,37.63.09,56.44.03,3.17-.59,3.79-3.57,3.79-88.57-.11-177.14-.09-265.72-.09h-321.38c-.36-1.65-1.73-2.42-2.77-3.4-18.99-17.79-38.28-35.22-55.83-54.68-2.27-2.52-5.19-4.39-7.84-6.52-2.15-1.72-4.68-2.02-6.94-.77-7.16,3.95-14.98,6.8-21.33,12.09-21.76,18.14-44.51,34.61-68.78,48.73-1.7.99-4.32,1.53-4.38,4.55Zm304.72-266.25c0-.29-.02-.58-.03-.87,1.22-.43,2.42-1.04,3.68-1.26,22.9-4.11,45.92-7.19,69.05-9.39,7.62-.73,15.05-2.67,21.9-6.59,1.98-1.13,3.9-2.41,3.9-5.05,0-5.4-4.47-10.22-9.75-10.25-25.88-.14-51.76-.35-77.26,5.52-11.97,2.75-23.66,6.56-35.36,10.3-1.64.52-3.57,1.81-1.91,4.01,2.2,2.92,3,6.54,4.87,9.59,1.74,2.84,1.04,3.93-2.25,3.91-18.55-.11-37.1-.04-55.64-.08-1.15,0-2.61.53-3.55-1.57,1.43-.5,2.74-.98,4.07-1.42,15.13-5.07,29.82-11.33,44.05-18.78,4.88-2.55,7.68-6.93,8-12.78.24-4.32-4.83-9.07-8.3-7.72-8,3.11-16.34,4.72-24.58,6.79-24.35,6.11-48.71,12.15-73.3,17.15-12.41,2.52-24.96,4.48-37.13,8.24-8.28,2.56-14.38,7.75-16.15,17.34-.86,4.65.76,7.16,5.07,8.37,4.69,1.32,9.49,1.03,14.23,1.27,9.38.47,18.81,1.49,28.14-.41,5.9-1.2,11.73-2.82,17.76-4.3.41,4.45,1.31,8.57,6.39,8.89,16.57,1.05,32.86,4.71,49.55,4.92,23.29.29,46.57,1.81,69.86,2.45,11.46.31,15.96-5.83,13.98-17.88-.07-.45-.26-.89-.3-1.34-.35-4.19-2.41-6.08-6.44-6.49-4.23-.43-8.39-1.66-12.58-2.55Zm215.01,86.86c-2.61,0-5.25.26-7.82-.06-3.82-.48-5.77.98-6.65,5.05-.83,3.87-2.48,7.09-7.33,6.5-2.37-.29-4.93.25-7.29.91-20.05,5.63-39.04,13.27-55.68,27.31-10.44,8.81-11.77,19.46-9.84,31.61,2.8,17.59,14.37,27.37,28.73,34,9.57,4.41,20.02,4.59,30.2,5.04,15.36.67,30.83,2.37,45.64-4.84,9.34-4.54,18.6-2.48,27.23,3.2,4.04,2.66,8.13,5.25,12.3,7.68,3.31,1.94,5.84,1.11,8.02-2.45,2.26-3.69,3.79-8.14,7.45-10.62,6.73-4.56,13.89-8.1,21.95-9.16,14.6-1.93,28.21-6.49,38.9-17.86,4.83-5.14,8.63-10.96,8.41-18.94-.33-12-6.37-19.8-15.76-25.04-17.04-9.5-34.59-17.66-53.86-20.49-5.85-.86-10.52-4.89-16.03-6.15-15.98-3.64-32.21-5.32-48.56-5.67Zm-245.56,110.77c-.48,2.11-1.8,3.3-2.93,4.63-4.91,5.74-7.77,12.16-5.85,20.14,2.23,9.29,8.07,19.4,19.82,20.92,11.08,1.43,21.99-.08,32.79-1.71,16.49-2.49,32.73-6.67,48.72-11.67,9.49-2.97,19.25-5.25,28.05-10.36,11.22-6.52,14.32-18.76,6.07-28.35-9.22-10.72-20.94-18.52-34.71-19.91-17.44-1.76-34.92.45-52.12,3.89-13.69,2.74-26.12,9.39-38.52,15.9-5.3,2.79-10.54,5.73-15.77,8.68-1.1.62-2.65,1.37-1.92,3.07.81,1.88,2.27,1.4,3.67.5,1.11-.71,2.27-1.34,3.44-1.92,2.94-1.48,5.62-3.74,9.26-3.81Zm-102.24,15.01c5.21.05,9.86-1.16,13.93-3.93,19.49-13.3,41.37-20.58,62.96-28.62,13.03-4.85,26.14-9.54,38.64-15.84,7.68-3.87,9.09-7.44,7.52-16.28-.21-1.2-.16-2.45-.27-3.68-.84-9.44-5.32-15.77-12.21-17.42-5.95-1.43-9.98,3.59-15.06,5.14-4.33,1.32-8.06,4.7-12.25,6.72-19.42,9.34-39.6,16.82-58.74,26.85-11.25,5.89-23.05,10.66-33.75,17.68-6.28,4.12-7.5,10.53-6.47,18.11,1,7.32,5.81,9.33,11.27,10.88,1.51.43,3.16.31,4.41.42Zm207.7-111.26c7.29-.39,12.51-.46,17.68-1,6.16-.64,12.33-1.38,18.39-2.67,5.37-1.14,6.56-5.33,3.14-9.85-2.62-3.47-6.17-5.5-10.19-6.52-7.57-1.9-15.26-2.96-22.99-3.93-17.86-2.25-35.38-6.59-52.96-10.49-9.85-2.19-19.65-3.62-29.44-.25-4.21,1.45-8.03,3.92-8.34,9.42-.34,5.82,1.58,10.47,6.6,13.41,11.39,6.66,24.1,7.88,36.56,10.05,7.87,1.37,15.85.21,23.78.37,6.62.14,13.23,1.07,17.77,1.46Zm-473.46,138.96c4.43.19,7.93-.64,11.44-1.54,21.8-5.62,41.12-17.4,60.94-27.91,5.41-2.87,10.83-5.73,16.24-8.61,2.89-1.54,4.59-4.12,5.56-7.32,1.25-4.13-.04-6.86-3.89-8.25-3.65-1.32-7.42-.99-11.17-.94-11.43.14-21.95,4.62-32.64,8.1-4.3,1.4-8.89.38-12.84,2.04-10,4.22-19.79,9.03-29.57,13.81-7.21,3.53-14.29,7.35-21.38,11.13-2.29,1.22-4.89,3.28-2.6,5.96,5.61,6.56,10.29,15.14,19.9,13.53Zm112.26-218.48c16.41.27,32.51-1.84,48.11-7.41,7.49-2.68,15.25-4.94,21.48-10.45,6.72-5.94,5.81-13.34-1.84-17.73-10.14-5.82-21.24-7.41-32.45-8.6-10.83-1.15-21.18,2.01-31.62,4.06-8.31,1.63-16.65,3.41-24.5,6.93-1.83.82-5.93,1.28-1.64,4.94,1.42,1.21-.46,1.9-1.32,2.51-2.63,1.88-5.37,3.59-7.9,5.62-3.01,2.41-3.38,5.43-1.3,8.85,2.97,4.89,7.22,7.75,12.37,9.44,6.76,2.22,13.69,1.88,20.61,1.84Z"/>
  <path class="cls-10" d="m839.44,1079.8c-278.37,0-556.73,0-835.1.09-3.31,0-4.35-.38-4.35-4.37.14-102.82.11-205.64.11-308.46,2.14,5.31.96,11.04,1.47,16.53,1.07,11.34,4.23,21.83,8.78,31.9,4.82,10.67,11.94,19.69,19,28.79,10.38,13.39,23.03,23.36,37.93,30.08,9.79,4.42,20.3,6.22,30.62,8.73,16.09,3.93,32.32,6.83,48.68,9.06,2.97.4,6.89-.67,8.99,3,2.41,4.23,4.62,8.58,6.32,13.22,4.02,11.02,7.73,22.2,12.31,32.96,5.96,14,14.3,26.22,25.18,36.62,9.15,8.74,17.6,18.34,26.18,27.74,3.25,3.56,7.01,6.16,11.04,8.43,22.27,12.53,46.28,17.31,71.2,17.53,50.98.44,101.95-.18,152.92-.95,6.03-.09,12.04-1.28,18.08-1.5,8.18-.3,15.98-2.87,24.01-4.07,13.83-2.08,26.91-5.78,36.28-18.41,6.32-8.52,11.75-16.98,10.76-28.54-.83-9.69-2.31-19.28-3.32-28.93-1.84-17.63-5.61-34.92-7.41-52.58-1.36-13.31-3.81-26.47-3.31-39.97.1-2.67.47-3.62,3.29-3.69,29.33-.73,58.67-2.36,87.97,1,9.64,1.1,19.15,2.79,28.47,5.96-1.26.87-2.45,1.43-3.93,1.49-5.29.19-10.54,1.19-15.74,2-14.52,2.25-29.13,3.13-43.71,4.42-4.99.44-9.99,1.04-14.68,2.88-5.34,2.1-7.66,7.12-8.45,12.65-.79,5.54-.49,11.48,4.62,14.71,7.6,4.8,15.5,9.12,23.47,13.21,6.69,3.43,14.09,3.46,21.36,3.76,9.25.38,18.42-.76,27.59-1.84,7.9-.93,15.75-1.99,23.44-4.42,8.65-2.74,17.29-5.51,26.16-7.54,6.93-1.59,12.13-.31,17.23,5.29,9.09,9.97,20.81,10.73,32.97,8.75,6.02-.98,11.39-4.57,17.55-4.83,8.24-.35,16.48-.82,24.72-.8,3.69,0,6.71-1.47,9.47-3.46,2.94-2.12,6.42-4.46,7.88-7.63,3.99-8.68,10.69-8.82,18.05-8.09,1,.1,2.03-.03,3.04-.1,2.91-.2,4.81,1.05,6.1,3.95,1.87,4.21,3.7,8.48,6.6,12.07,1.99,2.47,2.28,5.37,2.29,8.51.08,17.22-1.69,34.37-1.97,51.54-.61,37.76-.19,75.54-.19,113.31Z"/>
  <path class="cls-6" d="m839.44,1079.8c0-37.77-.43-75.55.19-113.31.28-17.17,2.04-34.32,1.97-51.54-.01-3.14-.3-6.05-2.29-8.51-2.9-3.59-4.73-7.86-6.6-12.07-1.29-2.9-3.19-4.15-6.1-3.95-1.01.07-2.04.19-3.04.1-7.36-.73-14.06-.59-18.05,8.09-1.46,3.17-4.94,5.5-7.88,7.63-2.76,1.99-5.78,3.47-9.47,3.46-8.24-.02-16.48.45-24.72.8-6.16.26-11.54,3.85-17.55,4.83-12.17,1.98-23.88,1.22-32.97-8.75-5.1-5.59-10.31-6.87-17.23-5.29-8.86,2.03-17.51,4.8-26.16,7.54-7.69,2.43-15.53,3.49-23.44,4.42-9.17,1.08-18.34,2.22-27.59,1.84-7.27-.3-14.67-.33-21.36-3.76-7.97-4.09-15.87-8.4-23.47-13.21-5.11-3.23-5.41-9.17-4.62-14.71.78-5.53,3.11-10.54,8.45-12.65,4.68-1.84,9.68-2.44,14.68-2.88,14.58-1.3,29.2-2.17,43.71-4.42,5.2-.81,10.44-1.82,15.74-2,1.49-.05,2.68-.62,3.93-1.49-9.32-3.16-18.84-4.85-28.47-5.96-29.3-3.36-58.63-1.72-87.97-1-2.82.07-3.19,1.02-3.29,3.69-.5,13.5,1.95,26.66,3.31,39.97,1.8,17.66,5.57,34.95,7.41,52.58,1.01,9.64,2.49,19.24,3.32,28.93.99,11.56-4.44,20.02-10.76,28.54-9.37,12.63-22.45,16.33-36.28,18.41-8.03,1.21-15.83,3.78-24.01,4.07-6.04.22-12.05,1.41-18.08,1.5-50.97.76-101.95,1.39-152.92.95-24.91-.22-48.93-5-71.2-17.53-4.03-2.26-7.79-4.87-11.04-8.43-8.58-9.4-17.03-18.99-26.18-27.74-10.88-10.4-19.22-22.62-25.18-36.62-4.58-10.76-8.29-21.94-12.31-32.96-1.69-4.64-3.9-8.99-6.32-13.22-2.1-3.67-6.02-2.6-8.99-3-16.37-2.23-32.59-5.13-48.68-9.06-10.32-2.52-20.84-4.31-30.62-8.73-14.9-6.73-27.55-16.69-37.93-30.08-7.06-9.1-14.18-18.13-19-28.79-4.54-10.07-7.71-20.56-8.78-31.9-.52-5.49.67-11.21-1.47-16.53v-11.1c1.49-1.12.79-2.8.83-4.21.83-29.56,5.57-58.18,16.79-85.48,5.69-13.84,9.92-28.32,15.16-42.38,5.53-14.85,13.44-28.04,22.25-40.75,3.21-4.63,6.6-9.11,10.08-13.89-8.1-3.41-3.77-10.07-3.11-15.54,1.98-16.36,10.16-29.4,20.29-41.34,4.09-4.82,7.57-10.22,12.51-14.23,7.01-5.69,14.68-6.82,22.94-3.99,5.5,1.89,10.96,3.91,16.4,6.01,2.11.81,2.85-.02,3.27-2.1,4.34-21.58,10.34-42.73,14.91-64.27,3.04-14.33,7.92-28.16,11.82-42.26,6.83-24.66,14.49-48.94,26.05-71.6,6.88-13.49,14.77-26.33,23.33-38.69,1.69-2.44,1.76-4.08-.17-6.78-12.01-16.8-22.5-34.74-28.67-54.84-5.8-18.89-8.5-38.57-5.43-58.49,3.19-20.76,9.22-40.6,20.94-57.82,9.55-14.03,21.98-24.74,36.3-33.09,6.19-3.61,12.06-7.73,19.23-8.89,2.5-.4,3.76-2.78,5.21-4.58,14.19-17.6,31.13-30.76,52.28-37.32,14.53-4.51,29.1-8.45,44.24-10.44,19.14-2.52,38.29-3.19,57.43-2.29,16.44.77,32.85,3.16,48.35,9.83,17.97,7.74,35.52,16.23,50.56,29.72,8.23,7.38,16.48,14.71,23.98,22.94,1.6,1.75,2.78,2.1,5.16,1.26,19.75-7.04,39.57-13.85,59.39-20.64,24.09-8.25,48.68-14.59,73.43-19.99,12.89-2.81,26.15-1.74,39.07.83,15.97,3.16,31.68,7.57,46.18,15.65,7.37,4.1,14.55,8.61,21.6,13.3,5.88,3.9,6.9,9.93,3.91,17.58-3.84,9.81-10.79,16.42-19.04,21.85-11.3,7.44-22.94,14.2-35.83,20.73,12,2.9,22.36,8,32.93,12.52,13.69,5.86,24.65,15.09,32.6,28.54,7.69,13.01,12.25,27.17,15.19,42.05.06.3-.11.77.04.9,6.51,6.03.17,13.61,2.16,20.5,2.01,6.93.26,14.56-1.37,21.72-1.63,7.13-4.01,14.03-6.92,20.68-7.17,16.35-14.33,32.73-24.23,47.5-7.06,10.53-16.09,19.06-25.09,27.64-11.3,10.78-24.24,18.86-37.68,25.99-16.17,8.57-32.67,16.45-49.01,24.66-19.39,9.74-38.81,19.42-58.11,29.34-4.92,2.53-9.7,5.48-14.47,8.31-4.62,2.74-10.13,4.26-15.04,6.76-9.26,4.73-18.47,9.56-27.61,14.59-13.27,7.3-27.19,13.12-41.73,19.2,4.75,2.44,9.36,3.01,13.81,3.92,15.74,3.21,31.47,6.57,47.33,9.02,11.89,1.84,23.86,3.23,35.88,4.14,9.77.74,19.53,1.47,29.31,2.02,12.28.69,24.36-.62,36.44-2.75,7.42-1.31,14.8-2.72,21.73-5.88,8.99-4.1,17.05-9.96,25.24-15.57,1.6-1.1,1.88-2.78,1.34-4.44-3.17-9.7,4.27-17.62,13.38-17.1,10.74.6,20.43,3.2,28.32,11.44,11.55,12.06,7.83,26.23-7.11,32.24-12.39,4.98-23.09.17-30.24-11.96-2.04-3.46-3.49-3.19-6.12-1.27-5.35,3.91-11.02,7.27-16.69,10.65-8.85,5.28-18.6,7.09-28.29,8.92-13.06,2.47-26.29,3.62-39.55,2.79-13.51-.84-27-1.87-40.48-3.32-10.54-1.13-21.07-2.37-31.51-4.12-14.56-2.44-29.01-5.59-43.48-8.63-6.94-1.46-13.79-3.38-20.69-5.06-1.18-.29-2.19.4-3.29.77-9.81,3.33-19.62,6.63-29.69,9.02-10.39,2.47-19.8,7.79-29.61,11.94-8.37,3.54-16.66,7.32-25.01,10.91-10.32,4.44-18.59,12.05-27.08,19.37-5.17,4.46-10.6,8.56-15.99,12.72-3.62,2.79-3.64,3.4-.47,7.11,3.88,4.53,7.93,8.95,12.01,13.18,2.81,2.91,7.01,4.65,10.43,7.32,23.41,18.29,49.85,28.87,78.09,35.45,17.99,4.2,36.16,6.9,54.32,9.81,14.68,2.35,29.52,3.55,44.21,5.82,12.72,1.97,26.17.86,38.02,5.94,7.35,3.15,12.74.15,18.84-.97,9.85-1.81,19.76-2.85,29.66-4.18,14.47-1.94,29.03-2.47,43.56-3.42,8.77-.57,17.52-1.13,26.28-2.01,18.46-1.86,36.76-4.68,54.77-9.41,17.82-4.68,35.39-10.26,52.82-16.45,21.14-7.51,40.69-18.35,59.79-30.35,8.29-5.21,16.37-10.7,24.21-16.63,14.16-10.7,25.05-24.47,33.77-40.32,7.9-14.35,12.25-29.81,12.08-46.45-.1-9.42-1.81-18.63-6.94-26.68-5.17-8.12-12.88-10.41-21.54-10.81-4.5-.21-9.16.94-13.42-1.88-7.85-5.21-11.81-12.89-13.76-22.3-1.59-7.69.02-14.33,5.2-19.47,4.43-4.4,10.05-7.49,15.94-9.02,13.9-3.59,28.21-4.75,42.36-3.57,13.29,1.11,24.75,7.37,32.3,19.94,2.44,4.06,4.89,8.09,7.74,11.87,6.79,8.98,8.49,19.5,7.99,30.73-.24,5.42,0,5.31,4.58,3.08,9.69-4.73,20.14-6.77,30.42-9.43,2.47-.64,4.98-1.16,7.43-1.87,5.41-1.56,10.6-.59,15.95.81,7.4,1.94,14.99,3.05,22.45,4.77,8.71,2.02,15.41,7.65,20.42,15.09,2.73,4.06,2.46,9.26-.18,13.79-4.29,7.36-9.66,13.41-17.69,16.17-1.04.36-2.67.47-1.54,2.7,2.59,5.12,1.81,9.57-1.9,13.86-2.35,2.72-5.05,4.91-8.09,6.61-1.7.94-2.87,1.5-.37,3.13,4.07,2.66,5.32,6.89,4.03,11.53-1.86,6.66-3,10.39-9.45,14.14,4.54,2.17,7.38,5.29,8.82,10.26,2.13,7.31-1.56,11.8-5.58,16.39-7.8,8.9-18.03,10.18-28.64,10.11-1.13,0-2.22-.33-3.21.74-3.62,3.92-8.24,3.76-12.86,3.28-5.92-.61-11.9-.85-17.71.2-7.37,1.33-12.76,6.86-18.36,11.65-2.56,2.19-5.12,4.52-7.34,7.01-12.98,14.57-28.29,25.83-44.43,35.88-20.34,12.66-39.84,26.87-60.96,38.06-18.05,9.56-36.46,18.42-55.79,24.65-18.78,6.05-37.86,10.99-56.7,16.84-19.88,6.17-40.13,10.44-60.36,14.94-9.83,2.18-19.52,5.11-29.49,6.59-8.34,1.24-16.75,2.02-25.06,3.47-10.56,1.83-21.36,1.59-31.82,4.4-3.17.85-6.64,1.4-9.83.94-5.58-.8-9.09,2.36-12.71,5.87-9.42,9.13-20.48,15.42-31.91,21.17-10.64,5.35-21.99,6.87-33.46,7.89-4.89.44-9.66-.94-14.41-2-1.3-.29-2.39-.62-2.26,1.32.39,5.8-1.12,11.54-.22,17.41.4,2.64,1.12,3.3,3.45,3.07,16.92-1.64,33.89-.6,50.83-1.09,18.38-.53,36.77-.12,55.01,2.14,24.98,3.09,49.47,9.14,72.98,18.66,15.12,6.12,30.53,12,44.4,21.01,7.22,4.69,15.01,5.7,22.81,7.19,4.2.8,7.79,2.81,11.16,5.06,2.06,1.38,3.91,1.79,6.01,1.58,18.9-1.89,37.86-.53,56.78-1.28,2.01-.08,4.03-.01,6.09-.01.09-3.54-3.57-4.7-3.3-8.32.42-5.74,1.83-7.59,7-8.95,8.6-2.27,17.44-1.1,26.06-2.69,3.1-.57,6.32-1.95,9.33-.96,9.63,3.19,18.6-1.42,27.87-2.27,7.96-.73,15.84-2.31,23.79-3.22,11.54-1.32,23.1-2.37,34.65-3.56,14.93-1.54,29.69-4.22,44.45-6.82,14.42-2.54,28.71-5.92,42.99-9.28,12.48-2.94,25-5.49,37.68-7.28,12.31-1.74,24.57-4.01,36.91-5.33,8.27-.88,16.54-1.74,24.78-2.93,10.19-1.48,20.35-3.13,30.55-4.53,12.19-1.68,24.45-2.92,36.61-4.81,12.11-1.88,24.21-4.02,36.19-6.65,9.45-2.08,19-3.41,28.47-5.27,12.03-2.36,24.07-4.68,36.11-6.95,10.92-2.06,21.81-4.44,32.81-5.92,17.91-2.4,35.47-6.57,53.11-10.45,14.15-3.12,28.33-6.08,42.51-9.07,4.87-1.03,9.75-2.01,14.65-2.89,2.79-.51,3.05-4.09,6.2-4.78,6.8-1.48,13.86-1.72,20.43-4.38.79-.32,1.71-.41,2.38-.91,6.35-4.74,11.63-3.09,17.05,2.25,8.61,8.47,17.62,16.47,26.54,24.58,8.57,7.78,17.56,15.02,26.07,22.89,9.14,8.44,18.72,16.34,28.04,24.56,8.21,7.24,16.41,14.52,25.24,20.9,4.26,3.08,7.55,7.21,11.26,10.82,14.74,14.38,30.76,26.95,46.9,39.4,21.21,16.36,42.4,32.76,63.6,49.14,15.93,12.31,31.83,24.67,47.78,36.95,19.73,15.19,39.43,30.44,59.29,45.44,13.06,9.86,26.26,19.52,38.81,30.12.28.24.83.11,1.25.15v9.25c-7.55-5.84-15.07-11.72-22.64-17.52-24.98-19.11-50.03-38.12-74.96-57.3-22.38-17.22-44.54-34.77-66.99-51.88-26.66-20.32-53.4-40.53-79.36-61.85-9.75-8.01-18.91-16.91-27.94-25.92-5.52-5.5-12.24-9.66-18.11-14.88-14.27-12.68-28.6-25.27-43.02-37.74-16.55-14.32-32.81-29-48.93-43.87-1.14-1.05-2.09-1.31-3.49-.58-4.26,2.23-8.8,3.53-13.46,4.36-.54.1-1.23.27-1.54.68-4.7,6.15-11.85,5.07-17.95,6.47-27.74,6.35-55.77,11.18-83.37,18.35-8.15,2.12-16.66,2.62-24.98,4.06-14.21,2.46-28.42,5-42.6,7.63-12.35,2.29-24.63,5.03-37.02,7.06-11.99,1.97-23.81,4.83-35.75,7-9.15,1.66-18.38,2.85-27.57,4.23-9.75,1.47-19.5,2.96-29.26,4.36-9.49,1.36-19,2.52-28.47,3.97-13.86,2.13-27.83,3.25-41.72,5.27-12.46,1.81-24.91,3.6-37.33,5.71-13.95,2.37-27.68,5.81-41.51,8.77-15.39,3.3-30.77,6.6-46.32,9.03-15.6,2.43-31.23,4.19-46.94,5.58-18.79,1.66-37.43,4.8-56.05,7.98-4.16.71-8.63-.21-12.87-.22-6.11-.01-12.34.05-18.48.73-2.96.33-5.9.96-8.81,1.62-2.11.48-4.2,1.14-1.63,4.01.97,1.08,1.46,2.64,2.34,3.82,1.04,1.4,1.94,2.8,4.26,1.74,1.6-.73,3.79-.62,5.57-.2,10.31,2.44,20.79,3.9,31.24,5.21,12.53,1.58,24.77,4.31,36.95,7.61,11.35,3.07,23.06,4,34.51,6.49,9.35,2.03,18.68,4.18,28.08,5.9,7.73,1.41,15.55,2.31,23.35,3.35,9.78,1.31,19.35,3.86,29.19,4.91,14.43,1.53,28.8,3.64,43.35,1.7,2.9-.39,5.88-.06,8.87-.56-2.69-2.9-5.78-4.64-8.95-6.26-10.22-5.23-20.08-11.13-29.43-17.96-2.91-2.12-6.46-3.9-5.54-8.66.78-4.02,6.31-8.86,10.33-9.23,3.48-.32,6.78.15,10.06,1.83,9.32,4.79,17.75,11.22,26.92,16.27,11.08,6.11,22.54,11.01,35.12,12.47,4.8.56,9.99.88,14.12,3.14,3.1,1.69,6.68,2.82,9.35,5.22,1.88,1.7,3.41,1.53,5.26.74,15.39-6.59,31.36-11.14,47.51-14.98,10.63-2.53,21.36-5.37,32.3-4.13,6.13.69,12.32-.02,18.42,1.5,6.26,1.56,7.51,2.74,7.5,9.39,0,1.69,0,3.37,0,5.46,17.17-3.37,34.02-7.17,51.03-9.87,13.57-2.15,27.22-3.98,40.94-4.96,3.42-.24,6.84-1.41,10.25-.49,9.22,2.49,12.98,10.44,15.92,18.88.94,2.7-.11,5.19-2.97,6.83-3.42,1.96-7.15,2.99-10.75,4.76,4.35,6.44,5.43,14,6.83,21.43.93,4.95-1.26,8.12-5.4,10.24-7.66,3.92-15.88,5.88-24.1,7.73-10.59,2.39-21.21,4.63-31.86,6.7-3.4.66-4.33,2.41-3.83,5.83.62,4.21-.26,7.72-4.87,8.7-1.82.39-3.65.73-5.5.95-10.67,1.29-21.38,2.28-32,3.86-15.17,2.26-30.38,3.05-45.66,2.63-3.08-.09-3.84,1.27-4.24,4.18-.66,4.79-2.22,9.41-7.05,11.13-2.66.94-5.69,1.55-8.44,1.22-13.13-1.56-26.31.15-39.41-.9-11.12-.89-22.2-.54-33.8-.84,2.37,4.42,4.67,8.38,6.66,12.52,2.62,5.45,1.57,7.71-3.95,9.21-3.71,1.01-7.48.38-11.22.5-.42.01-1.06-.04-1.23-.32-4.24-7.01-9.93-2.34-14.82-1.78-12.52,1.45-24.99,1.51-37.52.57-5.48-.41-11-.39-16.49-.22-15.34.48-30.64-.72-45.94-1.19-15.62-.47-31.28-1.68-46.79-3.72-18.96-2.49-37.57-7.26-55.92-12.92-16.21-5.01-32.1-10.96-46.82-19.94-.34-.21-.79-.2-1.16-.28-1.02,1.21-.17,2.22.37,2.94,8.13,10.86,10.94,24,13.86,37.02,5.03,22.43,10.88,44.65,15.07,67.28,1.77,9.55,5.99,18.35,7.26,28.04.2,1.51.25,3.02.41,4.52h-6.96c-.07-.89-.01-1.83-.23-2.68-3.5-13.68-6.99-27.35-9.86-41.21-3.79-18.32-8.07-36.54-12.42-54.72-2.58-10.75-4.84-21.74-11.21-30.92-3.55-5.12-7.11-10.14-8.26-16.59-.13-.72-.45-1.64-.97-2-5.34-3.68-9.94-8.38-15.38-13.15.48,16.61-1.32,32.34-1.54,48.09-.49,34.18-.29,68.38-.35,102.56,0,3.54.14,7.07.21,10.61h-6.96Zm-448.18-487.24c.09-.08.18-.15.27-.23-.11.08-.21.17-.32.25.31-6.86-3.54-11.9-6.75-17.19-5.67-9.35-13.49-16.72-20.34-24.98-2.25-2.72-3.24-2.17-5.3-.42-9.32,7.9-18.73,15.68-28.08,23.53-.48.41-1.23.84-.81,1.78,20.72,4.67,40.85,11.65,61.32,17.27ZM250.29,70.91c-3.1.42-5.37,2.73-7.86,4.32-7.27,4.64-14.91,8.83-21.21,14.91-12.06,11.61-21.62,25.02-27.38,41.61-4.97,14.31-8.83,28.79-9.07,43.96-.23,14.28,2.1,28.45,6.58,41.97,6.29,19,16.25,35.94,27.32,52.17,1.4,2.05,2.41.93,3.34-.35,5.32-7.32,10.61-14.67,16.61-21.4,2.1-2.35,2.57-4.47.36-7.68-2.35-3.42-3.64-7.76-4.92-11.87-5.2-16.69-6.96-34.04-7.72-51.47-.4-9.19.04-18.42.56-27.66.58-10.25,2.64-20.01,5.32-29.73,4.62-16.75,11.47-32.52,18.98-47.98.07-.37.14-.74.21-1.11-.37.11-.75.21-1.12.32Zm184.66,58.59c9.67-.63,19-3.37,28.48-5.17,19.29-3.67,38.54-7.62,58.04-9.76,15.88-1.74,31.71-4.13,47.76-4.01,9.8.07,19.61-1.24,29.42-1.26,24.45-.07,48.93-1.04,73.32,1.75,12.48,1.42,24.94,2.96,37.42,4.34,4.87.54,9.42,2.15,14.68-.22,13.23-5.95,25.6-13.44,37.91-21.17,7.58-4.77,14.2-10.46,18.19-19.09,2.3-4.98,2.01-6.99-1.96-9.63-16.59-11.04-33.81-20.51-53.12-25.1-15.57-3.71-31.28-7.07-47.13-3.64-24.84,5.37-49.47,11.86-73.64,20.05-23.34,7.9-46.5,16.39-69.83,24.33-26.75,9.11-52.34,20.99-76.7,35.83-7.47,4.55-15.59,7.74-22.77,12.86-.37.11-.74.23-1.11.34.16.11.33.32.49.32.41,0,.77-.16.54-.74Zm-40.17,449.04c2.09,6.58,4.82,11.51,3.27,17.6-.77,3.03-2.01,3.76-4.46,3.53-5.63-.52-11.07-2.05-16.46-3.73-15.31-4.77-30.67-9.32-46.13-13.53-3.04-.83-3.98-.04-3.95,3.41.06,9.23.23,18.45-.6,27.68-.75,8.41-.88,16.9-.87,25.35,0,4.09,1.83,8.35,1.19,12.22-.46,2.79.27,4,1.56,5.77,3.26,4.48,6.49,9,9.55,13.64,1.19,1.8,1.11,3.88-.83,5.27-1.84,1.32-3.29.33-4.52-1.2-.66-.82-1.31-1.65-1.88-2.54-5.55-8.7-12.79-15.64-20.21-22.48-12.79-11.78-28.61-19.14-40.59-32.09-7.72-8.34-16.1-15.76-19.63-27.76-2.46-8.37-5.36-16.85-10.78-23.94-3.93-5.15-5.27-5.44-9.12-.46-1.35,1.75-2.15,3.97-3.3,5.92-8.35,14.15-15.57,29-26.11,41.72-5.15,6.22-10.64,7.74-17.62,6.87-16.08-2-30.94-8.34-45.83-14.58-21.24-8.92-41.18-20.76-61.8-31.05-2.22-1.11-3.79-1.59-5.6.77-9.05,11.79-17.77,23.83-24.57,37.26-7.42,14.65-12.19,30.47-17.63,45.98-5.14,14.65-11.38,28.93-14.57,44.26-5.43,26.08-7.63,52.46-5.33,79.18,1.05,12.14,4.65,23.35,10.2,33.86,4.74,8.99,10.88,16.92,17.13,24.81,10.49,13.25,23.07,23.62,38.43,28.9,23.62,8.12,48.14,12.38,72.71,16.01,1.12.16,1.69.02,2.21-1.37,1.48-3.94,3.99-4.35,6.43-.83,2.03,2.92,4.57,4.04,7.72,4.23,14.71.88,29.41,1.86,44.13,2.58,14.32.7,28.59-.08,42.89-1.32,11.97-1.04,23.81-2.55,35.6-4.88,6.03-1.19,9.52-5.04,11.39-11.22,4.6-15.21,3.06-29.63-5.37-42.71-12.53-19.44-30.36-31.26-51.41-37.54-17.51-5.22-35.69-5.47-53.69-6.36-11.06-.55-21.63-3.79-32.54-4.87-2.32-.23-2.56-2-2.6-4.02-.05-2.55,1.49-2.64,3.19-2.52,1.73.12,3.45.27,5.17.5,11.15,1.51,22.08,4.43,33.47,4.37,8.35-.04,16.69,1.56,25.05,1.82,15.34.48,29.61,7.21,45.07,7.78,13.5.5,27.04,2.36,40.59,2.83,14.62.5,29.27.09,43.9.46,24.34.62,48.56-1.12,72.72-3.97,14.76-1.75,29.4-4.7,44.18-6.11,19.12-1.82,38.33-2.67,57.51-3.81,2.19-.13,2.75-.51,2.64-3.04-.64-14.48.97-28.87,1.69-43.3.12-2.43.85-4.07,3.61-4.02,2.93.05,2.71,2.09,2.69,4.13-.05,4.46.08,8.92-.83,13.33-.3,1.46-1.06,3.84,1.44,3.98,4.49.25,8.71,2.05,13.26,2.07,16.26.08,30.82-5.79,44.64-14.18,5-3.04,9.71-6.64,14.42-10.17,2.66-2,4.69-4.16,5.28-8.31.42-2.99,5.73-1.57,7.73-5.29,2.75-5.12,5.47-10.04,6.14-16.02.86-7.75-.82-15.26-2.01-22.77-1.97-12.42-4.72-24.63-10.29-35.92-2.63-5.33-6.42-8.08-12.21-8.76-18.33-2.15-36.62-4.76-54.93-7.16-21.9-2.86-43.81-5.66-65.45-10.26-19.37-4.11-38.5-8.99-56.59-17.97-9.41-4.67-18.67-9.54-28.47-16.06Zm379.91-431.72c-.56-2.02-2.12-2.36-3.34-3.05-18.4-10.45-37.96-17.16-58.52-20.75-7.52-1.32-15.12-1.93-22.67-2.96-15.14-2.06-30.33-3.44-45.56-4.15-22.28-1.04-44.55.55-66.83.83-10.51.13-21.04.89-31.51,1.93-15.72,1.56-31.41,3.43-47.02,6.13-20.41,3.53-40.81,7.15-60.97,11.98-16.91,4.05-33.57,9.29-50.34,14.04-25.81,7.31-50.25,17.79-71.83,34.94-8.57,6.81-17.36,13.32-25.67,20.47-8.42,7.25-16.07,15.54-24.6,22.62-8.31,6.89-14.1,16.19-21.67,23.79-6.77,6.8-12.14,15.2-18.11,22.9-1.01,1.3-1.78,2.35-.22,4.19,4.33,5.13,8.35,10.57,12.51,15.87,1.22,1.56,2.32,2.38,4.73,1.82,10.34-2.39,20.91-2.81,31.44-2.11,4.64.31,9.45.94,13.49,4.06,14.48,11.19,21.47,26.67,22.73,45.31.54,8-.28,15.95-1.9,23.79-.3,1.44-.83,2.66,1.08,3.77,12.34,7.16,22.71,17.26,33.71,26.38,19.77,16.39,40.76,30.41,64.2,40.05,26.8,11.02,54.21,19.88,82.17,26.92,6.73,1.69,12.92,2.91,19.37-.91,2.43-1.44,2.72-2.26.87-4.16-4.18-4.31-5.73-9.91-7.74-15.58-4.84-13.67-6.22-29.35-18.47-39.11-.23-.18-.41-.44-.56-.7-3.36-5.68-4.58-14.22,3.08-19.25,4.49-2.95,9.24-4.95,14.22-6.41,16.1-4.72,32.73-4.75,49.22-5.52,19.78-.92,39.39,1.48,59.01,4.25,17.36,2.45,34.66,5.21,51.88,8.55,2.73.53,5.22.17,7.83-1.18,16.69-8.66,33.52-17.03,50.21-25.69,21.17-10.99,39.21-26.37,54.34-45.49,10.96-13.85,17.63-30.44,25.11-46.49,7.2-15.45,11.54-31.48,9.83-48.98-.32-3.23-1.15-4.1-4.04-3.34-8.48,2.23-16.94,4.52-25.57,6.02-13.15,2.28-25.95,6.76-39.42,7.04-13.98.3-27.63-.57-39.42-10.23-8.43-6.91-10.46-15.57-5.45-25.38,5.77-11.29,14.71-19.09,25.45-24.03,17.97-8.28,35.44-18.08,54.96-22.19ZM163.05,894.11c5.87,10.98,9.51,22.65,13.48,34.12,5.65,16.36,14.11,30.51,25.92,42.52,9.3,9.45,18.99,18.49,27.32,29,2.26,2.85,5.15,4.97,8.21,6.73,19.62,11.3,40.58,17.59,62.9,17.74,38.4.24,76.8.14,115.2.05,27.44-.07,54.92.77,82.03-5.45,7.87-1.8,16.2-2.21,23.36-6.18,9.33-5.18,15.54-14,20.46-23.75,1.22-2.42,1.82-5.17,1.63-8-1-15.32-3.27-30.49-5.46-45.64-3.76-26.05-9.34-51.86-8.33-78.47.12-3.26-1.08-3.84-3.75-3.71-8.52.42-17.05.67-25.57.96-10.99.37-21.98.65-32.96,1.12-5.77.24-11.53.75-17.29,1.23-14.38,1.21-28.67,3.26-42.98,5.1-14.32,1.84-28.69,3.22-43.03,4.85-18.49,2.09-36.94,4.69-55.55,5.26-3.14.1-4.91,1.12-5.92,4.57-2.29,7.8-7.25,12.74-15.05,14.1-3.83.67-7.63,1.57-11.47,2.18-16.72,2.63-33.54,4.09-50.45,4.28-20.8.23-41.54-.99-62.68-2.59Zm57.53-610.39c-.78.92-1.21,1.34-1.54,1.83-15.52,23.14-29.38,47.24-38.08,74.34-10.16,31.62-19.72,63.43-26.8,96.03-3.13,14.41-6.76,28.7-10.12,43.05-.43,1.83-1.35,3.67,1.22,4.98,12.42,6.38,24.54,13.38,37.72,18.01,17.09,6.01,34.7,9.44,52.33,12.9,4.13.81,6.68,2.84,7.83,7.74,3.02,12.85,6.15,25.69,10.85,38.05,4.32,11.37,10.44,21.1,18.78,29.67,9.24,9.49,19.85,16.77,30.42,24.26,5.84,4.14,11.18,9.08,17.22,14.05-.6-2.72-1.07-4.75-1.13-6.92-.37-12.63.56-25.22,1.13-37.81.4-8.7,1.07-17.43.14-26.04-.41-3.75.44-5.78,2.9-7.74,4.27-3.4,8.73-6.56,12.77-10.24,18.85-17.17,40.02-31.1,58.96-48.18,8.68-7.83,19.74-11.23,30.12-15.71,13.56-5.86,26.6-13.19,40.87-17.05,7.19-1.94,14.39-3.82,22.33-6.51-22.37-5.84-43.49-12.38-64.41-19.83-32.61-11.62-62.3-28.47-88.73-51.94-8.04-7.14-16.65-13.55-25.07-20.2-2.42-1.91-4.3-2.65-5.69,1.76-2.46,7.83-6.81,14.5-13.34,19.29-10.8,7.91-22.76,10.14-35.4,7.24-7.89-1.81-15.27-4.89-20.79-12.01-5.75-7.43-9.97-15.74-13.71-24.32-5.05-11.6-7.65-23.91-4.54-36.55,2.97-12.06,9-22.76,15.39-33.12.97-1.58,1.26-2.28.06-3.78-3.91-4.91-7.66-9.97-11.68-15.24Zm404.58,431.94c1.09,1.11,2.15.75,3.08.63,6.57-.88,13.12-1.96,19.69-2.76,13.75-1.67,27.64-2.41,41.23-5,21.39-4.07,42.63-9.11,63.84-14.17,20.52-4.89,40.51-11.91,60.8-17.76,14.88-4.29,29.76-8.53,44.1-14.7,24.18-10.41,47.08-23.31,69.35-37.77,26.56-17.25,53.63-33.54,75.61-57.6,6.17-6.76,13.56-11.95,22.7-14.74-9.18-1.97-15.74-7.5-21.21-14.77-2.89-3.84-2.85-7.73-.7-12.01,2.69-5.33,6.87-8.39,12.7-9.97-3.67-2.89-6.66-5.74-8.75-9.52-2.03-3.67-3.63-7.25-2.08-11.72,1.59-4.59,5.47-5.82,9.17-7.49-12.2-11.44-11.21-18.41,3.99-27.84-2.52-2.37-5.58-4.17-7.26-7.19-1.98-3.56-4.88-7.35-2.25-11.76,7.32-12.26,5.49-24.76.24-36.76-3.01-6.88-7.9-12.85-12.11-19.1-8.06-11.93-19.69-16.53-32.83-16.07-7.45.26-15,.15-22.46,1.45-7.91,1.38-15.61,3.05-22.23,8.25-2.63,2.07-5.14,4.49-5.49,7.96-.95,9.24,2.45,16.77,8.92,22.86,4.47,4.2,9.89,2.7,14.98,2.77,11.84.18,20.3,5.78,25.86,16.89,7.26,14.54,7.1,29.93,4.43,45.39-4.7,27.23-18.63,49.14-37.93,66.68-22.91,20.81-49.28,36.37-77.11,48.28-44.23,18.93-90.22,31.03-137.96,34.32-23.76,1.64-47.56,2.44-71.21,5.72-8.15,1.13-16.27,2.3-24.19,4.74-1.78.55-2.62,1.08-1.54,3.4,8.16,17.64,11.04,36.72,12.79,56.01.77,8.45-2.02,16.25-6.15,23.35Zm-91.97-641.59c-14.53-13.66-27.45-27.78-44.17-36.9-12.59-6.87-25.07-13.99-38.88-17.73-22.89-6.21-46.12-7.2-69.64-5.71-24.37,1.54-48.12,5.78-71.06,14.76-21.49,8.42-37.81,23.54-50.16,43.79-5.05,8.28-8.92,17.21-12.64,26.21-8.81,21.3-14.36,43.36-14.09,66.86.15,12.62.71,25.22,2.61,37.66,1.73,11.34,3.93,22.63,9.28,32.9,1.31,2.51,2,3.2,4.18.83,17.21-18.7,35.96-35.54,55.78-50.99,14.22-11.08,28.84-21.51,45.3-28.68,18.07-7.87,36.86-13.2,55.65-18.62,4.09-1.18,9.01-.92,11.16-6.26.28-.7,1.4-1.02,2.13-1.52,10.83-7.46,22.77-12.68,34.04-19.28,13.15-7.71,26.4-15.22,40.21-21.59,12.82-5.91,26.02-10.71,40.3-15.72Zm245.46,758.21c1.39,4.05,1.5,5.79.37,6.44-1.84,1.06-3.55.58-5.19-.82-14.88-12.64-32.31-20.06-49.59-27.95-35.56-16.24-72.74-24.59-111.24-26.1-26.48-1.04-53-.21-79.49.86-2.98.12-5.95-.19-8.84.06-13.67,1.19-27.4,1.29-41.08,2.32-17,1.28-33.87,3.61-50.71,6.06-16.02,2.34-32.12,4.4-48.21,4.95-16,.55-32.03,1.53-48.12.61-16.31-.93-32.71.03-49.05-1.18-6.61-.49-13.21-.97-20.51-1.51,5.06,4.02,9.7,7.38,14,11.18,15.37,13.61,25.63,29.97,24.41,52.41-.33,6.11-.1,6.15,5.93,5.5,14.06-1.5,28.12-2.96,42.18-4.45,17.78-1.89,35.65-3.15,53.33-5.88,24.18-3.73,48.45-5.76,72.81-6.88,19.36-.9,38.73-1.62,58.1-1.94,22.75-.37,45.52-.11,68.27-.31,11.89-.1,23.63,1.39,35.26,3.69,12.17,2.4,24.15,6.03,36.38,8,9.42,1.52,14.49,7.41,18.1,15.75,1.33,3.06,2.16,6.39,4.17,9.08,5.68,7.61,11.87,14.64,19.05,20.77,7.38,6.3,15.53,7.42,24.43,5.98,6.01-.98,11.44-4.12,17.51-4.98,7.95-1.13,15.9-.73,23.85-.7,4.03.01,7.49-1.17,10.29-4.03,3.72-3.8,9.32-6.41,8.32-13.53,5.01-4.09,4.16-10.57,5.87-16.03,1.11-3.56.06-6.16-1.73-8.99-4.47-7.07-11.11-12.19-15.37-19.4-3.05-5.16-7.85-6.83-13.48-9Zm34.94,50.68c4.75,0,9.38-.22,13.98.07,3.8.24,7.67.42,10.07,4.75,3.02,5.43,5.53,11.04,9.62,16.03,3.81,4.67,7.37,9.47,11.8,13.62,13,12.16,27.98,20.84,43.96,27.26,34.62,13.93,70.5,22.03,107.51,24.06,12.82.7,25.65,1.21,38.48,1.86,13.58.7,27.17-.05,40.76.81,16.02,1.01,32.02-.14,47.92-2.51,1.66-.25,3.96-.93,4.65,1.22,1.48,4.57,4.74,2.01,7.22,2.41.96.16,1.39-.6,1.1-1.84-1.22-5.31-8.4-12.4-13.57-13.34-2.85-.52-5.87-.78-5.38-5.36.09-.81-1.26-2-2.15-2.7-11.32-8.77-22.65-17.53-34.05-26.18-4.55-3.45-9.23-6.86-14.46-8.91-3.11-1.22-7.82,1.13-8.28-5.02-.02-.26-.69-.48-1.07-.69-4.58-2.52-9.05-5.23-14.13-6.63-12.33-3.4-25.01-3.91-37.55-5.47-15.27-1.91-30.55-3.69-45.6-7.19-13.77-3.2-27-8.22-40.34-12.97-15.24-5.43-28-15.15-40.77-24.93-8.57-6.57-17.88-11.72-28.36-12.1-19.74-.7-39.51-.21-59.27-.21-.58,0-1.17,0-1.73.16-2.62.73-4.04,1.73-1.24,4.39,4.08,3.89,7.55,8.37,10.74,13.13,2.58,3.84,3.71,7.79,2.71,12.47-.96,4.45-1.68,8.96-2.57,13.83ZM239.25,554.6c-.83-3.05-1.94-5.88-2.3-8.83-.37-2.97-2.1-3.84-4.29-4.31-4.92-1.05-9.86-1.97-14.79-2.95-21.98-4.34-43.36-10.59-63.35-21.63-7.49-4.13-15.07-8.16-23.34-10.49-4.99-1.41-9.88-3.29-14.71-5.24-6.52-2.63-12.23-1.73-17.64,3.13-4.55,4.09-8.02,9.16-11.96,13.8-10.06,11.81-17.36,25.05-19.13,41.29-.24,2.22.2,3.05,1.79,3.83,4.7,2.31,9.43,4.56,14.09,6.96,19.21,9.93,38.07,20.67,57.97,29.03,14.43,6.06,28.85,12.14,44.46,14.04,3,.36,5.32-.44,7.41-2.71,4.65-5.06,8.96-10.45,12.47-16.41,5.88-9.98,11.44-20.18,16.93-30.41,4.62-8.61,9.08-11.33,16.4-9.1Zm650.93,284.84c3.21,2.09,5.96,4.21,8.65,6.47,19.51,16.34,42.05,25.91,65.76,32.79,23.83,6.92,48.31,9.35,72.76,12.06,12.7,1.41,25.63,2.39,36.71,10.18,4.53,3.19,8.3,3.23,12.7-.06,3.14-2.35,6.73-4.02,10.17-5.88,11.71-6.33,23.45-12.62,35.54-19.12-3.95-1.84-6.6-5.47-11.16-4.86-17.98,2.43-36.01,2.34-54.01.54-20.75-2.08-41.08-7.33-61.82-9.65-9.51-1.06-18.85-3.88-28.28-5.77-10.57-2.11-21.36-3.29-31.71-6.26-18.06-5.19-36.57-7.15-55.3-10.45Zm-237.11-446.96c-5.61-1.05-10.66-2.09-15.73-2.91-9.64-1.56-19.28-3.22-28.96-4.41-12.7-1.56-25.31-4.03-38.18-3.99-17.33.05-34.67-.49-51.9,1.95-8.78,1.24-17.75,2.39-25.46,7.43-6.51,4.26-7.88,5.81-1.79,12.41,7.74,8.4,17.65,13.51,28.35,15.97,17.96,4.13,36.01,6.81,54.64,6.16,11.98-.42,22.64-2.61,33.19-8.64,14.78-8.45,30.1-15.81,45.85-23.98Zm81.04-170.27c5-.41,9.54-.29,13.89-1.21,18.45-3.9,36.84-8.11,55.25-12.19,2.46-.55,3.01-1.35,2.66-4.56-.65-6.04-3.82-7.23-8.52-8.18-10.75-2.16-15.82-18.67-8.2-27.29,2.69-3.04,1.82-4.97.29-7.33-1.54-2.37-3.53-4.41-5.2-6.7-1.56-2.16-3.51-2.47-5.77-1.78-5.6,1.71-11.32,3.09-16.78,5.22-14.42,5.64-28.71,11.72-42.37,19.25-7.41,4.08-13.94,9.59-18.22,17.45-2.18,3.99-4.68,8.3-1.39,12.93,1.9,2.67,4.23,4.93,6.89,6.9,8.48,6.29,18.34,6.28,27.45,7.49Zm-111.18,685.64c12.58-.66,25.23-1.5,37.61-4.35,12.26-2.83,23.9-8.4,36.54-9.7,2.68-.27,1.44-1.56.51-2.64-3.7-4.35-6.07-9.41-8.1-14.87-3.27-8.79-10.6-13.54-17.15-11.82-21.99,5.79-44.49,7.53-66.94,9.73-7.57.74-15.2.86-22.68,2.68-4.42,1.08-6.03,4.49-6.95,8.42-.92,3.91,1.66,6.22,4.36,8.1,1.8,1.25,3.79,2.2,5.7,3.27,11.6,6.54,23.22,13.01,37.11,11.18Zm453.15-442.53c1.36-.49,3.7-.41,5.95-.8,8.81-1.55,17.69-3.01,25.18-8.82,11.42-8.85,11.16-16.72-.76-24.49-.12-.08-.27-.12-.39-.2-7.13-4.89-15.5-5.45-23.45-7.16-6.14-1.32-12.69-2.39-18.81-1.53-10.08,1.43-19.91,4.68-29.74,7.64-5.41,1.63-10.08,4.63-14.53,7.98-5,3.77-4.94,8.08-.4,12.33,5.11,4.77,11.28,7.68,17.63,9.29,12.59,3.2,25.52,4.59,39.32,5.75Zm41.61,465.11c8.26,6.44,15.98,12.52,23.78,18.48,1.11.85,2.45,1.4,4.01,1.41,3.74.02,7.49.39,11.23.47,21.54.47,43.07.96,64.61,1.3,11.33.18,12.56-1.14,13.82-13.25.06-.61-.01-1.24.05-1.85.84-7.87-1.71-11.15-9.17-12.7-8.38-1.74-16.89-2.05-25.35-2.44-8.2-.38-16.41-1.68-24.65-.76-9.45,1.06-18.89,2.13-28.32,3.38-9.95,1.32-20.06,1.78-30.03,5.95Zm-16.35-13.3c4.76,6.15,10.62,7.93,17.61,5.24,8.36-3.21,17.21-3.38,25.89-4.53,12-1.59,24.02-3.07,36.05-4.49,11.6-1.37,23.21-2.58,34.82-3.9,5.3-.61,10.61-1.19,15.88-2.07,1.39-.23,3.22-.63,3.57-2.81.31-2-1.11-2.04-2.29-2.6-1.43-.68-1.62-2.33-1.2-3.6,1.2-3.64-.78-5.59-3.09-7.47-6.89-5.62-15.01-7.61-23.37-8.09-11.65-.67-22.7,3.33-33.92,5.88-4.22.96-8.77,1-12.65,2.76-19.06,8.64-39.38,14.14-57.29,25.69Zm120.88-1.34c.02.23.03.45.05.68,2.63.44,5.27.79,7.88,1.33,6.76,1.39,12.25,7.24,11.95,13.63-.2,4.41,1.36,4.9,4.94,4.94,25.92.28,51.39-4.46,77.01-7.49,2.65-.31,3.48-3.27,1.46-5.47-1.04-1.13-2.29-1.92-1.95-3.7,1-5.26-2.08-7.11-6.02-8.32-10.08-3.09-20.47-3.19-30.82-3.69-1.48-.07-2.29.83-3.16,1.98-1.92,2.53-4.19,3.05-5.89-.08-1.06-1.95-2.39-1.77-3.99-1.72-8.95.27-17.91.59-26.87.7-3.09.04-5.84-.02-7.89,3.21-1.22,1.92-3.65,2.21-5.84,2.49-3.63.47-7.25,1.01-10.87,1.53Zm59.34-42.73c7.67,0,15.33.47,22.9-.14,6.73-.55,11.91,1.79,15.68,7.31,1.5,2.2,2.7,2.57,4.93,2.06,13.46-3.09,26.97-5.98,40.43-9.09,8.53-1.97,17.11-3.67,25.53-6.21,7.4-2.23,7.63-2.67,3.45-9.65-2.71-4.53-6.17-6.65-11.45-6.2-15.51,1.32-30.96,3.11-46.3,5.79-16.14,2.82-32.21,6.07-48.31,9.07-1.48.28-3.16.3-3.4,2.16-.32,2.42-2.34,3.27-3.45,4.9Zm-1.25-17.55c.49-2.38-.25-3.96-2.93-4.25-10.03-1.09-20.12-2.46-30.12-.72-21.25,3.69-42,9.51-62.22,17.46-3.49,1.37-5.61,2.49-5.72,7.41-.1,4.47.86,3.56,3.71,2.99,12.48-2.49,24.99-4.28,37.48.33,3.25,1.2,7.07,4.27,9.68-1.32.13-.27.79-.29,1.22-.38,4.21-.92,8.39-2.07,12.63-2.69,9.4-1.37,18.66-3.46,27.92-5.59,1.93-.44,3.4-1.22,2.92-3.9-.34-1.94.82-3.36,2.47-3.8,2.84-.75,2.94-2.96,2.95-5.53Zm-221.81-307.66c10.41.88,19.83-.86,27.11-9.91,4.32-5.37,3.53-10.53-2.54-13.58-1.4-.7-3.68-.53-4.07-2.24-.79-3.48-2.93-2.11-4.7-1.88-5.43.69-10.85,1.89-16.34,1.32-9.18-.95-18.46-.48-27.57-2.43-1.19-.26-3.05-.98-3.7.24-1.72,3.24-4.45,2.43-6.92,2.37-2.72-.06-5.2.48-7.41,2.08-3.19,2.32-4.86,7.09-3.09,9.33,4.53,5.72,9.63,10.64,16.96,11.93,10.69,1.89,21.49,2.37,32.27,2.78Zm237.88,353.06c6.7.82,12.16,1.29,17.56,2.21,6.71,1.15,13.56,2.36,16.17,10.66.54,1.73,1.67,1.21,2.83.95,6.87-1.53,13.75-2.97,20.61-4.51,11.37-2.54,22.87-4.57,33.74-9.19,3-1.28,4.82-2.86,3.53-6.74-1.14-3.44-1.7-7.1-2.83-10.55-1.69-5.13-4.42-6.63-9.38-5.35-17.13,4.4-33.89,10.44-51.35,13.44-.83.14-2.28-.36-2.35,1.33-.24,5.09-3.99,4.62-7.14,5.32-6.65,1.47-13.56.18-21.38,2.43Zm-238.24-409.45c12.31.6,23.08-4.36,33.51-10.53,2.08-1.23,3.49-3.21,4.39-5.55.36-.93,1.1-1.97-.37-2.68-2.21-1.07-4.29-3.09-6.81-2.56-7.85,1.65-15.66,1.9-23.61.82-11.55-1.57-23.13-2.87-34.33-6.53-5.8-1.9-13.62.68-17.06,5.85-1.27,1.9-2.52,4.16-.33,6.18,3.8,3.5,7.4,7.34,12.39,9.06,10.48,3.6,21.14,6.05,32.22,5.94Zm-.92,23.09c3.47,0,6.97.23,10.42-.05,5.32-.43,10.63-1.17,15.59-3.47,2.89-1.34,6.4-7.43,5.75-10.1-.69-2.81-2.99-4.36-5.37-4.8-3.09-.56-6.35-1.03-9.47-.17-11.59,3.21-23.16,2.07-34.76.15-7.39-1.22-14.3-5.2-22.27-3.18-4.61,1.17-7.06,2.88-5.47,6.46,2.4,5.43,5.86,9.89,11.7,11.43,11.13,2.93,22.46,3.85,33.88,3.71Zm-556.27-95.41c2.37,7.46,5.61,13.05,6.72,19.45,1.33,7.65,4.75,14.17,9.41,20.03.74.94,1.22,2.17,3.04,1.32,8.43-3.91,17.09-7.25,25.29-11.73.67-.37,2.08-.25,1.38-2.11-1.57-4.19-2.82-8.51-4.27-12.75-.61-1.8-1.67-2.72-3.7-3.19-12.42-2.85-25.39-3.5-37.87-11.01Zm732.55,465.42c1.66,2.42,3.48,4.19,4.27,6.39,1.53,4.25,4.1,4.97,8.03,4.54,12.66-1.38,25.44-1.34,38.1-1.3,11.39.03,20.11-6.48,30.51-9.43-2.14-3.16-4.43-4.88-7.54-4.8-24.47.67-49.13-1.74-73.38,4.6Zm-136.51,30.27c.62-1.52.27-3.13,1.59-3.94,3.59-2.22,6.47-5.72,10.51-7.11,13.12-4.49,25.58-10.81,38.58-15.61,7.9-2.92,15.32-6.9,22.54-11.35,3.38-2.08,3.42-4.95,2.12-8.19-1.25-3.12-3.69-2.21-5.88-1.55-1.65.49-3.31,1.08-4.84,1.89-19.3,10.2-38.59,20.4-57.83,30.7-5.37,2.87-10.58,6.08-15.95,9.18,3.2,2.09,6.01,3.93,9.16,5.98Zm63.24-53.24c-3.97.07-6.76-1.54-9.74-1.85-13.09-1.37-24.98-6.4-36.58-12.71-8.95-4.87-17.02-11.36-26.21-15.73-1.32-.62-2.55-1.48-3.91-1.96-2.83-1-5.16,1.04-6.32,2.89-1.31,2.09,1.81,2.58,2.96,3.36,6.12,4.18,12.1,8.62,18.73,11.95,13.01,6.54,25.25,14.58,37.6,22.37,2.47,1.56,4.44,1.72,7.09.14,4.98-2.96,10.25-5.35,16.38-8.48Zm-584.84-429.47c-8.37,0-15.59-.04-22.81.05-1,.01-3.14-.96-2.64,1.56.59,2.94,1.65,5.79,2.54,8.66.63,2.02,2.04,1.15,3,.63,6.32-3.38,12.59-6.88,19.9-10.9Z"/>
  <path class="cls-11" d="m846.4,1079.8c-.07-3.54-.22-7.07-.21-10.61.06-34.19-.14-68.38.35-102.56.23-15.76,2.02-31.48,1.54-48.09,5.44,4.77,10.04,9.47,15.38,13.15.52.36.84,1.28.97,2,1.15,6.44,4.71,11.47,8.26,16.59,6.37,9.18,8.63,20.17,11.21,30.92,4.36,18.18,8.63,36.4,12.42,54.72,2.87,13.86,6.36,27.53,9.86,41.21.22.85.16,1.78.23,2.68h-60.01Z"/>
  <path class="cls-13" d="m1308.25,1079.8h-155.69c.83-1.62,2.5-1.98,3.84-2.78,18.79-11.28,37.17-23.27,54.04-37.63,9.11-7.75,18.91-14.06,29.33-19.49,3.15-1.64,5.62-1.55,8.33.81,4.03,3.52,8.04,7.05,11.62,11.1,11.04,12.45,22.82,24.03,35.29,34.85,4.67,4.05,9.64,7.84,13.24,13.14Z"/>
  <path class="cls-5" d="m1308.25,1079.8c-3.6-5.3-8.57-9.09-13.24-13.14-12.47-10.82-24.25-22.41-35.29-34.85-3.59-4.05-7.59-7.57-11.62-11.1-2.71-2.37-5.18-2.45-8.33-.81-10.42,5.43-20.22,11.74-29.33,19.49-16.86,14.36-35.24,26.35-54.04,37.63-1.34.8-3,1.17-3.84,2.78h-6.09c.06-3.02,2.68-3.56,4.38-4.55,24.26-14.12,47.02-30.59,68.78-48.73,6.35-5.29,14.17-8.14,21.33-12.09,2.26-1.24,4.79-.95,6.94.77,2.65,2.12,5.57,4,7.84,6.52,17.55,19.46,36.84,36.89,55.83,54.68,1.05.98,2.41,1.75,2.77,3.4h-6.09Z"/>
  <path class="cls-15" d="m1418.71,0c.25,1.36,2.48,1.4,1.9,3.38-.54,1.85-1.92,1.94-3.36,2.3-24.14,6.08-48.29,12.09-72.38,18.39-14.89,3.89-29.68,8.24-44.52,12.39-.56.16-1.09.44-1.65.52-1.56.21-3.61.78-4.13-1.29-.57-2.29,1.32-2.97,3.12-3.47,13.03-3.66,26.04-7.44,39.08-11.05,26.64-7.37,53.43-14.09,80.32-20.34.29-.07.5-.54.74-.82.29,0,.58,0,.87,0Z"/>
  <path class="cls-15" d="m1179.63,80.33c-3.36-1.98-6.58-1.4-9.64-1.89-1.81-.29-4.86.09-4.75-2.8.12-3.21,3.09-2.7,5.12-2.44,5.72.75,11.41,1.64,17.19,2.03,8.5.57,16.95,1.8,25.45,2.46,15.68,1.22,31.3,2.98,46.78,5.81,13.76,2.51,27.51,4.94,41.42,6.33,22.09,2.21,43.75,7.08,65.34,12.3,12.03,2.9,23.99,6.21,36.13,8.5,8.28,1.56,11.71,6.49,13.41,14.73,5,24.19,7.78,48.63,8.53,73.36.09,2.97-.72,5.44-2.71,7.47-15.06,15.37-27.6,33.25-42.91,48.42-9.32,9.24-19.79,17.11-28.28,27.32-1.04,1.25-2.29,1.29-3.92.83-16.94-4.82-33.08-12.05-49.58-18.2-8.91-3.32-18.2-4.51-27.5-5.4-15.36-1.47-30.68-3.19-45.97-5.39-10.42-1.5-20.9-2.6-31.35-3.93-22.84-2.9-45.71-5.6-68.25-10.73-6.18-1.41-12.3-2.94-18.3-5.03-5.03-1.75-7.74-5.52-8.93-10.82-3.49-15.49-3.72-30.95.49-46.34.65-2.37.5-3.83-2.06-5-3.68-1.67-4.2-4.76-1.35-8.1,14.2-16.66,27.94-33.81,44.47-48.02,12.82-11.03,25.69-22,38.53-33.01.86-.74,1.67-1.54,2.65-2.45Zm94.83,11.07c-18.34-3.84-35.58-6.34-52.92-8.07-10.79-1.08-21.6-1.93-32.4-2.8-1.33-.11-2.82-.64-4,.89-3.9,5.05-9.18,8.43-13.92,12.42-23.53,19.8-46.82,39.84-66.39,64.25-2.38,2.97-5.36,5.47-6.96,9.2,1.92,1.27,4.33-2.59,5.45.59.99,2.81,3.03,2.84,5.03,3.25,4.38.91,8.76,1.87,13.18,2.5,6.72.97,13.45,2.09,20.25,2.17,1.18.01,3.26,1.05,2.91-1.8-.26-2.21-1.64-1.57-2.93-1.16-.54.17-1.15.16-1.72.19-1.61.08-3.52.27-3.74-2.01-.18-1.85,1.31-2.5,2.9-2.67,1.28-.13,2.7-.25,3.15-1.82.71-2.49-2.25-7.68-4.71-8.21-3.53-.76-7.12-1.21-10.64-2.03-4.52-1.05-5.53-3.7-2.8-7.58,1.99-2.82,4.22-5.5,6.62-7.93,2.25-2.27,4.59-4.22,3.42-8.09-.33-1.1.2-2.14,1.22-2.7.73-.4,1.68-.19,1.94.45,1.64,4,3.94,1.82,6.1.84,1.81-.83,3.61-.89,4.45,1.19.9,2.24-.97,3.04-2.51,3.39-4.61,1.05-5.57,3.73-4.13,8.33,1.82,5.82,2.28,11.91,9.57,14.17,4.9,1.52,4.72,6.55.14,10.33-1.79,1.48-2.28,2.79-1.64,5.05.64,2.27,1.73,2.96,3.98,3.11,17.18,1.12,34.4,1.94,51.49,3.95,6.29.74,9.65-1.82,13.21-6.21,7.51-9.24,13.32-19.73,19.87-29.68.76-1.15.82-2.08.29-3.38-5.51-13.58-.35-22.73,9.63-26.49,11.4-4.3,17.61-14.84,26.62-23.65Zm-23.14,94.36c2.22.16,3.53.17,4.81.37,28.69,4.46,57.53,7.85,86.03,13.65,4.98,1.01,8.84.44,12.47-4.33,17.96-23.59,35.13-47.79,51.12-72.93,2.82-4.44,2.51-5.59-2.46-6.66-27.83-6-55.27-13.97-83.38-18.53-3.04-.49-5.42.19-7.84,2.54-6.07,5.89-9.98,13.59-15.49,19.91-1.83,2.1-1.61,3.35.2,5.27,4.68,4.98,4.97,10.79,2.25,16.98-2.04,4.63-5.26,8.08-9.45,10.48-4.76,2.74-9.92,4.22-15.27,4.78-2.63.28-4.89,1.24-6.37,3.43-5.47,8.07-10.79,16.25-16.62,25.06Zm103.01,37.07c0-2.16.13-4.33-.03-6.47-.26-3.58-1.36-6.96-3.24-9.9-1.47-2.29-4.03-.81-6.06-1.2-29.8-5.73-59.81-10.02-89.84-14.12-2.34-.32-2.8.11-2.64,2.36.36,4.91.82,9.82.88,14.74.13,11.26.04,22.51.05,33.77,0,11.16.03,10.82,10.57,11.66,12.64,1.01,25.25,2.4,37.35,7.12,12.98,5.06,25.75,10.78,39.08,14.81,6.22,1.88,7.04,1.38,8.8-5.26,4.12-15.54,3.85-31.62,5.09-47.5Zm-146.12-23.7c0-3.24-.13-6.48.04-9.71.13-2.48-.52-3.46-3.05-3.63-9.66-.67-19.3-1.72-28.96-2.45-7.07-.53-14.16-.8-21.24-1.13-1.15-.05-2.72-.86-2.8,1.57-.04,1.3-.66,2.4-2.12,2.42-1.61.02-2.35-1.21-2.62-2.59-.38-1.98-1.59-2.2-3.17-2.33-13.23-1.12-26.39-2.88-39.37-5.85-1.94-.44-2.39-.11-2.91,1.86-3.98,14.97-3.99,29.96-.57,45.01.8,3.53,2.62,6.13,6.04,7.15,4.29,1.28,8.56,2.68,12.9,3.75,16.86,4.17,33.99,6.67,51.12,9.09,10.72,1.51,21.5,2.6,32.24,3.97,2.18.28,3.02-.16,3.08-2.77.35-14.78.9-29.56,1.37-44.34Zm202.61-74.48c-1.97.82-2.38,2.44-3.18,3.64-4.51,6.78-8.78,13.76-13.44,20.41-12.2,17.4-24.1,35.06-37.58,51.41-1.22,1.48-2.12,2.92-.97,4.92,3.76,6.55,3.41,13.81,3.17,21.05-.47,14.66-1.83,29.23-4.31,44.4,6.78-5.88,12.98-11.37,18.98-17.16,15.92-15.36,28.97-33.59,44.23-49.59,1.62-1.7,1.96-3.55,1.92-5.81-.27-17.4-1.49-34.71-4.47-51.84-1.24-7.14-2.87-14.2-4.35-21.43Zm-161.85,103.93c-.17-11.85.22-23.71-1.45-35.49-.23-1.61-.29-3.1-2.24-3.29-9.92-.98-19.85-1.93-29.76-2.97-2.48-.26-2.97,1.13-2.91,3.31.54,17.88-.9,35.72-.99,53.59-.01,2.42.55,3.74,2.88,4.03,10.46,1.3,20.92,2.59,31.37,3.97,2.49.33,3.23-.59,3.16-3.26-.17-6.62-.06-13.25-.06-19.88Zm47.16-93.52c.24-3.31-1.58-5.5-3.51-7.65-5.59-6.24-13.09-7.76-20.46-10.16-9.81-3.2-18.13-.18-26.47,4.48-1.98,1.11-3.54,2.67-4.25,5.01-2.33,7.62-.42,13.54,5.95,17.92,3.52,2.42,7.26,4.44,11.18,6.07,4.98,2.07,9.9,1.02,15.04.8,5.64-.24,10.42-1.46,15.02-4.2,4.39-2.62,6.82-6.93,7.5-12.27Zm-32.1,22.66c-6.93-2.12-13.19-4.54-18.56-8.68-2.89-2.22-4.21-1.21-5.69,1.33-5.09,8.76-10.42,17.34-16.67,25.24-1.53,1.93-2.97,3.94-4.71,6.26,7.29.8,14.13.84,20.63,2.46,6.16,1.54,8.96-1.42,11.82-6.2,4.1-6.84,8.61-13.39,13.18-20.42Zm-.93-47c5.98-.1,10.85-.95,15.46,2.92,2.45,2.06,6.61,2.02,9.48,4.11,2.24,1.63,3.46.94,5-.97,4.99-6.17,8.99-13.16,14.31-19.08,2.07-2.3-.64-2.13-1.76-2.27-5.87-.73-11.91-.65-17.58-2.19-6.47-1.76-10.52.43-14.31,5.75-2.89,4.06-6.65,7.42-10.61,11.73Zm-134.75,40.58c2.81,1.84,5.91,1.03,8.63,2.13.63.26,1.69.33,1.7-.68.05-3.43-1.37-6.54-2.22-9.77-.13-.5-1-.38-1.49.07-.22.2-.47.37-.67.59-2.04,2.35-4.54,4.28-5.94,7.66Z"/>
  <path class="cls-15" d="m1481.95,104.04c-1.47.16-2.81-.4-3.03-1.93-.27-1.81,1.11-2.7,2.61-3.04,32.56-7.3,64.91-15.62,97.58-22.33,13.24-2.72,26.41-5.84,39.61-8.77.84-.19,1.69-.32,2.54-.41,1.26-.14,2.41.18,2.73,1.63.37,1.63-.45,2.64-1.94,2.99-5.17,1.22-10.34,2.51-15.53,3.62-39.52,8.47-79.01,17.07-118.19,27.17-2.14.55-4.33.27-6.39,1.06Z"/>
  <path class="cls-15" d="m1634.18,138.55c1.27-.1,2.66.19,2.75,1.95.1,1.83-1.27,2.54-2.78,2.94-7.51,2-15,4.05-22.51,6.05-34.49,9.21-68.97,18.42-103.47,27.59-2.23.59-4.53.88-6.8,1.25-1.68.27-3.08-.64-3.33-2.23-.27-1.77,1.23-2.64,2.72-2.98,43.89-9.95,87.04-23.15,130.69-34.14.84-.21,1.72-.28,2.73-.45Z"/>
  <path class="cls-15" d="m1431.28,274.99c-1.45,0-3.18.02-4.92,0-1.45-.03-2.69-.53-2.62-2.34.06-1.62,1.09-2.45,2.6-2.43,14.89.14,28.85-5.27,43.09-8.65,21.55-5.11,42.96-10.96,64.55-15.94,1.86-.43,4.13-1.29,4.8,1.27.83,3.15-2.16,3.31-3.87,3.68-32.35,7-64.18,16.35-96.46,23.64-2.32.52-4.6.31-7.16.77Z"/>
  <path class="cls-15" d="m1465.65,47.07c-.3-.06-1.48-.12-2.53-.53-.94-.36-1.95-1.17-1.65-2.39.4-1.63,1.61-2.52,3.25-2.44,7.13.35,14-1.42,20.91-2.82,14.51-2.93,29.02-5.88,43.51-8.89,1.97-.41,4.06-.89,4.65,1.65.57,2.48-1.82,2.95-3.35,3.26-20.73,4.11-41.34,8.89-62.21,12.16-.57.09-1.15.01-2.58.01Z"/>
  <path class="cls-5" d="m1451.19,813.55c4.19.88,8.35,2.12,12.58,2.55,4.03.41,6.09,2.29,6.44,6.49.04.45.23.89.3,1.34,1.98,12.05-2.52,18.19-13.98,17.88-23.29-.63-46.57-2.15-69.86-2.45-16.69-.21-32.99-3.88-49.55-4.92-5.08-.32-5.98-4.44-6.39-8.89-6.03,1.47-11.86,3.1-17.76,4.3-9.33,1.9-18.77.88-28.14.41-4.74-.24-9.54.05-14.23-1.27-4.31-1.21-5.93-3.72-5.07-8.37,1.77-9.59,7.87-14.77,16.15-17.34,12.16-3.76,24.71-5.72,37.13-8.24,24.59-5,48.95-11.04,73.3-17.15,8.23-2.07,16.58-3.68,24.58-6.79,3.47-1.35,8.53,3.41,8.3,7.72-.32,5.85-3.12,10.23-8,12.78-14.23,7.45-28.92,13.71-44.05,18.78-1.33.44-2.64.92-4.07,1.42.94,2.1,2.4,1.57,3.55,1.57,18.55.04,37.1-.03,55.64.08,3.28.02,3.99-1.07,2.25-3.91-1.87-3.05-2.68-6.67-4.87-9.59-1.66-2.2.27-3.49,1.91-4.01,11.71-3.74,23.4-7.54,35.36-10.3,25.51-5.87,51.39-5.66,77.26-5.52,5.27.03,9.75,4.85,9.75,10.25,0,2.64-1.92,3.92-3.9,5.05-6.85,3.92-14.27,5.86-21.9,6.59-23.13,2.2-46.15,5.28-69.05,9.39-1.26.23-2.45.83-3.68,1.26,0,.29.02.58.03.87Zm-157.16,12.41c11.25,1.71,24.3-1.11,37.18-5.75,12.69-4.57,25.11-9.95,38.12-13.56,15.39-4.28,29.92-11.15,44.33-18.22,2.12-1.04,4.08-2.33,5.4-4.48,1.23-2,2.26-4.31,1.11-6.47-1.3-2.44-3.54-1.06-5.47-.58-34.8,8.64-69.51,17.76-104.69,24.62-9.35,1.82-18.78,3.37-27.9,6.33-5.19,1.68-9.37,4.74-11.59,10.26-1.81,4.49-1.11,6.33,3.33,6.79,5.89.61,11.84.66,20.18,1.07Zm103.32-8.01c-10.28,0-20.57.29-30.83-.08-9.93-.36-19.55.23-28.58,5.27-1.58.88-3.28.86-2.76,3.55.47,2.43,1.68,3.3,3.91,3.3,2.01,0,4.02.36,6.03.52,13.5,1.11,26.79,4.23,40.44,4.17,20.97-.09,41.92,1.12,62.85,2.55,3.59.25,7.28.28,10.81-.31,6.68-1.12,8.06-3.51,7.03-10.7-.13-.91-.4-1.81-.44-2.73-.08-1.9-1-2.47-2.72-2.82-9.97-1.99-20.03-2.68-30.14-2.72-11.87-.04-23.74,0-35.61-.01Zm147.5-28.45c-.7-2.99-2.04-5-5.58-4.93-11.86.22-23.72.43-35.59.76-22.69.63-44.68,4.9-66.18,12.3-2.24.77-6.21.01-6.25,3.53-.02,2.57,2.18,5.19,3.47,7.74.7,1.37,1.69,1.85,3.25,1.18,4.05-1.74,8.42-1.83,12.67-2.6,23.88-4.31,47.84-7.79,71.98-9.99,6.86-.62,13.71-1.98,19.94-5.49.96-.54,2.33-.7,2.28-2.51Z"/>
  <path class="cls-15" d="m1666.2,900.41c16.35.35,32.58,2.03,48.56,5.67,5.51,1.26,10.18,5.29,16.03,6.15,19.27,2.83,36.82,10.99,53.86,20.49,9.4,5.24,15.44,13.04,15.76,25.04.22,7.99-3.58,13.8-8.41,18.94-10.7,11.37-24.3,15.94-38.9,17.86-8.05,1.06-15.21,4.6-21.95,9.16-3.66,2.48-5.19,6.93-7.45,10.62-2.18,3.56-4.71,4.38-8.02,2.45-4.16-2.44-8.26-5.02-12.3-7.68-8.62-5.68-17.89-7.75-27.23-3.2-14.81,7.21-30.29,5.51-45.64,4.84-10.18-.44-20.63-.62-30.2-5.04-14.36-6.62-25.94-16.4-28.73-34-1.93-12.15-.6-22.8,9.84-31.61,16.64-14.04,35.63-21.67,55.68-27.31,2.35-.66,4.92-1.2,7.29-.91,4.85.6,6.49-2.63,7.33-6.5.87-4.06,2.83-5.52,6.65-5.05,2.57.32,5.21.06,7.82.06Zm-59.7,84.46c.15,2.8,1.79,4.7,3.91,5.66,3.3,1.5,6.72,2.81,10.36,3.19,14.69,1.53,29.49,1.06,44.18,2.75,7.45.86,15,.77,22.41,1.86,8.68,1.27,16.42,5.44,23.85,10.31,7.88,5.16,7.99,5.06,12.86-3.25,4.45-7.6,12.18-11.62,19.08-13.86,13.27-4.31,23.01-12.96,32.49-22.66,1.82-1.86,1.32-3.84,0-5.79-2.54-3.79-5.69-6.96-8.8-10.2-13.22-13.76-29.12-23.86-43.44-36.11-2.88-2.47-5.48-5.54-9.43-6.33-17.81-3.56-35.76-5.53-53.89-5.58-2.71,0-3.87.89-5.01,3.61-5.02,11.95-11.25,23.22-18.15,34.06-7.82,12.28-17.28,23.16-26.37,34.35-1.88,2.32-3.77,4.7-4.06,7.99Zm62.14,18.14c-1.21-.56-1.56-.85-1.94-.88-11.49-1.13-23-1.77-34.54-2.14-7.51-.23-15.13-.77-22.44-3.96-10.22-4.47-9.77-13.43-4.73-20.34,3.17-4.36,6.59-8.53,10.07-12.62,10.89-12.79,20.51-26.53,28.18-41.77.58-1.16,1.88-2.46,1.04-3.75-.8-1.23-2.45-.76-3.66-.46-19.09,4.81-37.33,11.55-53.29,24.35-7.05,5.65-12.31,11.55-12.14,21.7.28,17.2,8.99,28.26,22.39,35.97,9.81,5.65,20.78,5.73,31.54,6.67,4.02.35,8.04.15,12.09.55,9.01.9,18.13,1.24,27.44-3.34Zm95.24-16.17c1.22.24,1.69.5,2.04.38,9.88-3.47,18.97-8.33,25.72-17.09,5.5-7.14,5.34-15.22,1.67-22.79-2.34-4.83-6.8-8.25-11.55-10.85-9-4.93-18.15-9.54-27.66-13.21-6.21-2.39-12.64-4.05-19.39-4.47,2.29,2.45,4.72,4.52,7.31,6.33,12.35,8.63,23.61,18.67,33.82,29.99,2.42,2.69,5.25,5.36,5.56,9.59.44,5.96-2.82,9.75-6.74,13.13-3.4,2.93-6.88,5.74-10.78,8.98Z"/>
  <path class="cls-5" d="m1420.64,1011.18c-3.65.07-6.32,2.34-9.26,3.81-1.17.59-2.33,1.21-3.44,1.92-1.39.9-2.86,1.38-3.67-.5-.73-1.69.83-2.45,1.92-3.07,5.23-2.94,10.46-5.89,15.77-8.68,12.4-6.51,24.83-13.16,38.52-15.9,17.2-3.45,34.69-5.66,52.12-3.89,13.77,1.39,25.48,9.2,34.71,19.91,8.25,9.59,5.15,21.83-6.07,28.35-8.8,5.11-18.56,7.4-28.05,10.36-15.99,5-32.23,9.18-48.72,11.67-10.8,1.63-21.71,3.14-32.79,1.71-11.75-1.51-17.59-11.63-19.82-20.92-1.92-7.99.94-14.4,5.85-20.14,1.14-1.33,2.45-2.52,2.93-4.63Zm-4.74,19.79c.42,12.34,6.83,19.84,17.54,21.26,10.01,1.33,20,.04,29.76-1.54,22.39-3.63,44.31-9.65,65.87-17.09,4.41-1.52,8.74-3.21,12.51-6.18,6.94-5.47,8.35-13.99,2.15-20.21-10.12-10.16-21.63-17.98-36.37-18.17-10.29-.13-20.48,1.15-30.72,1.87-22.23,1.55-41.59,9.28-56,28.25-2.76,3.63-5.57,7.21-4.74,11.8Z"/>
  <path class="cls-5" d="m1318.4,1026.19c-1.26-.11-2.9.01-4.41-.42-5.46-1.55-10.27-3.56-11.27-10.88-1.03-7.58.19-13.99,6.47-18.11,10.71-7.02,22.5-11.79,33.75-17.68,19.14-10.02,39.31-17.51,58.74-26.85,4.19-2.01,7.92-5.4,12.25-6.72,5.08-1.55,9.12-6.56,15.06-5.14,6.89,1.65,11.37,7.99,12.21,17.42.11,1.22.06,2.48.27,3.68,1.57,8.85.16,12.42-7.52,16.28-12.5,6.29-25.61,10.99-38.64,15.84-21.6,8.04-43.47,15.32-62.96,28.62-4.07,2.77-8.72,3.99-13.93,3.93Zm.28-4.67c4.64.25,8.78-1.37,12.77-3.74,7.57-4.5,14.86-9.56,22.92-13.07,16.58-7.22,33.72-12.8,50.49-19.45,9.46-3.75,19.11-7.04,28.15-11.95,2.37-1.29,4.9-2.81,4.68-6.03-.42-6.09-.49-12.29-3.35-17.93-1.66-3.27-4.45-4.89-7.48-4.43-3.41.52-6.86,1.93-9.91,3.69-4.18,2.42-8.18,5.22-12.55,7.29-22.56,10.68-45.84,19.61-67.95,31.42-7.88,4.21-15.97,7.98-23.76,12.36-5.82,3.27-7.53,8.71-5.28,16.3,1.57,5.3,6.28,5.06,10.4,5.53.29.03.58,0,.87,0Z"/>
  <path class="cls-5" d="m1526.1,914.93c-4.54-.4-11.15-1.33-17.77-1.46-7.93-.16-15.9,1-23.78-.37-12.46-2.17-25.17-3.39-36.56-10.05-5.03-2.94-6.94-7.59-6.6-13.41.32-5.5,4.13-7.97,8.34-9.42,9.79-3.36,19.59-1.93,29.44.25,17.58,3.9,35.1,8.24,52.96,10.49,7.73.97,15.42,2.03,22.99,3.93,4.02,1.01,7.57,3.05,10.19,6.52,3.42,4.53,2.24,8.71-3.14,9.85-6.06,1.29-12.24,2.02-18.39,2.67-5.17.54-10.39.61-17.68,1Zm1.71-5.38c3.91,0,7.83.24,11.72-.05,6.62-.49,13.23-1.24,19.82-2.08,1.09-.14,2.93-.04,3.14-1.8.15-1.27-1.06-2.1-1.93-2.91-2.95-2.77-6.64-3.68-10.35-4.24-24.53-3.73-48.98-7.87-73.15-13.78-8.36-2.05-16.8-2.97-25.25-.31-2.85.9-5.72,1.92-6.11,5.57-.43,3.96.93,7.12,4.4,9.23,5.62,3.41,11.74,4.94,18,6.16,7.5,1.47,14.91,3.94,22.63,3.33,4.3-.34,8.47-1,12.86-.35,8.01,1.19,16.12,1.57,24.22,1.23Z"/>
  <path class="cls-5" d="m1052.64,1053.89c-9.61,1.61-14.3-6.97-19.9-13.53-2.29-2.68.31-4.74,2.6-5.96,7.1-3.78,14.17-7.61,21.38-11.13,9.78-4.79,19.57-9.6,29.57-13.81,3.95-1.66,8.54-.65,12.84-2.04,10.69-3.48,21.21-7.96,32.64-8.1,3.74-.05,7.52-.38,11.17.94,3.85,1.39,5.14,4.12,3.89,8.25-.97,3.2-2.67,5.78-5.56,7.32-5.41,2.88-10.83,5.74-16.24,8.61-19.83,10.51-39.14,22.29-60.94,27.91-3.5.9-7.01,1.73-11.44,1.54Zm-.28-4.57c7.6.17,13.76-2.11,19.92-4.21,23.37-7.96,44.14-21.91,66.25-32.77,1.02-.5,1.98-1.32,2.73-2.21,1.05-1.27,2.17-2.9,1.46-4.56-.61-1.44-2.37-1.52-3.82-1.6-6.09-.33-12.2-.17-18.08,1.51-11.26,3.22-22.4,6.93-33.66,10.18-16.55,4.78-31.7,13.05-46.97,21.03-1.18.62-4.24,1.28-1.94,3.7,4.19,4.41,7.53,10.81,14.11,8.94Z"/>
  <path class="cls-5" d="m1164.9,835.41c-6.92.04-13.85.38-20.61-1.84-5.15-1.69-9.4-4.55-12.37-9.44-2.08-3.42-1.72-6.44,1.3-8.85,2.53-2.02,5.27-3.74,7.9-5.62.85-.61,2.74-1.29,1.32-2.51-4.28-3.66-.19-4.12,1.64-4.94,7.85-3.52,16.2-5.3,24.5-6.93,10.44-2.05,20.79-5.21,31.62-4.06,11.21,1.19,22.31,2.78,32.45,8.6,7.65,4.39,8.56,11.79,1.84,17.73-6.23,5.51-13.99,7.77-21.48,10.45-15.6,5.57-31.7,7.69-48.11,7.41Zm30.92-39.84c-10.88.29-21.08,3.39-31.44,5.35-.98.19-2.47.16-2.18,2.12.46,3.06-1.58,3.39-3.69,3.89-7.75,1.83-14.52,5.9-21.08,10.5-2.88,2.02-2.56,3.97-.54,6.35,3.41,4.02,7.89,5.72,12.71,6.22,20.79,2.18,41.28.59,61.3-6.1,6.9-2.3,13.85-4.57,19.87-8.98,5.37-3.93,4.94-8.29-.74-11.43-10.82-5.97-22.63-6.95-34.21-7.93Z"/>
  <path class="cls-16" d="m394.78,578.54c9.8,6.52,19.06,11.39,28.47,16.06,18.08,8.98,37.22,13.85,56.59,17.97,21.65,4.6,43.56,7.4,65.45,10.26,18.31,2.39,36.59,5.01,54.93,7.16,5.79.68,9.58,3.43,12.21,8.76,5.57,11.3,8.32,23.51,10.29,35.92,1.19,7.51,2.87,15.01,2.01,22.77-.66,5.98-3.38,10.9-6.14,16.02-2,3.71-7.31,2.3-7.73,5.29-.58,4.15-2.61,6.31-5.28,8.31-4.71,3.54-9.42,7.14-14.42,10.17-13.82,8.39-28.38,14.26-44.64,14.18-4.55-.02-8.77-1.82-13.26-2.07-2.5-.14-1.74-2.52-1.44-3.98.91-4.42.78-8.88.83-13.33.02-2.03.24-4.07-2.69-4.13-2.76-.05-3.49,1.59-3.61,4.02-.72,14.43-2.33,28.83-1.69,43.3.11,2.52-.45,2.91-2.64,3.04-19.18,1.13-38.38,1.99-57.51,3.81-14.78,1.4-29.42,4.36-44.18,6.11-24.15,2.86-48.37,4.59-72.72,3.97-14.63-.37-29.28.04-43.9-.46-13.55-.47-27.09-2.33-40.59-2.83-15.47-.57-29.73-7.3-45.07-7.78-8.36-.26-16.7-1.86-25.05-1.82-11.39.06-22.32-2.87-33.47-4.37-1.71-.23-3.44-.38-5.17-.5-1.7-.12-3.24-.03-3.19,2.52.04,2.02.29,3.79,2.6,4.02,10.91,1.08,21.49,4.33,32.54,4.87,18,.89,36.18,1.13,53.69,6.36,21.05,6.28,38.88,18.1,51.41,37.54,8.43,13.08,9.98,27.5,5.37,42.71-1.87,6.18-5.36,10.03-11.39,11.22-11.78,2.33-23.63,3.84-35.6,4.88-14.3,1.24-28.57,2.02-42.89,1.32-14.72-.72-29.42-1.7-44.13-2.58-3.15-.19-5.69-1.32-7.72-4.23-2.44-3.51-4.95-3.11-6.43.83-.52,1.38-1.09,1.53-2.21,1.37-24.57-3.63-49.09-7.88-72.71-16.01-15.35-5.28-27.93-15.66-38.43-28.9-6.25-7.89-12.39-15.82-17.13-24.81-5.55-10.51-9.15-21.72-10.2-33.86-2.3-26.72-.1-53.1,5.33-79.18,3.19-15.33,9.43-29.61,14.57-44.26,5.44-15.52,10.22-31.34,17.63-45.98,6.8-13.44,15.52-25.48,24.57-37.26,1.81-2.36,3.38-1.87,5.6-.77,20.63,10.29,40.57,22.14,61.8,31.05,14.88,6.25,29.74,12.58,45.83,14.58,6.98.87,12.47-.65,17.62-6.87,10.54-12.71,17.76-27.57,26.11-41.72,1.15-1.94,1.95-4.17,3.3-5.92,3.85-4.98,5.18-4.69,9.12.46,5.42,7.09,8.32,15.57,10.78,23.94,3.53,12,11.91,19.42,19.63,27.76,11.98,12.95,27.81,20.31,40.59,32.09,7.42,6.84,14.66,13.78,20.21,22.48.57.89,1.22,1.72,1.88,2.54,1.23,1.53,2.68,2.52,4.52,1.2,1.94-1.39,2.02-3.47.83-5.27-3.06-4.64-6.29-9.16-9.55-13.64-1.28-1.76-2.02-2.97-1.56-5.77.64-3.87-1.18-8.13-1.19-12.22-.01-8.45.12-16.95.87-25.35.83-9.24.66-18.46.6-27.68-.02-3.45.92-4.23,3.95-3.41,15.45,4.21,30.82,8.76,46.13,13.53,5.39,1.68,10.83,3.21,16.46,3.73,2.46.23,3.69-.51,4.46-3.53,1.55-6.09-1.18-11.02-3.27-17.6Zm19.94,162.47c2.09,0,3.12.12,4.12-.02,2.72-.38,5.49-.61,8.13-1.35,19.94-5.55,37.67-15.58,52.76-30.54,5.48-5.44,10.35-11.52,13.66-18.93,5.82-13.05,1.13-21.96-11.36-27.03-4.94-2-10.15-2.93-15.28-2.88-14.36.15-29.11-3.62-42.79,4.64-3.27,1.97-6.5,4.01-9.61,6.18-13.64,9.53-25.72,21.02-35.97,34.51-8.01,10.55-6.68,18.1,3.54,26.03,10.17,7.89,22.14,8.15,32.82,9.39Z"/>
  <path class="cls-2" d="m774.69,146.82c-19.51,4.11-36.98,13.91-54.96,22.19-10.73,4.94-19.68,12.74-25.45,24.03-5.01,9.81-2.98,18.47,5.45,25.38,11.79,9.66,25.44,10.52,39.42,10.23,13.46-.29,26.27-4.76,39.42-7.04,8.63-1.5,17.09-3.8,25.57-6.02,2.9-.76,3.73.11,4.04,3.34,1.71,17.5-2.63,33.53-9.83,48.98-7.48,16.05-14.15,32.64-25.11,46.49-15.13,19.12-33.17,34.49-54.34,45.49-16.69,8.67-33.51,17.04-50.21,25.69-2.61,1.35-5.1,1.71-7.83,1.18-17.22-3.34-34.52-6.1-51.88-8.55-19.62-2.77-39.22-5.17-59.01-4.25-16.49.77-33.11.8-49.22,5.52-4.98,1.46-9.73,3.46-14.22,6.41-7.66,5.03-6.44,13.57-3.08,19.25.15.26.34.52.56.7,12.24,9.75,13.63,25.43,18.47,39.11,2.01,5.66,3.56,11.26,7.74,15.58,1.84,1.9,1.56,2.72-.87,4.16-6.45,3.81-12.64,2.6-19.37.91-27.97-7.04-55.38-15.9-82.17-26.92-23.44-9.64-44.43-23.65-64.2-40.05-10.99-9.12-21.36-19.22-33.71-26.38-1.91-1.11-1.38-2.34-1.08-3.77,1.62-7.84,2.45-15.79,1.9-23.79-1.27-18.64-8.25-34.12-22.73-45.31-4.03-3.12-8.85-3.74-13.49-4.06-10.53-.7-21.09-.28-31.44,2.11-2.41.56-3.5-.26-4.73-1.82-4.16-5.3-8.17-10.73-12.51-15.87-1.56-1.85-.79-2.89.22-4.19,5.97-7.71,11.33-16.1,18.11-22.9,7.57-7.6,13.36-16.9,21.67-23.79,8.54-7.08,16.18-15.37,24.6-22.62,8.3-7.15,17.1-13.66,25.67-20.47,21.58-17.16,46.03-27.63,71.83-34.94,16.76-4.75,33.42-9.99,50.34-14.04,20.16-4.83,40.56-8.45,60.97-11.98,15.61-2.7,31.3-4.57,47.02-6.13,10.47-1.04,21-1.79,31.51-1.93,22.28-.28,44.56-1.87,66.83-.83,15.22.71,30.41,2.08,45.56,4.15,7.54,1.03,15.14,1.64,22.67,2.96,20.55,3.59,40.12,10.3,58.52,20.75,1.22.69,2.78,1.04,3.34,3.05Zm-366.61,162.92c7.09,0,14.34,1.03,21.24-.19,20.53-3.64,40.39-9.95,59.01-20.08,8.52-4.63,16.6-10.12,23.17-17.66,9.81-11.27,9.16-26.56-1.95-34.51-11.29-8.08-23.87-12.97-37.69-13.32-12.4-.31-24.52,2.37-36.12,6.3-25.28,8.55-50.07,18.35-72.47,34.29-7.11,5.06-10.71,10.81-12.77,18.98-1.56,6.18.2,10.9,4.16,15.01,4.1,4.26,8.94,7.29,14.6,8.59,12.81,2.95,25.82,2.82,38.82,2.6Z"/>
  <path class="cls-16" d="m163.05,894.11c21.14,1.6,41.89,2.82,62.68,2.59,16.91-.18,33.73-1.65,50.45-4.28,3.84-.6,7.64-1.51,11.47-2.18,7.8-1.36,12.76-6.3,15.05-14.1,1.01-3.45,2.79-4.48,5.92-4.57,18.61-.57,37.06-3.16,55.55-5.26,14.34-1.62,28.71-3.01,43.03-4.85,14.31-1.84,28.6-3.89,42.98-5.1,5.76-.48,11.52-.99,17.29-1.23,10.98-.47,21.97-.74,32.96-1.12,8.53-.29,17.05-.53,25.57-.96,2.68-.13,3.88.45,3.75,3.71-1.01,26.61,4.57,52.42,8.33,78.47,2.19,15.15,4.46,30.32,5.46,45.64.18,2.83-.41,5.59-1.63,8-4.92,9.75-11.12,18.57-20.46,23.75-7.16,3.97-15.49,4.38-23.36,6.18-27.1,6.21-54.59,5.38-82.03,5.45-38.4.1-76.8.2-115.2-.05-22.33-.14-43.28-6.43-62.9-17.74-3.06-1.77-5.95-3.88-8.21-6.73-8.33-10.5-18.02-19.54-27.32-29-11.81-12.01-20.27-26.16-25.92-42.52-3.96-11.47-7.61-23.14-13.48-34.12Z"/>
  <path class="cls-2" d="m220.58,283.72c4.02,5.27,7.77,10.33,11.68,15.24,1.2,1.5.91,2.2-.06,3.78-6.39,10.37-12.42,21.07-15.39,33.12-3.11,12.64-.51,24.95,4.54,36.55,3.74,8.58,7.96,16.9,13.71,24.32,5.52,7.12,12.9,10.2,20.79,12.01,12.64,2.91,24.6.68,35.4-7.24,6.53-4.79,10.88-11.46,13.34-19.29,1.38-4.41,3.27-3.67,5.69-1.76,8.42,6.65,17.03,13.06,25.07,20.2,26.43,23.47,56.12,40.33,88.73,51.94,20.92,7.45,42.04,13.99,64.41,19.83-7.94,2.69-15.13,4.57-22.33,6.51-14.28,3.86-27.31,11.2-40.87,17.05-10.38,4.48-21.43,7.88-30.12,15.71-18.93,17.07-40.11,31.01-58.96,48.18-4.04,3.68-8.5,6.85-12.77,10.24-2.46,1.96-3.31,3.99-2.9,7.74.93,8.61.26,17.34-.14,26.04-.58,12.59-1.5,25.18-1.13,37.81.06,2.17.53,4.2,1.13,6.92-6.04-4.97-11.38-9.91-17.22-14.05-10.57-7.5-21.18-14.77-30.42-24.26-8.34-8.57-14.45-18.3-18.78-29.67-4.7-12.36-7.83-25.19-10.85-38.05-1.15-4.91-3.7-6.93-7.83-7.74-17.63-3.46-35.24-6.89-52.33-12.9-13.18-4.64-25.3-11.63-37.72-18.01-2.56-1.32-1.64-3.16-1.22-4.98,3.37-14.35,6.99-28.64,10.12-43.05,7.08-32.6,16.64-64.41,26.8-96.03,8.71-27.1,22.57-51.2,38.08-74.34.33-.49.76-.91,1.54-1.83Z"/>
  <path class="cls-2" d="m625.16,715.66c4.12-7.11,6.91-14.9,6.15-23.35-1.75-19.29-4.63-38.37-12.79-56.01-1.07-2.32-.23-2.86,1.54-3.4,7.92-2.44,16.04-3.61,24.19-4.74,23.64-3.28,47.45-4.07,71.21-5.72,47.74-3.3,93.73-15.39,137.96-34.32,27.83-11.91,54.19-27.47,77.11-48.28,19.31-17.54,33.23-39.45,37.93-66.68,2.67-15.46,2.83-30.85-4.43-45.39-5.55-11.11-14.02-16.71-25.86-16.89-5.08-.08-10.51,1.43-14.98-2.77-6.47-6.09-9.87-13.62-8.92-22.86.36-3.47,2.86-5.89,5.49-7.96,6.62-5.2,14.32-6.87,22.23-8.25,7.46-1.3,15.01-1.19,22.46-1.45,13.14-.46,24.77,4.14,32.83,16.07,4.22,6.24,9.11,12.22,12.11,19.1,5.25,11.99,7.08,24.5-.24,36.76-2.63,4.41.27,8.2,2.25,11.76,1.68,3.03,4.74,4.82,7.26,7.19-15.19,9.43-16.19,16.4-3.99,27.84-3.7,1.67-7.57,2.89-9.17,7.49-1.55,4.47.05,8.05,2.08,11.72,2.09,3.79,5.08,6.63,8.75,9.52-5.83,1.57-10.01,4.64-12.7,9.97-2.16,4.28-2.19,8.17.7,12.01,5.47,7.27,12.03,12.8,21.21,14.77-9.14,2.79-16.52,7.99-22.7,14.74-21.98,24.06-49.05,40.34-75.61,57.6-22.27,14.47-45.17,27.36-69.35,37.77-14.34,6.18-29.22,10.41-44.1,14.7-20.28,5.85-40.28,12.87-60.8,17.76-21.21,5.06-42.45,10.1-63.84,14.17-13.59,2.58-27.49,3.32-41.23,5-6.58.8-13.12,1.88-19.69,2.76-.92.12-1.98.49-3.08-.63Z"/>
  <path class="cls-16" d="m533.19,74.06c-14.28,5.01-27.48,9.81-40.3,15.72-13.8,6.37-27.06,13.88-40.21,21.59-11.26,6.6-23.21,11.82-34.04,19.28-.73.5-1.85.82-2.13,1.52-2.15,5.35-7.07,5.09-11.16,6.26-18.79,5.41-37.58,10.75-55.65,18.62-16.46,7.17-31.08,17.6-45.3,28.68-19.83,15.45-38.57,32.29-55.78,50.99-2.19,2.38-2.87,1.68-4.18-.83-5.35-10.27-7.56-21.56-9.28-32.9-1.89-12.44-2.46-25.03-2.61-37.66-.27-23.5,5.29-45.56,14.09-66.86,3.72-9,7.59-17.93,12.64-26.21,12.36-20.25,28.68-35.37,50.16-43.79,22.94-8.98,46.69-13.22,71.06-14.76,23.52-1.49,46.75-.51,69.64,5.71,13.81,3.75,26.29,10.87,38.88,17.73,16.72,9.12,29.64,23.24,44.17,36.9Z"/>
  <path class="cls-2" d="m778.65,832.27c5.63,2.17,10.44,3.84,13.48,9,4.26,7.21,10.9,12.33,15.37,19.4,1.79,2.83,2.84,5.43,1.73,8.99-1.71,5.46-.86,11.93-5.87,16.03,1,7.12-4.6,9.73-8.32,13.53-2.8,2.86-6.26,4.04-10.29,4.03-7.95-.03-15.9-.42-23.85.7-6.08.86-11.5,4.01-17.51,4.98-8.9,1.45-17.05.33-24.43-5.98-7.18-6.13-13.37-13.16-19.05-20.77-2.01-2.69-2.84-6.01-4.17-9.08-3.62-8.35-8.68-14.24-18.1-15.75-12.22-1.97-24.2-5.6-36.38-8-11.63-2.3-23.37-3.79-35.26-3.69-22.76.19-45.52-.06-68.27.31-19.37.31-38.74,1.04-58.1,1.94-24.36,1.13-48.63,3.15-72.81,6.88-17.67,2.73-35.54,3.98-53.33,5.88-14.06,1.5-28.12,2.95-42.18,4.45-6.03.64-6.26.6-5.93-5.5,1.22-22.43-9.04-38.79-24.41-52.41-4.29-3.8-8.93-7.16-14-11.18,7.3.54,13.9,1.02,20.51,1.51,16.34,1.21,32.74.25,49.05,1.18,16.09.92,32.12-.05,48.12-.61,16.1-.56,32.19-2.62,48.21-4.95,16.85-2.46,33.71-4.79,50.71-6.06,13.69-1.03,27.41-1.13,41.08-2.32,2.89-.25,5.87.06,8.84-.06,26.49-1.07,53.01-1.9,79.49-.86,38.5,1.51,75.68,9.86,111.24,26.1,17.28,7.89,34.71,15.31,49.59,27.95,1.65,1.4,3.36,1.88,5.19.82,1.13-.66,1.02-2.39-.37-6.44Z"/>
  <path class="cls-11" d="m813.59,882.95c.89-4.87,1.61-9.38,2.57-13.83,1.01-4.68-.13-8.62-2.71-12.47-3.19-4.76-6.66-9.24-10.74-13.13-2.79-2.66-1.38-3.66,1.24-4.39.55-.15,1.15-.16,1.73-.16,19.76,0,39.53-.49,59.27.21,10.48.37,19.79,5.53,28.36,12.1,12.77,9.79,25.53,19.51,40.77,24.93,13.34,4.75,26.56,9.77,40.34,12.97,15.05,3.5,30.33,5.28,45.6,7.19,12.55,1.57,25.23,2.08,37.55,5.47,5.08,1.4,9.55,4.11,14.13,6.63.38.21,1.05.43,1.07.69.46,6.15,5.17,3.8,8.28,5.02,5.23,2.06,9.91,5.46,14.46,8.91,11.4,8.65,22.73,17.41,34.05,26.18.9.7,2.24,1.89,2.15,2.7-.49,4.58,2.53,4.84,5.38,5.36,5.17.94,12.35,8.04,13.57,13.34.28,1.24-.14,2-1.1,1.84-2.48-.4-5.74,2.16-7.22-2.41-.69-2.15-3-1.46-4.65-1.22-15.91,2.37-31.91,3.51-47.92,2.51-13.59-.85-27.18-.11-40.76-.81-12.82-.66-25.66-1.16-38.48-1.86-37.02-2.03-72.9-10.14-107.51-24.06-15.98-6.43-30.96-15.1-43.96-27.26-4.43-4.15-7.99-8.95-11.8-13.62-4.08-5-6.6-10.6-9.62-16.03-2.4-4.33-6.27-4.51-10.07-4.75-4.6-.29-9.23-.07-13.98-.07Z"/>
  <path class="cls-16" d="m435.04,129.58c7.17-5.11,15.3-8.31,22.77-12.86,24.36-14.84,49.95-26.72,76.7-35.83,23.33-7.94,46.49-16.43,69.83-24.33,24.17-8.18,48.8-14.68,73.64-20.05,15.85-3.42,31.55-.06,47.13,3.64,19.31,4.6,36.53,14.07,53.12,25.1,3.97,2.64,4.26,4.65,1.96,9.63-3.99,8.63-10.6,14.33-18.19,19.09-12.31,7.73-24.68,15.23-37.91,21.17-5.26,2.37-9.81.76-14.68.22-12.48-1.38-24.94-2.92-37.42-4.34-24.39-2.78-48.87-1.82-73.32-1.75-9.81.03-19.62,1.34-29.42,1.26-16.05-.12-31.88,2.26-47.76,4.01-19.5,2.14-38.75,6.09-58.04,9.76-9.48,1.8-18.82,4.54-28.48,5.17l.08.08Z"/>
  <path class="cls-8" d="m239.25,554.6c-7.33-2.23-11.79.49-16.4,9.1-5.49,10.23-11.05,20.43-16.93,30.41-3.51,5.96-7.82,11.36-12.47,16.41-2.09,2.27-4.41,3.07-7.41,2.71-15.61-1.89-30.03-7.98-44.46-14.04-19.9-8.36-38.76-19.1-57.97-29.03-4.66-2.41-9.38-4.66-14.09-6.96-1.58-.78-2.03-1.61-1.79-3.83,1.77-16.23,9.08-29.47,19.13-41.29,3.95-4.63,7.42-9.7,11.96-13.8,5.4-4.86,11.12-5.76,17.64-3.13,4.83,1.95,9.72,3.83,14.71,5.24,8.27,2.33,15.85,6.36,23.34,10.49,19.99,11.03,41.37,17.28,63.35,21.63,4.93.97,9.87,1.89,14.79,2.95,2.19.47,3.92,1.34,4.29,4.31.37,2.94,1.47,5.78,2.3,8.83Z"/>
  <path class="cls-4" d="m251.21,71.71c-7.51,15.46-14.36,31.23-18.98,47.98-2.68,9.72-4.74,19.48-5.32,29.73-.52,9.23-.96,18.46-.56,27.66.76,17.43,2.52,34.78,7.72,51.47,1.28,4.11,2.57,8.46,4.92,11.87,2.21,3.21,1.73,5.33-.36,7.68-6,6.73-11.29,14.07-16.61,21.4-.93,1.28-1.94,2.4-3.34.35-11.07-16.23-21.03-33.17-27.32-52.17-4.48-13.52-6.8-27.68-6.58-41.97.24-15.16,4.11-29.65,9.07-43.96,5.76-16.59,15.32-29.99,27.38-41.61,6.3-6.07,13.94-10.27,21.21-14.91,2.49-1.59,4.75-3.9,7.86-4.32.31.27.61.53.92.8Z"/>
  <path class="cls-3" d="m890.18,839.44c18.73,3.3,37.25,5.26,55.3,10.45,10.34,2.97,21.14,4.15,31.71,6.26,9.44,1.89,18.77,4.71,28.28,5.77,20.75,2.31,41.07,7.57,61.82,9.65,18,1.8,36.03,1.89,54.01-.54,4.56-.62,7.22,3.02,11.16,4.86-12.09,6.5-23.83,12.79-35.54,19.12-3.44,1.86-7.03,3.54-10.17,5.88-4.39,3.29-8.16,3.24-12.7.06-11.08-7.79-24.01-8.77-36.71-10.18-24.45-2.72-48.93-5.14-72.76-12.06-23.7-6.88-46.24-16.45-65.76-32.79-2.69-2.25-5.44-4.38-8.65-6.47Z"/>
  <path class="cls-4" d="m653.08,392.48c-15.75,8.17-31.07,15.53-45.85,23.98-10.54,6.03-21.21,8.22-33.19,8.64-18.63.65-36.68-2.03-54.64-6.16-10.7-2.46-20.61-7.56-28.35-15.97-6.09-6.61-4.72-8.16,1.79-12.41,7.71-5.04,16.68-6.19,25.46-7.43,17.23-2.43,34.58-1.89,51.9-1.95,12.87-.04,25.48,2.44,38.18,3.99,9.69,1.19,19.32,2.85,28.96,4.41,5.07.82,10.12,1.86,15.73,2.91Z"/>
  <path class="cls-4" d="m734.12,222.21c-9.11-1.21-18.97-1.2-27.45-7.49-2.65-1.97-4.99-4.23-6.89-6.9-3.29-4.63-.79-8.94,1.39-12.93,4.28-7.86,10.81-13.37,18.22-17.45,13.66-7.53,27.94-13.6,42.37-19.25,5.46-2.14,11.17-3.51,16.78-5.22,2.26-.69,4.21-.38,5.77,1.78,1.66,2.29,3.66,4.33,5.2,6.7,1.53,2.36,2.4,4.29-.29,7.33-7.62,8.61-2.55,25.13,8.2,27.29,4.69.94,7.87,2.14,8.52,8.18.34,3.22-.2,4.02-2.66,4.56-18.41,4.08-36.8,8.29-55.25,12.19-4.35.92-8.89.81-13.89,1.21Z"/>
  <path class="cls-11" d="m622.94,907.85c-13.88,1.83-25.5-4.64-37.11-11.18-1.91-1.08-3.9-2.02-5.7-3.27-2.7-1.88-5.28-4.18-4.36-8.1.92-3.93,2.53-7.34,6.95-8.42,7.48-1.82,15.11-1.94,22.68-2.68,22.45-2.2,44.95-3.94,66.94-9.73,6.55-1.72,13.88,3.03,17.15,11.82,2.03,5.46,4.4,10.52,8.1,14.87.92,1.08,2.16,2.36-.51,2.64-12.64,1.3-24.27,6.87-36.54,9.7-12.38,2.85-25.03,3.69-37.61,4.35Z"/>
  <path class="cls-2" d="m1076.09,465.32c-13.8-1.16-26.72-2.55-39.32-5.75-6.35-1.61-12.52-4.52-17.63-9.29-4.54-4.24-4.6-8.56.4-12.33,4.46-3.36,9.13-6.35,14.53-7.98,9.83-2.97,19.66-6.22,29.74-7.64,6.11-.86,12.67.2,18.81,1.53,7.95,1.71,16.32,2.27,23.45,7.16.12.08.27.12.39.2,11.92,7.78,12.18,15.64.76,24.49-7.49,5.81-16.38,7.26-25.18,8.82-2.25.4-4.6.31-5.95.8Z"/>
  <path class="cls-7" d="m1117.69,930.43c9.98-4.17,20.09-4.63,30.03-5.95,9.42-1.25,18.87-2.32,28.32-3.38,8.24-.93,16.45.38,24.65.76,8.45.39,16.96.7,25.35,2.44,7.46,1.55,10.01,4.83,9.17,12.7-.07.61.01,1.24-.05,1.85-1.26,12.11-2.5,13.42-13.82,13.25-21.54-.34-43.08-.83-64.61-1.3-3.75-.08-7.49-.45-11.23-.47-1.56,0-2.9-.56-4.01-1.41-7.8-5.96-15.53-12.04-23.78-18.48Z"/>
  <path class="cls-17" d="m1101.35,917.13c17.91-11.54,38.23-17.04,57.29-25.69,3.88-1.76,8.43-1.8,12.65-2.76,11.22-2.55,22.27-6.55,33.92-5.88,8.36.48,16.47,2.47,23.37,8.09,2.31,1.89,4.29,3.84,3.09,7.47-.42,1.27-.23,2.92,1.2,3.6,1.17.56,2.6.6,2.29,2.6-.34,2.18-2.18,2.58-3.57,2.81-5.26.87-10.57,1.46-15.88,2.07-11.6,1.32-23.22,2.53-34.82,3.9-12.02,1.42-24.04,2.9-36.05,4.49-8.68,1.15-17.53,1.32-25.89,4.53-6.99,2.69-12.85.91-17.61-5.24Z"/>
  <path class="cls-17" d="m1222.23,915.79c3.62-.51,7.24-1.06,10.87-1.53,2.18-.28,4.62-.57,5.84-2.49,2.05-3.24,4.8-3.18,7.89-3.21,8.96-.11,17.91-.42,26.87-.7,1.6-.05,2.93-.23,3.99,1.72,1.7,3.13,3.97,2.62,5.89.08.87-1.15,1.67-2.05,3.16-1.98,10.35.5,20.74.6,30.82,3.69,3.94,1.21,7.02,3.06,6.02,8.32-.34,1.79.91,2.58,1.95,3.7,2.02,2.19,1.19,5.15-1.46,5.47-25.62,3.03-51.09,7.76-77.01,7.49-3.57-.04-5.14-.52-4.94-4.94.29-6.39-5.19-12.24-11.95-13.63-2.61-.54-5.26-.89-7.88-1.33-.02-.23-.03-.45-.05-.68Z"/>
  <path class="cls-17" d="m1281.57,873.06c1.11-1.63,3.13-2.48,3.45-4.9.24-1.86,1.93-1.88,3.4-2.16,16.11-3,32.18-6.25,48.31-9.07,15.34-2.68,30.79-4.47,46.3-5.79,5.28-.45,8.73,1.67,11.45,6.2,4.18,6.98,3.95,7.42-3.45,9.65-8.42,2.54-17,4.23-25.53,6.21-13.46,3.12-26.96,6.01-40.43,9.09-2.24.51-3.43.14-4.93-2.06-3.77-5.52-8.95-7.86-15.68-7.31-7.57.62-15.23.14-22.9.14Z"/>
  <path class="cls-17" d="m1280.32,855.51c-.01,2.57-.11,4.78-2.95,5.53-1.66.44-2.82,1.86-2.47,3.8.48,2.69-.99,3.46-2.92,3.9-9.26,2.13-18.52,4.23-27.92,5.59-4.25.62-8.43,1.77-12.63,2.69-.42.09-1.09.1-1.22.38-2.61,5.6-6.43,2.52-9.68,1.32-12.49-4.61-25-2.82-37.48-.33-2.85.57-3.81,1.48-3.71-2.99.11-4.91,2.23-6.03,5.72-7.41,20.22-7.95,40.97-13.77,62.22-17.46,10-1.74,20.09-.37,30.12.72,2.68.29,3.42,1.87,2.93,4.25Z"/>
  <path class="cls-2" d="m1058.52,547.84c-10.77-.41-21.57-.89-32.27-2.78-7.32-1.3-12.43-6.22-16.96-11.93-1.77-2.24-.1-7.01,3.09-9.33,2.21-1.6,4.7-2.14,7.41-2.08,2.47.06,5.2.87,6.92-2.37.65-1.22,2.51-.49,3.7-.24,9.1,1.96,18.39,1.48,27.57,2.43,5.49.57,10.91-.63,16.34-1.32,1.77-.23,3.9-1.6,4.7,1.88.39,1.71,2.67,1.54,4.07,2.24,6.07,3.05,6.86,8.21,2.54,13.58-7.28,9.05-16.71,10.79-27.11,9.91Z"/>
  <path class="cls-17" d="m1296.39,900.9c7.82-2.25,14.73-.95,21.38-2.43,3.15-.7,6.91-.23,7.14-5.32.08-1.69,1.52-1.19,2.35-1.33,17.46-3,34.22-9.03,51.35-13.44,4.96-1.27,7.69.23,9.38,5.35,1.13,3.45,1.69,7.11,2.83,10.55,1.29,3.88-.53,5.46-3.53,6.74-10.88,4.63-22.37,6.65-33.74,9.19-6.86,1.54-13.75,2.98-20.61,4.51-1.16.26-2.29.78-2.83-.95-2.61-8.3-9.46-9.51-16.17-10.66-5.39-.92-10.86-1.39-17.56-2.21Z"/>
  <path class="cls-2" d="m1058.16,491.44c-11.08.11-21.74-2.34-32.22-5.94-4.99-1.71-8.59-5.56-12.39-9.06-2.19-2.02-.94-4.28.33-6.18,3.44-5.16,11.26-7.74,17.06-5.85,11.19,3.66,22.77,4.96,34.33,6.53,7.96,1.08,15.76.83,23.61-.82,2.53-.53,4.6,1.49,6.81,2.56,1.47.71.74,1.74.37,2.68-.91,2.34-2.31,4.32-4.39,5.55-10.42,6.17-21.2,11.12-33.51,10.52Z"/>
  <path class="cls-8" d="m391.25,592.58c-20.46-5.63-40.59-12.61-61.31-17.28-.42-.94.33-1.37.81-1.78,9.36-7.85,18.76-15.63,28.08-23.53,2.06-1.74,3.05-2.29,5.3.42,6.85,8.27,14.66,15.64,20.34,24.98,3.21,5.29,7.05,10.33,6.75,17.19h.04Z"/>
  <path class="cls-2" d="m1057.24,514.54c-11.42.13-22.76-.78-33.88-3.71-5.84-1.54-9.3-6.01-11.7-11.43-1.58-3.59.86-5.29,5.47-6.46,7.98-2.03,14.89,1.95,22.27,3.18,11.59,1.92,23.17,3.06,34.76-.15,3.12-.86,6.38-.39,9.47.17,2.38.43,4.68,1.98,5.37,4.8.65,2.67-2.86,8.75-5.75,10.1-4.95,2.3-10.27,3.04-15.59,3.47-3.45.28-6.95.05-10.42.05Z"/>
  <path class="cls-12" d="m500.97,419.13c12.48,7.52,25.45,8.16,37.87,11.01,2.04.47,3.09,1.4,3.7,3.19,1.45,4.24,2.69,8.56,4.27,12.75.7,1.86-.71,1.74-1.38,2.11-8.2,4.48-16.86,7.83-25.29,11.73-1.82.84-2.3-.39-3.04-1.32-4.65-5.86-8.08-12.38-9.41-20.03-1.11-6.4-4.35-11.99-6.72-19.45Z"/>
  <path class="cls-17" d="m1233.52,884.55c24.25-6.34,48.9-3.93,73.38-4.6,3.1-.08,5.39,1.64,7.54,4.8-10.41,2.95-19.12,9.46-30.51,9.43-12.66-.04-25.44-.08-38.1,1.3-3.93.43-6.5-.29-8.03-4.54-.79-2.19-2.61-3.97-4.27-6.39Z"/>
  <path class="cls-17" d="m1097.01,914.82c-3.14-2.05-5.95-3.89-9.16-5.98,5.37-3.1,10.58-6.31,15.95-9.18,19.25-10.3,38.54-20.5,57.83-30.7,1.53-.81,3.19-1.4,4.84-1.89,2.19-.65,4.63-1.56,5.88,1.55,1.3,3.24,1.26,6.11-2.12,8.19-7.23,4.45-14.64,8.44-22.54,11.35-13,4.8-25.46,11.12-38.58,15.61-4.04,1.38-6.92,4.88-10.51,7.11-1.32.82-.98,2.43-1.59,3.94Z"/>
  <path class="cls-17" d="m1160.25,861.58c-6.13,3.13-11.41,5.52-16.38,8.48-2.65,1.57-4.62,1.42-7.09-.14-12.35-7.79-24.6-15.83-37.6-22.37-6.62-3.33-12.6-7.77-18.73-11.95-1.15-.78-4.27-1.28-2.96-3.36,1.16-1.85,3.49-3.89,6.32-2.89,1.36.48,2.59,1.34,3.91,1.96,9.2,4.37,17.26,10.86,26.21,15.73,11.6,6.31,23.49,11.33,36.58,12.71,2.98.31,5.77,1.92,9.74,1.85Z"/>
  <path class="cls-2" d="m575.41,432.11c-7.32,4.03-13.58,7.52-19.9,10.9-.96.51-2.37,1.39-3-.63-.89-2.87-1.95-5.71-2.54-8.66-.5-2.52,1.64-1.55,2.64-1.56,7.21-.09,14.43-.05,22.81-.05Z"/>
  <path class="cls-16" d="m434.96,129.5c.22.58-.13.73-.54.74-.16,0-.33-.2-.49-.32.37-.11.74-.23,1.11-.34,0,0-.08-.08-.08-.08Z"/>
  <path class="cls-4" d="m250.29,70.91c.37-.11.75-.21,1.12-.32-.07.37-.14.74-.21,1.11-.31-.27-.61-.53-.92-.8Z"/>
  <path class="cls-8" d="m391.21,592.58c.11-.08.21-.17.32-.25-.09.08-.18.15-.28.24,0,0-.04.02-.04.02Z"/>
  <path class="cls-9" d="m1274.46,91.39c-9.01,8.82-15.22,19.36-26.62,23.65-9.99,3.76-15.14,12.92-9.63,26.49.53,1.3.46,2.23-.29,3.38-6.55,9.95-12.36,20.44-19.87,29.68-3.56,4.38-6.92,6.95-13.21,6.21-17.09-2.01-34.31-2.83-51.49-3.95-2.24-.15-3.34-.84-3.98-3.11-.64-2.26-.15-3.57,1.64-5.05,4.58-3.78,4.76-8.81-.14-10.33-7.29-2.26-7.75-8.35-9.57-14.17-1.44-4.61-.48-7.28,4.13-8.33,1.55-.35,3.41-1.15,2.51-3.39-.83-2.08-2.63-2.02-4.45-1.19-2.15.99-4.46,3.16-6.1-.84-.26-.64-1.21-.85-1.94-.45-1.02.56-1.55,1.6-1.22,2.7,1.17,3.87-1.17,5.82-3.42,8.09-2.4,2.43-4.64,5.11-6.62,7.93-2.73,3.88-1.72,6.53,2.8,7.58,3.52.82,7.11,1.27,10.64,2.03,2.47.53,5.43,5.72,4.71,8.21-.45,1.57-1.87,1.69-3.15,1.82-1.6.16-3.08.81-2.9,2.67.22,2.27,2.13,2.09,3.74,2.01.58-.03,1.18-.02,1.72-.19,1.29-.4,2.66-1.04,2.93,1.16.34,2.85-1.73,1.81-2.91,1.8-6.81-.07-13.53-1.2-20.25-2.17-4.42-.64-8.8-1.59-13.18-2.5-2-.42-4.04-.44-5.03-3.25-1.12-3.17-3.53.68-5.45-.59,1.6-3.73,4.58-6.23,6.96-9.2,19.57-24.41,42.87-44.45,66.39-64.25,4.74-3.99,10.02-7.37,13.92-12.42,1.19-1.54,2.67-1,4-.89,10.81.86,21.61,1.72,32.4,2.8,17.34,1.73,34.59,4.23,52.92,8.07Z"/>
  <path class="cls-9" d="m1251.32,185.75c5.82-8.81,11.14-17,16.62-25.06,1.48-2.19,3.74-3.15,6.37-3.43,5.35-.56,10.51-2.04,15.27-4.78,4.19-2.41,7.41-5.85,9.45-10.48,2.73-6.19,2.43-12-2.25-16.98-1.81-1.93-2.04-3.17-.2-5.27,5.5-6.32,9.42-14.02,15.49-19.91,2.42-2.35,4.81-3.03,7.84-2.54,28.11,4.56,55.55,12.53,83.38,18.53,4.97,1.07,5.28,2.23,2.46,6.66-15.99,25.14-33.16,49.34-51.12,72.93-3.63,4.77-7.49,5.35-12.47,4.33-28.5-5.8-57.34-9.2-86.03-13.65-1.28-.2-2.59-.2-4.81-.37Zm106.06-21.28c-.15-1.06-.11-2.2-.47-3.17-1.56-4.16.03-5.95,3.84-7.01,2.45-.68,4.69-2.34,6.91-3.75,1.65-1.05,3.12-2.61,2.86-4.8-.3-2.48-2.36-3.41-4.35-3.94-2.23-.6-4.53-.91-6.79-1.35q-6.76-1.31-7.66-8.66c-.04-.31.01-.64-.09-.91-1.23-3.17.31-4.37,2.97-5.09,5.3-1.42,10.55-3.11,15.86-4.48,1.8-.47,3.88-.9,3.57-3.09-.4-2.86-2.89-2.04-4.62-1.6-5.6,1.45-11.19,2.95-16.7,4.73-2.18.71-2.63.31-2.81-2.04-.31-3.96-1.02-7.9-1.67-11.82-.26-1.58-1.02-3.13-2.81-2.87-1.97.29-1.83,2.04-1.61,3.63.55,3.95,1.03,7.91,1.7,11.83.47,2.78,0,4.68-2.81,5.72-3.13,1.16-6.16,2.71-8.78,4.93-3.96,3.36-3.3,7.94,1.37,10.03,3.35,1.5,6.96,1.9,10.5,2.57,1.56.3,3.35-.08,3.5,2.37.15,2.51,2.51,5.12-.28,7.53-2.32,1.99-2.16,3.77.83,4.3,1.87.33,1.91,1.49,2.16,2.8.32,1.65.49,3.34.93,4.96.37,1.36,1.07,2.69,2.72,2.35,1.58-.32,1.92-1.65,1.71-3.16Z"/>
  <path class="cls-9" d="m1354.33,222.82c-1.24,15.89-.97,31.97-5.09,47.5-1.76,6.64-2.58,7.14-8.8,5.26-13.33-4.03-26.1-9.75-39.08-14.81-12.1-4.71-24.7-6.11-37.35-7.12-10.54-.84-10.57-.49-10.57-11.66,0-11.26.08-22.51-.05-33.77-.06-4.92-.52-9.83-.88-14.74-.16-2.25.3-2.68,2.64-2.36,30.03,4.09,60.04,8.38,89.84,14.12,2.04.39,4.6-1.08,6.06,1.2,1.88,2.93,2.98,6.32,3.24,9.9.15,2.15.03,4.32.03,6.47Z"/>
  <path class="cls-9" d="m1208.22,199.12c-.48,14.78-1.02,29.56-1.38,44.34-.06,2.61-.9,3.05-3.08,2.77-10.74-1.38-21.52-2.46-32.24-3.97-17.13-2.42-34.26-4.92-51.12-9.09-4.34-1.07-8.61-2.47-12.9-3.75-3.42-1.02-5.24-3.62-6.04-7.15-3.42-15.05-3.41-30.04.57-45.01.52-1.96.97-2.3,2.91-1.86,12.98,2.97,26.14,4.73,39.37,5.85,1.58.13,2.78.35,3.17,2.33.27,1.39,1,2.61,2.62,2.59,1.46-.02,2.08-1.13,2.12-2.42.08-2.43,1.65-1.62,2.8-1.57,7.08.34,14.17.6,21.24,1.13,9.66.73,19.3,1.78,28.96,2.45,2.53.18,3.18,1.15,3.05,3.63-.17,3.23-.04,6.47-.04,9.71Z"/>
  <path class="cls-9" d="m1410.83,124.64c1.48,7.24,3.11,14.3,4.35,21.43,2.98,17.12,4.2,34.44,4.47,51.84.04,2.26-.3,4.11-1.92,5.81-15.26,16.01-28.31,34.24-44.23,49.59-6,5.79-12.2,11.28-18.98,17.16,2.48-15.17,3.84-29.74,4.31-44.4.23-7.25.59-14.5-3.17-21.05-1.15-2.01-.25-3.44.97-4.92,13.48-16.34,25.38-34.01,37.58-51.41,4.67-6.66,8.93-13.63,13.44-20.41.8-1.2,1.21-2.82,3.18-3.64Z"/>
  <path class="cls-7" d="m1248.97,228.57c0,6.63-.12,13.26.06,19.88.07,2.66-.67,3.58-3.16,3.26-10.45-1.37-20.91-2.67-31.37-3.97-2.32-.29-2.89-1.62-2.88-4.03.09-17.87,1.53-35.71.99-53.59-.07-2.18.42-3.57,2.91-3.31,9.92,1.04,19.84,1.99,29.76,2.97,1.96.19,2.01,1.68,2.24,3.29,1.67,11.78,1.28,23.64,1.45,35.49Z"/>
  <path class="cls-17" d="m1296.14,135.05c-.68,5.34-3.11,9.65-7.5,12.27-4.6,2.74-9.38,3.96-15.02,4.2-5.15.22-10.06,1.28-15.04-.8-3.92-1.63-7.66-3.64-11.18-6.07-6.36-4.38-8.28-10.3-5.95-17.92.72-2.34,2.27-3.91,4.25-5.01,8.34-4.67,16.66-7.68,26.47-4.48,7.37,2.41,14.87,3.92,20.46,10.16,1.92,2.15,3.75,4.33,3.51,7.65Zm-26.64,10.97c2.89-.38,5.5-.56,8.04-1.11,1.57-.34,2.98-1.36,3.22-3.32.21-1.72-.66-3.03-1.93-3.85-2.34-1.51-4.72-2.99-7.22-4.18-1.85-.88-2.9-2.06-2.47-4.21.56-2.82,2.31-.63,3.46-.74,2-.19,3.95-.1,3.48-3.17-.09-.56-10.48-5.28-10.72-4.87-1.97,3.26-5.08,2.1-7.8,2.37-1.76.18-3.05.95-3.62,2.77-.59,1.9.28,3.44,1.58,4.42,1.99,1.5,4.11,2.88,6.35,3.91,3.37,1.56,4.53,3.64,2.1,6.98-1.48,2.04-.34,3.25,1.18,3.96,1.42.66,3.08.77,4.34,1.05Z"/>
  <path class="cls-7" d="m1264.04,157.71c-4.57,7.03-9.08,13.58-13.18,20.42-2.86,4.78-5.66,7.75-11.82,6.2-6.49-1.63-13.34-1.67-20.63-2.46,1.74-2.32,3.19-4.33,4.71-6.26,6.25-7.9,11.58-16.48,16.67-25.24,1.48-2.54,2.8-3.56,5.69-1.33,5.38,4.14,11.64,6.55,18.56,8.68Z"/>
  <path class="cls-7" d="m1263.1,110.71c3.96-4.32,7.72-7.68,10.61-11.73,3.79-5.31,7.83-7.51,14.31-5.75,5.66,1.54,11.71,1.46,17.58,2.19,1.12.14,3.83-.03,1.76,2.27-5.32,5.92-9.32,12.91-14.31,19.08-1.55,1.91-2.76,2.6-5,.97-2.86-2.08-7.03-2.05-9.48-4.11-4.61-3.87-9.48-3.01-15.46-2.92Z"/>
  <path class="cls-9" d="m1128.35,151.28c1.4-3.38,3.91-5.31,5.94-7.66.19-.22.44-.39.67-.59.5-.45,1.36-.57,1.49-.07.85,3.23,2.28,6.34,2.22,9.77-.02,1.01-1.07.93-1.7.68-2.71-1.1-5.82-.29-8.63-2.13Z"/>
  <path class="cls-7" d="m1294.03,825.96c-8.34-.41-14.29-.46-20.18-1.07-4.44-.46-5.14-2.31-3.33-6.79,2.23-5.52,6.4-8.58,11.59-10.26,9.13-2.96,18.56-4.51,27.9-6.33,35.18-6.86,69.88-15.97,104.69-24.62,1.93-.48,4.16-1.85,5.47.58,1.16,2.16.12,4.46-1.11,6.47-1.32,2.15-3.28,3.44-5.4,4.48-14.42,7.07-28.94,13.95-44.33,18.22-13.02,3.62-25.43,8.99-38.12,13.56-12.88,4.64-25.93,7.47-37.18,5.75Z"/>
  <path class="cls-7" d="m1397.36,817.95c11.87,0,23.74-.03,35.61.01,10.11.03,20.17.72,30.14,2.72,1.72.34,2.63.92,2.72,2.82.04.91.31,1.81.44,2.73,1.03,7.2-.35,9.59-7.03,10.7-3.53.59-7.22.56-10.81.31-20.93-1.43-41.88-2.64-62.85-2.55-13.65.06-26.94-3.07-40.44-4.17-2.01-.16-4.02-.52-6.03-.52-2.23,0-3.44-.87-3.91-3.3-.52-2.69,1.18-2.67,2.76-3.55,9.03-5.04,18.65-5.63,28.58-5.27,10.27.37,20.55.08,30.83.08Z"/>
  <path class="cls-7" d="m1544.86,789.5c.05,1.81-1.32,1.97-2.28,2.51-6.23,3.51-13.08,4.87-19.94,5.49-24.14,2.19-48.1,5.67-71.98,9.99-4.25.77-8.62.86-12.67,2.6-1.55.67-2.55.19-3.25-1.18-1.29-2.55-3.49-5.17-3.47-7.74.03-3.52,4.01-2.76,6.25-3.53,21.5-7.41,43.49-11.67,66.18-12.3,11.86-.33,23.72-.54,35.59-.76,3.54-.07,4.88,1.94,5.58,4.93Z"/>
  <path class="cls-13" d="m1606.5,984.87c.29-3.28,2.17-5.67,4.06-7.99,9.09-11.19,18.55-22.07,26.37-34.35,6.9-10.83,13.13-22.11,18.15-34.06,1.14-2.71,2.3-3.61,5.01-3.61,18.14.05,36.08,2.02,53.89,5.58,3.96.79,6.55,3.87,9.43,6.33,14.32,12.25,30.22,22.36,43.44,36.11,3.11,3.24,6.26,6.41,8.8,10.2,1.31,1.95,1.81,3.93,0,5.79-9.48,9.71-19.22,18.35-32.49,22.66-6.91,2.24-14.63,6.26-19.08,13.86-4.87,8.31-4.98,8.41-12.86,3.25-7.43-4.87-15.17-9.04-23.85-10.31-7.41-1.09-14.97-1-22.41-1.86-14.69-1.69-29.49-1.22-44.18-2.75-3.65-.38-7.06-1.7-10.36-3.19-2.12-.96-3.77-2.86-3.91-5.66Z"/>
  <path class="cls-1" d="m1668.64,1003.01c-9.31,4.58-18.44,4.23-27.44,3.34-4.05-.4-8.07-.2-12.09-.55-10.76-.94-21.73-1.02-31.54-6.67-13.39-7.71-22.1-18.77-22.39-35.97-.17-10.15,5.09-16.05,12.14-21.7,15.96-12.8,34.2-19.54,53.29-24.35,1.21-.31,2.86-.77,3.66.46.83,1.29-.46,2.59-1.04,3.75-7.66,15.24-17.29,28.98-28.18,41.77-3.48,4.09-6.89,8.26-10.07,12.62-5.03,6.91-5.49,15.88,4.73,20.34,7.31,3.19,14.92,3.72,22.44,3.96,11.55.36,23.05,1.01,34.54,2.14.38.04.74.32,1.94.88Z"/>
  <path class="cls-1" d="m1763.88,986.84c3.9-3.24,7.38-6.06,10.78-8.98,3.92-3.38,7.18-7.17,6.74-13.13-.31-4.23-3.14-6.9-5.56-9.59-10.21-11.32-21.47-21.36-33.82-29.99-2.59-1.81-5.02-3.89-7.31-6.33,6.75.42,13.18,2.08,19.39,4.47,9.52,3.67,18.66,8.28,27.66,13.21,4.74,2.6,9.21,6.02,11.55,10.85,3.67,7.57,3.84,15.65-1.67,22.79-6.75,8.76-15.84,13.62-25.72,17.09-.35.12-.82-.14-2.04-.38Z"/>
  <path class="cls-16" d="m1415.9,1030.98c-.82-4.59,1.99-8.17,4.74-11.8,14.41-18.98,33.77-26.7,56-28.25,10.24-.71,20.43-2,30.72-1.87,14.73.19,26.25,8.01,36.37,18.17,6.2,6.22,4.79,14.74-2.15,20.21-3.77,2.97-8.1,4.65-12.51,6.18-21.56,7.44-43.48,13.46-65.87,17.09-9.76,1.58-19.75,2.87-29.76,1.54-10.71-1.42-17.12-8.92-17.54-21.26Zm36.03,10.04c4.81-.32,10.74.42,16.64-.71,9.5-1.82,18.92-4.11,28.57-5.12,9.47-.99,18.91-2.39,27.75-6.51,1.51-.7,3.75-1.3,2.87-3.76-.82-2.28-2.71-1.57-4.46-1-4.13,1.34-8.01,3.47-12.37,4.1-9.42,1.38-18.91,2.48-28.22,4.45-13.1,2.78-26.23,4.85-39.57,3.59-5.91-.56-12.29.76-17.54-3.59-1.21-1-2.54-2.03-3.77-.43-1.22,1.59-.49,3.2.83,4.45,2.24,2.11,4.93,3.01,7.84,3.55,6.75,1.25,13.55.8,21.44.97Z"/>
  <path class="cls-7" d="m1318.67,1021.53c-.29,0-.58.03-.87,0-4.12-.48-8.83-.23-10.4-5.53-2.24-7.59-.53-13.03,5.28-16.3,7.79-4.38,15.88-8.15,23.76-12.36,22.11-11.81,45.39-20.74,67.95-31.42,4.37-2.07,8.36-4.87,12.55-7.29,3.05-1.77,6.5-3.18,9.91-3.69,3.03-.46,5.82,1.16,7.48,4.43,2.86,5.63,2.93,11.83,3.35,17.93.22,3.23-2.3,4.74-4.68,6.03-9.04,4.9-18.69,8.19-28.15,11.95-16.77,6.65-33.91,12.23-50.49,19.45-8.06,3.51-15.36,8.57-22.92,13.07-3.99,2.37-8.12,4-12.77,3.75Z"/>
  <path class="cls-7" d="m1527.81,909.54c-8.1.34-16.21-.04-24.22-1.23-4.39-.65-8.56,0-12.86.35-7.72.61-15.12-1.87-22.63-3.33-6.26-1.22-12.38-2.75-18-6.16-3.47-2.11-4.83-5.26-4.4-9.23.39-3.66,3.26-4.68,6.11-5.57,8.45-2.66,16.88-1.73,25.25.31,24.17,5.91,48.62,10.06,73.15,13.78,3.71.56,7.4,1.48,10.35,4.24.86.81,2.08,1.64,1.93,2.91-.21,1.76-2.05,1.66-3.14,1.8-6.59.84-13.2,1.59-19.82,2.08-3.89.29-7.81.05-11.72.05Z"/>
  <path class="cls-7" d="m1052.36,1049.32c-6.58,1.87-9.92-4.52-14.11-8.94-2.3-2.43.76-3.08,1.94-3.7,15.27-7.98,30.42-16.25,46.97-21.03,11.26-3.25,22.4-6.96,33.66-10.18,5.89-1.68,11.99-1.84,18.08-1.51,1.46.08,3.21.16,3.82,1.6.71,1.66-.41,3.29-1.46,4.56-.74.9-1.71,1.71-2.73,2.21-22.11,10.86-42.88,24.81-66.25,32.77-6.16,2.1-12.33,4.38-19.92,4.21Z"/>
  <path class="cls-16" d="m1195.82,795.56c11.59.98,23.39,1.96,34.21,7.93,5.69,3.14,6.11,7.5.74,11.43-6.02,4.41-12.97,6.68-19.87,8.98-20.02,6.69-40.51,8.28-61.3,6.1-4.82-.51-9.3-2.2-12.71-6.22-2.02-2.38-2.34-4.33.54-6.35,6.56-4.6,13.33-8.66,21.08-10.5,2.11-.5,4.15-.83,3.69-3.89-.3-1.97,1.19-1.94,2.18-2.12,10.36-1.96,20.56-5.06,31.44-5.35Z"/>
  <path class="cls-5" d="m414.72,741.01c-10.68-1.23-22.64-1.49-32.82-9.39-10.23-7.93-11.56-15.48-3.54-26.03,10.25-13.49,22.34-24.98,35.97-34.51,3.11-2.18,6.35-4.21,9.61-6.18,13.68-8.25,28.43-4.48,42.79-4.64,5.13-.05,10.34.87,15.28,2.88,12.49,5.07,17.17,13.98,11.36,27.03-3.31,7.42-8.17,13.5-13.66,18.93-15.08,14.96-32.82,24.99-52.76,30.54-2.64.74-5.41.97-8.13,1.35-1,.14-2.02.02-4.12.02Zm40.56-75.66c-9.1-.44-18.5.42-27.6,4.23-13.13,5.5-23.15,15.56-33.34,25.32-4.94,4.73-9.61,9.85-13.35,15.75-4.37,6.9-3.71,10.72,2.54,15.66,11.84,9.33,25.67,10.88,39.33,8.51,19.82-3.43,36.99-13.8,51.94-27.96,5.7-5.4,10.94-11.41,14.17-19.06,4.12-9.76,1.7-15.76-8.73-19.75-7.89-3.02-16.19-2.98-24.96-2.7Z"/>
  <path class="cls-5" d="m408.09,309.75c-13,.23-26.01.35-38.82-2.6-5.66-1.3-10.5-4.33-14.6-8.59-3.96-4.11-5.71-8.83-4.16-15.01,2.06-8.17,5.66-13.92,12.77-18.98,22.4-15.93,47.18-25.73,72.47-34.29,11.6-3.92,23.72-6.61,36.12-6.3,13.82.34,26.4,5.24,37.69,13.32,11.11,7.96,11.76,23.24,1.95,34.51-6.56,7.54-14.65,13.02-23.17,17.66-18.62,10.13-38.48,16.44-59.01,20.08-6.9,1.22-14.15.19-21.24.19Zm.07-4.56c6.52,0,13.17.92,19.52-.17,22.06-3.77,43.33-10.52,62.97-22.15,6.43-3.81,12.6-8.24,17.62-14.11,7.58-8.88,7.6-20.95-.63-27.1-12.51-9.36-26.68-14.38-42.03-12.76-14.78,1.56-29.33,4.92-43.28,10.78-16.24,6.82-32.59,13.33-47.86,22.51-2.98,1.79-4.59,5.57-7.75,6.46-8.08,2.26-10.35,8.75-11.98,16.28-.93,4.32.2,7.58,3.01,10.38,3.64,3.63,7.8,6.29,12.8,7.31,12.43,2.55,25.01,2.65,37.6,2.56Z"/>
  <path class="cls-15" d="m1357.38,164.47c.21,1.51-.14,2.84-1.71,3.16-1.65.34-2.36-.99-2.72-2.35-.44-1.61-.61-3.31-.93-4.96-.25-1.31-.29-2.47-2.16-2.8-3-.52-3.15-2.31-.83-4.3,2.8-2.4.43-5.01.28-7.53-.14-2.45-1.94-2.07-3.5-2.37-3.53-.67-7.15-1.06-10.5-2.57-4.67-2.1-5.33-6.68-1.37-10.03,2.61-2.21,5.64-3.76,8.78-4.93,2.8-1.04,3.28-2.94,2.81-5.72-.67-3.92-1.15-7.88-1.7-11.83-.22-1.59-.36-3.34,1.61-3.63,1.79-.26,2.54,1.29,2.81,2.87.65,3.93,1.36,7.86,1.67,11.82.18,2.36.63,2.75,2.81,2.04,5.51-1.78,11.1-3.28,16.7-4.73,1.72-.45,4.21-1.27,4.62,1.6.31,2.19-1.77,2.62-3.57,3.09-5.31,1.37-10.56,3.05-15.86,4.48-2.66.71-4.19,1.91-2.97,5.09.11.27.06.61.09.91q.9,7.34,7.66,8.66c2.27.44,4.56.75,6.79,1.35,2,.54,4.05,1.47,4.35,3.94.26,2.2-1.21,3.75-2.86,4.8-2.22,1.42-4.47,3.07-6.91,3.75-3.81,1.06-5.4,2.84-3.84,7.01.36.97.33,2.11.47,3.17Zm-11.46-25.87c1.92.51,2.56-.26,2.07-2.39-.37-1.61-.5-3.29-.78-4.93-.26-1.54-1.1-2.1-2.46-1.39-2.43,1.27-4.87,2.52-7.22,3.95-1.88,1.14-1.66,2.4.38,2.97,2.61.73,5.29,1.19,8.02,1.79Zm8.39,8.52c.38,1.18-.49,3.98,2.18,3.58,2.71-.41,7.16-1.43,6.87-3.86-.31-2.64-4.93-1.29-7.54-2.29-1.69-.64-1.72.9-1.51,2.57Z"/>
  <path class="cls-15" d="m1269.5,146.02c-1.27-.29-2.92-.39-4.34-1.05-1.53-.71-2.66-1.92-1.18-3.96,2.43-3.34,1.27-5.42-2.1-6.98-2.23-1.03-4.36-2.41-6.35-3.91-1.3-.98-2.17-2.53-1.58-4.42.57-1.82,1.86-2.59,3.62-2.77,2.72-.27,5.83.9,7.8-2.37.24-.41,10.63,4.31,10.72,4.87.47,3.07-1.49,2.99-3.48,3.17-1.15.11-2.91-2.08-3.46.74-.43,2.15.62,3.33,2.47,4.21,2.49,1.19,4.87,2.67,7.22,4.18,1.28.82,2.14,2.13,1.93,3.85-.24,1.96-1.65,2.98-3.22,3.32-2.54.55-5.15.73-8.04,1.11Z"/>
  <path class="cls-15" d="m1451.93,1041.02c-7.89-.17-14.69.28-21.44-.97-2.91-.54-5.61-1.44-7.84-3.55-1.32-1.25-2.05-2.86-.83-4.45,1.22-1.6,2.56-.57,3.77.43,5.26,4.35,11.64,3.03,17.54,3.59,13.34,1.27,26.47-.81,39.57-3.59,9.32-1.98,18.8-3.07,28.22-4.45,4.35-.64,8.24-2.77,12.37-4.1,1.76-.57,3.65-1.28,4.46,1,.88,2.45-1.36,3.05-2.87,3.76-8.84,4.12-18.27,5.52-27.75,6.51-9.64,1.01-19.06,3.3-28.57,5.12-5.91,1.13-11.83.39-16.64.71Z"/>
  <path class="cls-4" d="m455.28,665.35c8.78-.28,17.07-.32,24.96,2.7,10.44,3.99,12.86,9.99,8.73,19.75-3.24,7.66-8.47,13.66-14.17,19.06-14.95,14.16-32.12,24.53-51.94,27.96-13.66,2.37-27.49.82-39.33-8.51-6.26-4.93-6.91-8.76-2.54-15.66,3.74-5.9,8.41-11.03,13.35-15.75,10.2-9.76,20.21-19.82,33.34-25.32,9.1-3.81,18.49-4.67,27.6-4.23Zm-30.61,45.39c-.11-.12-.23-.25-.34-.38,0-1.82,1.41-3,1.84-4.61.63-2.37.19-4.23-2.28-5.16-.94-.36-2.69.72-2.73-1.22-.03-1.39.96-2.56,2.19-3.23,1.58-.84,2.91-1.96,1.68-3.9-1.2-1.9-3.1-1.45-4.69-.55-2.62,1.49-3.57,4.32-4.58,7.06-1.06,2.85-.83,5.36,2.22,6.34,2.46.79,1.73,2.03,1.15,3.74-2.11,6.19.01,8.76,6.19,7.57,2.23-.43,5.38-.59,5.03-3.8-.42-3.84-3.67-1.47-5.68-1.84Zm-17.15,4.92c1.29-2.95,3.41-5.44,3.9-8.71.37-2.52.31-4.99-1.9-6.66-2.2-1.66-4.46-1.07-6.5.29-3.32,2.23-6.21,5.04-8.56,8.39-1.93,2.76-1.74,5.65-.14,8.62,2.42,4.49,6.81,7.21,9.09,11.85.65,1.31,2.43.98,3.57.25,3.04-1.94,5.91-4.32,6.1-8.4.17-3.68-3.15-4.28-5.57-5.64Zm28.97-22.55c3.79,2.91,5.92,6.58,9.47,8.41,3.96,2.04,6.06.82,5.6-3.69-.51-5.02-1.46-10-2.3-14.98-.29-1.71-.88-3.54-2.98-3.15-2.11.38-1.95,2.32-1.86,4.05.18,3.26,1.51,6.43.78,10.04-2.47-2.24-4.7-4.37-7.04-6.33-1.45-1.21-3.24-1.54-4.91-.62-1.77.98-1.93,2.87-1.87,4.81.17,5.59,2.65,10.65,3.29,16.17.26,2.25,2.33,2.7,3.97.99,1.41-1.47.93-3.51.55-5.26-.71-3.25-1.65-6.45-2.7-10.44Zm43.63-5.74c.08-4.17-2.59-7.71-7.57-10.16-1.87-.92-4.86-1.5-1.24-4.31,1.18-.91,1.54-2.29.59-3.64-1.1-1.56-2.49-1.15-3.86-.36-2.34,1.35-3.66,3.33-3.69,6.26-.04,3.79,2.47,5.36,5.16,6.59,2.42,1.11,5.45,1.91,5.22,5.23-.21,3.07-3.31,2.77-5.47,3.37-.82.23-1.77.5-2.32,1.1-1.42,1.54-1.18,3.11.62,4.1,3.98,2.17,12.47-3.4,12.55-8.19Zm-19.95,5.32c-1.12-4.87-.32-10.47-1.2-15.92-.28-1.72-.92-3.45-3.02-3.1-1.82.31-2.01,1.94-1.92,3.56.31,5.5.61,11.01.98,16.51.14,2.1.66,4.26,3.18,3.9,2.32-.33,2.07-2.53,1.97-4.95Z"/>
  <path class="cls-4" d="m408.15,305.19c-12.59.09-25.17,0-37.6-2.56-5-1.03-9.16-3.69-12.8-7.31-2.81-2.8-3.94-6.06-3.01-10.38,1.63-7.53,3.9-14.02,11.98-16.28,3.17-.89,4.78-4.67,7.75-6.46,15.27-9.18,31.62-15.69,47.86-22.51,13.95-5.85,28.49-9.21,43.28-10.78,15.34-1.62,29.52,3.4,42.03,12.76,8.23,6.15,8.21,18.22.63,27.1-5.02,5.88-11.2,10.31-17.62,14.11-19.63,11.63-40.9,18.38-62.97,22.15-6.35,1.08-13.01.17-19.52.17Zm10.34-29.7c-.05-7.51-2.78-13.32-9.43-16.55-2.27-1.1-4.71-1.8-6.82.29-4.71,4.65-8.07,10.23-9.91,16.83-1.94,6.93.13,10.94,6.67,12.49,1.26.3,2.56.51,3.85.58,8.77.45,15.72-5.35,15.66-13.65Z"/>
  <path class="cls-9" d="m1345.92,138.6c-2.73-.59-5.4-1.06-8.02-1.79-2.04-.57-2.25-1.82-.38-2.97,2.35-1.43,4.79-2.68,7.22-3.95,1.36-.71,2.2-.15,2.46,1.39.28,1.64.41,3.31.78,4.93.49,2.13-.15,2.9-2.07,2.39Z"/>
  <path class="cls-9" d="m1354.31,147.12c-.21-1.66-.18-3.21,1.51-2.57,2.61.99,7.23-.36,7.54,2.29.29,2.44-4.16,3.46-6.87,3.86-2.67.4-1.79-2.4-2.18-3.58Z"/>
  <path class="cls-5" d="m407.53,715.65c2.41,1.36,5.74,1.96,5.57,5.64-.19,4.08-3.06,6.45-6.1,8.4-1.14.73-2.92,1.07-3.57-.25-2.28-4.64-6.67-7.37-9.09-11.85-1.6-2.97-1.79-5.86.14-8.62,2.35-3.35,5.24-6.17,8.56-8.39,2.03-1.36,4.3-1.96,6.5-.29,2.21,1.67,2.27,4.14,1.9,6.66-.48,3.28-2.6,5.77-3.9,8.71Zm-1.02-10.66c-8.1,4.7-9.58,7.86-5.85,12.29,1.34-4.23,5.18-6.93,5.85-12.29Z"/>
  <path class="cls-5" d="m436.49,693.11c1.05,3.99,1.99,7.19,2.7,10.44.38,1.76.86,3.79-.55,5.26-1.64,1.71-3.71,1.26-3.97-.99-.64-5.52-3.12-10.57-3.29-16.17-.06-1.94.1-3.82,1.87-4.81,1.67-.93,3.46-.59,4.91.62,2.35,1.96,4.57,4.09,7.04,6.33.73-3.62-.6-6.79-.78-10.04-.1-1.72-.25-3.66,1.86-4.05,2.1-.38,2.69,1.45,2.98,3.15.84,4.98,1.79,9.95,2.3,14.98.46,4.51-1.64,5.74-5.6,3.69-3.56-1.84-5.69-5.51-9.47-8.41Z"/>
  <path class="cls-5" d="m480.13,687.36c-.09,4.78-8.57,10.36-12.55,8.19-1.81-.99-2.04-2.56-.62-4.1.55-.6,1.5-.88,2.32-1.1,2.16-.6,5.26-.3,5.47-3.37.23-3.32-2.8-4.12-5.22-5.23-2.68-1.23-5.19-2.8-5.16-6.59.03-2.93,1.35-4.91,3.69-6.26,1.37-.79,2.76-1.21,3.86.36.95,1.35.59,2.72-.59,3.64-3.62,2.81-.63,3.39,1.24,4.31,4.98,2.45,7.65,5.99,7.57,10.16Z"/>
  <path class="cls-5" d="m424.67,710.74c2.01.38,5.26-1.99,5.68,1.84.35,3.21-2.8,3.37-5.03,3.8-6.17,1.2-8.29-1.38-6.19-7.57.58-1.7,1.31-2.94-1.15-3.74-3.05-.98-3.28-3.49-2.22-6.34,1.02-2.74,1.97-5.57,4.58-7.06,1.59-.9,3.49-1.35,4.69.55,1.23,1.94-.1,3.06-1.68,3.9-1.24.66-2.22,1.83-2.19,3.23.04,1.94,1.79.86,2.73,1.22,2.46.93,2.9,2.79,2.28,5.16-.43,1.61-1.84,2.8-1.83,4.62-.51.21-.43.51-.07.79.03.02.26-.27.4-.41Z"/>
  <path class="cls-5" d="m460.17,692.68c.1,2.42.35,4.62-1.97,4.95-2.53.36-3.04-1.8-3.18-3.9-.36-5.5-.67-11.01-.98-16.51-.09-1.62.09-3.25,1.92-3.56,2.1-.35,2.74,1.38,3.02,3.1.88,5.45.08,11.04,1.2,15.92Z"/>
  <path class="cls-6" d="m418.49,275.48c.06,8.3-6.89,14.09-15.66,13.65-1.29-.07-2.59-.28-3.85-.58-6.54-1.55-8.61-5.56-6.67-12.49,1.85-6.61,5.2-12.18,9.91-16.83,2.12-2.09,4.55-1.39,6.82-.29,6.66,3.23,9.38,9.04,9.43,16.55Z"/>
  <path class="cls-3" d="m406.51,704.99c-.67,5.36-4.5,8.06-5.85,12.29-3.74-4.43-2.26-7.6,5.85-12.29Z"/>
  <path class="cls-4" d="m424.67,710.74c-.14.14-.38.43-.4.41-.36-.28-.44-.58.07-.79.11.13.22.25.33.38Z"/>
  <path class="cls-5" d="m408.09,309.75c-13,.23-26.01.35-38.82-2.6-5.66-1.3-10.5-4.33-14.6-8.59-3.96-4.11-5.71-8.83-4.16-15.01,2.06-8.17,5.66-13.92,12.77-18.98,22.4-15.93,47.18-25.73,72.47-34.29,11.6-3.92,23.72-6.61,36.12-6.3,13.82.34,26.4,5.24,37.69,13.32,11.11,7.96,11.76,23.24,1.95,34.51-6.56,7.54-14.65,13.02-23.17,17.66-18.62,10.13-38.48,16.44-59.01,20.08-6.9,1.22-14.15.19-21.24.19Zm.07-4.56c6.52,0,13.17.92,19.52-.17,22.06-3.77,43.33-10.52,62.97-22.15,6.43-3.81,12.6-8.24,17.62-14.11,7.58-8.88,7.6-20.95-.63-27.1-12.51-9.36-26.68-14.38-42.03-12.76-14.78,1.56-29.33,4.92-43.28,10.78-16.24,6.82-32.59,13.33-47.86,22.51-2.98,1.79-4.59,5.57-7.75,6.46-8.08,2.26-10.35,8.75-11.98,16.28-.93,4.32.2,7.58,3.01,10.38,3.64,3.63,7.8,6.29,12.8,7.31,12.43,2.55,25.01,2.65,37.6,2.56Z"/>
  <path class="cls-5" d="m407.15,311.29c-13.47.23-26.95.37-40.21-2.69-5.86-1.35-10.88-4.49-15.13-8.9-4.1-4.26-5.92-9.15-4.31-15.55,2.13-8.46,5.86-14.42,13.23-19.66,23.2-16.5,48.87-26.66,75.06-35.52,12.02-4.06,24.58-6.84,37.42-6.52,14.32.36,27.35,5.42,39.04,13.8,11.51,8.24,12.18,24.08,2.02,35.75-6.8,7.81-15.17,13.49-24,18.29-19.28,10.49-39.86,17.03-61.12,20.8-7.15,1.27-14.66.2-22.01.2Zm.07-4.72c6.75,0,13.64.95,20.22-.17,22.85-3.9,44.89-10.9,65.23-22.94,6.66-3.94,13.06-8.53,18.26-14.62,7.85-9.2,7.87-21.7-.65-28.07-12.96-9.69-27.64-14.9-43.53-13.22-15.31,1.62-30.38,5.1-44.83,11.16-16.82,7.06-33.76,13.81-49.57,23.32-3.09,1.86-4.75,5.77-8.03,6.69-8.37,2.34-10.72,9.07-12.41,16.87-.97,4.48.21,7.86,3.11,10.76,3.77,3.76,8.08,6.51,13.26,7.58,12.88,2.64,25.91,2.75,38.95,2.66Z"/>
  <g>
    <path class="cls-5" d="m1470.88,846.94c2.89-4.2,7.15-6.1,11.96-7.02,4.03-.77,6.51-2.65,6.6-7.22.11-5.75,3.73-9.59,7.72-13.35,9.42-8.87,20.13-12.37,33.21-10.99,11.79,1.24,23.37-2.18,34.88-4.64,6.66-1.42,8.11-1.09,10.35,5.06,5.48,15.04,16.67,21.06,31.94,21.26,3.32.04,6.63.44,9.94.64,2.3.14,4.24,1.07,5.58,2.88,5.75,7.75,14.07,11.98,22.29,16.34,4.84,2.57,9.83,4.92,14.11,8.36,6.25,5.03,5.86,8.52.75,14.46-12.23,14.2-27.95,16.93-45.46,15.53-12-.96-23.56-3.46-34.93-7.31-7.18-2.43-14.51-2.21-21.28,1.38-4.87,2.58-9.56,5.52-14.72,7.53h-4.99c-.54-2.27-2.56-1.67-4.04-2.01-7.61-1.76-14.75-4.86-19.8-10.77-4.73-5.53-10.71-7.38-17.2-9.55-10.11-3.37-22.18-4.25-26.89-16.59v-3.99Zm61.25-33.15c-17.27.87-16.44-2.32-31.25,9.95-3.31,2.75-5.85,5.95-5.92,9.74-.16,8.57-5.8,11.12-12.45,12.23-3.58.6-4.89,2.19-5.07,5.25-.18,3.16,2.15,4.7,4.65,5.64,1.8.67,3.63,1.3,5.42,1.97,5.56,2.08,10.9,4.8,17.17,5.06,2.97.12,6.29,1.21,8.81,4.32,4.41,5.46,9.62,10.47,16.44,12.93,7.04,2.54,14.04,5.2,21.22-.58,8.98-7.23,19.91-8.77,30.16-4.76,16.62,6.5,33.38,8.54,50.87,6.31,6.47-.82,13.34-.7,17.41-7.34.47-.76,1.62-1.07,2.37-1.68,2.53-2.09,6.46-3.99,6.1-7.3-.34-3.12-4.41-4.56-7.09-6.44-.37-.26-1.02-.09-1.44-.32-9.62-5.11-20.12-9.22-27.13-17.88-5.11-6.31-11.85-5.55-18-5.49-6.83.07-12.71-1.75-18.41-4.76-7.83-4.15-11.77-11.7-15.44-19.22-.81-1.66-1.48-2.86-2.91-2.18-2.55,1.21-5.23.47-7.79,1.19-9.41,2.63-18.95,4.31-27.72,3.37Z"/>
    <path class="cls-14" d="m1532.13,813.79c8.77.94,18.32-.74,27.72-3.37,2.56-.72,5.24.02,7.79-1.19,1.43-.68,2.1.52,2.91,2.18,3.67,7.52,7.61,15.08,15.44,19.22,5.7,3.02,11.58,4.83,18.41,4.76,6.15-.06,12.89-.82,18,5.49,7.01,8.65,17.51,12.76,27.13,17.88.42.22,1.07.06,1.44.32,2.68,1.89,6.75,3.33,7.09,6.44.36,3.31-3.56,5.21-6.1,7.3-.75.62-1.91.93-2.37,1.68-4.07,6.64-10.95,6.51-17.41,7.34-17.49,2.23-34.25.19-50.87-6.31-10.25-4.01-21.18-2.47-30.16,4.76-7.19,5.79-14.18,3.12-21.22.58-6.82-2.46-12.03-7.47-16.44-12.93-2.52-3.11-5.84-4.2-8.81-4.32-6.28-.25-11.62-2.98-17.17-5.06-1.79-.67-3.62-1.3-5.42-1.97-2.5-.93-4.83-2.48-4.65-5.64.18-3.06,1.49-4.65,5.07-5.25,6.65-1.11,12.29-3.66,12.45-12.23.07-3.79,2.61-7,5.92-9.74,14.81-12.27,13.98-9.08,31.25-9.95Z"/>
  </g>
</svg>