<?xml version="1.0" encoding="UTF-8"?>
<svg id="Layer_14" data-name="Layer 14" xmlns="http://www.w3.org/2000/svg" viewBox="0 0 240.77 101.15">
  <defs>
    <style>
      .cls-1 {
        fill: #fff;
      }

      .cls-1, .cls-2 {
        stroke-width: 0px;
      }

      .cls-2 {
        fill: #961d2f;
      }
    </style>
  </defs>
  <g>
    <path class="cls-2" d="m191.89,66.58c-1.75,2.05-3.34,3.71-5.17,5.1-1.53,1.16-3.14,2.15-5.02,2.67-2.94.82-5.81-.18-7.55-2.69-1.82-2.63-2.72-5.64-3.03-8.75-.88-8.67-.1-17.17,3.2-25.33.84-2.07,2.02-3.94,3.64-5.49,1.67-1.6,3.63-2.45,6-2.3,2.31.15,3.82,1.62,3.92,3.94.05,1.29-.28,2.5-.84,3.64-2.8,5.64-4.67,11.53-5.04,17.87-.09,1.52-.03,3.02.24,4.51.31,1.69,1.49,2.21,3.01,1.38.99-.54,1.68-1.42,2.36-2.29,2.87-3.68,4.32-8.02,5.73-12.38,1.22-3.77,2.18-7.65,3.94-11.22,1.17-2.37,2.75-4.36,5.44-5.08,3.49-.93,5.86.86,5.97,4.49.07,2.39-.44,4.7-1.06,6.98-2.78,10.32-4.44,20.82-5.31,31.47-.32,3.92-1.04,7.75-2.32,11.49-3.12,9.16-10.35,14.2-19.74,15.37-3.04.38-6.02.33-8.85-.96-2.75-1.25-4.58-3.24-4.63-6.46-.05-3.27,1.79-4.79,5.01-4.28,2.23.35,4.46.5,6.74.34,6.13-.42,9.68-3.9,11.49-9.48,1.28-3.94,1.22-8.09,1.86-12.54Z"/>
    <path class="cls-2" d="m233.24,30.99c3.1,0,6.25,2,7.21,6.03.76,3.18.48,6.3-1.34,9.14-1.17,1.83-2.94,2.32-4.98,2.05-1.92-.26-2.84-1.51-3.2-3.31-.08-.39-.2-.78-.26-1.17-.16-1.02-.79-1.37-1.72-1.2-2.29.44-4.26,1.47-5.72,3.34-.81,1.05-.71,2.01.37,2.87,1.75,1.38,3.67,2.46,5.65,3.44,1.76.87,3.46,1.82,5.04,3,6.1,4.57,4.89,10.74,1.19,14.98-3.5,4-8.24,5.76-13.39,6.51-3.38.49-6.7.37-9.92-.9-3.24-1.28-5.36-4.53-5.29-7.88.09-4.2,4.66-7.33,8.48-4.7,2.05,1.41,4.28,1.9,6.7,1.77.35-.02.71-.03,1.05-.1.8-.16,1.68-.42,1.94-1.24.29-.91-.64-1.28-1.2-1.7-1.68-1.22-3.61-1.95-5.47-2.84-2-.96-3.92-2.03-5.58-3.53-2.75-2.5-3.54-5.51-2.36-9.03,1.82-5.43,5.61-9.21,10.31-12.16,3.23-2.02,6.7-3.42,12.49-3.39Z"/>
    <path class="cls-2" d="m221.11,24.26c.04,2.61-.68,4.99-2.06,7.16-.82,1.29-1.89,2.34-3.45,2.73-3,.75-5.3-1.33-4.4-4.27.81-2.66,1.18-5.21.63-7.97-.36-1.79.69-3.3,2.19-3.88,1.95-.75,4.46-.11,5.78,1.44,1.19,1.4,1.39,3.07,1.33,4.79Z"/>
    <path class="cls-2" d="m108.06,43.25c2.2-2.17,4.27-4.35,6.72-6.12,1.94-1.4,4.02-2.47,6.41-2.81,3.19-.45,5.46,1.16,6.14,4.34.69,3.24-.01,6.41-.49,9.58-.56,3.74-1.24,7.46-.43,11.24.34,1.59.88,3.09,2.23,4.35.34-1.99.51-3.91.99-5.76,3.72-14.34,12.66-23.8,26.71-28.35,1.16-.38,1.55-.9,1.73-2.04,1.09-6.9,2.13-13.82,4.52-20.42,1.08-2.96,2.96-5.25,6.27-5.93,3.56-.74,5.73,1.25,4.92,4.78-1.26,5.53-2.76,11.01-4.11,16.52-.51,2.1-.87,4.23-1.32,6.34-.18.83,0,1.4.79,1.87,2.41,1.46,2.87,3.74,2.4,6.31-.45,2.49-1.91,4.06-4.47,4.42-.68.1-.8.47-.85,1.01-.61,6.46-1.53,12.9-1.25,19.41.1,2.5.64,4.87,1.95,7.04,1.94,3.21.87,6.79-2.5,8.46-3.1,1.54-6.27.69-8.13-2.21-2.01-3.12-2.62-6.59-2.47-10.24.01-.35,0-.7,0-1.36-1.82,1.97-3.57,3.65-5.56,5.06-3.64,2.59-7.45,4.73-12.07,4.98-2.32.12-4.3-.41-5.65-2.42-.49-.73-.75-.55-1.12.07-.58.97-1.46,1.66-2.38,2.27-3.43,2.25-7.06,1.49-9.21-2.01-1.64-2.67-2.23-5.67-2.6-8.74-.5-4.09-.02-8.14.41-12.19.12-1.11-.23-1.14-1.03-.76-2.19,1.02-3.64,2.8-4.86,4.8-2.47,4.05-3.63,8.58-4.74,13.13-.44,1.8-.83,3.64-1.49,5.36-1.08,2.81-3.15,4.49-6.24,4.67-2.14.12-3.29-.61-4.03-2.64-.96-2.66-.99-5.43-.83-8.2.47-8.42,2.12-16.64,4.5-24.71,1.07-3.62,2.62-6.98,5.96-9.14,1.4-.9,2.91-1.37,4.56-1.23,2.28.2,3.57,1.96,3.14,4.23-.4,2.04-1.29,3.91-2.05,5.82-.16.41-.32.81-.48,1.22Zm34.5,18.26c.58-.29,1.15-.62,1.67-1.01,5.98-4.5,9.65-10.51,11.48-17.71.09-.36.44-.82,0-1.09-.21-.13-.67.07-.99.19-3.87,1.47-6.9,4.06-9.4,7.29-2.52,3.26-4.51,6.78-4.8,10.44-.09,2.33.43,2.67,2.03,1.89Z"/>
    <path class="cls-2" d="m66.98,46.29c3.38-5.04,4.7-6.03,4.7-6.03,3.47-3.19,7.39-5.23,12.24-5.4,4.75-.17,7.08,3.63,7.16,7.2-.1,6.39-.35-2.85-4.13,1.95m-28.85,15.59c-1.3,5.48-5.09,22.18-6.52,27.62-1.32,5.07-6.86,7.61-11.72,5.54-1.92-.82-2.96-2.36-3.51-4.27-1.18-4.12-1.91-8.32-2.45-12.57-.81-6.34-1.31-12.71-1.49-19.1-.01-.36.16-.94-.38-1-.56-.06-.68.53-.81.94-1.38,4.26-2.55,8.57-3.66,12.91-2.08,8.13-4.2,16.25-6.18,24.4-.89,3.64-3.25,5.64-6.62,6.73-.27.09-.62-.03-.76.34h-4.82c-2.36-1.31-3.47-3.51-4.21-5.97-1.48-4.91-1.83-9.99-2.06-15.06-.53-11.64.24-23.24,1.04-34.84.34-4.96.93-9.92.45-14.92-.14-1.45-.54-2.76-1.44-3.9-.67-.85-.72-1.69.05-2.43,3.13-2.98,6.84-4.34,11.14-3.58,1.88.33,2.9,1.7,3.17,3.58.47,3.33-.11,6.63-.47,9.92-.87,7.9-1.83,15.79-2.3,23.72-.32,5.43-.71,10.85-.32,16.29.04.52-.14,1.29.54,1.41.78.14.91-.7,1.07-1.23,1.42-4.87,2.77-9.76,4.2-14.63,2.75-9.41,5.79-18.73,9.3-27.88.41-1.08.9-2.14,1.47-3.14,1.73-3.06,4.73-4.25,8.09-3.27,2.63.76,3.99,2.38,4.05,5.13.07,3.27,0,6.55-.02,9.82-.05,8.71.41,17.41.93,26.1.05.8.13,1.61.33,2.39.14.57-.02,1.54.87,1.52.69-.01.75-.85.87-1.42.33-1.52.63-3.05.93-4.58,2.77-14.11,5.81-28.15,10.22-41.86.65-2.01,1.36-4,2.37-5.86.41-.75.85-1.49,1.36-2.17,1.68-2.27,4.17-3.17,6.3-2.32,2.12.85,3.32,3.37,3,6.18-.23,1.98-1.09,3.76-1.75,5.59-4.01,11.13-3.94,10.72-6.82,22.17m29.54-3.84c1.95,16.9-4.14,30.6-4.5,31.5-2.65,6.68-10.88,11.12-17.85,9.47-4.56-1.08-7.38-4.39-8.17-8.69-1.43-7.83,1.26-17.66,6.42-28.06m5.05,25.26c4.12.65,7.16-3.74,9.01-10.65,1.86-6.94,2.62-14.84-.42-15.17-1.59-.17-3.69,1.16-5.73,3.9-2.08,2.79-5.23,8.26-5.67,15.26,0,0-.47,6.14,2.82,6.66Z"/>
  </g>
  <g>
    <path class="cls-1" d="m190.32,65.41c-1.75,2.05-3.34,3.71-5.17,5.1-1.53,1.16-3.14,2.15-5.02,2.67-2.94.82-5.81-.18-7.55-2.69-1.82-2.63-2.72-5.64-3.03-8.75-.88-8.67-.1-17.17,3.2-25.33.84-2.07,2.02-3.94,3.64-5.49,1.67-1.6,3.63-2.45,6-2.3,2.31.15,3.82,1.62,3.92,3.94.05,1.29-.28,2.5-.84,3.64-2.8,5.64-4.67,11.53-5.04,17.87-.09,1.52-.03,3.02.24,4.51.31,1.69,1.49,2.21,3.01,1.38.99-.54,1.68-1.42,2.36-2.29,2.87-3.68,4.32-8.02,5.73-12.38,1.22-3.77,2.18-7.65,3.94-11.22,1.17-2.37,2.75-4.36,5.44-5.08,3.49-.93,5.86.86,5.97,4.49.07,2.39-.44,4.7-1.06,6.98-2.78,10.32-4.44,20.82-5.31,31.47-.32,3.92-1.04,7.75-2.32,11.49-3.12,9.16-10.35,14.2-19.74,15.37-3.04.38-6.02.33-8.85-.96-2.75-1.25-4.58-3.24-4.63-6.46-.05-3.27,1.79-4.79,5.01-4.28,2.23.35,4.46.5,6.74.34,6.13-.42,9.68-3.9,11.49-9.48,1.28-3.94,1.22-8.09,1.86-12.54Z"/>
    <path class="cls-1" d="m231.68,29.81c3.1,0,6.25,2,7.21,6.03.76,3.18.48,6.3-1.34,9.14-1.17,1.83-2.94,2.32-4.98,2.05-1.92-.26-2.84-1.51-3.2-3.31-.08-.39-.2-.78-.26-1.17-.16-1.02-.79-1.37-1.72-1.2-2.29.44-4.26,1.47-5.72,3.34-.81,1.05-.71,2.01.37,2.87,1.75,1.38,3.67,2.46,5.65,3.44,1.76.87,3.46,1.82,5.04,3,6.1,4.57,4.89,10.74,1.19,14.98-3.5,4-8.24,5.76-13.39,6.51-3.38.49-6.7.37-9.92-.9-3.24-1.28-5.36-4.53-5.29-7.88.09-4.2,4.66-7.33,8.48-4.7,2.05,1.41,4.28,1.9,6.7,1.77.35-.02.71-.03,1.05-.1.8-.16,1.68-.42,1.94-1.24.29-.91-.64-1.28-1.2-1.7-1.68-1.22-3.61-1.95-5.47-2.84-2-.96-3.92-2.03-5.58-3.53-2.75-2.5-3.54-5.51-2.36-9.03,1.82-5.43,5.61-9.21,10.31-12.16,3.23-2.02,6.7-3.42,12.49-3.39Z"/>
    <path class="cls-1" d="m219.55,23.09c.04,2.61-.68,4.99-2.06,7.16-.82,1.29-1.89,2.34-3.45,2.73-3,.75-5.3-1.33-4.4-4.27.81-2.66,1.18-5.21.63-7.97-.36-1.79.69-3.3,2.19-3.88,1.95-.75,4.46-.11,5.78,1.44,1.19,1.4,1.39,3.07,1.33,4.79Z"/>
    <path class="cls-1" d="m106.5,42.07c2.2-2.17,4.27-4.35,6.72-6.12,1.94-1.4,4.02-2.47,6.41-2.81,3.19-.45,5.46,1.16,6.14,4.34.69,3.24-.01,6.41-.49,9.58-.56,3.74-1.24,7.46-.43,11.24.34,1.59.88,3.09,2.23,4.35.34-1.99.51-3.91.99-5.76,3.72-14.34,12.66-23.8,26.71-28.35,1.16-.38,1.55-.9,1.73-2.04,1.09-6.9,2.13-13.82,4.52-20.42,1.08-2.96,2.96-5.25,6.27-5.93,3.56-.74,5.73,1.25,4.92,4.78-1.26,5.53-2.76,11.01-4.11,16.52-.51,2.1-.87,4.23-1.32,6.34-.18.83,0,1.4.79,1.87,2.41,1.46,2.87,3.74,2.4,6.31-.45,2.49-1.91,4.06-4.47,4.42-.68.1-.8.47-.85,1.01-.61,6.46-1.53,12.9-1.25,19.41.1,2.5.64,4.87,1.95,7.04,1.94,3.21.87,6.79-2.5,8.46-3.1,1.54-6.27.69-8.13-2.21-2.01-3.12-2.62-6.59-2.47-10.24.01-.35,0-.7,0-1.36-1.82,1.97-3.57,3.65-5.56,5.06-3.64,2.59-7.45,4.73-12.07,4.98-2.32.12-4.3-.41-5.65-2.42-.49-.73-.75-.55-1.12.07-.58.97-1.46,1.66-2.38,2.27-3.43,2.25-7.06,1.49-9.21-2.01-1.64-2.67-2.23-5.67-2.6-8.74-.5-4.09-.02-8.14.41-12.19.12-1.11-.23-1.14-1.03-.76-2.19,1.02-3.64,2.8-4.86,4.8-2.47,4.05-3.63,8.58-4.74,13.13-.44,1.8-.83,3.64-1.49,5.36-1.08,2.81-3.15,4.49-6.24,4.67-2.14.12-3.29-.61-4.03-2.64-.96-2.66-.99-5.43-.83-8.2.47-8.42,2.12-16.64,4.5-24.71,1.07-3.62,2.62-6.98,5.96-9.14,1.4-.9,2.91-1.37,4.56-1.23,2.28.2,3.57,1.96,3.14,4.23-.4,2.04-1.29,3.91-2.05,5.82-.16.41-.32.81-.48,1.22Zm34.5,18.26c.58-.29,1.15-.62,1.67-1.01,5.98-4.5,9.65-10.51,11.48-17.71.09-.36.44-.82,0-1.09-.21-.13-.67.07-.99.19-3.87,1.47-6.9,4.06-9.4,7.29-2.52,3.26-4.51,6.78-4.8,10.44-.09,2.33.43,2.67,2.03,1.89Z"/>
    <path class="cls-1" d="m65.41,45.11c3.38-5.04,4.7-6.03,4.7-6.03,3.47-3.19,7.39-5.23,12.24-5.4,4.75-.17,7.08,3.63,7.16,7.2-.1,6.39-.35-2.85-4.13,1.95m-28.85,15.59c-1.3,5.48-5.09,22.18-6.52,27.62-1.32,5.07-6.86,7.61-11.72,5.54-1.92-.82-2.96-2.36-3.51-4.27-1.18-4.12-1.91-8.32-2.45-12.57-.81-6.34-1.31-12.71-1.49-19.1-.01-.36.16-.94-.38-1-.56-.06-.68.53-.81.94-1.38,4.26-2.55,8.57-3.66,12.91-2.08,8.13-4.2,16.25-6.18,24.4-.89,3.64-3.25,5.64-6.62,6.73-.27.09-.62-.03-.76.34h-4.82c-2.36-1.31-3.47-3.51-4.21-5.97-1.48-4.91-1.83-9.99-2.06-15.06-.53-11.64.24-23.24,1.04-34.84.34-4.96.93-9.92.45-14.92-.14-1.45-.54-2.76-1.44-3.9-.67-.85-.72-1.69.05-2.43,3.13-2.98,6.84-4.34,11.14-3.58,1.88.33,2.9,1.7,3.17,3.58.47,3.33-.11,6.63-.47,9.92-.87,7.9-1.83,15.79-2.3,23.72-.32,5.43-.71,10.85-.32,16.29.04.52-.14,1.29.54,1.41.78.14.91-.7,1.07-1.23,1.42-4.87,2.77-9.76,4.2-14.63,2.75-9.41,5.79-18.73,9.3-27.88.41-1.08.9-2.14,1.47-3.14,1.73-3.06,4.73-4.25,8.09-3.27,2.63.76,3.99,2.38,4.05,5.13.07,3.27,0,6.55-.02,9.82-.05,8.71.41,17.41.93,26.1.05.8.13,1.61.33,2.39.14.57-.02,1.54.87,1.52.69-.01.75-.85.87-1.42.33-1.52.63-3.05.93-4.58,2.77-14.11,5.81-28.15,10.22-41.86.65-2.01,1.36-4,2.37-5.86.41-.75.85-1.49,1.36-2.17,1.68-2.27,4.17-3.17,6.3-2.32,2.12.85,3.32,3.37,3,6.18-.23,1.98-1.09,3.76-1.75,5.59-4.01,11.13-3.94,10.72-6.82,22.17m29.54-3.84c1.95,16.9-4.14,30.6-4.5,31.5-2.65,6.68-10.88,11.12-17.85,9.47-4.56-1.08-7.38-4.39-8.17-8.69-1.43-7.83,1.26-17.66,6.42-28.06m5.05,25.26c4.12.65,7.16-3.74,9.01-10.65,1.86-6.94,2.62-14.84-.42-15.17-1.59-.17-3.69,1.16-5.73,3.9s-5.23,8.26-5.67,15.26c0,0-.47,6.14,2.82,6.66Z"/>
  </g>
</svg>